<svg version="1.1" xmlns="http://www.w3.org/2000/svg" xmlns:xlink="http://www.w3.org/1999/xlink" width="621.21728515625" height="367"><defs/><g><text fill="#eeeeee" stroke="none" font-family="Arial" font-size="24px" font-style="normal" font-weight="normal" text-decoration="none" x="0" y="0">UNREGISTERED</text><text fill="#eeeeee" stroke="none" font-family="Arial" font-size="24px" font-style="normal" font-weight="normal" text-decoration="none" x="0" y="30">UNREGISTERED</text><text fill="#eeeeee" stroke="none" font-family="Arial" font-size="24px" font-style="normal" font-weight="normal" text-decoration="none" x="0" y="60">UNREGISTERED</text><text fill="#eeeeee" stroke="none" font-family="Arial" font-size="24px" font-style="normal" font-weight="normal" text-decoration="none" x="0" y="90">UNREGISTERED</text><text fill="#eeeeee" stroke="none" font-family="Arial" font-size="24px" font-style="normal" font-weight="normal" text-decoration="none" x="0" y="120">UNREGISTERED</text><text fill="#eeeeee" stroke="none" font-family="Arial" font-size="24px" font-style="normal" font-weight="normal" text-decoration="none" x="0" y="150">UNREGISTERED</text><text fill="#eeeeee" stroke="none" font-family="Arial" font-size="24px" font-style="normal" font-weight="normal" text-decoration="none" x="0" y="180">UNREGISTERED</text><text fill="#eeeeee" stroke="none" font-family="Arial" font-size="24px" font-style="normal" font-weight="normal" text-decoration="none" x="0" y="210">UNREGISTERED</text><text fill="#eeeeee" stroke="none" font-family="Arial" font-size="24px" font-style="normal" font-weight="normal" text-decoration="none" x="0" y="240">UNREGISTERED</text><text fill="#eeeeee" stroke="none" font-family="Arial" font-size="24px" font-style="normal" font-weight="normal" text-decoration="none" x="0" y="270">UNREGISTERED</text><text fill="#eeeeee" stroke="none" font-family="Arial" font-size="24px" font-style="normal" font-weight="normal" text-decoration="none" x="0" y="300">UNREGISTERED</text><text fill="#eeeeee" stroke="none" font-family="Arial" font-size="24px" font-style="normal" font-weight="normal" text-decoration="none" x="0" y="330">UNREGISTERED</text><text fill="#eeeeee" stroke="none" font-family="Arial" font-size="24px" font-style="normal" font-weight="normal" text-decoration="none" x="0" y="360">UNREGISTERED</text><text fill="#eeeeee" stroke="none" font-family="Arial" font-size="24px" font-style="normal" font-weight="normal" text-decoration="none" x="200" y="0">UNREGISTERED</text><text fill="#eeeeee" stroke="none" font-family="Arial" font-size="24px" font-style="normal" font-weight="normal" text-decoration="none" x="200" y="30">UNREGISTERED</text><text fill="#eeeeee" stroke="none" font-family="Arial" font-size="24px" font-style="normal" font-weight="normal" text-decoration="none" x="200" y="60">UNREGISTERED</text><text fill="#eeeeee" stroke="none" font-family="Arial" font-size="24px" font-style="normal" font-weight="normal" text-decoration="none" x="200" y="90">UNREGISTERED</text><text fill="#eeeeee" stroke="none" font-family="Arial" font-size="24px" font-style="normal" font-weight="normal" text-decoration="none" x="200" y="120">UNREGISTERED</text><text fill="#eeeeee" stroke="none" font-family="Arial" font-size="24px" font-style="normal" font-weight="normal" text-decoration="none" x="200" y="150">UNREGISTERED</text><text fill="#eeeeee" stroke="none" font-family="Arial" font-size="24px" font-style="normal" font-weight="normal" text-decoration="none" x="200" y="180">UNREGISTERED</text><text fill="#eeeeee" stroke="none" font-family="Arial" font-size="24px" font-style="normal" font-weight="normal" text-decoration="none" x="200" y="210">UNREGISTERED</text><text fill="#eeeeee" stroke="none" font-family="Arial" font-size="24px" font-style="normal" font-weight="normal" text-decoration="none" x="200" y="240">UNREGISTERED</text><text fill="#eeeeee" stroke="none" font-family="Arial" font-size="24px" font-style="normal" font-weight="normal" text-decoration="none" x="200" y="270">UNREGISTERED</text><text fill="#eeeeee" stroke="none" font-family="Arial" font-size="24px" font-style="normal" font-weight="normal" text-decoration="none" x="200" y="300">UNREGISTERED</text><text fill="#eeeeee" stroke="none" font-family="Arial" font-size="24px" font-style="normal" font-weight="normal" text-decoration="none" x="200" y="330">UNREGISTERED</text><text fill="#eeeeee" stroke="none" font-family="Arial" font-size="24px" font-style="normal" font-weight="normal" text-decoration="none" x="200" y="360">UNREGISTERED</text><text fill="#eeeeee" stroke="none" font-family="Arial" font-size="24px" font-style="normal" font-weight="normal" text-decoration="none" x="400" y="0">UNREGISTERED</text><text fill="#eeeeee" stroke="none" font-family="Arial" font-size="24px" font-style="normal" font-weight="normal" text-decoration="none" x="400" y="30">UNREGISTERED</text><text fill="#eeeeee" stroke="none" font-family="Arial" font-size="24px" font-style="normal" font-weight="normal" text-decoration="none" x="400" y="60">UNREGISTERED</text><text fill="#eeeeee" stroke="none" font-family="Arial" font-size="24px" font-style="normal" font-weight="normal" text-decoration="none" x="400" y="90">UNREGISTERED</text><text fill="#eeeeee" stroke="none" font-family="Arial" font-size="24px" font-style="normal" font-weight="normal" text-decoration="none" x="400" y="120">UNREGISTERED</text><text fill="#eeeeee" stroke="none" font-family="Arial" font-size="24px" font-style="normal" font-weight="normal" text-decoration="none" x="400" y="150">UNREGISTERED</text><text fill="#eeeeee" stroke="none" font-family="Arial" font-size="24px" font-style="normal" font-weight="normal" text-decoration="none" x="400" y="180">UNREGISTERED</text><text fill="#eeeeee" stroke="none" font-family="Arial" font-size="24px" font-style="normal" font-weight="normal" text-decoration="none" x="400" y="210">UNREGISTERED</text><text fill="#eeeeee" stroke="none" font-family="Arial" font-size="24px" font-style="normal" font-weight="normal" text-decoration="none" x="400" y="240">UNREGISTERED</text><text fill="#eeeeee" stroke="none" font-family="Arial" font-size="24px" font-style="normal" font-weight="normal" text-decoration="none" x="400" y="270">UNREGISTERED</text><text fill="#eeeeee" stroke="none" font-family="Arial" font-size="24px" font-style="normal" font-weight="normal" text-decoration="none" x="400" y="300">UNREGISTERED</text><text fill="#eeeeee" stroke="none" font-family="Arial" font-size="24px" font-style="normal" font-weight="normal" text-decoration="none" x="400" y="330">UNREGISTERED</text><text fill="#eeeeee" stroke="none" font-family="Arial" font-size="24px" font-style="normal" font-weight="normal" text-decoration="none" x="400" y="360">UNREGISTERED</text><text fill="#eeeeee" stroke="none" font-family="Arial" font-size="24px" font-style="normal" font-weight="normal" text-decoration="none" x="600" y="0">UNREGISTERED</text><text fill="#eeeeee" stroke="none" font-family="Arial" font-size="24px" font-style="normal" font-weight="normal" text-decoration="none" x="600" y="30">UNREGISTERED</text><text fill="#eeeeee" stroke="none" font-family="Arial" font-size="24px" font-style="normal" font-weight="normal" text-decoration="none" x="600" y="60">UNREGISTERED</text><text fill="#eeeeee" stroke="none" font-family="Arial" font-size="24px" font-style="normal" font-weight="normal" text-decoration="none" x="600" y="90">UNREGISTERED</text><text fill="#eeeeee" stroke="none" font-family="Arial" font-size="24px" font-style="normal" font-weight="normal" text-decoration="none" x="600" y="120">UNREGISTERED</text><text fill="#eeeeee" stroke="none" font-family="Arial" font-size="24px" font-style="normal" font-weight="normal" text-decoration="none" x="600" y="150">UNREGISTERED</text><text fill="#eeeeee" stroke="none" font-family="Arial" font-size="24px" font-style="normal" font-weight="normal" text-decoration="none" x="600" y="180">UNREGISTERED</text><text fill="#eeeeee" stroke="none" font-family="Arial" font-size="24px" font-style="normal" font-weight="normal" text-decoration="none" x="600" y="210">UNREGISTERED</text><text fill="#eeeeee" stroke="none" font-family="Arial" font-size="24px" font-style="normal" font-weight="normal" text-decoration="none" x="600" y="240">UNREGISTERED</text><text fill="#eeeeee" stroke="none" font-family="Arial" font-size="24px" font-style="normal" font-weight="normal" text-decoration="none" x="600" y="270">UNREGISTERED</text><text fill="#eeeeee" stroke="none" font-family="Arial" font-size="24px" font-style="normal" font-weight="normal" text-decoration="none" x="600" y="300">UNREGISTERED</text><text fill="#eeeeee" stroke="none" font-family="Arial" font-size="24px" font-style="normal" font-weight="normal" text-decoration="none" x="600" y="330">UNREGISTERED</text><text fill="#eeeeee" stroke="none" font-family="Arial" font-size="24px" font-style="normal" font-weight="normal" text-decoration="none" x="600" y="360">UNREGISTERED</text><g transform="translate(-78,-254) scale(1,1)"><rect fill="#C0C0C0" stroke="none" x="393" y="311" width="198.18798828125" height="52" opacity="0.2"/></g><g transform="translate(-78,-254) scale(1,1)"><rect fill="#ffffff" stroke="none" x="386" y="304" width="198.18798828125" height="52"/></g><g transform="translate(-78,-254) scale(1,1)"><path fill="none" stroke="#000000" d="M 386 304 L 584.18798828125 304 L 584.18798828125 356 L 386 356 L 386 304 Z Z" stroke-miterlimit="10"/></g><g transform="translate(-78,-254) scale(1,1)"><rect fill="#ffffff" stroke="none" x="376" y="311" width="20" height="10"/></g><g transform="translate(-78,-254) scale(1,1)"><path fill="none" stroke="#000000" d="M 376 311 L 396 311 L 396 321 L 376 321 L 376 311 Z Z" stroke-miterlimit="10"/></g><g transform="translate(-78,-254) scale(1,1)"><rect fill="#ffffff" stroke="none" x="376" y="331" width="20" height="10"/></g><g transform="translate(-78,-254) scale(1,1)"><path fill="none" stroke="#000000" d="M 376 331 L 396 331 L 396 341 L 376 341 L 376 331 Z Z" stroke-miterlimit="10"/></g><g transform="translate(-78,-254) scale(1,1)"><g><path fill="none" stroke="none"/><text fill="#000000" stroke="none" font-family="Arial" font-size="13px" font-style="normal" font-weight="normal" text-decoration="none" x="455.0390625" y="319.7099609375">«Database»</text></g></g><g transform="translate(-78,-254) scale(1,1)"><g><path fill="none" stroke="none"/><text fill="#000000" stroke="none" font-family="Arial" font-size="13px" font-style="normal" font-weight="bold" text-decoration="none" x="458.79052734375" y="334.7099609375">Tactile DB</text></g></g><g transform="translate(-78,-254) scale(1,1)"><path fill="#ffffff" stroke="none" d="M 117.51846075994318 284.23 C 117.51846075994318 278.027841696 122.48370373070681 273 128.608642578125 273 C 134.73358142554318 273 139.69882439630683 278.027841696 139.69882439630683 284.23 C 139.69882439630683 290.43215830400004 134.73358142554318 295.46 128.608642578125 295.46 C 122.48370373070681 295.46 117.51846075994318 290.43215830400004 117.51846075994318 284.23 Z"/></g><g transform="translate(-78,-254) scale(1,1)"><path fill="none" stroke="#000000" d="M 117.51846075994318 284.23 C 117.51846075994318 278.027841696 122.48370373070681 273 128.608642578125 273 C 134.73358142554318 273 139.69882439630683 278.027841696 139.69882439630683 284.23 C 139.69882439630683 290.43215830400004 134.73358142554318 295.46 128.608642578125 295.46 C 122.48370373070681 295.46 117.51846075994318 290.43215830400004 117.51846075994318 284.23 Z" stroke-miterlimit="10"/></g><g transform="translate(-78,-254) scale(1,1)"><path fill="none" stroke="#000000" d="M 128.608642578125 295.46 L 128.608642578125 317.54" stroke-miterlimit="10"/></g><g transform="translate(-78,-254) scale(1,1)"><path fill="none" stroke="#000000" d="M 116.86609712357955 303.74 L 140.35118803267045 303.74" stroke-miterlimit="10"/></g><g transform="translate(-78,-254) scale(1,1)"><path fill="none" stroke="#000000" d="M 128.608642578125 317.54 L 112.29955166903409 340" stroke-miterlimit="10"/></g><g transform="translate(-78,-254) scale(1,1)"><path fill="none" stroke="#000000" d="M 128.608642578125 317.54 L 144.9177334872159 340" stroke-miterlimit="10"/></g><g transform="translate(-78,-254) scale(1,1)"><g><path fill="none" stroke="none"/><text fill="#000000" stroke="none" font-family="Arial" font-size="13px" font-style="normal" font-weight="bold" text-decoration="none" x="108.38818359375" y="358.7099609375">Admin</text></g></g><g transform="translate(-78,-254) scale(1,1)"><path fill="#ffffff" stroke="none" d="M 637.5184607599432 276.23 C 637.5184607599432 270.027841696 642.4837037307068 265 648.608642578125 265 C 654.7335814255432 265 659.6988243963068 270.027841696 659.6988243963068 276.23 C 659.6988243963068 282.43215830400004 654.7335814255432 287.46 648.608642578125 287.46 C 642.4837037307068 287.46 637.5184607599432 282.43215830400004 637.5184607599432 276.23 Z"/></g><g transform="translate(-78,-254) scale(1,1)"><path fill="none" stroke="#000000" d="M 637.5184607599432 276.23 C 637.5184607599432 270.027841696 642.4837037307068 265 648.608642578125 265 C 654.7335814255432 265 659.6988243963068 270.027841696 659.6988243963068 276.23 C 659.6988243963068 282.43215830400004 654.7335814255432 287.46 648.608642578125 287.46 C 642.4837037307068 287.46 637.5184607599432 282.43215830400004 637.5184607599432 276.23 Z" stroke-miterlimit="10"/></g><g transform="translate(-78,-254) scale(1,1)"><path fill="none" stroke="#000000" d="M 648.608642578125 287.46 L 648.608642578125 309.54" stroke-miterlimit="10"/></g><g transform="translate(-78,-254) scale(1,1)"><path fill="none" stroke="#000000" d="M 636.8660971235796 295.74 L 660.3511880326704 295.74" stroke-miterlimit="10"/></g><g transform="translate(-78,-254) scale(1,1)"><path fill="none" stroke="#000000" d="M 648.608642578125 309.54 L 632.2995516690341 332" stroke-miterlimit="10"/></g><g transform="translate(-78,-254) scale(1,1)"><path fill="none" stroke="#000000" d="M 648.608642578125 309.54 L 664.9177334872159 332" stroke-miterlimit="10"/></g><g transform="translate(-78,-254) scale(1,1)"><g><path fill="none" stroke="none"/><text fill="#000000" stroke="none" font-family="Arial" font-size="13px" font-style="normal" font-weight="bold" text-decoration="none" x="634.155029296875" y="350.471923828125">User</text></g></g><g transform="translate(-78,-254) scale(1,1)"><rect fill="#C0C0C0" stroke="none" x="193" y="311" width="172.17529296875" height="52" opacity="0.2"/></g><g transform="translate(-78,-254) scale(1,1)"><rect fill="#ffffff" stroke="none" x="186" y="304" width="172.17529296875" height="52"/></g><g transform="translate(-78,-254) scale(1,1)"><path fill="none" stroke="#000000" d="M 186 304 L 358.17529296875 304 L 358.17529296875 356 L 186 356 L 186 304 Z Z" stroke-miterlimit="10"/></g><g transform="translate(-78,-254) scale(1,1)"><rect fill="#ffffff" stroke="none" x="176" y="311" width="20" height="10"/></g><g transform="translate(-78,-254) scale(1,1)"><path fill="none" stroke="#000000" d="M 176 311 L 196 311 L 196 321 L 176 321 L 176 311 Z Z" stroke-miterlimit="10"/></g><g transform="translate(-78,-254) scale(1,1)"><rect fill="#ffffff" stroke="none" x="176" y="331" width="20" height="10"/></g><g transform="translate(-78,-254) scale(1,1)"><path fill="none" stroke="#000000" d="M 176 331 L 196 331 L 196 341 L 176 341 L 176 331 Z Z" stroke-miterlimit="10"/></g><g transform="translate(-78,-254) scale(1,1)"><g><path fill="none" stroke="none"/><text fill="#000000" stroke="none" font-family="Arial" font-size="13px" font-style="normal" font-weight="normal" text-decoration="none" x="236.253173828125" y="319.53857421875">«Component»</text></g></g><g transform="translate(-78,-254) scale(1,1)"><g><path fill="none" stroke="none"/><text fill="#000000" stroke="none" font-family="Arial" font-size="13px" font-style="normal" font-weight="bold" text-decoration="none" x="223.7451171875" y="334.7099609375">Tactile Translator</text></g></g><g transform="translate(-78,-254) scale(1,1)"><path fill="none" stroke="#000000" d="M 128 368 L 128 609" stroke-miterlimit="10" stroke-dasharray="6,4"/></g><g transform="translate(-78,-254) scale(1,1)"><path fill="none" stroke="#000000" d="M 272 368 L 273 610" stroke-miterlimit="10" stroke-dasharray="6,4"/></g><g transform="translate(-78,-254) scale(1,1)"><path fill="none" stroke="#000000" d="M 480 368 L 478 609" stroke-miterlimit="10" stroke-dasharray="6,4"/></g><g transform="translate(-78,-254) scale(1,1)"><path fill="none" stroke="#000000" d="M 648 368 L 647 610" stroke-miterlimit="10" stroke-dasharray="6,4"/></g><g transform="translate(-78,-254) scale(1,1)"><rect fill="#ffffff" stroke="none" x="264" y="384" width="15" height="63"/></g><g transform="translate(-78,-254) scale(1,1)"><path fill="none" stroke="#000000" d="M 264 384 L 279 384 L 279 447 L 264 447 L 264 384 Z Z" stroke-miterlimit="10"/></g><g transform="translate(-78,-254) scale(1,1)"><rect fill="#ffffff" stroke="none" x="472" y="448" width="15" height="63"/></g><g transform="translate(-78,-254) scale(1,1)"><path fill="none" stroke="#000000" d="M 472 448 L 487 448 L 487 511 L 472 511 L 472 448 Z Z" stroke-miterlimit="10"/></g><g transform="translate(-78,-254) scale(1,1)"><rect fill="#ffffff" stroke="none" x="640" y="512" width="15" height="63"/></g><g transform="translate(-78,-254) scale(1,1)"><path fill="none" stroke="#000000" d="M 640 512 L 655 512 L 655 575 L 640 575 L 640 512 Z Z" stroke-miterlimit="10"/></g><g transform="translate(-78,-254) scale(1,1)"><path fill="none" stroke="#000000" d="M 128 384 L 257 384" stroke-miterlimit="10"/></g><g transform="translate(-78,-254) scale(1,1)"><path fill="#000000" stroke="none" d="M 246.83732514237585 388.209517756016 L 257 384 L 246.83732514237585 379.790482243984"/></g><g transform="translate(-78,-254) scale(1,1)"><path fill="none" stroke="#000000" d="M 246.83732514237585 388.209517756016 L 257 384 L 246.83732514237585 379.790482243984 L 246.83732514237585 388.209517756016" stroke-miterlimit="10"/></g><g transform="translate(-78,-254) scale(1,1)"><path fill="none" stroke="#000000" d="M 288 448 L 462 448" stroke-miterlimit="10"/></g><g transform="translate(-78,-254) scale(1,1)"><path fill="#000000" stroke="none" d="M 451.83732514237585 452.209517756016 L 462 448 L 451.83732514237585 443.790482243984"/></g><g transform="translate(-78,-254) scale(1,1)"><path fill="none" stroke="#000000" d="M 451.83732514237585 452.209517756016 L 462 448 L 451.83732514237585 443.790482243984 L 451.83732514237585 452.209517756016" stroke-miterlimit="10"/></g><g transform="translate(-78,-254) scale(1,1)"><path fill="none" stroke="#000000" d="M 496 512 L 630 511" stroke-miterlimit="10"/></g><g transform="translate(-78,-254) scale(1,1)"><path fill="#000000" stroke="none" d="M 619.8690215557198 515.285239288713 L 630 511 L 619.8061946819387 506.86643820205074"/></g><g transform="translate(-78,-254) scale(1,1)"><path fill="none" stroke="#000000" d="M 619.8690215557198 515.285239288713 L 630 511 L 619.8061946819387 506.86643820205074 L 619.8690215557198 515.285239288713" stroke-miterlimit="10"/></g></g></svg>