<svg version="1.1" xmlns="http://www.w3.org/2000/svg" xmlns:xlink="http://www.w3.org/1999/xlink" width="716.49169921875" height="580"><defs/><g><text fill="#eeeeee" stroke="none" font-family="Arial" font-size="24px" font-style="normal" font-weight="normal" text-decoration="none" x="0" y="0">UNREGISTERED</text><text fill="#eeeeee" stroke="none" font-family="Arial" font-size="24px" font-style="normal" font-weight="normal" text-decoration="none" x="0" y="30">UNREGISTERED</text><text fill="#eeeeee" stroke="none" font-family="Arial" font-size="24px" font-style="normal" font-weight="normal" text-decoration="none" x="0" y="60">UNREGISTERED</text><text fill="#eeeeee" stroke="none" font-family="Arial" font-size="24px" font-style="normal" font-weight="normal" text-decoration="none" x="0" y="90">UNREGISTERED</text><text fill="#eeeeee" stroke="none" font-family="Arial" font-size="24px" font-style="normal" font-weight="normal" text-decoration="none" x="0" y="120">UNREGISTERED</text><text fill="#eeeeee" stroke="none" font-family="Arial" font-size="24px" font-style="normal" font-weight="normal" text-decoration="none" x="0" y="150">UNREGISTERED</text><text fill="#eeeeee" stroke="none" font-family="Arial" font-size="24px" font-style="normal" font-weight="normal" text-decoration="none" x="0" y="180">UNREGISTERED</text><text fill="#eeeeee" stroke="none" font-family="Arial" font-size="24px" font-style="normal" font-weight="normal" text-decoration="none" x="0" y="210">UNREGISTERED</text><text fill="#eeeeee" stroke="none" font-family="Arial" font-size="24px" font-style="normal" font-weight="normal" text-decoration="none" x="0" y="240">UNREGISTERED</text><text fill="#eeeeee" stroke="none" font-family="Arial" font-size="24px" font-style="normal" font-weight="normal" text-decoration="none" x="0" y="270">UNREGISTERED</text><text fill="#eeeeee" stroke="none" font-family="Arial" font-size="24px" font-style="normal" font-weight="normal" text-decoration="none" x="0" y="300">UNREGISTERED</text><text fill="#eeeeee" stroke="none" font-family="Arial" font-size="24px" font-style="normal" font-weight="normal" text-decoration="none" x="0" y="330">UNREGISTERED</text><text fill="#eeeeee" stroke="none" font-family="Arial" font-size="24px" font-style="normal" font-weight="normal" text-decoration="none" x="0" y="360">UNREGISTERED</text><text fill="#eeeeee" stroke="none" font-family="Arial" font-size="24px" font-style="normal" font-weight="normal" text-decoration="none" x="0" y="390">UNREGISTERED</text><text fill="#eeeeee" stroke="none" font-family="Arial" font-size="24px" font-style="normal" font-weight="normal" text-decoration="none" x="0" y="420">UNREGISTERED</text><text fill="#eeeeee" stroke="none" font-family="Arial" font-size="24px" font-style="normal" font-weight="normal" text-decoration="none" x="0" y="450">UNREGISTERED</text><text fill="#eeeeee" stroke="none" font-family="Arial" font-size="24px" font-style="normal" font-weight="normal" text-decoration="none" x="0" y="480">UNREGISTERED</text><text fill="#eeeeee" stroke="none" font-family="Arial" font-size="24px" font-style="normal" font-weight="normal" text-decoration="none" x="0" y="510">UNREGISTERED</text><text fill="#eeeeee" stroke="none" font-family="Arial" font-size="24px" font-style="normal" font-weight="normal" text-decoration="none" x="0" y="540">UNREGISTERED</text><text fill="#eeeeee" stroke="none" font-family="Arial" font-size="24px" font-style="normal" font-weight="normal" text-decoration="none" x="0" y="570">UNREGISTERED</text><text fill="#eeeeee" stroke="none" font-family="Arial" font-size="24px" font-style="normal" font-weight="normal" text-decoration="none" x="200" y="0">UNREGISTERED</text><text fill="#eeeeee" stroke="none" font-family="Arial" font-size="24px" font-style="normal" font-weight="normal" text-decoration="none" x="200" y="30">UNREGISTERED</text><text fill="#eeeeee" stroke="none" font-family="Arial" font-size="24px" font-style="normal" font-weight="normal" text-decoration="none" x="200" y="60">UNREGISTERED</text><text fill="#eeeeee" stroke="none" font-family="Arial" font-size="24px" font-style="normal" font-weight="normal" text-decoration="none" x="200" y="90">UNREGISTERED</text><text fill="#eeeeee" stroke="none" font-family="Arial" font-size="24px" font-style="normal" font-weight="normal" text-decoration="none" x="200" y="120">UNREGISTERED</text><text fill="#eeeeee" stroke="none" font-family="Arial" font-size="24px" font-style="normal" font-weight="normal" text-decoration="none" x="200" y="150">UNREGISTERED</text><text fill="#eeeeee" stroke="none" font-family="Arial" font-size="24px" font-style="normal" font-weight="normal" text-decoration="none" x="200" y="180">UNREGISTERED</text><text fill="#eeeeee" stroke="none" font-family="Arial" font-size="24px" font-style="normal" font-weight="normal" text-decoration="none" x="200" y="210">UNREGISTERED</text><text fill="#eeeeee" stroke="none" font-family="Arial" font-size="24px" font-style="normal" font-weight="normal" text-decoration="none" x="200" y="240">UNREGISTERED</text><text fill="#eeeeee" stroke="none" font-family="Arial" font-size="24px" font-style="normal" font-weight="normal" text-decoration="none" x="200" y="270">UNREGISTERED</text><text fill="#eeeeee" stroke="none" font-family="Arial" font-size="24px" font-style="normal" font-weight="normal" text-decoration="none" x="200" y="300">UNREGISTERED</text><text fill="#eeeeee" stroke="none" font-family="Arial" font-size="24px" font-style="normal" font-weight="normal" text-decoration="none" x="200" y="330">UNREGISTERED</text><text fill="#eeeeee" stroke="none" font-family="Arial" font-size="24px" font-style="normal" font-weight="normal" text-decoration="none" x="200" y="360">UNREGISTERED</text><text fill="#eeeeee" stroke="none" font-family="Arial" font-size="24px" font-style="normal" font-weight="normal" text-decoration="none" x="200" y="390">UNREGISTERED</text><text fill="#eeeeee" stroke="none" font-family="Arial" font-size="24px" font-style="normal" font-weight="normal" text-decoration="none" x="200" y="420">UNREGISTERED</text><text fill="#eeeeee" stroke="none" font-family="Arial" font-size="24px" font-style="normal" font-weight="normal" text-decoration="none" x="200" y="450">UNREGISTERED</text><text fill="#eeeeee" stroke="none" font-family="Arial" font-size="24px" font-style="normal" font-weight="normal" text-decoration="none" x="200" y="480">UNREGISTERED</text><text fill="#eeeeee" stroke="none" font-family="Arial" font-size="24px" font-style="normal" font-weight="normal" text-decoration="none" x="200" y="510">UNREGISTERED</text><text fill="#eeeeee" stroke="none" font-family="Arial" font-size="24px" font-style="normal" font-weight="normal" text-decoration="none" x="200" y="540">UNREGISTERED</text><text fill="#eeeeee" stroke="none" font-family="Arial" font-size="24px" font-style="normal" font-weight="normal" text-decoration="none" x="200" y="570">UNREGISTERED</text><text fill="#eeeeee" stroke="none" font-family="Arial" font-size="24px" font-style="normal" font-weight="normal" text-decoration="none" x="400" y="0">UNREGISTERED</text><text fill="#eeeeee" stroke="none" font-family="Arial" font-size="24px" font-style="normal" font-weight="normal" text-decoration="none" x="400" y="30">UNREGISTERED</text><text fill="#eeeeee" stroke="none" font-family="Arial" font-size="24px" font-style="normal" font-weight="normal" text-decoration="none" x="400" y="60">UNREGISTERED</text><text fill="#eeeeee" stroke="none" font-family="Arial" font-size="24px" font-style="normal" font-weight="normal" text-decoration="none" x="400" y="90">UNREGISTERED</text><text fill="#eeeeee" stroke="none" font-family="Arial" font-size="24px" font-style="normal" font-weight="normal" text-decoration="none" x="400" y="120">UNREGISTERED</text><text fill="#eeeeee" stroke="none" font-family="Arial" font-size="24px" font-style="normal" font-weight="normal" text-decoration="none" x="400" y="150">UNREGISTERED</text><text fill="#eeeeee" stroke="none" font-family="Arial" font-size="24px" font-style="normal" font-weight="normal" text-decoration="none" x="400" y="180">UNREGISTERED</text><text fill="#eeeeee" stroke="none" font-family="Arial" font-size="24px" font-style="normal" font-weight="normal" text-decoration="none" x="400" y="210">UNREGISTERED</text><text fill="#eeeeee" stroke="none" font-family="Arial" font-size="24px" font-style="normal" font-weight="normal" text-decoration="none" x="400" y="240">UNREGISTERED</text><text fill="#eeeeee" stroke="none" font-family="Arial" font-size="24px" font-style="normal" font-weight="normal" text-decoration="none" x="400" y="270">UNREGISTERED</text><text fill="#eeeeee" stroke="none" font-family="Arial" font-size="24px" font-style="normal" font-weight="normal" text-decoration="none" x="400" y="300">UNREGISTERED</text><text fill="#eeeeee" stroke="none" font-family="Arial" font-size="24px" font-style="normal" font-weight="normal" text-decoration="none" x="400" y="330">UNREGISTERED</text><text fill="#eeeeee" stroke="none" font-family="Arial" font-size="24px" font-style="normal" font-weight="normal" text-decoration="none" x="400" y="360">UNREGISTERED</text><text fill="#eeeeee" stroke="none" font-family="Arial" font-size="24px" font-style="normal" font-weight="normal" text-decoration="none" x="400" y="390">UNREGISTERED</text><text fill="#eeeeee" stroke="none" font-family="Arial" font-size="24px" font-style="normal" font-weight="normal" text-decoration="none" x="400" y="420">UNREGISTERED</text><text fill="#eeeeee" stroke="none" font-family="Arial" font-size="24px" font-style="normal" font-weight="normal" text-decoration="none" x="400" y="450">UNREGISTERED</text><text fill="#eeeeee" stroke="none" font-family="Arial" font-size="24px" font-style="normal" font-weight="normal" text-decoration="none" x="400" y="480">UNREGISTERED</text><text fill="#eeeeee" stroke="none" font-family="Arial" font-size="24px" font-style="normal" font-weight="normal" text-decoration="none" x="400" y="510">UNREGISTERED</text><text fill="#eeeeee" stroke="none" font-family="Arial" font-size="24px" font-style="normal" font-weight="normal" text-decoration="none" x="400" y="540">UNREGISTERED</text><text fill="#eeeeee" stroke="none" font-family="Arial" font-size="24px" font-style="normal" font-weight="normal" text-decoration="none" x="400" y="570">UNREGISTERED</text><text fill="#eeeeee" stroke="none" font-family="Arial" font-size="24px" font-style="normal" font-weight="normal" text-decoration="none" x="600" y="0">UNREGISTERED</text><text fill="#eeeeee" stroke="none" font-family="Arial" font-size="24px" font-style="normal" font-weight="normal" text-decoration="none" x="600" y="30">UNREGISTERED</text><text fill="#eeeeee" stroke="none" font-family="Arial" font-size="24px" font-style="normal" font-weight="normal" text-decoration="none" x="600" y="60">UNREGISTERED</text><text fill="#eeeeee" stroke="none" font-family="Arial" font-size="24px" font-style="normal" font-weight="normal" text-decoration="none" x="600" y="90">UNREGISTERED</text><text fill="#eeeeee" stroke="none" font-family="Arial" font-size="24px" font-style="normal" font-weight="normal" text-decoration="none" x="600" y="120">UNREGISTERED</text><text fill="#eeeeee" stroke="none" font-family="Arial" font-size="24px" font-style="normal" font-weight="normal" text-decoration="none" x="600" y="150">UNREGISTERED</text><text fill="#eeeeee" stroke="none" font-family="Arial" font-size="24px" font-style="normal" font-weight="normal" text-decoration="none" x="600" y="180">UNREGISTERED</text><text fill="#eeeeee" stroke="none" font-family="Arial" font-size="24px" font-style="normal" font-weight="normal" text-decoration="none" x="600" y="210">UNREGISTERED</text><text fill="#eeeeee" stroke="none" font-family="Arial" font-size="24px" font-style="normal" font-weight="normal" text-decoration="none" x="600" y="240">UNREGISTERED</text><text fill="#eeeeee" stroke="none" font-family="Arial" font-size="24px" font-style="normal" font-weight="normal" text-decoration="none" x="600" y="270">UNREGISTERED</text><text fill="#eeeeee" stroke="none" font-family="Arial" font-size="24px" font-style="normal" font-weight="normal" text-decoration="none" x="600" y="300">UNREGISTERED</text><text fill="#eeeeee" stroke="none" font-family="Arial" font-size="24px" font-style="normal" font-weight="normal" text-decoration="none" x="600" y="330">UNREGISTERED</text><text fill="#eeeeee" stroke="none" font-family="Arial" font-size="24px" font-style="normal" font-weight="normal" text-decoration="none" x="600" y="360">UNREGISTERED</text><text fill="#eeeeee" stroke="none" font-family="Arial" font-size="24px" font-style="normal" font-weight="normal" text-decoration="none" x="600" y="390">UNREGISTERED</text><text fill="#eeeeee" stroke="none" font-family="Arial" font-size="24px" font-style="normal" font-weight="normal" text-decoration="none" x="600" y="420">UNREGISTERED</text><text fill="#eeeeee" stroke="none" font-family="Arial" font-size="24px" font-style="normal" font-weight="normal" text-decoration="none" x="600" y="450">UNREGISTERED</text><text fill="#eeeeee" stroke="none" font-family="Arial" font-size="24px" font-style="normal" font-weight="normal" text-decoration="none" x="600" y="480">UNREGISTERED</text><text fill="#eeeeee" stroke="none" font-family="Arial" font-size="24px" font-style="normal" font-weight="normal" text-decoration="none" x="600" y="510">UNREGISTERED</text><text fill="#eeeeee" stroke="none" font-family="Arial" font-size="24px" font-style="normal" font-weight="normal" text-decoration="none" x="600" y="540">UNREGISTERED</text><text fill="#eeeeee" stroke="none" font-family="Arial" font-size="24px" font-style="normal" font-weight="normal" text-decoration="none" x="600" y="570">UNREGISTERED</text><g transform="translate(-134,-86) scale(1,1)"><path fill="#ffffff" stroke="none" d="M 173.51846075994317 332.23 C 173.51846075994317 326.027841696 178.48370373070682 321 184.608642578125 321 C 190.73358142554318 321 195.69882439630683 326.027841696 195.69882439630683 332.23 C 195.69882439630683 338.43215830400004 190.73358142554318 343.46 184.608642578125 343.46 C 178.48370373070682 343.46 173.51846075994317 338.43215830400004 173.51846075994317 332.23 Z"/></g><g transform="translate(-134,-86) scale(1,1)"><path fill="none" stroke="#000000" d="M 173.51846075994317 332.23 C 173.51846075994317 326.027841696 178.48370373070682 321 184.608642578125 321 C 190.73358142554318 321 195.69882439630683 326.027841696 195.69882439630683 332.23 C 195.69882439630683 338.43215830400004 190.73358142554318 343.46 184.608642578125 343.46 C 178.48370373070682 343.46 173.51846075994317 338.43215830400004 173.51846075994317 332.23 Z" stroke-miterlimit="10"/></g><g transform="translate(-134,-86) scale(1,1)"><path fill="none" stroke="#000000" d="M 184.608642578125 343.46 L 184.608642578125 365.54" stroke-miterlimit="10"/></g><g transform="translate(-134,-86) scale(1,1)"><path fill="none" stroke="#000000" d="M 172.86609712357955 351.74 L 196.35118803267045 351.74" stroke-miterlimit="10"/></g><g transform="translate(-134,-86) scale(1,1)"><path fill="none" stroke="#000000" d="M 184.608642578125 365.54 L 168.2995516690341 388" stroke-miterlimit="10"/></g><g transform="translate(-134,-86) scale(1,1)"><path fill="none" stroke="#000000" d="M 184.608642578125 365.54 L 200.9177334872159 388" stroke-miterlimit="10"/></g><g transform="translate(-134,-86) scale(1,1)"><g><path fill="none" stroke="none"/><text fill="#000000" stroke="none" font-family="Arial" font-size="13px" font-style="normal" font-weight="bold" text-decoration="none" x="163.064697265625" y="406.7099609375">Tourist</text></g></g><g transform="translate(-134,-86) scale(1,1)"><path fill="#C0C0C0" stroke="none" d="M 478 139 C 478 119.1177472 513.817216 103 558 103 C 602.182784 103 638 119.1177472 638 139 C 638 158.8822528 602.182784 175 558 175 C 513.817216 175 478 158.8822528 478 139 Z" opacity="0.2"/></g><g transform="translate(-134,-86) scale(1,1)"><path fill="#ffffff" stroke="none" d="M 471 132 C 471 112.1177472 506.81721600000003 96 551 96 C 595.182784 96 631 112.1177472 631 132 C 631 151.8822528 595.182784 168 551 168 C 506.81721600000003 168 471 151.8822528 471 132 Z"/></g><g transform="translate(-134,-86) scale(1,1)"><path fill="none" stroke="#000000" d="M 471 132 C 471 112.1177472 506.81721600000003 96 551 96 C 595.182784 96 631 112.1177472 631 132 C 631 151.8822528 595.182784 168 551 168 C 506.81721600000003 168 471 151.8822528 471 132 Z" stroke-miterlimit="10"/></g><g transform="translate(-134,-86) scale(1,1)"><g><path fill="none" stroke="none"/><text fill="#000000" stroke="none" font-family="Arial" font-size="13px" font-style="normal" font-weight="bold" text-decoration="none" x="515.589599609375" y="137.2099609375">Select Area</text></g></g><g transform="translate(-134,-86) scale(1,1)"><path fill="#C0C0C0" stroke="none" d="M 478 261 C 478 241.1177472 513.817216 225 558 225 C 602.182784 225 638 241.1177472 638 261 C 638 280.8822528 602.182784 297 558 297 C 513.817216 297 478 280.8822528 478 261 Z" opacity="0.2"/></g><g transform="translate(-134,-86) scale(1,1)"><path fill="#ffffff" stroke="none" d="M 471 254 C 471 234.1177472 506.81721600000003 218 551 218 C 595.182784 218 631 234.1177472 631 254 C 631 273.8822528 595.182784 290 551 290 C 506.81721600000003 290 471 273.8822528 471 254 Z"/></g><g transform="translate(-134,-86) scale(1,1)"><path fill="none" stroke="#000000" d="M 471 254 C 471 234.1177472 506.81721600000003 218 551 218 C 595.182784 218 631 234.1177472 631 254 C 631 273.8822528 595.182784 290 551 290 C 506.81721600000003 290 471 273.8822528 471 254 Z" stroke-miterlimit="10"/></g><g transform="translate(-134,-86) scale(1,1)"><g><path fill="none" stroke="none"/><text fill="#000000" stroke="none" font-family="Arial" font-size="13px" font-style="normal" font-weight="bold" text-decoration="none" x="528.60546875" y="252.7099609375">Ask for</text><text fill="#000000" stroke="none" font-family="Arial" font-size="13px" font-style="normal" font-weight="bold" text-decoration="none" x="515.246826171875" y="265.7099609375">Storytelling</text></g></g><g transform="translate(-134,-86) scale(1,1)"><path fill="#C0C0C0" stroke="none" d="M 478 383 C 478 363.1177472 513.817216 347 558 347 C 602.182784 347 638 363.1177472 638 383 C 638 402.8822528 602.182784 419 558 419 C 513.817216 419 478 402.8822528 478 383 Z" opacity="0.2"/></g><g transform="translate(-134,-86) scale(1,1)"><path fill="#ffffff" stroke="none" d="M 471 376 C 471 356.1177472 506.81721600000003 340 551 340 C 595.182784 340 631 356.1177472 631 376 C 631 395.8822528 595.182784 412 551 412 C 506.81721600000003 412 471 395.8822528 471 376 Z"/></g><g transform="translate(-134,-86) scale(1,1)"><path fill="none" stroke="#000000" d="M 471 376 C 471 356.1177472 506.81721600000003 340 551 340 C 595.182784 340 631 356.1177472 631 376 C 631 395.8822528 595.182784 412 551 412 C 506.81721600000003 412 471 395.8822528 471 376 Z" stroke-miterlimit="10"/></g><g transform="translate(-134,-86) scale(1,1)"><g><path fill="none" stroke="none"/><text fill="#000000" stroke="none" font-family="Arial" font-size="13px" font-style="normal" font-weight="bold" text-decoration="none" x="524.51123046875" y="374.7099609375">Watches</text><text fill="#000000" stroke="none" font-family="Arial" font-size="13px" font-style="normal" font-weight="bold" text-decoration="none" x="515.246826171875" y="387.7099609375">Storytelling</text></g></g><g transform="translate(-134,-86) scale(1,1)"><path fill="#C0C0C0" stroke="none" d="M 478 505 C 478 485.1177472 513.817216 469 558 469 C 602.182784 469 638 485.1177472 638 505 C 638 524.8822528 602.182784 541 558 541 C 513.817216 541 478 524.8822528 478 505 Z" opacity="0.2"/></g><g transform="translate(-134,-86) scale(1,1)"><path fill="#ffffff" stroke="none" d="M 471 498 C 471 478.1177472 506.81721600000003 462 551 462 C 595.182784 462 631 478.1177472 631 498 C 631 517.8822528 595.182784 534 551 534 C 506.81721600000003 534 471 517.8822528 471 498 Z"/></g><g transform="translate(-134,-86) scale(1,1)"><path fill="none" stroke="#000000" d="M 471 498 C 471 478.1177472 506.81721600000003 462 551 462 C 595.182784 462 631 478.1177472 631 498 C 631 517.8822528 595.182784 534 551 534 C 506.81721600000003 534 471 517.8822528 471 498 Z" stroke-miterlimit="10"/></g><g transform="translate(-134,-86) scale(1,1)"><g><path fill="none" stroke="none"/><text fill="#000000" stroke="none" font-family="Arial" font-size="13px" font-style="normal" font-weight="bold" text-decoration="none" x="518.845947265625" y="503.2099609375">Select POI</text></g></g><g transform="translate(-134,-86) scale(1,1)"><path fill="#C0C0C0" stroke="none" d="M 478 627 C 478 607.1177472 513.817216 591 558 591 C 602.182784 591 638 607.1177472 638 627 C 638 646.8822528 602.182784 663 558 663 C 513.817216 663 478 646.8822528 478 627 Z" opacity="0.2"/></g><g transform="translate(-134,-86) scale(1,1)"><path fill="#ffffff" stroke="none" d="M 471 620 C 471 600.1177472 506.81721600000003 584 551 584 C 595.182784 584 631 600.1177472 631 620 C 631 639.8822528 595.182784 656 551 656 C 506.81721600000003 656 471 639.8822528 471 620 Z"/></g><g transform="translate(-134,-86) scale(1,1)"><path fill="none" stroke="#000000" d="M 471 620 C 471 600.1177472 506.81721600000003 584 551 584 C 595.182784 584 631 600.1177472 631 620 C 631 639.8822528 595.182784 656 551 656 C 506.81721600000003 656 471 639.8822528 471 620 Z" stroke-miterlimit="10"/></g><g transform="translate(-134,-86) scale(1,1)"><g><path fill="none" stroke="none"/><text fill="#000000" stroke="none" font-family="Arial" font-size="13px" font-style="normal" font-weight="bold" text-decoration="none" x="516.67822265625" y="625.2099609375">Select Item</text></g></g><g transform="translate(-134,-86) scale(1,1)"><path fill="none" stroke="#000000" d="M 225 376 L 471 376" stroke-miterlimit="10"/></g><g transform="translate(-134,-86) scale(1,1)"><path fill="none" stroke="#000000" d="M 460.83732514237585 380.209517756016 L 471 376 L 460.83732514237585 371.790482243984" stroke-miterlimit="10"/></g><g transform="translate(-134,-86) scale(1,1)"><path fill="none" stroke="#000000" d="M 225 376 L 336 376 L 336 256 L 471 256" stroke-miterlimit="10"/></g><g transform="translate(-134,-86) scale(1,1)"><path fill="none" stroke="#000000" d="M 460.83732514237585 260.209517756016 L 471 256 L 460.83732514237585 251.790482243984" stroke-miterlimit="10"/></g><g transform="translate(-134,-86) scale(1,1)"><path fill="none" stroke="#000000" d="M 225 376 L 336 376 L 336 128 L 471 128" stroke-miterlimit="10"/></g><g transform="translate(-134,-86) scale(1,1)"><path fill="none" stroke="#000000" d="M 460.83732514237585 132.209517756016 L 471 128 L 460.83732514237585 123.79048224398402" stroke-miterlimit="10"/></g><g transform="translate(-134,-86) scale(1,1)"><path fill="none" stroke="#000000" d="M 225 376 L 336 376 L 336 496 L 471 496" stroke-miterlimit="10"/></g><g transform="translate(-134,-86) scale(1,1)"><path fill="none" stroke="#000000" d="M 460.83732514237585 500.209517756016 L 471 496 L 460.83732514237585 491.790482243984" stroke-miterlimit="10"/></g><g transform="translate(-134,-86) scale(1,1)"><path fill="none" stroke="#000000" d="M 225 376 L 336 376 L 336 620 L 471 620" stroke-miterlimit="10"/></g><g transform="translate(-134,-86) scale(1,1)"><path fill="none" stroke="#000000" d="M 460.83732514237585 624.209517756016 L 471 620 L 460.83732514237585 615.790482243984" stroke-miterlimit="10"/></g><g transform="translate(-134,-86) scale(1,1)"><path fill="none" stroke="#000000" d="M 551 217 L 551 169" stroke-miterlimit="10" stroke-dasharray="3"/></g><g transform="translate(-134,-86) scale(1,1)"><path fill="none" stroke="#000000" d="M 555.209517756016 179.16267485762415 L 551 169 L 546.790482243984 179.16267485762415" stroke-miterlimit="10"/></g><g transform="translate(-134,-86) scale(1,1)"><g><path fill="none" stroke="none"/><text fill="#000000" stroke="none" font-family="Arial" font-size="13px" font-style="normal" font-weight="normal" text-decoration="none" x="493.5" y="196.7099609375">«include»</text></g></g><g transform="translate(-134,-86) scale(1,1)"><path fill="none" stroke="#000000" d="M 551 339 L 551 291" stroke-miterlimit="10" stroke-dasharray="3"/></g><g transform="translate(-134,-86) scale(1,1)"><path fill="none" stroke="#000000" d="M 555.209517756016 301.16267485762415 L 551 291 L 546.790482243984 301.16267485762415" stroke-miterlimit="10"/></g><g transform="translate(-134,-86) scale(1,1)"><g><path fill="none" stroke="none"/><text fill="#000000" stroke="none" font-family="Arial" font-size="13px" font-style="normal" font-weight="normal" text-decoration="none" x="493.5" y="318.7099609375">«include»</text></g></g><g transform="translate(-134,-86) scale(1,1)"><path fill="none" stroke="#000000" d="M 551 413 L 551 461" stroke-miterlimit="10" stroke-dasharray="3"/></g><g transform="translate(-134,-86) scale(1,1)"><path fill="none" stroke="#000000" d="M 546.790482243984 450.83732514237585 L 551 461 L 555.209517756016 450.83732514237585" stroke-miterlimit="10"/></g><g transform="translate(-134,-86) scale(1,1)"><g><path fill="none" stroke="none"/><text fill="#000000" stroke="none" font-family="Arial" font-size="13px" font-style="normal" font-weight="normal" text-decoration="none" x="553.5" y="440.7099609375">«extend»</text></g></g><g transform="translate(-134,-86) scale(1,1)"><path fill="none" stroke="#000000" d="M 631 376 L 784 376 L 784 624 L 631 624" stroke-miterlimit="10" stroke-dasharray="3"/></g><g transform="translate(-134,-86) scale(1,1)"><path fill="none" stroke="#000000" d="M 641.1626748576241 619.790482243984 L 631 624 L 641.1626748576241 628.209517756016" stroke-miterlimit="10"/></g><g transform="translate(-134,-86) scale(1,1)"><g><path fill="none" stroke="none"/><text fill="#000000" stroke="none" font-family="Arial" font-size="13px" font-style="normal" font-weight="normal" text-decoration="none" x="787.5" y="503.7099609375">«extend»</text></g></g></g></svg>