<svg version="1.1" xmlns="http://www.w3.org/2000/svg" xmlns:xlink="http://www.w3.org/1999/xlink" width="1148.18798828125" height="547"><defs/><g><text fill="#eeeeee" stroke="none" font-family="Arial" font-size="24px" font-style="normal" font-weight="normal" text-decoration="none" x="0" y="0">UNREGISTERED</text><text fill="#eeeeee" stroke="none" font-family="Arial" font-size="24px" font-style="normal" font-weight="normal" text-decoration="none" x="0" y="30">UNREGISTERED</text><text fill="#eeeeee" stroke="none" font-family="Arial" font-size="24px" font-style="normal" font-weight="normal" text-decoration="none" x="0" y="60">UNREGISTERED</text><text fill="#eeeeee" stroke="none" font-family="Arial" font-size="24px" font-style="normal" font-weight="normal" text-decoration="none" x="0" y="90">UNREGISTERED</text><text fill="#eeeeee" stroke="none" font-family="Arial" font-size="24px" font-style="normal" font-weight="normal" text-decoration="none" x="0" y="120">UNREGISTERED</text><text fill="#eeeeee" stroke="none" font-family="Arial" font-size="24px" font-style="normal" font-weight="normal" text-decoration="none" x="0" y="150">UNREGISTERED</text><text fill="#eeeeee" stroke="none" font-family="Arial" font-size="24px" font-style="normal" font-weight="normal" text-decoration="none" x="0" y="180">UNREGISTERED</text><text fill="#eeeeee" stroke="none" font-family="Arial" font-size="24px" font-style="normal" font-weight="normal" text-decoration="none" x="0" y="210">UNREGISTERED</text><text fill="#eeeeee" stroke="none" font-family="Arial" font-size="24px" font-style="normal" font-weight="normal" text-decoration="none" x="0" y="240">UNREGISTERED</text><text fill="#eeeeee" stroke="none" font-family="Arial" font-size="24px" font-style="normal" font-weight="normal" text-decoration="none" x="0" y="270">UNREGISTERED</text><text fill="#eeeeee" stroke="none" font-family="Arial" font-size="24px" font-style="normal" font-weight="normal" text-decoration="none" x="0" y="300">UNREGISTERED</text><text fill="#eeeeee" stroke="none" font-family="Arial" font-size="24px" font-style="normal" font-weight="normal" text-decoration="none" x="0" y="330">UNREGISTERED</text><text fill="#eeeeee" stroke="none" font-family="Arial" font-size="24px" font-style="normal" font-weight="normal" text-decoration="none" x="0" y="360">UNREGISTERED</text><text fill="#eeeeee" stroke="none" font-family="Arial" font-size="24px" font-style="normal" font-weight="normal" text-decoration="none" x="0" y="390">UNREGISTERED</text><text fill="#eeeeee" stroke="none" font-family="Arial" font-size="24px" font-style="normal" font-weight="normal" text-decoration="none" x="0" y="420">UNREGISTERED</text><text fill="#eeeeee" stroke="none" font-family="Arial" font-size="24px" font-style="normal" font-weight="normal" text-decoration="none" x="0" y="450">UNREGISTERED</text><text fill="#eeeeee" stroke="none" font-family="Arial" font-size="24px" font-style="normal" font-weight="normal" text-decoration="none" x="0" y="480">UNREGISTERED</text><text fill="#eeeeee" stroke="none" font-family="Arial" font-size="24px" font-style="normal" font-weight="normal" text-decoration="none" x="0" y="510">UNREGISTERED</text><text fill="#eeeeee" stroke="none" font-family="Arial" font-size="24px" font-style="normal" font-weight="normal" text-decoration="none" x="0" y="540">UNREGISTERED</text><text fill="#eeeeee" stroke="none" font-family="Arial" font-size="24px" font-style="normal" font-weight="normal" text-decoration="none" x="200" y="0">UNREGISTERED</text><text fill="#eeeeee" stroke="none" font-family="Arial" font-size="24px" font-style="normal" font-weight="normal" text-decoration="none" x="200" y="30">UNREGISTERED</text><text fill="#eeeeee" stroke="none" font-family="Arial" font-size="24px" font-style="normal" font-weight="normal" text-decoration="none" x="200" y="60">UNREGISTERED</text><text fill="#eeeeee" stroke="none" font-family="Arial" font-size="24px" font-style="normal" font-weight="normal" text-decoration="none" x="200" y="90">UNREGISTERED</text><text fill="#eeeeee" stroke="none" font-family="Arial" font-size="24px" font-style="normal" font-weight="normal" text-decoration="none" x="200" y="120">UNREGISTERED</text><text fill="#eeeeee" stroke="none" font-family="Arial" font-size="24px" font-style="normal" font-weight="normal" text-decoration="none" x="200" y="150">UNREGISTERED</text><text fill="#eeeeee" stroke="none" font-family="Arial" font-size="24px" font-style="normal" font-weight="normal" text-decoration="none" x="200" y="180">UNREGISTERED</text><text fill="#eeeeee" stroke="none" font-family="Arial" font-size="24px" font-style="normal" font-weight="normal" text-decoration="none" x="200" y="210">UNREGISTERED</text><text fill="#eeeeee" stroke="none" font-family="Arial" font-size="24px" font-style="normal" font-weight="normal" text-decoration="none" x="200" y="240">UNREGISTERED</text><text fill="#eeeeee" stroke="none" font-family="Arial" font-size="24px" font-style="normal" font-weight="normal" text-decoration="none" x="200" y="270">UNREGISTERED</text><text fill="#eeeeee" stroke="none" font-family="Arial" font-size="24px" font-style="normal" font-weight="normal" text-decoration="none" x="200" y="300">UNREGISTERED</text><text fill="#eeeeee" stroke="none" font-family="Arial" font-size="24px" font-style="normal" font-weight="normal" text-decoration="none" x="200" y="330">UNREGISTERED</text><text fill="#eeeeee" stroke="none" font-family="Arial" font-size="24px" font-style="normal" font-weight="normal" text-decoration="none" x="200" y="360">UNREGISTERED</text><text fill="#eeeeee" stroke="none" font-family="Arial" font-size="24px" font-style="normal" font-weight="normal" text-decoration="none" x="200" y="390">UNREGISTERED</text><text fill="#eeeeee" stroke="none" font-family="Arial" font-size="24px" font-style="normal" font-weight="normal" text-decoration="none" x="200" y="420">UNREGISTERED</text><text fill="#eeeeee" stroke="none" font-family="Arial" font-size="24px" font-style="normal" font-weight="normal" text-decoration="none" x="200" y="450">UNREGISTERED</text><text fill="#eeeeee" stroke="none" font-family="Arial" font-size="24px" font-style="normal" font-weight="normal" text-decoration="none" x="200" y="480">UNREGISTERED</text><text fill="#eeeeee" stroke="none" font-family="Arial" font-size="24px" font-style="normal" font-weight="normal" text-decoration="none" x="200" y="510">UNREGISTERED</text><text fill="#eeeeee" stroke="none" font-family="Arial" font-size="24px" font-style="normal" font-weight="normal" text-decoration="none" x="200" y="540">UNREGISTERED</text><text fill="#eeeeee" stroke="none" font-family="Arial" font-size="24px" font-style="normal" font-weight="normal" text-decoration="none" x="400" y="0">UNREGISTERED</text><text fill="#eeeeee" stroke="none" font-family="Arial" font-size="24px" font-style="normal" font-weight="normal" text-decoration="none" x="400" y="30">UNREGISTERED</text><text fill="#eeeeee" stroke="none" font-family="Arial" font-size="24px" font-style="normal" font-weight="normal" text-decoration="none" x="400" y="60">UNREGISTERED</text><text fill="#eeeeee" stroke="none" font-family="Arial" font-size="24px" font-style="normal" font-weight="normal" text-decoration="none" x="400" y="90">UNREGISTERED</text><text fill="#eeeeee" stroke="none" font-family="Arial" font-size="24px" font-style="normal" font-weight="normal" text-decoration="none" x="400" y="120">UNREGISTERED</text><text fill="#eeeeee" stroke="none" font-family="Arial" font-size="24px" font-style="normal" font-weight="normal" text-decoration="none" x="400" y="150">UNREGISTERED</text><text fill="#eeeeee" stroke="none" font-family="Arial" font-size="24px" font-style="normal" font-weight="normal" text-decoration="none" x="400" y="180">UNREGISTERED</text><text fill="#eeeeee" stroke="none" font-family="Arial" font-size="24px" font-style="normal" font-weight="normal" text-decoration="none" x="400" y="210">UNREGISTERED</text><text fill="#eeeeee" stroke="none" font-family="Arial" font-size="24px" font-style="normal" font-weight="normal" text-decoration="none" x="400" y="240">UNREGISTERED</text><text fill="#eeeeee" stroke="none" font-family="Arial" font-size="24px" font-style="normal" font-weight="normal" text-decoration="none" x="400" y="270">UNREGISTERED</text><text fill="#eeeeee" stroke="none" font-family="Arial" font-size="24px" font-style="normal" font-weight="normal" text-decoration="none" x="400" y="300">UNREGISTERED</text><text fill="#eeeeee" stroke="none" font-family="Arial" font-size="24px" font-style="normal" font-weight="normal" text-decoration="none" x="400" y="330">UNREGISTERED</text><text fill="#eeeeee" stroke="none" font-family="Arial" font-size="24px" font-style="normal" font-weight="normal" text-decoration="none" x="400" y="360">UNREGISTERED</text><text fill="#eeeeee" stroke="none" font-family="Arial" font-size="24px" font-style="normal" font-weight="normal" text-decoration="none" x="400" y="390">UNREGISTERED</text><text fill="#eeeeee" stroke="none" font-family="Arial" font-size="24px" font-style="normal" font-weight="normal" text-decoration="none" x="400" y="420">UNREGISTERED</text><text fill="#eeeeee" stroke="none" font-family="Arial" font-size="24px" font-style="normal" font-weight="normal" text-decoration="none" x="400" y="450">UNREGISTERED</text><text fill="#eeeeee" stroke="none" font-family="Arial" font-size="24px" font-style="normal" font-weight="normal" text-decoration="none" x="400" y="480">UNREGISTERED</text><text fill="#eeeeee" stroke="none" font-family="Arial" font-size="24px" font-style="normal" font-weight="normal" text-decoration="none" x="400" y="510">UNREGISTERED</text><text fill="#eeeeee" stroke="none" font-family="Arial" font-size="24px" font-style="normal" font-weight="normal" text-decoration="none" x="400" y="540">UNREGISTERED</text><text fill="#eeeeee" stroke="none" font-family="Arial" font-size="24px" font-style="normal" font-weight="normal" text-decoration="none" x="600" y="0">UNREGISTERED</text><text fill="#eeeeee" stroke="none" font-family="Arial" font-size="24px" font-style="normal" font-weight="normal" text-decoration="none" x="600" y="30">UNREGISTERED</text><text fill="#eeeeee" stroke="none" font-family="Arial" font-size="24px" font-style="normal" font-weight="normal" text-decoration="none" x="600" y="60">UNREGISTERED</text><text fill="#eeeeee" stroke="none" font-family="Arial" font-size="24px" font-style="normal" font-weight="normal" text-decoration="none" x="600" y="90">UNREGISTERED</text><text fill="#eeeeee" stroke="none" font-family="Arial" font-size="24px" font-style="normal" font-weight="normal" text-decoration="none" x="600" y="120">UNREGISTERED</text><text fill="#eeeeee" stroke="none" font-family="Arial" font-size="24px" font-style="normal" font-weight="normal" text-decoration="none" x="600" y="150">UNREGISTERED</text><text fill="#eeeeee" stroke="none" font-family="Arial" font-size="24px" font-style="normal" font-weight="normal" text-decoration="none" x="600" y="180">UNREGISTERED</text><text fill="#eeeeee" stroke="none" font-family="Arial" font-size="24px" font-style="normal" font-weight="normal" text-decoration="none" x="600" y="210">UNREGISTERED</text><text fill="#eeeeee" stroke="none" font-family="Arial" font-size="24px" font-style="normal" font-weight="normal" text-decoration="none" x="600" y="240">UNREGISTERED</text><text fill="#eeeeee" stroke="none" font-family="Arial" font-size="24px" font-style="normal" font-weight="normal" text-decoration="none" x="600" y="270">UNREGISTERED</text><text fill="#eeeeee" stroke="none" font-family="Arial" font-size="24px" font-style="normal" font-weight="normal" text-decoration="none" x="600" y="300">UNREGISTERED</text><text fill="#eeeeee" stroke="none" font-family="Arial" font-size="24px" font-style="normal" font-weight="normal" text-decoration="none" x="600" y="330">UNREGISTERED</text><text fill="#eeeeee" stroke="none" font-family="Arial" font-size="24px" font-style="normal" font-weight="normal" text-decoration="none" x="600" y="360">UNREGISTERED</text><text fill="#eeeeee" stroke="none" font-family="Arial" font-size="24px" font-style="normal" font-weight="normal" text-decoration="none" x="600" y="390">UNREGISTERED</text><text fill="#eeeeee" stroke="none" font-family="Arial" font-size="24px" font-style="normal" font-weight="normal" text-decoration="none" x="600" y="420">UNREGISTERED</text><text fill="#eeeeee" stroke="none" font-family="Arial" font-size="24px" font-style="normal" font-weight="normal" text-decoration="none" x="600" y="450">UNREGISTERED</text><text fill="#eeeeee" stroke="none" font-family="Arial" font-size="24px" font-style="normal" font-weight="normal" text-decoration="none" x="600" y="480">UNREGISTERED</text><text fill="#eeeeee" stroke="none" font-family="Arial" font-size="24px" font-style="normal" font-weight="normal" text-decoration="none" x="600" y="510">UNREGISTERED</text><text fill="#eeeeee" stroke="none" font-family="Arial" font-size="24px" font-style="normal" font-weight="normal" text-decoration="none" x="600" y="540">UNREGISTERED</text><text fill="#eeeeee" stroke="none" font-family="Arial" font-size="24px" font-style="normal" font-weight="normal" text-decoration="none" x="800" y="0">UNREGISTERED</text><text fill="#eeeeee" stroke="none" font-family="Arial" font-size="24px" font-style="normal" font-weight="normal" text-decoration="none" x="800" y="30">UNREGISTERED</text><text fill="#eeeeee" stroke="none" font-family="Arial" font-size="24px" font-style="normal" font-weight="normal" text-decoration="none" x="800" y="60">UNREGISTERED</text><text fill="#eeeeee" stroke="none" font-family="Arial" font-size="24px" font-style="normal" font-weight="normal" text-decoration="none" x="800" y="90">UNREGISTERED</text><text fill="#eeeeee" stroke="none" font-family="Arial" font-size="24px" font-style="normal" font-weight="normal" text-decoration="none" x="800" y="120">UNREGISTERED</text><text fill="#eeeeee" stroke="none" font-family="Arial" font-size="24px" font-style="normal" font-weight="normal" text-decoration="none" x="800" y="150">UNREGISTERED</text><text fill="#eeeeee" stroke="none" font-family="Arial" font-size="24px" font-style="normal" font-weight="normal" text-decoration="none" x="800" y="180">UNREGISTERED</text><text fill="#eeeeee" stroke="none" font-family="Arial" font-size="24px" font-style="normal" font-weight="normal" text-decoration="none" x="800" y="210">UNREGISTERED</text><text fill="#eeeeee" stroke="none" font-family="Arial" font-size="24px" font-style="normal" font-weight="normal" text-decoration="none" x="800" y="240">UNREGISTERED</text><text fill="#eeeeee" stroke="none" font-family="Arial" font-size="24px" font-style="normal" font-weight="normal" text-decoration="none" x="800" y="270">UNREGISTERED</text><text fill="#eeeeee" stroke="none" font-family="Arial" font-size="24px" font-style="normal" font-weight="normal" text-decoration="none" x="800" y="300">UNREGISTERED</text><text fill="#eeeeee" stroke="none" font-family="Arial" font-size="24px" font-style="normal" font-weight="normal" text-decoration="none" x="800" y="330">UNREGISTERED</text><text fill="#eeeeee" stroke="none" font-family="Arial" font-size="24px" font-style="normal" font-weight="normal" text-decoration="none" x="800" y="360">UNREGISTERED</text><text fill="#eeeeee" stroke="none" font-family="Arial" font-size="24px" font-style="normal" font-weight="normal" text-decoration="none" x="800" y="390">UNREGISTERED</text><text fill="#eeeeee" stroke="none" font-family="Arial" font-size="24px" font-style="normal" font-weight="normal" text-decoration="none" x="800" y="420">UNREGISTERED</text><text fill="#eeeeee" stroke="none" font-family="Arial" font-size="24px" font-style="normal" font-weight="normal" text-decoration="none" x="800" y="450">UNREGISTERED</text><text fill="#eeeeee" stroke="none" font-family="Arial" font-size="24px" font-style="normal" font-weight="normal" text-decoration="none" x="800" y="480">UNREGISTERED</text><text fill="#eeeeee" stroke="none" font-family="Arial" font-size="24px" font-style="normal" font-weight="normal" text-decoration="none" x="800" y="510">UNREGISTERED</text><text fill="#eeeeee" stroke="none" font-family="Arial" font-size="24px" font-style="normal" font-weight="normal" text-decoration="none" x="800" y="540">UNREGISTERED</text><text fill="#eeeeee" stroke="none" font-family="Arial" font-size="24px" font-style="normal" font-weight="normal" text-decoration="none" x="1000" y="0">UNREGISTERED</text><text fill="#eeeeee" stroke="none" font-family="Arial" font-size="24px" font-style="normal" font-weight="normal" text-decoration="none" x="1000" y="30">UNREGISTERED</text><text fill="#eeeeee" stroke="none" font-family="Arial" font-size="24px" font-style="normal" font-weight="normal" text-decoration="none" x="1000" y="60">UNREGISTERED</text><text fill="#eeeeee" stroke="none" font-family="Arial" font-size="24px" font-style="normal" font-weight="normal" text-decoration="none" x="1000" y="90">UNREGISTERED</text><text fill="#eeeeee" stroke="none" font-family="Arial" font-size="24px" font-style="normal" font-weight="normal" text-decoration="none" x="1000" y="120">UNREGISTERED</text><text fill="#eeeeee" stroke="none" font-family="Arial" font-size="24px" font-style="normal" font-weight="normal" text-decoration="none" x="1000" y="150">UNREGISTERED</text><text fill="#eeeeee" stroke="none" font-family="Arial" font-size="24px" font-style="normal" font-weight="normal" text-decoration="none" x="1000" y="180">UNREGISTERED</text><text fill="#eeeeee" stroke="none" font-family="Arial" font-size="24px" font-style="normal" font-weight="normal" text-decoration="none" x="1000" y="210">UNREGISTERED</text><text fill="#eeeeee" stroke="none" font-family="Arial" font-size="24px" font-style="normal" font-weight="normal" text-decoration="none" x="1000" y="240">UNREGISTERED</text><text fill="#eeeeee" stroke="none" font-family="Arial" font-size="24px" font-style="normal" font-weight="normal" text-decoration="none" x="1000" y="270">UNREGISTERED</text><text fill="#eeeeee" stroke="none" font-family="Arial" font-size="24px" font-style="normal" font-weight="normal" text-decoration="none" x="1000" y="300">UNREGISTERED</text><text fill="#eeeeee" stroke="none" font-family="Arial" font-size="24px" font-style="normal" font-weight="normal" text-decoration="none" x="1000" y="330">UNREGISTERED</text><text fill="#eeeeee" stroke="none" font-family="Arial" font-size="24px" font-style="normal" font-weight="normal" text-decoration="none" x="1000" y="360">UNREGISTERED</text><text fill="#eeeeee" stroke="none" font-family="Arial" font-size="24px" font-style="normal" font-weight="normal" text-decoration="none" x="1000" y="390">UNREGISTERED</text><text fill="#eeeeee" stroke="none" font-family="Arial" font-size="24px" font-style="normal" font-weight="normal" text-decoration="none" x="1000" y="420">UNREGISTERED</text><text fill="#eeeeee" stroke="none" font-family="Arial" font-size="24px" font-style="normal" font-weight="normal" text-decoration="none" x="1000" y="450">UNREGISTERED</text><text fill="#eeeeee" stroke="none" font-family="Arial" font-size="24px" font-style="normal" font-weight="normal" text-decoration="none" x="1000" y="480">UNREGISTERED</text><text fill="#eeeeee" stroke="none" font-family="Arial" font-size="24px" font-style="normal" font-weight="normal" text-decoration="none" x="1000" y="510">UNREGISTERED</text><text fill="#eeeeee" stroke="none" font-family="Arial" font-size="24px" font-style="normal" font-weight="normal" text-decoration="none" x="1000" y="540">UNREGISTERED</text><g transform="translate(-62,-78) scale(1,1)"><path fill="#ffffff" stroke="none" d="M 173.51846075994317 116.23 C 173.51846075994317 110.027841696 178.48370373070682 105 184.608642578125 105 C 190.73358142554318 105 195.69882439630683 110.027841696 195.69882439630683 116.23 C 195.69882439630683 122.43215830400001 190.73358142554318 127.46000000000001 184.608642578125 127.46000000000001 C 178.48370373070682 127.46000000000001 173.51846075994317 122.43215830400001 173.51846075994317 116.23 Z"/></g><g transform="translate(-62,-78) scale(1,1)"><path fill="none" stroke="#000000" d="M 173.51846075994317 116.23 C 173.51846075994317 110.027841696 178.48370373070682 105 184.608642578125 105 C 190.73358142554318 105 195.69882439630683 110.027841696 195.69882439630683 116.23 C 195.69882439630683 122.43215830400001 190.73358142554318 127.46000000000001 184.608642578125 127.46000000000001 C 178.48370373070682 127.46000000000001 173.51846075994317 122.43215830400001 173.51846075994317 116.23 Z" stroke-miterlimit="10"/></g><g transform="translate(-62,-78) scale(1,1)"><path fill="none" stroke="#000000" d="M 184.608642578125 127.46000000000001 L 184.608642578125 149.54" stroke-miterlimit="10"/></g><g transform="translate(-62,-78) scale(1,1)"><path fill="none" stroke="#000000" d="M 172.86609712357955 135.74 L 196.35118803267045 135.74" stroke-miterlimit="10"/></g><g transform="translate(-62,-78) scale(1,1)"><path fill="none" stroke="#000000" d="M 184.608642578125 149.54 L 168.2995516690341 172" stroke-miterlimit="10"/></g><g transform="translate(-62,-78) scale(1,1)"><path fill="none" stroke="#000000" d="M 184.608642578125 149.54 L 200.9177334872159 172" stroke-miterlimit="10"/></g><g transform="translate(-62,-78) scale(1,1)"><g><path fill="none" stroke="none"/><text fill="#000000" stroke="none" font-family="Arial" font-size="13px" font-style="normal" font-weight="bold" text-decoration="none" x="164.499267578125" y="190.7099609375">Visitor</text></g></g><g transform="translate(-62,-78) scale(1,1)"><path fill="#ffffff" stroke="none" d="M 1093.5184607599433 444.23 C 1093.5184607599433 438.027841696 1098.4837037307068 433 1104.608642578125 433 C 1110.7335814255432 433 1115.6988243963067 438.027841696 1115.6988243963067 444.23 C 1115.6988243963067 450.43215830400004 1110.7335814255432 455.46 1104.608642578125 455.46 C 1098.4837037307068 455.46 1093.5184607599433 450.43215830400004 1093.5184607599433 444.23 Z"/></g><g transform="translate(-62,-78) scale(1,1)"><path fill="none" stroke="#000000" d="M 1093.5184607599433 444.23 C 1093.5184607599433 438.027841696 1098.4837037307068 433 1104.608642578125 433 C 1110.7335814255432 433 1115.6988243963067 438.027841696 1115.6988243963067 444.23 C 1115.6988243963067 450.43215830400004 1110.7335814255432 455.46 1104.608642578125 455.46 C 1098.4837037307068 455.46 1093.5184607599433 450.43215830400004 1093.5184607599433 444.23 Z" stroke-miterlimit="10"/></g><g transform="translate(-62,-78) scale(1,1)"><path fill="none" stroke="#000000" d="M 1104.608642578125 455.46 L 1104.608642578125 477.54" stroke-miterlimit="10"/></g><g transform="translate(-62,-78) scale(1,1)"><path fill="none" stroke="#000000" d="M 1092.8660971235795 463.74 L 1116.3511880326705 463.74" stroke-miterlimit="10"/></g><g transform="translate(-62,-78) scale(1,1)"><path fill="none" stroke="#000000" d="M 1104.608642578125 477.54 L 1088.2995516690341 500" stroke-miterlimit="10"/></g><g transform="translate(-62,-78) scale(1,1)"><path fill="none" stroke="#000000" d="M 1104.608642578125 477.54 L 1120.9177334872159 500" stroke-miterlimit="10"/></g><g transform="translate(-62,-78) scale(1,1)"><g><path fill="none" stroke="none"/><text fill="#000000" stroke="none" font-family="Arial" font-size="13px" font-style="normal" font-weight="bold" text-decoration="none" x="1084.38818359375" y="518.7099609375">Admin</text></g></g><g transform="translate(-62,-78) scale(1,1)"><rect fill="#C0C0C0" stroke="none" x="1009" y="167" width="198.18798828125" height="52" opacity="0.2"/></g><g transform="translate(-62,-78) scale(1,1)"><rect fill="#ffffff" stroke="none" x="1002" y="160" width="198.18798828125" height="52"/></g><g transform="translate(-62,-78) scale(1,1)"><path fill="none" stroke="#000000" d="M 1002 160 L 1200.18798828125 160 L 1200.18798828125 212 L 1002 212 L 1002 160 Z Z" stroke-miterlimit="10"/></g><g transform="translate(-62,-78) scale(1,1)"><rect fill="#ffffff" stroke="none" x="992" y="167" width="20" height="10"/></g><g transform="translate(-62,-78) scale(1,1)"><path fill="none" stroke="#000000" d="M 992 167 L 1012 167 L 1012 177 L 992 177 L 992 167 Z Z" stroke-miterlimit="10"/></g><g transform="translate(-62,-78) scale(1,1)"><rect fill="#ffffff" stroke="none" x="992" y="187" width="20" height="10"/></g><g transform="translate(-62,-78) scale(1,1)"><path fill="none" stroke="#000000" d="M 992 187 L 1012 187 L 1012 197 L 992 197 L 992 187 Z Z" stroke-miterlimit="10"/></g><g transform="translate(-62,-78) scale(1,1)"><g><path fill="none" stroke="none"/><text fill="#000000" stroke="none" font-family="Arial" font-size="13px" font-style="normal" font-weight="normal" text-decoration="none" x="1067.79541015625" y="175.7099609375">«Repository»</text></g></g><g transform="translate(-62,-78) scale(1,1)"><g><path fill="none" stroke="none"/><text fill="#000000" stroke="none" font-family="Arial" font-size="13px" font-style="normal" font-weight="bold" text-decoration="none" x="1086.232177734375" y="190.53857421875">3D-DB</text></g></g><g transform="translate(-62,-78) scale(1,1)"><rect fill="#C0C0C0" stroke="none" x="1009" y="319" width="198.18798828125" height="52" opacity="0.2"/></g><g transform="translate(-62,-78) scale(1,1)"><rect fill="#ffffff" stroke="none" x="1002" y="312" width="198.18798828125" height="52"/></g><g transform="translate(-62,-78) scale(1,1)"><path fill="none" stroke="#000000" d="M 1002 312 L 1200.18798828125 312 L 1200.18798828125 364 L 1002 364 L 1002 312 Z Z" stroke-miterlimit="10"/></g><g transform="translate(-62,-78) scale(1,1)"><rect fill="#ffffff" stroke="none" x="992" y="319" width="20" height="10"/></g><g transform="translate(-62,-78) scale(1,1)"><path fill="none" stroke="#000000" d="M 992 319 L 1012 319 L 1012 329 L 992 329 L 992 319 Z Z" stroke-miterlimit="10"/></g><g transform="translate(-62,-78) scale(1,1)"><rect fill="#ffffff" stroke="none" x="992" y="339" width="20" height="10"/></g><g transform="translate(-62,-78) scale(1,1)"><path fill="none" stroke="#000000" d="M 992 339 L 1012 339 L 1012 349 L 992 349 L 992 339 Z Z" stroke-miterlimit="10"/></g><g transform="translate(-62,-78) scale(1,1)"><g><path fill="none" stroke="none"/><text fill="#000000" stroke="none" font-family="Arial" font-size="13px" font-style="normal" font-weight="normal" text-decoration="none" x="1071.0390625" y="327.7099609375">«Database»</text></g></g><g transform="translate(-62,-78) scale(1,1)"><g><path fill="none" stroke="none"/><text fill="#000000" stroke="none" font-family="Arial" font-size="13px" font-style="normal" font-weight="bold" text-decoration="none" x="1056.728271484375" y="342.7099609375">NoSql RealTime</text></g></g><g transform="translate(-62,-78) scale(1,1)"><rect fill="#C0C0C0" stroke="none" x="1025" y="567" width="172.17529296875" height="52" opacity="0.2"/></g><g transform="translate(-62,-78) scale(1,1)"><rect fill="#ffffff" stroke="none" x="1018" y="560" width="172.17529296875" height="52"/></g><g transform="translate(-62,-78) scale(1,1)"><path fill="none" stroke="#000000" d="M 1018 560 L 1190.17529296875 560 L 1190.17529296875 612 L 1018 612 L 1018 560 Z Z" stroke-miterlimit="10"/></g><g transform="translate(-62,-78) scale(1,1)"><rect fill="#ffffff" stroke="none" x="1008" y="567" width="20" height="10"/></g><g transform="translate(-62,-78) scale(1,1)"><path fill="none" stroke="#000000" d="M 1008 567 L 1028 567 L 1028 577 L 1008 577 L 1008 567 Z Z" stroke-miterlimit="10"/></g><g transform="translate(-62,-78) scale(1,1)"><rect fill="#ffffff" stroke="none" x="1008" y="587" width="20" height="10"/></g><g transform="translate(-62,-78) scale(1,1)"><path fill="none" stroke="#000000" d="M 1008 587 L 1028 587 L 1028 597 L 1008 597 L 1008 587 Z Z" stroke-miterlimit="10"/></g><g transform="translate(-62,-78) scale(1,1)"><g><path fill="none" stroke="none"/><text fill="#000000" stroke="none" font-family="Arial" font-size="13px" font-style="normal" font-weight="normal" text-decoration="none" x="1068.253173828125" y="575.53857421875">«Component»</text></g></g><g transform="translate(-62,-78) scale(1,1)"><g><path fill="none" stroke="none"/><text fill="#000000" stroke="none" font-family="Arial" font-size="13px" font-style="normal" font-weight="bold" text-decoration="none" x="1055.62451171875" y="590.7099609375">3D Scene Builder</text></g></g><g transform="translate(-62,-78) scale(1,1)"><path fill="#C0C0C0" stroke="none" d="M 559 130.5 C 559 110.8938896 593.0263552 95 635 95 C 676.9736448 95 711 110.8938896 711 130.5 C 711 150.1061104 676.9736448 166 635 166 C 593.0263552 166 559 150.1061104 559 130.5 Z" opacity="0.2"/></g><g transform="translate(-62,-78) scale(1,1)"><path fill="#ffffff" stroke="none" d="M 552 123.5 C 552 103.8938896 586.0263552 88 628 88 C 669.9736448 88 704 103.8938896 704 123.5 C 704 143.1061104 669.9736448 159 628 159 C 586.0263552 159 552 143.1061104 552 123.5 Z"/></g><g transform="translate(-62,-78) scale(1,1)"><path fill="none" stroke="#000000" d="M 552 123.5 C 552 103.8938896 586.0263552 88 628 88 C 669.9736448 88 704 103.8938896 704 123.5 C 704 143.1061104 669.9736448 159 628 159 C 586.0263552 159 552 143.1061104 552 123.5 Z" stroke-miterlimit="10"/></g><g transform="translate(-62,-78) scale(1,1)"><g><path fill="none" stroke="none"/><text fill="#000000" stroke="none" font-family="Arial" font-size="13px" font-style="normal" font-weight="bold" text-decoration="none" x="590.425048828125" y="128.7099609375">Start search</text></g></g><g transform="translate(-62,-78) scale(1,1)"><path fill="#C0C0C0" stroke="none" d="M 423 250.5 C 423 230.8938896 457.0263552 215 499 215 C 540.9736448 215 575 230.8938896 575 250.5 C 575 270.1061104 540.9736448 286 499 286 C 457.0263552 286 423 270.1061104 423 250.5 Z" opacity="0.2"/></g><g transform="translate(-62,-78) scale(1,1)"><path fill="#ffffff" stroke="none" d="M 416 243.5 C 416 223.8938896 450.0263552 208 492 208 C 533.9736448 208 568 223.8938896 568 243.5 C 568 263.1061104 533.9736448 279 492 279 C 450.0263552 279 416 263.1061104 416 243.5 Z"/></g><g transform="translate(-62,-78) scale(1,1)"><path fill="none" stroke="#000000" d="M 416 243.5 C 416 223.8938896 450.0263552 208 492 208 C 533.9736448 208 568 223.8938896 568 243.5 C 568 263.1061104 533.9736448 279 492 279 C 450.0263552 279 416 263.1061104 416 243.5 Z" stroke-miterlimit="10"/></g><g transform="translate(-62,-78) scale(1,1)"><g><path fill="none" stroke="none"/><text fill="#000000" stroke="none" font-family="Arial" font-size="13px" font-style="normal" font-weight="bold" text-decoration="none" x="448.286865234375" y="248.7099609375">Search Object</text></g></g><g transform="translate(-62,-78) scale(1,1)"><path fill="#C0C0C0" stroke="none" d="M 511 346.5 C 511 326.8938896 545.0263552 311 587 311 C 628.9736448 311 663 326.8938896 663 346.5 C 663 366.1061104 628.9736448 382 587 382 C 545.0263552 382 511 366.1061104 511 346.5 Z" opacity="0.2"/></g><g transform="translate(-62,-78) scale(1,1)"><path fill="#ffffff" stroke="none" d="M 504 339.5 C 504 319.8938896 538.0263552 304 580 304 C 621.9736448 304 656 319.8938896 656 339.5 C 656 359.1061104 621.9736448 375 580 375 C 538.0263552 375 504 359.1061104 504 339.5 Z"/></g><g transform="translate(-62,-78) scale(1,1)"><path fill="none" stroke="#000000" d="M 504 339.5 C 504 319.8938896 538.0263552 304 580 304 C 621.9736448 304 656 319.8938896 656 339.5 C 656 359.1061104 621.9736448 375 580 375 C 538.0263552 375 504 359.1061104 504 339.5 Z" stroke-miterlimit="10"/></g><g transform="translate(-62,-78) scale(1,1)"><g><path fill="none" stroke="none"/><text fill="#000000" stroke="none" font-family="Arial" font-size="13px" font-style="normal" font-weight="bold" text-decoration="none" x="541.71728515625" y="338.2099609375">Interact with</text><text fill="#000000" stroke="none" font-family="Arial" font-size="13px" font-style="normal" font-weight="bold" text-decoration="none" x="560.858642578125" y="351.2099609375">object</text></g></g><g transform="translate(-62,-78) scale(1,1)"><rect fill="#C0C0C0" stroke="none" x="89" y="247" width="249.40087890625" height="52" opacity="0.2"/></g><g transform="translate(-62,-78) scale(1,1)"><rect fill="#ffffff" stroke="none" x="82" y="240" width="249.40087890625" height="52"/></g><g transform="translate(-62,-78) scale(1,1)"><path fill="none" stroke="#000000" d="M 82 240 L 331.40087890625 240 L 331.40087890625 292 L 82 292 L 82 240 Z Z" stroke-miterlimit="10"/></g><g transform="translate(-62,-78) scale(1,1)"><rect fill="#ffffff" stroke="none" x="72" y="247" width="20" height="10"/></g><g transform="translate(-62,-78) scale(1,1)"><path fill="none" stroke="#000000" d="M 72 247 L 92 247 L 92 257 L 72 257 L 72 247 Z Z" stroke-miterlimit="10"/></g><g transform="translate(-62,-78) scale(1,1)"><rect fill="#ffffff" stroke="none" x="72" y="267" width="20" height="10"/></g><g transform="translate(-62,-78) scale(1,1)"><path fill="none" stroke="#000000" d="M 72 267 L 92 267 L 92 277 L 72 277 L 72 267 Z Z" stroke-miterlimit="10"/></g><g transform="translate(-62,-78) scale(1,1)"><g><path fill="none" stroke="none"/><text fill="#000000" stroke="none" font-family="Arial" font-size="13px" font-style="normal" font-weight="normal" text-decoration="none" x="170.865966796875" y="255.53857421875">«Component»</text></g></g><g transform="translate(-62,-78) scale(1,1)"><g><path fill="none" stroke="none"/><text fill="#000000" stroke="none" font-family="Arial" font-size="13px" font-style="normal" font-weight="bold" text-decoration="none" x="96.5" y="270.7099609375">Augmented Reality Colaboration App</text></g></g><g transform="translate(-62,-78) scale(1,1)"><path fill="none" stroke="#000000" d="M 191 199 L 197 239" stroke-miterlimit="10"/></g><g transform="translate(-62,-78) scale(1,1)"><path fill="none" stroke="#000000" d="M 191.32951907166841 229.57420316146013 L 197 239 L 199.65540934560602 228.3253196203695" stroke-miterlimit="10"/></g><g transform="translate(-62,-78) scale(1,1)"><path fill="none" stroke="#000000" d="M 282 239 L 551 149" stroke-miterlimit="10"/></g><g transform="translate(-62,-78) scale(1,1)"><path fill="none" stroke="#000000" d="M 586 160 L 533 207" stroke-miterlimit="10" stroke-dasharray="3"/></g><g transform="translate(-62,-78) scale(1,1)"><path fill="none" stroke="#000000" d="M 537.8106268982758 197.1076863754941 L 533 207 L 543.3965489470414 203.40670485601703" stroke-miterlimit="10"/></g><g transform="translate(-62,-78) scale(1,1)"><g><path fill="none" stroke="none"/><text fill="#000000" stroke="none" font-family="Arial" font-size="13px" font-style="normal" font-weight="normal" text-decoration="none" x="551.5" y="209.7099609375">«include»</text></g></g><g transform="translate(-62,-78) scale(1,1)"><path fill="none" stroke="#000000" d="M 620 160 L 588 303" stroke-miterlimit="10" stroke-dasharray="3"/></g><g transform="translate(-62,-78) scale(1,1)"><path fill="none" stroke="#000000" d="M 586.1113572755272 292.16334790355916 L 588 303 L 594.3271981050394 294.0018577395339" stroke-miterlimit="10"/></g><g transform="translate(-62,-78) scale(1,1)"><g><path fill="none" stroke="none"/><text fill="#000000" stroke="none" font-family="Arial" font-size="13px" font-style="normal" font-weight="normal" text-decoration="none" x="605.5" y="241.7099609375">«include»</text></g></g><g transform="translate(-62,-78) scale(1,1)"><path fill="none" stroke="#000000" d="M 1102 527 L 1100 559" stroke-miterlimit="10"/></g><g transform="translate(-62,-78) scale(1,1)"><path fill="none" stroke="#000000" d="M 1096.4326101898096 548.594533650905 L 1100 559 L 1104.8352502909322 549.1196986572251" stroke-miterlimit="10"/></g><g transform="translate(-62,-78) scale(1,1)"><path fill="#C0C0C0" stroke="none" d="M 703 258.5 C 703 243.31216799999999 747.0999472 231 801.5 231 C 855.9000528 231 900 243.31216799999999 900 258.5 C 900 273.687832 855.9000528 286 801.5 286 C 747.0999472 286 703 273.687832 703 258.5 Z" opacity="0.2"/></g><g transform="translate(-62,-78) scale(1,1)"><path fill="#ffffff" stroke="none" d="M 696 251.5 C 696 236.31216799999999 740.0999472 224 794.5 224 C 848.9000528 224 893 236.31216799999999 893 251.5 C 893 266.687832 848.9000528 279 794.5 279 C 740.0999472 279 696 266.687832 696 251.5 Z"/></g><g transform="translate(-62,-78) scale(1,1)"><path fill="none" stroke="#000000" d="M 696 251.5 C 696 236.31216799999999 740.0999472 224 794.5 224 C 848.9000528 224 893 236.31216799999999 893 251.5 C 893 266.687832 848.9000528 279 794.5 279 C 740.0999472 279 696 266.687832 696 251.5 Z" stroke-miterlimit="10"/></g><g transform="translate(-62,-78) scale(1,1)"><g><path fill="none" stroke="none"/><text fill="#000000" stroke="none" font-family="Arial" font-size="13px" font-style="normal" font-weight="bold" text-decoration="none" x="748.2763671875" y="256.7099609375">Load 3D Model</text></g></g><g transform="translate(-62,-78) scale(1,1)"><path fill="none" stroke="#000000" d="M 676 160 L 758 223" stroke-miterlimit="10" stroke-dasharray="3"/></g><g transform="translate(-62,-78) scale(1,1)"><path fill="none" stroke="#000000" d="M 747.3765475271323 220.14653586727994 L 758 223 L 752.5057885549411 213.47038087870328" stroke-miterlimit="10"/></g><g transform="translate(-62,-78) scale(1,1)"><path fill="none" stroke="#000000" d="M 894 229 L 991 209" stroke-miterlimit="10"/></g><g transform="translate(-62,-78) scale(1,1)"><path fill="none" stroke="#000000" d="M 894 280 L 1002 311" stroke-miterlimit="10"/></g><g transform="translate(-62,-78) scale(1,1)"><path fill="#C0C0C0" stroke="none" d="M 663 450.5 C 663 435.312168 697.0263552 423 739 423 C 780.9736448 423 815 435.312168 815 450.5 C 815 465.687832 780.9736448 478 739 478 C 697.0263552 478 663 465.687832 663 450.5 Z" opacity="0.2"/></g><g transform="translate(-62,-78) scale(1,1)"><path fill="#ffffff" stroke="none" d="M 656 443.5 C 656 428.312168 690.0263552 416 732 416 C 773.9736448 416 808 428.312168 808 443.5 C 808 458.687832 773.9736448 471 732 471 C 690.0263552 471 656 458.687832 656 443.5 Z"/></g><g transform="translate(-62,-78) scale(1,1)"><path fill="none" stroke="#000000" d="M 656 443.5 C 656 428.312168 690.0263552 416 732 416 C 773.9736448 416 808 428.312168 808 443.5 C 808 458.687832 773.9736448 471 732 471 C 690.0263552 471 656 458.687832 656 443.5 Z" stroke-miterlimit="10"/></g><g transform="translate(-62,-78) scale(1,1)"><g><path fill="none" stroke="none"/><text fill="#000000" stroke="none" font-family="Arial" font-size="13px" font-style="normal" font-weight="bold" text-decoration="none" x="684.31640625" y="448.7099609375">Place 3D Model</text></g></g><g transform="translate(-62,-78) scale(1,1)"><path fill="none" stroke="#000000" d="M 1058 213 L 772 415" stroke-miterlimit="10"/></g><g transform="translate(-62,-78) scale(1,1)"><path fill="none" stroke="#000000" d="M 1002 365 L 809 421" stroke-miterlimit="10"/></g><g transform="translate(-62,-78) scale(1,1)"><path fill="#C0C0C0" stroke="none" d="M 591 594.5 C 591 579.312168 641.5918176 567 704 567 C 766.4081824 567 817 579.312168 817 594.5 C 817 609.687832 766.4081824 622 704 622 C 641.5918176 622 591 609.687832 591 594.5 Z" opacity="0.2"/></g><g transform="translate(-62,-78) scale(1,1)"><path fill="#ffffff" stroke="none" d="M 584 587.5 C 584 572.312168 634.5918176 560 697 560 C 759.4081824 560 810 572.312168 810 587.5 C 810 602.687832 759.4081824 615 697 615 C 634.5918176 615 584 602.687832 584 587.5 Z"/></g><g transform="translate(-62,-78) scale(1,1)"><path fill="none" stroke="#000000" d="M 584 587.5 C 584 572.312168 634.5918176 560 697 560 C 759.4081824 560 810 572.312168 810 587.5 C 810 602.687832 759.4081824 615 697 615 C 634.5918176 615 584 602.687832 584 587.5 Z" stroke-miterlimit="10"/></g><g transform="translate(-62,-78) scale(1,1)"><g><path fill="none" stroke="none"/><text fill="#000000" stroke="none" font-family="Arial" font-size="13px" font-style="normal" font-weight="bold" text-decoration="none" x="646.069580078125" y="592.7099609375">Create 3D Model</text></g></g><g transform="translate(-62,-78) scale(1,1)"><path fill="none" stroke="#000000" d="M 725 472 L 704 559" stroke-miterlimit="10" stroke-dasharray="3"/></g><g transform="translate(-62,-78) scale(1,1)"><path fill="none" stroke="#000000" d="M 702.292578129058 548.1333210890066 L 704 559 L 710.476572763651 550.1087680697705" stroke-miterlimit="10"/></g><g transform="translate(-62,-78) scale(1,1)"><g><path fill="none" stroke="none"/><text fill="#000000" stroke="none" font-family="Arial" font-size="13px" font-style="normal" font-weight="normal" text-decoration="none" x="715.5" y="525.7099609375">«include»</text></g></g><g transform="translate(-62,-78) scale(1,1)"><path fill="none" stroke="#000000" d="M 811 587 L 1007 586" stroke-miterlimit="10"/></g></g></svg>