<svg version="1.1" xmlns="http://www.w3.org/2000/svg" xmlns:xlink="http://www.w3.org/1999/xlink" width="941.21728515625" height="580"><defs/><g><text fill="#eeeeee" stroke="none" font-family="Arial" font-size="24px" font-style="normal" font-weight="normal" text-decoration="none" x="0" y="0">UNREGISTERED</text><text fill="#eeeeee" stroke="none" font-family="Arial" font-size="24px" font-style="normal" font-weight="normal" text-decoration="none" x="0" y="30">UNREGISTERED</text><text fill="#eeeeee" stroke="none" font-family="Arial" font-size="24px" font-style="normal" font-weight="normal" text-decoration="none" x="0" y="60">UNREGISTERED</text><text fill="#eeeeee" stroke="none" font-family="Arial" font-size="24px" font-style="normal" font-weight="normal" text-decoration="none" x="0" y="90">UNREGISTERED</text><text fill="#eeeeee" stroke="none" font-family="Arial" font-size="24px" font-style="normal" font-weight="normal" text-decoration="none" x="0" y="120">UNREGISTERED</text><text fill="#eeeeee" stroke="none" font-family="Arial" font-size="24px" font-style="normal" font-weight="normal" text-decoration="none" x="0" y="150">UNREGISTERED</text><text fill="#eeeeee" stroke="none" font-family="Arial" font-size="24px" font-style="normal" font-weight="normal" text-decoration="none" x="0" y="180">UNREGISTERED</text><text fill="#eeeeee" stroke="none" font-family="Arial" font-size="24px" font-style="normal" font-weight="normal" text-decoration="none" x="0" y="210">UNREGISTERED</text><text fill="#eeeeee" stroke="none" font-family="Arial" font-size="24px" font-style="normal" font-weight="normal" text-decoration="none" x="0" y="240">UNREGISTERED</text><text fill="#eeeeee" stroke="none" font-family="Arial" font-size="24px" font-style="normal" font-weight="normal" text-decoration="none" x="0" y="270">UNREGISTERED</text><text fill="#eeeeee" stroke="none" font-family="Arial" font-size="24px" font-style="normal" font-weight="normal" text-decoration="none" x="0" y="300">UNREGISTERED</text><text fill="#eeeeee" stroke="none" font-family="Arial" font-size="24px" font-style="normal" font-weight="normal" text-decoration="none" x="0" y="330">UNREGISTERED</text><text fill="#eeeeee" stroke="none" font-family="Arial" font-size="24px" font-style="normal" font-weight="normal" text-decoration="none" x="0" y="360">UNREGISTERED</text><text fill="#eeeeee" stroke="none" font-family="Arial" font-size="24px" font-style="normal" font-weight="normal" text-decoration="none" x="0" y="390">UNREGISTERED</text><text fill="#eeeeee" stroke="none" font-family="Arial" font-size="24px" font-style="normal" font-weight="normal" text-decoration="none" x="0" y="420">UNREGISTERED</text><text fill="#eeeeee" stroke="none" font-family="Arial" font-size="24px" font-style="normal" font-weight="normal" text-decoration="none" x="0" y="450">UNREGISTERED</text><text fill="#eeeeee" stroke="none" font-family="Arial" font-size="24px" font-style="normal" font-weight="normal" text-decoration="none" x="0" y="480">UNREGISTERED</text><text fill="#eeeeee" stroke="none" font-family="Arial" font-size="24px" font-style="normal" font-weight="normal" text-decoration="none" x="0" y="510">UNREGISTERED</text><text fill="#eeeeee" stroke="none" font-family="Arial" font-size="24px" font-style="normal" font-weight="normal" text-decoration="none" x="0" y="540">UNREGISTERED</text><text fill="#eeeeee" stroke="none" font-family="Arial" font-size="24px" font-style="normal" font-weight="normal" text-decoration="none" x="0" y="570">UNREGISTERED</text><text fill="#eeeeee" stroke="none" font-family="Arial" font-size="24px" font-style="normal" font-weight="normal" text-decoration="none" x="200" y="0">UNREGISTERED</text><text fill="#eeeeee" stroke="none" font-family="Arial" font-size="24px" font-style="normal" font-weight="normal" text-decoration="none" x="200" y="30">UNREGISTERED</text><text fill="#eeeeee" stroke="none" font-family="Arial" font-size="24px" font-style="normal" font-weight="normal" text-decoration="none" x="200" y="60">UNREGISTERED</text><text fill="#eeeeee" stroke="none" font-family="Arial" font-size="24px" font-style="normal" font-weight="normal" text-decoration="none" x="200" y="90">UNREGISTERED</text><text fill="#eeeeee" stroke="none" font-family="Arial" font-size="24px" font-style="normal" font-weight="normal" text-decoration="none" x="200" y="120">UNREGISTERED</text><text fill="#eeeeee" stroke="none" font-family="Arial" font-size="24px" font-style="normal" font-weight="normal" text-decoration="none" x="200" y="150">UNREGISTERED</text><text fill="#eeeeee" stroke="none" font-family="Arial" font-size="24px" font-style="normal" font-weight="normal" text-decoration="none" x="200" y="180">UNREGISTERED</text><text fill="#eeeeee" stroke="none" font-family="Arial" font-size="24px" font-style="normal" font-weight="normal" text-decoration="none" x="200" y="210">UNREGISTERED</text><text fill="#eeeeee" stroke="none" font-family="Arial" font-size="24px" font-style="normal" font-weight="normal" text-decoration="none" x="200" y="240">UNREGISTERED</text><text fill="#eeeeee" stroke="none" font-family="Arial" font-size="24px" font-style="normal" font-weight="normal" text-decoration="none" x="200" y="270">UNREGISTERED</text><text fill="#eeeeee" stroke="none" font-family="Arial" font-size="24px" font-style="normal" font-weight="normal" text-decoration="none" x="200" y="300">UNREGISTERED</text><text fill="#eeeeee" stroke="none" font-family="Arial" font-size="24px" font-style="normal" font-weight="normal" text-decoration="none" x="200" y="330">UNREGISTERED</text><text fill="#eeeeee" stroke="none" font-family="Arial" font-size="24px" font-style="normal" font-weight="normal" text-decoration="none" x="200" y="360">UNREGISTERED</text><text fill="#eeeeee" stroke="none" font-family="Arial" font-size="24px" font-style="normal" font-weight="normal" text-decoration="none" x="200" y="390">UNREGISTERED</text><text fill="#eeeeee" stroke="none" font-family="Arial" font-size="24px" font-style="normal" font-weight="normal" text-decoration="none" x="200" y="420">UNREGISTERED</text><text fill="#eeeeee" stroke="none" font-family="Arial" font-size="24px" font-style="normal" font-weight="normal" text-decoration="none" x="200" y="450">UNREGISTERED</text><text fill="#eeeeee" stroke="none" font-family="Arial" font-size="24px" font-style="normal" font-weight="normal" text-decoration="none" x="200" y="480">UNREGISTERED</text><text fill="#eeeeee" stroke="none" font-family="Arial" font-size="24px" font-style="normal" font-weight="normal" text-decoration="none" x="200" y="510">UNREGISTERED</text><text fill="#eeeeee" stroke="none" font-family="Arial" font-size="24px" font-style="normal" font-weight="normal" text-decoration="none" x="200" y="540">UNREGISTERED</text><text fill="#eeeeee" stroke="none" font-family="Arial" font-size="24px" font-style="normal" font-weight="normal" text-decoration="none" x="200" y="570">UNREGISTERED</text><text fill="#eeeeee" stroke="none" font-family="Arial" font-size="24px" font-style="normal" font-weight="normal" text-decoration="none" x="400" y="0">UNREGISTERED</text><text fill="#eeeeee" stroke="none" font-family="Arial" font-size="24px" font-style="normal" font-weight="normal" text-decoration="none" x="400" y="30">UNREGISTERED</text><text fill="#eeeeee" stroke="none" font-family="Arial" font-size="24px" font-style="normal" font-weight="normal" text-decoration="none" x="400" y="60">UNREGISTERED</text><text fill="#eeeeee" stroke="none" font-family="Arial" font-size="24px" font-style="normal" font-weight="normal" text-decoration="none" x="400" y="90">UNREGISTERED</text><text fill="#eeeeee" stroke="none" font-family="Arial" font-size="24px" font-style="normal" font-weight="normal" text-decoration="none" x="400" y="120">UNREGISTERED</text><text fill="#eeeeee" stroke="none" font-family="Arial" font-size="24px" font-style="normal" font-weight="normal" text-decoration="none" x="400" y="150">UNREGISTERED</text><text fill="#eeeeee" stroke="none" font-family="Arial" font-size="24px" font-style="normal" font-weight="normal" text-decoration="none" x="400" y="180">UNREGISTERED</text><text fill="#eeeeee" stroke="none" font-family="Arial" font-size="24px" font-style="normal" font-weight="normal" text-decoration="none" x="400" y="210">UNREGISTERED</text><text fill="#eeeeee" stroke="none" font-family="Arial" font-size="24px" font-style="normal" font-weight="normal" text-decoration="none" x="400" y="240">UNREGISTERED</text><text fill="#eeeeee" stroke="none" font-family="Arial" font-size="24px" font-style="normal" font-weight="normal" text-decoration="none" x="400" y="270">UNREGISTERED</text><text fill="#eeeeee" stroke="none" font-family="Arial" font-size="24px" font-style="normal" font-weight="normal" text-decoration="none" x="400" y="300">UNREGISTERED</text><text fill="#eeeeee" stroke="none" font-family="Arial" font-size="24px" font-style="normal" font-weight="normal" text-decoration="none" x="400" y="330">UNREGISTERED</text><text fill="#eeeeee" stroke="none" font-family="Arial" font-size="24px" font-style="normal" font-weight="normal" text-decoration="none" x="400" y="360">UNREGISTERED</text><text fill="#eeeeee" stroke="none" font-family="Arial" font-size="24px" font-style="normal" font-weight="normal" text-decoration="none" x="400" y="390">UNREGISTERED</text><text fill="#eeeeee" stroke="none" font-family="Arial" font-size="24px" font-style="normal" font-weight="normal" text-decoration="none" x="400" y="420">UNREGISTERED</text><text fill="#eeeeee" stroke="none" font-family="Arial" font-size="24px" font-style="normal" font-weight="normal" text-decoration="none" x="400" y="450">UNREGISTERED</text><text fill="#eeeeee" stroke="none" font-family="Arial" font-size="24px" font-style="normal" font-weight="normal" text-decoration="none" x="400" y="480">UNREGISTERED</text><text fill="#eeeeee" stroke="none" font-family="Arial" font-size="24px" font-style="normal" font-weight="normal" text-decoration="none" x="400" y="510">UNREGISTERED</text><text fill="#eeeeee" stroke="none" font-family="Arial" font-size="24px" font-style="normal" font-weight="normal" text-decoration="none" x="400" y="540">UNREGISTERED</text><text fill="#eeeeee" stroke="none" font-family="Arial" font-size="24px" font-style="normal" font-weight="normal" text-decoration="none" x="400" y="570">UNREGISTERED</text><text fill="#eeeeee" stroke="none" font-family="Arial" font-size="24px" font-style="normal" font-weight="normal" text-decoration="none" x="600" y="0">UNREGISTERED</text><text fill="#eeeeee" stroke="none" font-family="Arial" font-size="24px" font-style="normal" font-weight="normal" text-decoration="none" x="600" y="30">UNREGISTERED</text><text fill="#eeeeee" stroke="none" font-family="Arial" font-size="24px" font-style="normal" font-weight="normal" text-decoration="none" x="600" y="60">UNREGISTERED</text><text fill="#eeeeee" stroke="none" font-family="Arial" font-size="24px" font-style="normal" font-weight="normal" text-decoration="none" x="600" y="90">UNREGISTERED</text><text fill="#eeeeee" stroke="none" font-family="Arial" font-size="24px" font-style="normal" font-weight="normal" text-decoration="none" x="600" y="120">UNREGISTERED</text><text fill="#eeeeee" stroke="none" font-family="Arial" font-size="24px" font-style="normal" font-weight="normal" text-decoration="none" x="600" y="150">UNREGISTERED</text><text fill="#eeeeee" stroke="none" font-family="Arial" font-size="24px" font-style="normal" font-weight="normal" text-decoration="none" x="600" y="180">UNREGISTERED</text><text fill="#eeeeee" stroke="none" font-family="Arial" font-size="24px" font-style="normal" font-weight="normal" text-decoration="none" x="600" y="210">UNREGISTERED</text><text fill="#eeeeee" stroke="none" font-family="Arial" font-size="24px" font-style="normal" font-weight="normal" text-decoration="none" x="600" y="240">UNREGISTERED</text><text fill="#eeeeee" stroke="none" font-family="Arial" font-size="24px" font-style="normal" font-weight="normal" text-decoration="none" x="600" y="270">UNREGISTERED</text><text fill="#eeeeee" stroke="none" font-family="Arial" font-size="24px" font-style="normal" font-weight="normal" text-decoration="none" x="600" y="300">UNREGISTERED</text><text fill="#eeeeee" stroke="none" font-family="Arial" font-size="24px" font-style="normal" font-weight="normal" text-decoration="none" x="600" y="330">UNREGISTERED</text><text fill="#eeeeee" stroke="none" font-family="Arial" font-size="24px" font-style="normal" font-weight="normal" text-decoration="none" x="600" y="360">UNREGISTERED</text><text fill="#eeeeee" stroke="none" font-family="Arial" font-size="24px" font-style="normal" font-weight="normal" text-decoration="none" x="600" y="390">UNREGISTERED</text><text fill="#eeeeee" stroke="none" font-family="Arial" font-size="24px" font-style="normal" font-weight="normal" text-decoration="none" x="600" y="420">UNREGISTERED</text><text fill="#eeeeee" stroke="none" font-family="Arial" font-size="24px" font-style="normal" font-weight="normal" text-decoration="none" x="600" y="450">UNREGISTERED</text><text fill="#eeeeee" stroke="none" font-family="Arial" font-size="24px" font-style="normal" font-weight="normal" text-decoration="none" x="600" y="480">UNREGISTERED</text><text fill="#eeeeee" stroke="none" font-family="Arial" font-size="24px" font-style="normal" font-weight="normal" text-decoration="none" x="600" y="510">UNREGISTERED</text><text fill="#eeeeee" stroke="none" font-family="Arial" font-size="24px" font-style="normal" font-weight="normal" text-decoration="none" x="600" y="540">UNREGISTERED</text><text fill="#eeeeee" stroke="none" font-family="Arial" font-size="24px" font-style="normal" font-weight="normal" text-decoration="none" x="600" y="570">UNREGISTERED</text><text fill="#eeeeee" stroke="none" font-family="Arial" font-size="24px" font-style="normal" font-weight="normal" text-decoration="none" x="800" y="0">UNREGISTERED</text><text fill="#eeeeee" stroke="none" font-family="Arial" font-size="24px" font-style="normal" font-weight="normal" text-decoration="none" x="800" y="30">UNREGISTERED</text><text fill="#eeeeee" stroke="none" font-family="Arial" font-size="24px" font-style="normal" font-weight="normal" text-decoration="none" x="800" y="60">UNREGISTERED</text><text fill="#eeeeee" stroke="none" font-family="Arial" font-size="24px" font-style="normal" font-weight="normal" text-decoration="none" x="800" y="90">UNREGISTERED</text><text fill="#eeeeee" stroke="none" font-family="Arial" font-size="24px" font-style="normal" font-weight="normal" text-decoration="none" x="800" y="120">UNREGISTERED</text><text fill="#eeeeee" stroke="none" font-family="Arial" font-size="24px" font-style="normal" font-weight="normal" text-decoration="none" x="800" y="150">UNREGISTERED</text><text fill="#eeeeee" stroke="none" font-family="Arial" font-size="24px" font-style="normal" font-weight="normal" text-decoration="none" x="800" y="180">UNREGISTERED</text><text fill="#eeeeee" stroke="none" font-family="Arial" font-size="24px" font-style="normal" font-weight="normal" text-decoration="none" x="800" y="210">UNREGISTERED</text><text fill="#eeeeee" stroke="none" font-family="Arial" font-size="24px" font-style="normal" font-weight="normal" text-decoration="none" x="800" y="240">UNREGISTERED</text><text fill="#eeeeee" stroke="none" font-family="Arial" font-size="24px" font-style="normal" font-weight="normal" text-decoration="none" x="800" y="270">UNREGISTERED</text><text fill="#eeeeee" stroke="none" font-family="Arial" font-size="24px" font-style="normal" font-weight="normal" text-decoration="none" x="800" y="300">UNREGISTERED</text><text fill="#eeeeee" stroke="none" font-family="Arial" font-size="24px" font-style="normal" font-weight="normal" text-decoration="none" x="800" y="330">UNREGISTERED</text><text fill="#eeeeee" stroke="none" font-family="Arial" font-size="24px" font-style="normal" font-weight="normal" text-decoration="none" x="800" y="360">UNREGISTERED</text><text fill="#eeeeee" stroke="none" font-family="Arial" font-size="24px" font-style="normal" font-weight="normal" text-decoration="none" x="800" y="390">UNREGISTERED</text><text fill="#eeeeee" stroke="none" font-family="Arial" font-size="24px" font-style="normal" font-weight="normal" text-decoration="none" x="800" y="420">UNREGISTERED</text><text fill="#eeeeee" stroke="none" font-family="Arial" font-size="24px" font-style="normal" font-weight="normal" text-decoration="none" x="800" y="450">UNREGISTERED</text><text fill="#eeeeee" stroke="none" font-family="Arial" font-size="24px" font-style="normal" font-weight="normal" text-decoration="none" x="800" y="480">UNREGISTERED</text><text fill="#eeeeee" stroke="none" font-family="Arial" font-size="24px" font-style="normal" font-weight="normal" text-decoration="none" x="800" y="510">UNREGISTERED</text><text fill="#eeeeee" stroke="none" font-family="Arial" font-size="24px" font-style="normal" font-weight="normal" text-decoration="none" x="800" y="540">UNREGISTERED</text><text fill="#eeeeee" stroke="none" font-family="Arial" font-size="24px" font-style="normal" font-weight="normal" text-decoration="none" x="800" y="570">UNREGISTERED</text><g transform="translate(-190,-101) scale(1,1)"><path fill="#C0C0C0" stroke="none" d="M 455 154.5 C 455 139.31216799999999 499.0999472 127 553.5 127 C 607.9000528 127 652 139.31216799999999 652 154.5 C 652 169.68783200000001 607.9000528 182 553.5 182 C 499.0999472 182 455 169.68783200000001 455 154.5 Z" opacity="0.2"/></g><g transform="translate(-190,-101) scale(1,1)"><path fill="#ffffff" stroke="none" d="M 448 147.5 C 448 132.31216799999999 492.0999472 120 546.5 120 C 600.9000528 120 645 132.31216799999999 645 147.5 C 645 162.68783200000001 600.9000528 175 546.5 175 C 492.0999472 175 448 162.68783200000001 448 147.5 Z"/></g><g transform="translate(-190,-101) scale(1,1)"><path fill="none" stroke="#000000" d="M 448 147.5 C 448 132.31216799999999 492.0999472 120 546.5 120 C 600.9000528 120 645 132.31216799999999 645 147.5 C 645 162.68783200000001 600.9000528 175 546.5 175 C 492.0999472 175 448 162.68783200000001 448 147.5 Z" stroke-miterlimit="10"/></g><g transform="translate(-190,-101) scale(1,1)"><g><path fill="none" stroke="none"/><text fill="#000000" stroke="none" font-family="Arial" font-size="13px" font-style="normal" font-weight="bold" text-decoration="none" x="493.760498046875" y="152.7099609375">Start virtual  visit</text></g></g><g transform="translate(-190,-101) scale(1,1)"><path fill="#C0C0C0" stroke="none" d="M 727 154.5 C 727 139.31216799999999 771.0999472 127 825.5 127 C 879.9000528 127 924 139.31216799999999 924 154.5 C 924 169.68783200000001 879.9000528 182 825.5 182 C 771.0999472 182 727 169.68783200000001 727 154.5 Z" opacity="0.2"/></g><g transform="translate(-190,-101) scale(1,1)"><path fill="#ffffff" stroke="none" d="M 720 147.5 C 720 132.31216799999999 764.0999472 120 818.5 120 C 872.9000528 120 917 132.31216799999999 917 147.5 C 917 162.68783200000001 872.9000528 175 818.5 175 C 764.0999472 175 720 162.68783200000001 720 147.5 Z"/></g><g transform="translate(-190,-101) scale(1,1)"><path fill="none" stroke="#000000" d="M 720 147.5 C 720 132.31216799999999 764.0999472 120 818.5 120 C 872.9000528 120 917 132.31216799999999 917 147.5 C 917 162.68783200000001 872.9000528 175 818.5 175 C 764.0999472 175 720 162.68783200000001 720 147.5 Z" stroke-miterlimit="10"/></g><g transform="translate(-190,-101) scale(1,1)"><g><path fill="none" stroke="none"/><text fill="#000000" stroke="none" font-family="Arial" font-size="13px" font-style="normal" font-weight="bold" text-decoration="none" x="772.2763671875" y="152.7099609375">Load 3D Model</text></g></g><g transform="translate(-190,-101) scale(1,1)"><path fill="#C0C0C0" stroke="none" d="M 711 282.5 C 711 267.312168 755.0999472 255 809.5 255 C 863.9000528 255 908 267.312168 908 282.5 C 908 297.687832 863.9000528 310 809.5 310 C 755.0999472 310 711 297.687832 711 282.5 Z" opacity="0.2"/></g><g transform="translate(-190,-101) scale(1,1)"><path fill="#ffffff" stroke="none" d="M 704 275.5 C 704 260.312168 748.0999472 248 802.5 248 C 856.9000528 248 901 260.312168 901 275.5 C 901 290.687832 856.9000528 303 802.5 303 C 748.0999472 303 704 290.687832 704 275.5 Z"/></g><g transform="translate(-190,-101) scale(1,1)"><path fill="none" stroke="#000000" d="M 704 275.5 C 704 260.312168 748.0999472 248 802.5 248 C 856.9000528 248 901 260.312168 901 275.5 C 901 290.687832 856.9000528 303 802.5 303 C 748.0999472 303 704 290.687832 704 275.5 Z" stroke-miterlimit="10"/></g><g transform="translate(-190,-101) scale(1,1)"><g><path fill="none" stroke="none"/><text fill="#000000" stroke="none" font-family="Arial" font-size="13px" font-style="normal" font-weight="bold" text-decoration="none" x="763.84912109375" y="274.2099609375">Navigate the</text><text fill="#000000" stroke="none" font-family="Arial" font-size="13px" font-style="normal" font-weight="bold" text-decoration="none" x="769.279541015625" y="286.7021484375">monument</text></g></g><g transform="translate(-190,-101) scale(1,1)"><path fill="#C0C0C0" stroke="none" d="M 455 354.5 C 455 339.312168 499.0999472 327 553.5 327 C 607.9000528 327 652 339.312168 652 354.5 C 652 369.687832 607.9000528 382 553.5 382 C 499.0999472 382 455 369.687832 455 354.5 Z" opacity="0.2"/></g><g transform="translate(-190,-101) scale(1,1)"><path fill="#ffffff" stroke="none" d="M 448 347.5 C 448 332.312168 492.0999472 320 546.5 320 C 600.9000528 320 645 332.312168 645 347.5 C 645 362.687832 600.9000528 375 546.5 375 C 492.0999472 375 448 362.687832 448 347.5 Z"/></g><g transform="translate(-190,-101) scale(1,1)"><path fill="none" stroke="#000000" d="M 448 347.5 C 448 332.312168 492.0999472 320 546.5 320 C 600.9000528 320 645 332.312168 645 347.5 C 645 362.687832 600.9000528 375 546.5 375 C 492.0999472 375 448 362.687832 448 347.5 Z" stroke-miterlimit="10"/></g><g transform="translate(-190,-101) scale(1,1)"><g><path fill="none" stroke="none"/><text fill="#000000" stroke="none" font-family="Arial" font-size="13px" font-style="normal" font-weight="bold" text-decoration="none" x="514.352294921875" y="352.53857421875">Move POV</text></g></g><g transform="translate(-190,-101) scale(1,1)"><path fill="#C0C0C0" stroke="none" d="M 455 466.5 C 455 451.312168 499.0999472 439 553.5 439 C 607.9000528 439 652 451.312168 652 466.5 C 652 481.687832 607.9000528 494 553.5 494 C 499.0999472 494 455 481.687832 455 466.5 Z" opacity="0.2"/></g><g transform="translate(-190,-101) scale(1,1)"><path fill="#ffffff" stroke="none" d="M 448 459.5 C 448 444.312168 492.0999472 432 546.5 432 C 600.9000528 432 645 444.312168 645 459.5 C 645 474.687832 600.9000528 487 546.5 487 C 492.0999472 487 448 474.687832 448 459.5 Z"/></g><g transform="translate(-190,-101) scale(1,1)"><path fill="none" stroke="#000000" d="M 448 459.5 C 448 444.312168 492.0999472 432 546.5 432 C 600.9000528 432 645 444.312168 645 459.5 C 645 474.687832 600.9000528 487 546.5 487 C 492.0999472 487 448 474.687832 448 459.5 Z" stroke-miterlimit="10"/></g><g transform="translate(-190,-101) scale(1,1)"><g><path fill="none" stroke="none"/><text fill="#000000" stroke="none" font-family="Arial" font-size="13px" font-style="normal" font-weight="bold" text-decoration="none" x="511.825927734375" y="464.7099609375">Play sound</text></g></g><g transform="translate(-190,-101) scale(1,1)"><path fill="#C0C0C0" stroke="none" d="M 719 562.5 C 719 547.312168 769.5918176 535 832 535 C 894.4081824 535 945 547.312168 945 562.5 C 945 577.687832 894.4081824 590 832 590 C 769.5918176 590 719 577.687832 719 562.5 Z" opacity="0.2"/></g><g transform="translate(-190,-101) scale(1,1)"><path fill="#ffffff" stroke="none" d="M 712 555.5 C 712 540.312168 762.5918176 528 825 528 C 887.4081824 528 938 540.312168 938 555.5 C 938 570.687832 887.4081824 583 825 583 C 762.5918176 583 712 570.687832 712 555.5 Z"/></g><g transform="translate(-190,-101) scale(1,1)"><path fill="none" stroke="#000000" d="M 712 555.5 C 712 540.312168 762.5918176 528 825 528 C 887.4081824 528 938 540.312168 938 555.5 C 938 570.687832 887.4081824 583 825 583 C 762.5918176 583 712 570.687832 712 555.5 Z" stroke-miterlimit="10"/></g><g transform="translate(-190,-101) scale(1,1)"><g><path fill="none" stroke="none"/><text fill="#000000" stroke="none" font-family="Arial" font-size="13px" font-style="normal" font-weight="bold" text-decoration="none" x="777.31640625" y="560.7099609375">Place 3D Model</text></g></g><g transform="translate(-190,-101) scale(1,1)"><path fill="#C0C0C0" stroke="none" d="M 575 650.5 C 575 635.312168 625.5918176 623 688 623 C 750.4081824 623 801 635.312168 801 650.5 C 801 665.687832 750.4081824 678 688 678 C 625.5918176 678 575 665.687832 575 650.5 Z" opacity="0.2"/></g><g transform="translate(-190,-101) scale(1,1)"><path fill="#ffffff" stroke="none" d="M 568 643.5 C 568 628.312168 618.5918176 616 681 616 C 743.4081824 616 794 628.312168 794 643.5 C 794 658.687832 743.4081824 671 681 671 C 618.5918176 671 568 658.687832 568 643.5 Z"/></g><g transform="translate(-190,-101) scale(1,1)"><path fill="none" stroke="#000000" d="M 568 643.5 C 568 628.312168 618.5918176 616 681 616 C 743.4081824 616 794 628.312168 794 643.5 C 794 658.687832 743.4081824 671 681 671 C 618.5918176 671 568 658.687832 568 643.5 Z" stroke-miterlimit="10"/></g><g transform="translate(-190,-101) scale(1,1)"><g><path fill="none" stroke="none"/><text fill="#000000" stroke="none" font-family="Arial" font-size="13px" font-style="normal" font-weight="bold" text-decoration="none" x="630.069580078125" y="648.7099609375">Create 3D Model</text></g></g><g transform="translate(-190,-101) scale(1,1)"><path fill="none" stroke="#000000" d="M 778 584 L 727 615" stroke-miterlimit="10" stroke-dasharray="3"/></g><g transform="translate(-190,-101) scale(1,1)"><path fill="none" stroke="#000000" d="M 733.4977407312241 606.12422592729 L 727 615 L 737.8707165685336 613.3184764983475" stroke-miterlimit="10"/></g><g transform="translate(-190,-101) scale(1,1)"><g><path fill="none" stroke="none"/><text fill="#000000" stroke="none" font-family="Arial" font-size="13px" font-style="normal" font-weight="normal" text-decoration="none" x="757.5" y="610.7099609375">«include»</text></g></g><g transform="translate(-190,-101) scale(1,1)"><path fill="#ffffff" stroke="none" d="M 1069.5184607599433 580.23 C 1069.5184607599433 574.027841696 1074.4837037307068 569 1080.608642578125 569 C 1086.7335814255432 569 1091.6988243963067 574.027841696 1091.6988243963067 580.23 C 1091.6988243963067 586.432158304 1086.7335814255432 591.46 1080.608642578125 591.46 C 1074.4837037307068 591.46 1069.5184607599433 586.432158304 1069.5184607599433 580.23 Z"/></g><g transform="translate(-190,-101) scale(1,1)"><path fill="none" stroke="#000000" d="M 1069.5184607599433 580.23 C 1069.5184607599433 574.027841696 1074.4837037307068 569 1080.608642578125 569 C 1086.7335814255432 569 1091.6988243963067 574.027841696 1091.6988243963067 580.23 C 1091.6988243963067 586.432158304 1086.7335814255432 591.46 1080.608642578125 591.46 C 1074.4837037307068 591.46 1069.5184607599433 586.432158304 1069.5184607599433 580.23 Z" stroke-miterlimit="10"/></g><g transform="translate(-190,-101) scale(1,1)"><path fill="none" stroke="#000000" d="M 1080.608642578125 591.46 L 1080.608642578125 613.54" stroke-miterlimit="10"/></g><g transform="translate(-190,-101) scale(1,1)"><path fill="none" stroke="#000000" d="M 1068.8660971235795 599.74 L 1092.3511880326705 599.74" stroke-miterlimit="10"/></g><g transform="translate(-190,-101) scale(1,1)"><path fill="none" stroke="#000000" d="M 1080.608642578125 613.54 L 1064.2995516690341 636" stroke-miterlimit="10"/></g><g transform="translate(-190,-101) scale(1,1)"><path fill="none" stroke="#000000" d="M 1080.608642578125 613.54 L 1096.9177334872159 636" stroke-miterlimit="10"/></g><g transform="translate(-190,-101) scale(1,1)"><g><path fill="none" stroke="none"/><text fill="#000000" stroke="none" font-family="Arial" font-size="13px" font-style="normal" font-weight="bold" text-decoration="none" x="1060.38818359375" y="654.7099609375">Admin</text></g></g><g transform="translate(-190,-101) scale(1,1)"><path fill="none" stroke="#000000" d="M 1039 605 L 939 582" stroke-miterlimit="10"/></g><g transform="translate(-190,-101) scale(1,1)"><path fill="none" stroke="#000000" d="M 949.8476411857013 580.1755327609742 L 939 582 L 947.9605337990557 588.3803474855199" stroke-miterlimit="10"/></g><g transform="translate(-190,-101) scale(1,1)"><path fill="#ffffff" stroke="none" d="M 229.51846075994317 212.23000000000002 C 229.51846075994317 206.02784169600002 234.48370373070682 201 240.608642578125 201 C 246.73358142554318 201 251.69882439630683 206.02784169600002 251.69882439630683 212.23000000000002 C 251.69882439630683 218.432158304 246.73358142554318 223.46 240.608642578125 223.46 C 234.48370373070682 223.46 229.51846075994317 218.432158304 229.51846075994317 212.23000000000002 Z"/></g><g transform="translate(-190,-101) scale(1,1)"><path fill="none" stroke="#000000" d="M 229.51846075994317 212.23000000000002 C 229.51846075994317 206.02784169600002 234.48370373070682 201 240.608642578125 201 C 246.73358142554318 201 251.69882439630683 206.02784169600002 251.69882439630683 212.23000000000002 C 251.69882439630683 218.432158304 246.73358142554318 223.46 240.608642578125 223.46 C 234.48370373070682 223.46 229.51846075994317 218.432158304 229.51846075994317 212.23000000000002 Z" stroke-miterlimit="10"/></g><g transform="translate(-190,-101) scale(1,1)"><path fill="none" stroke="#000000" d="M 240.608642578125 223.46 L 240.608642578125 245.54" stroke-miterlimit="10"/></g><g transform="translate(-190,-101) scale(1,1)"><path fill="none" stroke="#000000" d="M 228.86609712357955 231.74 L 252.35118803267045 231.74" stroke-miterlimit="10"/></g><g transform="translate(-190,-101) scale(1,1)"><path fill="none" stroke="#000000" d="M 240.608642578125 245.54 L 224.2995516690341 268" stroke-miterlimit="10"/></g><g transform="translate(-190,-101) scale(1,1)"><path fill="none" stroke="#000000" d="M 240.608642578125 245.54 L 256.9177334872159 268" stroke-miterlimit="10"/></g><g transform="translate(-190,-101) scale(1,1)"><g><path fill="none" stroke="none"/><text fill="#000000" stroke="none" font-family="Arial" font-size="13px" font-style="normal" font-weight="bold" text-decoration="none" x="220.499267578125" y="286.7099609375">Visitor</text></g></g><g transform="translate(-190,-101) scale(1,1)"><path fill="none" stroke="#000000" d="M 282 233 L 457 176" stroke-miterlimit="10"/></g><g transform="translate(-190,-101) scale(1,1)"><path fill="none" stroke="#000000" d="M 448.6406697715183 183.149936931973 L 457 176 L 446.0332920196086 175.1448297989171" stroke-miterlimit="10"/></g><g transform="translate(-190,-101) scale(1,1)"><path fill="none" stroke="#000000" d="M 282 249 L 703 270" stroke-miterlimit="10"/></g><g transform="translate(-190,-101) scale(1,1)"><path fill="none" stroke="#000000" d="M 692.640229457727 273.69799328169364 L 703 270 L 693.0596598717542 265.28941212429" stroke-miterlimit="10"/></g><g transform="translate(-190,-101) scale(1,1)"><path fill="none" stroke="#000000" d="M 282 261 L 460 319" stroke-miterlimit="10"/></g><g transform="translate(-190,-101) scale(1,1)"><path fill="none" stroke="#000000" d="M 449.03319281672583 319.8538970692574 L 460 319 L 451.6414998646343 311.84909268084874" stroke-miterlimit="10"/></g><g transform="translate(-190,-101) scale(1,1)"><path fill="none" stroke="#000000" d="M 282 276 L 506 431" stroke-miterlimit="10"/></g><g transform="translate(-190,-101) scale(1,1)"><path fill="none" stroke="#000000" d="M 495.2476893543282 428.67883309971614 L 506 431 L 500.03828108447766 421.7556553735647" stroke-miterlimit="10"/></g><g transform="translate(-190,-101) scale(1,1)"><path fill="none" stroke="#000000" d="M 604 176 L 746 247" stroke-miterlimit="10" stroke-dasharray="3"/></g><g transform="translate(-190,-101) scale(1,1)"><path fill="none" stroke="#000000" d="M 735.0276737030609 246.22022077900252 L 746 247 L 738.7927808450386 238.69000649504724" stroke-miterlimit="10"/></g><g transform="translate(-190,-101) scale(1,1)"><g><path fill="none" stroke="none"/><text fill="#000000" stroke="none" font-family="Arial" font-size="13px" font-style="normal" font-weight="normal" text-decoration="none" x="660.5" y="188.7099609375">«include»</text></g></g><g transform="translate(-190,-101) scale(1,1)"><path fill="none" stroke="#000000" d="M 646 147 L 719 147" stroke-miterlimit="10" stroke-dasharray="3"/></g><g transform="translate(-190,-101) scale(1,1)"><path fill="none" stroke="#000000" d="M 708.8373251423759 151.209517756016 L 719 147 L 708.8373251423758 142.790482243984" stroke-miterlimit="10"/></g><g transform="translate(-190,-101) scale(1,1)"><g><path fill="none" stroke="none"/><text fill="#000000" stroke="none" font-family="Arial" font-size="13px" font-style="normal" font-weight="normal" text-decoration="none" x="654.5" y="121.7099609375">«include»</text></g></g><g transform="translate(-190,-101) scale(1,1)"><path fill="none" stroke="#000000" d="M 703 303 L 646 319" stroke-miterlimit="10" stroke-dasharray="3"/></g><g transform="translate(-190,-101) scale(1,1)"><path fill="none" stroke="#000000" d="M 654.6468562896343 312.2005973566488 L 646 319 L 656.9221544354773 320.3063470012146" stroke-miterlimit="10"/></g><g transform="translate(-190,-101) scale(1,1)"><g><path fill="none" stroke="none"/><text fill="#000000" stroke="none" font-family="Arial" font-size="13px" font-style="normal" font-weight="normal" text-decoration="none" x="654.5" y="343.7099609375">«include»</text></g></g><g transform="translate(-190,-101) scale(1,1)"><path fill="none" stroke="#000000" d="M 762 304 L 585 431" stroke-miterlimit="10" stroke-dasharray="3"/></g><g transform="translate(-190,-101) scale(1,1)"><path fill="none" stroke="#000000" d="M 590.8030433134077 421.6552320359083 L 585 431 L 595.7111200744539 428.49562248240574" stroke-miterlimit="10"/></g><g transform="translate(-190,-101) scale(1,1)"><g><path fill="none" stroke="none"/><text fill="#000000" stroke="none" font-family="Arial" font-size="13px" font-style="normal" font-weight="normal" text-decoration="none" x="662.5" y="395.7099609375">«include»</text></g></g></g></svg>