<svg version="1.1" xmlns="http://www.w3.org/2000/svg" xmlns:xlink="http://www.w3.org/1999/xlink" width="1175" height="523"><defs/><g><text fill="#eeeeee" stroke="none" font-family="Arial" font-size="24px" font-style="normal" font-weight="normal" text-decoration="none" x="0" y="0">UNREGISTERED</text><text fill="#eeeeee" stroke="none" font-family="Arial" font-size="24px" font-style="normal" font-weight="normal" text-decoration="none" x="0" y="30">UNREGISTERED</text><text fill="#eeeeee" stroke="none" font-family="Arial" font-size="24px" font-style="normal" font-weight="normal" text-decoration="none" x="0" y="60">UNREGISTERED</text><text fill="#eeeeee" stroke="none" font-family="Arial" font-size="24px" font-style="normal" font-weight="normal" text-decoration="none" x="0" y="90">UNREGISTERED</text><text fill="#eeeeee" stroke="none" font-family="Arial" font-size="24px" font-style="normal" font-weight="normal" text-decoration="none" x="0" y="120">UNREGISTERED</text><text fill="#eeeeee" stroke="none" font-family="Arial" font-size="24px" font-style="normal" font-weight="normal" text-decoration="none" x="0" y="150">UNREGISTERED</text><text fill="#eeeeee" stroke="none" font-family="Arial" font-size="24px" font-style="normal" font-weight="normal" text-decoration="none" x="0" y="180">UNREGISTERED</text><text fill="#eeeeee" stroke="none" font-family="Arial" font-size="24px" font-style="normal" font-weight="normal" text-decoration="none" x="0" y="210">UNREGISTERED</text><text fill="#eeeeee" stroke="none" font-family="Arial" font-size="24px" font-style="normal" font-weight="normal" text-decoration="none" x="0" y="240">UNREGISTERED</text><text fill="#eeeeee" stroke="none" font-family="Arial" font-size="24px" font-style="normal" font-weight="normal" text-decoration="none" x="0" y="270">UNREGISTERED</text><text fill="#eeeeee" stroke="none" font-family="Arial" font-size="24px" font-style="normal" font-weight="normal" text-decoration="none" x="0" y="300">UNREGISTERED</text><text fill="#eeeeee" stroke="none" font-family="Arial" font-size="24px" font-style="normal" font-weight="normal" text-decoration="none" x="0" y="330">UNREGISTERED</text><text fill="#eeeeee" stroke="none" font-family="Arial" font-size="24px" font-style="normal" font-weight="normal" text-decoration="none" x="0" y="360">UNREGISTERED</text><text fill="#eeeeee" stroke="none" font-family="Arial" font-size="24px" font-style="normal" font-weight="normal" text-decoration="none" x="0" y="390">UNREGISTERED</text><text fill="#eeeeee" stroke="none" font-family="Arial" font-size="24px" font-style="normal" font-weight="normal" text-decoration="none" x="0" y="420">UNREGISTERED</text><text fill="#eeeeee" stroke="none" font-family="Arial" font-size="24px" font-style="normal" font-weight="normal" text-decoration="none" x="0" y="450">UNREGISTERED</text><text fill="#eeeeee" stroke="none" font-family="Arial" font-size="24px" font-style="normal" font-weight="normal" text-decoration="none" x="0" y="480">UNREGISTERED</text><text fill="#eeeeee" stroke="none" font-family="Arial" font-size="24px" font-style="normal" font-weight="normal" text-decoration="none" x="0" y="510">UNREGISTERED</text><text fill="#eeeeee" stroke="none" font-family="Arial" font-size="24px" font-style="normal" font-weight="normal" text-decoration="none" x="200" y="0">UNREGISTERED</text><text fill="#eeeeee" stroke="none" font-family="Arial" font-size="24px" font-style="normal" font-weight="normal" text-decoration="none" x="200" y="30">UNREGISTERED</text><text fill="#eeeeee" stroke="none" font-family="Arial" font-size="24px" font-style="normal" font-weight="normal" text-decoration="none" x="200" y="60">UNREGISTERED</text><text fill="#eeeeee" stroke="none" font-family="Arial" font-size="24px" font-style="normal" font-weight="normal" text-decoration="none" x="200" y="90">UNREGISTERED</text><text fill="#eeeeee" stroke="none" font-family="Arial" font-size="24px" font-style="normal" font-weight="normal" text-decoration="none" x="200" y="120">UNREGISTERED</text><text fill="#eeeeee" stroke="none" font-family="Arial" font-size="24px" font-style="normal" font-weight="normal" text-decoration="none" x="200" y="150">UNREGISTERED</text><text fill="#eeeeee" stroke="none" font-family="Arial" font-size="24px" font-style="normal" font-weight="normal" text-decoration="none" x="200" y="180">UNREGISTERED</text><text fill="#eeeeee" stroke="none" font-family="Arial" font-size="24px" font-style="normal" font-weight="normal" text-decoration="none" x="200" y="210">UNREGISTERED</text><text fill="#eeeeee" stroke="none" font-family="Arial" font-size="24px" font-style="normal" font-weight="normal" text-decoration="none" x="200" y="240">UNREGISTERED</text><text fill="#eeeeee" stroke="none" font-family="Arial" font-size="24px" font-style="normal" font-weight="normal" text-decoration="none" x="200" y="270">UNREGISTERED</text><text fill="#eeeeee" stroke="none" font-family="Arial" font-size="24px" font-style="normal" font-weight="normal" text-decoration="none" x="200" y="300">UNREGISTERED</text><text fill="#eeeeee" stroke="none" font-family="Arial" font-size="24px" font-style="normal" font-weight="normal" text-decoration="none" x="200" y="330">UNREGISTERED</text><text fill="#eeeeee" stroke="none" font-family="Arial" font-size="24px" font-style="normal" font-weight="normal" text-decoration="none" x="200" y="360">UNREGISTERED</text><text fill="#eeeeee" stroke="none" font-family="Arial" font-size="24px" font-style="normal" font-weight="normal" text-decoration="none" x="200" y="390">UNREGISTERED</text><text fill="#eeeeee" stroke="none" font-family="Arial" font-size="24px" font-style="normal" font-weight="normal" text-decoration="none" x="200" y="420">UNREGISTERED</text><text fill="#eeeeee" stroke="none" font-family="Arial" font-size="24px" font-style="normal" font-weight="normal" text-decoration="none" x="200" y="450">UNREGISTERED</text><text fill="#eeeeee" stroke="none" font-family="Arial" font-size="24px" font-style="normal" font-weight="normal" text-decoration="none" x="200" y="480">UNREGISTERED</text><text fill="#eeeeee" stroke="none" font-family="Arial" font-size="24px" font-style="normal" font-weight="normal" text-decoration="none" x="200" y="510">UNREGISTERED</text><text fill="#eeeeee" stroke="none" font-family="Arial" font-size="24px" font-style="normal" font-weight="normal" text-decoration="none" x="400" y="0">UNREGISTERED</text><text fill="#eeeeee" stroke="none" font-family="Arial" font-size="24px" font-style="normal" font-weight="normal" text-decoration="none" x="400" y="30">UNREGISTERED</text><text fill="#eeeeee" stroke="none" font-family="Arial" font-size="24px" font-style="normal" font-weight="normal" text-decoration="none" x="400" y="60">UNREGISTERED</text><text fill="#eeeeee" stroke="none" font-family="Arial" font-size="24px" font-style="normal" font-weight="normal" text-decoration="none" x="400" y="90">UNREGISTERED</text><text fill="#eeeeee" stroke="none" font-family="Arial" font-size="24px" font-style="normal" font-weight="normal" text-decoration="none" x="400" y="120">UNREGISTERED</text><text fill="#eeeeee" stroke="none" font-family="Arial" font-size="24px" font-style="normal" font-weight="normal" text-decoration="none" x="400" y="150">UNREGISTERED</text><text fill="#eeeeee" stroke="none" font-family="Arial" font-size="24px" font-style="normal" font-weight="normal" text-decoration="none" x="400" y="180">UNREGISTERED</text><text fill="#eeeeee" stroke="none" font-family="Arial" font-size="24px" font-style="normal" font-weight="normal" text-decoration="none" x="400" y="210">UNREGISTERED</text><text fill="#eeeeee" stroke="none" font-family="Arial" font-size="24px" font-style="normal" font-weight="normal" text-decoration="none" x="400" y="240">UNREGISTERED</text><text fill="#eeeeee" stroke="none" font-family="Arial" font-size="24px" font-style="normal" font-weight="normal" text-decoration="none" x="400" y="270">UNREGISTERED</text><text fill="#eeeeee" stroke="none" font-family="Arial" font-size="24px" font-style="normal" font-weight="normal" text-decoration="none" x="400" y="300">UNREGISTERED</text><text fill="#eeeeee" stroke="none" font-family="Arial" font-size="24px" font-style="normal" font-weight="normal" text-decoration="none" x="400" y="330">UNREGISTERED</text><text fill="#eeeeee" stroke="none" font-family="Arial" font-size="24px" font-style="normal" font-weight="normal" text-decoration="none" x="400" y="360">UNREGISTERED</text><text fill="#eeeeee" stroke="none" font-family="Arial" font-size="24px" font-style="normal" font-weight="normal" text-decoration="none" x="400" y="390">UNREGISTERED</text><text fill="#eeeeee" stroke="none" font-family="Arial" font-size="24px" font-style="normal" font-weight="normal" text-decoration="none" x="400" y="420">UNREGISTERED</text><text fill="#eeeeee" stroke="none" font-family="Arial" font-size="24px" font-style="normal" font-weight="normal" text-decoration="none" x="400" y="450">UNREGISTERED</text><text fill="#eeeeee" stroke="none" font-family="Arial" font-size="24px" font-style="normal" font-weight="normal" text-decoration="none" x="400" y="480">UNREGISTERED</text><text fill="#eeeeee" stroke="none" font-family="Arial" font-size="24px" font-style="normal" font-weight="normal" text-decoration="none" x="400" y="510">UNREGISTERED</text><text fill="#eeeeee" stroke="none" font-family="Arial" font-size="24px" font-style="normal" font-weight="normal" text-decoration="none" x="600" y="0">UNREGISTERED</text><text fill="#eeeeee" stroke="none" font-family="Arial" font-size="24px" font-style="normal" font-weight="normal" text-decoration="none" x="600" y="30">UNREGISTERED</text><text fill="#eeeeee" stroke="none" font-family="Arial" font-size="24px" font-style="normal" font-weight="normal" text-decoration="none" x="600" y="60">UNREGISTERED</text><text fill="#eeeeee" stroke="none" font-family="Arial" font-size="24px" font-style="normal" font-weight="normal" text-decoration="none" x="600" y="90">UNREGISTERED</text><text fill="#eeeeee" stroke="none" font-family="Arial" font-size="24px" font-style="normal" font-weight="normal" text-decoration="none" x="600" y="120">UNREGISTERED</text><text fill="#eeeeee" stroke="none" font-family="Arial" font-size="24px" font-style="normal" font-weight="normal" text-decoration="none" x="600" y="150">UNREGISTERED</text><text fill="#eeeeee" stroke="none" font-family="Arial" font-size="24px" font-style="normal" font-weight="normal" text-decoration="none" x="600" y="180">UNREGISTERED</text><text fill="#eeeeee" stroke="none" font-family="Arial" font-size="24px" font-style="normal" font-weight="normal" text-decoration="none" x="600" y="210">UNREGISTERED</text><text fill="#eeeeee" stroke="none" font-family="Arial" font-size="24px" font-style="normal" font-weight="normal" text-decoration="none" x="600" y="240">UNREGISTERED</text><text fill="#eeeeee" stroke="none" font-family="Arial" font-size="24px" font-style="normal" font-weight="normal" text-decoration="none" x="600" y="270">UNREGISTERED</text><text fill="#eeeeee" stroke="none" font-family="Arial" font-size="24px" font-style="normal" font-weight="normal" text-decoration="none" x="600" y="300">UNREGISTERED</text><text fill="#eeeeee" stroke="none" font-family="Arial" font-size="24px" font-style="normal" font-weight="normal" text-decoration="none" x="600" y="330">UNREGISTERED</text><text fill="#eeeeee" stroke="none" font-family="Arial" font-size="24px" font-style="normal" font-weight="normal" text-decoration="none" x="600" y="360">UNREGISTERED</text><text fill="#eeeeee" stroke="none" font-family="Arial" font-size="24px" font-style="normal" font-weight="normal" text-decoration="none" x="600" y="390">UNREGISTERED</text><text fill="#eeeeee" stroke="none" font-family="Arial" font-size="24px" font-style="normal" font-weight="normal" text-decoration="none" x="600" y="420">UNREGISTERED</text><text fill="#eeeeee" stroke="none" font-family="Arial" font-size="24px" font-style="normal" font-weight="normal" text-decoration="none" x="600" y="450">UNREGISTERED</text><text fill="#eeeeee" stroke="none" font-family="Arial" font-size="24px" font-style="normal" font-weight="normal" text-decoration="none" x="600" y="480">UNREGISTERED</text><text fill="#eeeeee" stroke="none" font-family="Arial" font-size="24px" font-style="normal" font-weight="normal" text-decoration="none" x="600" y="510">UNREGISTERED</text><text fill="#eeeeee" stroke="none" font-family="Arial" font-size="24px" font-style="normal" font-weight="normal" text-decoration="none" x="800" y="0">UNREGISTERED</text><text fill="#eeeeee" stroke="none" font-family="Arial" font-size="24px" font-style="normal" font-weight="normal" text-decoration="none" x="800" y="30">UNREGISTERED</text><text fill="#eeeeee" stroke="none" font-family="Arial" font-size="24px" font-style="normal" font-weight="normal" text-decoration="none" x="800" y="60">UNREGISTERED</text><text fill="#eeeeee" stroke="none" font-family="Arial" font-size="24px" font-style="normal" font-weight="normal" text-decoration="none" x="800" y="90">UNREGISTERED</text><text fill="#eeeeee" stroke="none" font-family="Arial" font-size="24px" font-style="normal" font-weight="normal" text-decoration="none" x="800" y="120">UNREGISTERED</text><text fill="#eeeeee" stroke="none" font-family="Arial" font-size="24px" font-style="normal" font-weight="normal" text-decoration="none" x="800" y="150">UNREGISTERED</text><text fill="#eeeeee" stroke="none" font-family="Arial" font-size="24px" font-style="normal" font-weight="normal" text-decoration="none" x="800" y="180">UNREGISTERED</text><text fill="#eeeeee" stroke="none" font-family="Arial" font-size="24px" font-style="normal" font-weight="normal" text-decoration="none" x="800" y="210">UNREGISTERED</text><text fill="#eeeeee" stroke="none" font-family="Arial" font-size="24px" font-style="normal" font-weight="normal" text-decoration="none" x="800" y="240">UNREGISTERED</text><text fill="#eeeeee" stroke="none" font-family="Arial" font-size="24px" font-style="normal" font-weight="normal" text-decoration="none" x="800" y="270">UNREGISTERED</text><text fill="#eeeeee" stroke="none" font-family="Arial" font-size="24px" font-style="normal" font-weight="normal" text-decoration="none" x="800" y="300">UNREGISTERED</text><text fill="#eeeeee" stroke="none" font-family="Arial" font-size="24px" font-style="normal" font-weight="normal" text-decoration="none" x="800" y="330">UNREGISTERED</text><text fill="#eeeeee" stroke="none" font-family="Arial" font-size="24px" font-style="normal" font-weight="normal" text-decoration="none" x="800" y="360">UNREGISTERED</text><text fill="#eeeeee" stroke="none" font-family="Arial" font-size="24px" font-style="normal" font-weight="normal" text-decoration="none" x="800" y="390">UNREGISTERED</text><text fill="#eeeeee" stroke="none" font-family="Arial" font-size="24px" font-style="normal" font-weight="normal" text-decoration="none" x="800" y="420">UNREGISTERED</text><text fill="#eeeeee" stroke="none" font-family="Arial" font-size="24px" font-style="normal" font-weight="normal" text-decoration="none" x="800" y="450">UNREGISTERED</text><text fill="#eeeeee" stroke="none" font-family="Arial" font-size="24px" font-style="normal" font-weight="normal" text-decoration="none" x="800" y="480">UNREGISTERED</text><text fill="#eeeeee" stroke="none" font-family="Arial" font-size="24px" font-style="normal" font-weight="normal" text-decoration="none" x="800" y="510">UNREGISTERED</text><text fill="#eeeeee" stroke="none" font-family="Arial" font-size="24px" font-style="normal" font-weight="normal" text-decoration="none" x="1000" y="0">UNREGISTERED</text><text fill="#eeeeee" stroke="none" font-family="Arial" font-size="24px" font-style="normal" font-weight="normal" text-decoration="none" x="1000" y="30">UNREGISTERED</text><text fill="#eeeeee" stroke="none" font-family="Arial" font-size="24px" font-style="normal" font-weight="normal" text-decoration="none" x="1000" y="60">UNREGISTERED</text><text fill="#eeeeee" stroke="none" font-family="Arial" font-size="24px" font-style="normal" font-weight="normal" text-decoration="none" x="1000" y="90">UNREGISTERED</text><text fill="#eeeeee" stroke="none" font-family="Arial" font-size="24px" font-style="normal" font-weight="normal" text-decoration="none" x="1000" y="120">UNREGISTERED</text><text fill="#eeeeee" stroke="none" font-family="Arial" font-size="24px" font-style="normal" font-weight="normal" text-decoration="none" x="1000" y="150">UNREGISTERED</text><text fill="#eeeeee" stroke="none" font-family="Arial" font-size="24px" font-style="normal" font-weight="normal" text-decoration="none" x="1000" y="180">UNREGISTERED</text><text fill="#eeeeee" stroke="none" font-family="Arial" font-size="24px" font-style="normal" font-weight="normal" text-decoration="none" x="1000" y="210">UNREGISTERED</text><text fill="#eeeeee" stroke="none" font-family="Arial" font-size="24px" font-style="normal" font-weight="normal" text-decoration="none" x="1000" y="240">UNREGISTERED</text><text fill="#eeeeee" stroke="none" font-family="Arial" font-size="24px" font-style="normal" font-weight="normal" text-decoration="none" x="1000" y="270">UNREGISTERED</text><text fill="#eeeeee" stroke="none" font-family="Arial" font-size="24px" font-style="normal" font-weight="normal" text-decoration="none" x="1000" y="300">UNREGISTERED</text><text fill="#eeeeee" stroke="none" font-family="Arial" font-size="24px" font-style="normal" font-weight="normal" text-decoration="none" x="1000" y="330">UNREGISTERED</text><text fill="#eeeeee" stroke="none" font-family="Arial" font-size="24px" font-style="normal" font-weight="normal" text-decoration="none" x="1000" y="360">UNREGISTERED</text><text fill="#eeeeee" stroke="none" font-family="Arial" font-size="24px" font-style="normal" font-weight="normal" text-decoration="none" x="1000" y="390">UNREGISTERED</text><text fill="#eeeeee" stroke="none" font-family="Arial" font-size="24px" font-style="normal" font-weight="normal" text-decoration="none" x="1000" y="420">UNREGISTERED</text><text fill="#eeeeee" stroke="none" font-family="Arial" font-size="24px" font-style="normal" font-weight="normal" text-decoration="none" x="1000" y="450">UNREGISTERED</text><text fill="#eeeeee" stroke="none" font-family="Arial" font-size="24px" font-style="normal" font-weight="normal" text-decoration="none" x="1000" y="480">UNREGISTERED</text><text fill="#eeeeee" stroke="none" font-family="Arial" font-size="24px" font-style="normal" font-weight="normal" text-decoration="none" x="1000" y="510">UNREGISTERED</text><g transform="translate(-30,-14) scale(1,1)"><path fill="#ffffff" stroke="none" d="M 511.60661594460225 457.68 C 511.60661594460225 452.886167936 515.4924582695477 449 520.285888671875 449 C 525.0793190742023 449 528.9651613991477 452.886167936 528.9651613991477 457.68 C 528.9651613991477 462.473832064 525.0793190742023 466.36 520.285888671875 466.36 C 515.4924582695477 466.36 511.60661594460225 462.473832064 511.60661594460225 457.68 Z"/></g><g transform="translate(-30,-14) scale(1,1)"><path fill="none" stroke="#000000" d="M 511.60661594460225 457.68 C 511.60661594460225 452.886167936 515.4924582695477 449 520.285888671875 449 C 525.0793190742023 449 528.9651613991477 452.886167936 528.9651613991477 457.68 C 528.9651613991477 462.473832064 525.0793190742023 466.36 520.285888671875 466.36 C 515.4924582695477 466.36 511.60661594460225 462.473832064 511.60661594460225 457.68 Z" stroke-miterlimit="10"/></g><g transform="translate(-30,-14) scale(1,1)"><path fill="none" stroke="#000000" d="M 520.285888671875 466.36 L 520.285888671875 483.64" stroke-miterlimit="10"/></g><g transform="translate(-30,-14) scale(1,1)"><path fill="none" stroke="#000000" d="M 511.09607049005683 472.84 L 529.4757068536932 472.84" stroke-miterlimit="10"/></g><g transform="translate(-30,-14) scale(1,1)"><path fill="none" stroke="#000000" d="M 520.285888671875 483.64 L 507.52225230823865 501" stroke-miterlimit="10"/></g><g transform="translate(-30,-14) scale(1,1)"><path fill="none" stroke="#000000" d="M 520.285888671875 483.64 L 533.0495250355114 501" stroke-miterlimit="10"/></g><g transform="translate(-30,-14) scale(1,1)"><g><path fill="none" stroke="none"/><text fill="#000000" stroke="none" font-family="Arial" font-size="13px" font-style="normal" font-weight="bold" text-decoration="none" x="436.5" y="519.7099609375">Metadata Exporting Engine</text></g></g><g transform="translate(-30,-14) scale(1,1)"><path fill="#ffffff" stroke="none" d="M 743.8588132102273 361.68 C 743.8588132102273 356.886167936 747.7446555351727 353 752.5380859375 353 C 757.3315163398273 353 761.2173586647727 356.886167936 761.2173586647727 361.68 C 761.2173586647727 366.473832064 757.3315163398273 370.36 752.5380859375 370.36 C 747.7446555351727 370.36 743.8588132102273 366.473832064 743.8588132102273 361.68 Z"/></g><g transform="translate(-30,-14) scale(1,1)"><path fill="none" stroke="#000000" d="M 743.8588132102273 361.68 C 743.8588132102273 356.886167936 747.7446555351727 353 752.5380859375 353 C 757.3315163398273 353 761.2173586647727 356.886167936 761.2173586647727 361.68 C 761.2173586647727 366.473832064 757.3315163398273 370.36 752.5380859375 370.36 C 747.7446555351727 370.36 743.8588132102273 366.473832064 743.8588132102273 361.68 Z" stroke-miterlimit="10"/></g><g transform="translate(-30,-14) scale(1,1)"><path fill="none" stroke="#000000" d="M 752.5380859375 370.36 L 752.5380859375 387.64" stroke-miterlimit="10"/></g><g transform="translate(-30,-14) scale(1,1)"><path fill="none" stroke="#000000" d="M 743.3482677556818 376.84 L 761.7279041193182 376.84" stroke-miterlimit="10"/></g><g transform="translate(-30,-14) scale(1,1)"><path fill="none" stroke="#000000" d="M 752.5380859375 387.64 L 739.7744495738636 405" stroke-miterlimit="10"/></g><g transform="translate(-30,-14) scale(1,1)"><path fill="none" stroke="#000000" d="M 752.5380859375 387.64 L 765.3017223011364 405" stroke-miterlimit="10"/></g><g transform="translate(-30,-14) scale(1,1)"><g><path fill="none" stroke="none"/><text fill="#000000" stroke="none" font-family="Arial" font-size="13px" font-style="normal" font-weight="bold" text-decoration="none" x="700.5" y="423.53857421875">Harvester Server</text></g></g><g transform="translate(-30,-14) scale(1,1)"><path fill="#ffffff" stroke="none" d="M 193.33342258522728 305.68 C 193.33342258522728 300.886167936 197.21926491017274 297 202.0126953125 297 C 206.80612571482726 297 210.69196803977272 300.886167936 210.69196803977272 305.68 C 210.69196803977272 310.473832064 206.80612571482726 314.36 202.0126953125 314.36 C 197.21926491017274 314.36 193.33342258522728 310.473832064 193.33342258522728 305.68 Z"/></g><g transform="translate(-30,-14) scale(1,1)"><path fill="none" stroke="#000000" d="M 193.33342258522728 305.68 C 193.33342258522728 300.886167936 197.21926491017274 297 202.0126953125 297 C 206.80612571482726 297 210.69196803977272 300.886167936 210.69196803977272 305.68 C 210.69196803977272 310.473832064 206.80612571482726 314.36 202.0126953125 314.36 C 197.21926491017274 314.36 193.33342258522728 310.473832064 193.33342258522728 305.68 Z" stroke-miterlimit="10"/></g><g transform="translate(-30,-14) scale(1,1)"><path fill="none" stroke="#000000" d="M 202.0126953125 314.36 L 202.0126953125 331.64" stroke-miterlimit="10"/></g><g transform="translate(-30,-14) scale(1,1)"><path fill="none" stroke="#000000" d="M 192.82287713068183 320.84 L 211.20251349431817 320.84" stroke-miterlimit="10"/></g><g transform="translate(-30,-14) scale(1,1)"><path fill="none" stroke="#000000" d="M 202.0126953125 331.64 L 189.24905894886365 349" stroke-miterlimit="10"/></g><g transform="translate(-30,-14) scale(1,1)"><path fill="none" stroke="#000000" d="M 202.0126953125 331.64 L 214.77633167613635 349" stroke-miterlimit="10"/></g><g transform="translate(-30,-14) scale(1,1)"><g><path fill="none" stroke="none"/><text fill="#000000" stroke="none" font-family="Arial" font-size="13px" font-style="normal" font-weight="bold" text-decoration="none" x="156.5" y="367.7099609375">Digital Archive</text></g></g><g transform="translate(-30,-14) scale(1,1)"><path fill="#C0C0C0" stroke="none" d="M 415 384 C 415 374.6111584 468.2781088 367 534 367 C 599.7218912 367 653 374.6111584 653 384 C 653 393.3888416 599.7218912 401 534 401 C 468.2781088 401 415 393.3888416 415 384 Z" opacity="0.2"/></g><g transform="translate(-30,-14) scale(1,1)"><path fill="#ffffff" stroke="none" d="M 408 377 C 408 367.6111584 461.2781088 360 527 360 C 592.7218912 360 646 367.6111584 646 377 C 646 386.3888416 592.7218912 394 527 394 C 461.2781088 394 408 386.3888416 408 377 Z"/></g><g transform="translate(-30,-14) scale(1,1)"><path fill="none" stroke="#000000" d="M 408 377 C 408 367.6111584 461.2781088 360 527 360 C 592.7218912 360 646 367.6111584 646 377 C 646 386.3888416 592.7218912 394 527 394 C 461.2781088 394 408 386.3888416 408 377 Z" stroke-miterlimit="10"/></g><g transform="translate(-30,-14) scale(1,1)"><g><path fill="none" stroke="none"/><text fill="#000000" stroke="none" font-family="Arial" font-size="13px" font-style="normal" font-weight="bold" text-decoration="none" x="447.187744140625" y="382.2099609375">Export Application Profile</text></g></g><g transform="translate(-30,-14) scale(1,1)"><path fill="none" stroke="#000000" d="M 523 447 L 526 395" stroke-miterlimit="10"/></g><g transform="translate(-30,-14) scale(1,1)"><path fill="#C0C0C0" stroke="none" d="M 639 280 C 639 270.6111584 692.9496816 263 759.5 263 C 826.0503184 263 880 270.6111584 880 280 C 880 289.3888416 826.0503184 297 759.5 297 C 692.9496816 297 639 289.3888416 639 280 Z" opacity="0.2"/></g><g transform="translate(-30,-14) scale(1,1)"><path fill="#ffffff" stroke="none" d="M 632 273 C 632 263.6111584 685.9496816 256 752.5 256 C 819.0503184 256 873 263.6111584 873 273 C 873 282.3888416 819.0503184 290 752.5 290 C 685.9496816 290 632 282.3888416 632 273 Z"/></g><g transform="translate(-30,-14) scale(1,1)"><path fill="none" stroke="#000000" d="M 632 273 C 632 263.6111584 685.9496816 256 752.5 256 C 819.0503184 256 873 263.6111584 873 273 C 873 282.3888416 819.0503184 290 752.5 290 C 685.9496816 290 632 282.3888416 632 273 Z" stroke-miterlimit="10"/></g><g transform="translate(-30,-14) scale(1,1)"><g><path fill="none" stroke="none"/><text fill="#000000" stroke="none" font-family="Arial" font-size="13px" font-style="normal" font-weight="bold" text-decoration="none" x="671.5927734375" y="278.2099609375">Share Application Profiles</text></g></g><g transform="translate(-30,-14) scale(1,1)"><path fill="none" stroke="#000000" d="M 752 351 L 752 291" stroke-miterlimit="10"/></g><g transform="translate(-30,-14) scale(1,1)"><path fill="none" stroke="#000000" d="M 713 291 L 566 359" stroke-miterlimit="10" stroke-dasharray="3"/></g><g transform="translate(-30,-14) scale(1,1)"><path fill="none" stroke="#000000" d="M 573.4562911659324 350.9127432309318 L 566 359 L 576.9909481485371 358.5538399433272" stroke-miterlimit="10"/></g><g transform="translate(-30,-14) scale(1,1)"><path fill="#ffffff" stroke="none" d="M 1046.8502682883523 89.68 C 1046.8502682883523 84.886167936 1050.7361106132978 81 1055.529541015625 81 C 1060.3229714179522 81 1064.2088137428977 84.886167936 1064.2088137428977 89.68 C 1064.2088137428977 94.473832064 1060.3229714179522 98.36 1055.529541015625 98.36 C 1050.7361106132978 98.36 1046.8502682883523 94.473832064 1046.8502682883523 89.68 Z"/></g><g transform="translate(-30,-14) scale(1,1)"><path fill="none" stroke="#000000" d="M 1046.8502682883523 89.68 C 1046.8502682883523 84.886167936 1050.7361106132978 81 1055.529541015625 81 C 1060.3229714179522 81 1064.2088137428977 84.886167936 1064.2088137428977 89.68 C 1064.2088137428977 94.473832064 1060.3229714179522 98.36 1055.529541015625 98.36 C 1050.7361106132978 98.36 1046.8502682883523 94.473832064 1046.8502682883523 89.68 Z" stroke-miterlimit="10"/></g><g transform="translate(-30,-14) scale(1,1)"><path fill="none" stroke="#000000" d="M 1055.529541015625 98.36 L 1055.529541015625 115.64" stroke-miterlimit="10"/></g><g transform="translate(-30,-14) scale(1,1)"><path fill="none" stroke="#000000" d="M 1046.3397228338067 104.84 L 1064.7193591974433 104.84" stroke-miterlimit="10"/></g><g transform="translate(-30,-14) scale(1,1)"><path fill="none" stroke="#000000" d="M 1055.529541015625 115.64 L 1042.7659046519886 133" stroke-miterlimit="10"/></g><g transform="translate(-30,-14) scale(1,1)"><path fill="none" stroke="#000000" d="M 1055.529541015625 115.64 L 1068.2931773792614 133" stroke-miterlimit="10"/></g><g transform="translate(-30,-14) scale(1,1)"><g><path fill="none" stroke="none"/><text fill="#000000" stroke="none" font-family="Arial" font-size="13px" font-style="normal" font-weight="bold" text-decoration="none" x="1020.5" y="151.471923828125">Aggregator</text></g></g><g transform="translate(-30,-14) scale(1,1)"><path fill="#C0C0C0" stroke="none" d="M 927 272 C 927 262.6111584 988.56084 255 1064.5 255 C 1140.43916 255 1202 262.6111584 1202 272 C 1202 281.3888416 1140.43916 289 1064.5 289 C 988.56084 289 927 281.3888416 927 272 Z" opacity="0.2"/></g><g transform="translate(-30,-14) scale(1,1)"><path fill="#ffffff" stroke="none" d="M 920 265 C 920 255.6111584 981.56084 248 1057.5 248 C 1133.43916 248 1195 255.6111584 1195 265 C 1195 274.3888416 1133.43916 282 1057.5 282 C 981.56084 282 920 274.3888416 920 265 Z"/></g><g transform="translate(-30,-14) scale(1,1)"><path fill="none" stroke="#000000" d="M 920 265 C 920 255.6111584 981.56084 248 1057.5 248 C 1133.43916 248 1195 255.6111584 1195 265 C 1195 274.3888416 1133.43916 282 1057.5 282 C 981.56084 282 920 274.3888416 920 265 Z" stroke-miterlimit="10"/></g><g transform="translate(-30,-14) scale(1,1)"><g><path fill="none" stroke="none"/><text fill="#000000" stroke="none" font-family="Arial" font-size="13px" font-style="normal" font-weight="bold" text-decoration="none" x="964.67822265625" y="270.2099609375">Application Profile Harvesting</text></g></g><g transform="translate(-30,-14) scale(1,1)"><path fill="none" stroke="#000000" d="M 1056 160 L 1057 247" stroke-miterlimit="10"/></g><g transform="translate(-30,-14) scale(1,1)"><path fill="none" stroke="#000000" d="M 919 269 L 874 270" stroke-miterlimit="10" stroke-dasharray="3"/></g><g transform="translate(-30,-14) scale(1,1)"><path fill="none" stroke="#000000" d="M 884.0666447340966 265.56573976885824 L 874 270 L 884.2536882342617 273.98269727628934" stroke-miterlimit="10"/></g><g transform="translate(-30,-14) scale(1,1)"><path fill="#C0C0C0" stroke="none" d="M 791 120 C 791 110.6111584 832.413656 103 883.5 103 C 934.586344 103 976 110.6111584 976 120 C 976 129.3888416 934.586344 137 883.5 137 C 832.413656 137 791 129.3888416 791 120 Z" opacity="0.2"/></g><g transform="translate(-30,-14) scale(1,1)"><path fill="#ffffff" stroke="none" d="M 784 113 C 784 103.6111584 825.413656 96 876.5 96 C 927.586344 96 969 103.6111584 969 113 C 969 122.3888416 927.586344 130 876.5 130 C 825.413656 130 784 122.3888416 784 113 Z"/></g><g transform="translate(-30,-14) scale(1,1)"><path fill="none" stroke="#000000" d="M 784 113 C 784 103.6111584 825.413656 96 876.5 96 C 927.586344 96 969 103.6111584 969 113 C 969 122.3888416 927.586344 130 876.5 130 C 825.413656 130 784 122.3888416 784 113 Z" stroke-miterlimit="10"/></g><g transform="translate(-30,-14) scale(1,1)"><g><path fill="none" stroke="none"/><text fill="#000000" stroke="none" font-family="Arial" font-size="13px" font-style="normal" font-weight="bold" text-decoration="none" x="815.44189453125" y="118.2099609375">Implement Services</text></g></g><g transform="translate(-30,-14) scale(1,1)"><path fill="none" stroke="#000000" d="M 1015 118 L 970 116" stroke-miterlimit="10"/></g><g transform="translate(-30,-14) scale(1,1)"><path fill="#ffffff" stroke="none" d="M 498.27434055397725 81.68 C 498.27434055397725 76.886167936 502.16018287892274 73 506.95361328125 73 C 511.74704368357726 73 515.6328860085227 76.886167936 515.6328860085227 81.68 C 515.6328860085227 86.473832064 511.74704368357726 90.36 506.95361328125 90.36 C 502.16018287892274 90.36 498.27434055397725 86.473832064 498.27434055397725 81.68 Z"/></g><g transform="translate(-30,-14) scale(1,1)"><path fill="none" stroke="#000000" d="M 498.27434055397725 81.68 C 498.27434055397725 76.886167936 502.16018287892274 73 506.95361328125 73 C 511.74704368357726 73 515.6328860085227 76.886167936 515.6328860085227 81.68 C 515.6328860085227 86.473832064 511.74704368357726 90.36 506.95361328125 90.36 C 502.16018287892274 90.36 498.27434055397725 86.473832064 498.27434055397725 81.68 Z" stroke-miterlimit="10"/></g><g transform="translate(-30,-14) scale(1,1)"><path fill="none" stroke="#000000" d="M 506.95361328125 90.36 L 506.95361328125 107.64" stroke-miterlimit="10"/></g><g transform="translate(-30,-14) scale(1,1)"><path fill="none" stroke="#000000" d="M 497.76379509943183 96.84 L 516.1434314630682 96.84" stroke-miterlimit="10"/></g><g transform="translate(-30,-14) scale(1,1)"><path fill="none" stroke="#000000" d="M 506.95361328125 107.64 L 494.18997691761365 125" stroke-miterlimit="10"/></g><g transform="translate(-30,-14) scale(1,1)"><path fill="none" stroke="#000000" d="M 506.95361328125 107.64 L 519.7172496448864 125" stroke-miterlimit="10"/></g><g transform="translate(-30,-14) scale(1,1)"><g><path fill="none" stroke="none"/><text fill="#000000" stroke="none" font-family="Arial" font-size="13px" font-style="normal" font-weight="bold" text-decoration="none" x="492.5" y="143.471923828125">User</text></g></g><g transform="translate(-30,-14) scale(1,1)"><path fill="#C0C0C0" stroke="none" d="M 575 120 C 575 110.6111584 609.697928 103 652.5 103 C 695.302072 103 730 110.6111584 730 120 C 730 129.3888416 695.302072 137 652.5 137 C 609.697928 137 575 129.3888416 575 120 Z" opacity="0.2"/></g><g transform="translate(-30,-14) scale(1,1)"><path fill="#ffffff" stroke="none" d="M 568 113 C 568 103.6111584 602.697928 96 645.5 96 C 688.302072 96 723 103.6111584 723 113 C 723 122.3888416 688.302072 130 645.5 130 C 602.697928 130 568 122.3888416 568 113 Z"/></g><g transform="translate(-30,-14) scale(1,1)"><path fill="none" stroke="#000000" d="M 568 113 C 568 103.6111584 602.697928 96 645.5 96 C 688.302072 96 723 103.6111584 723 113 C 723 122.3888416 688.302072 130 645.5 130 C 602.697928 130 568 122.3888416 568 113 Z" stroke-miterlimit="10"/></g><g transform="translate(-30,-14) scale(1,1)"><g><path fill="none" stroke="none"/><text fill="#000000" stroke="none" font-family="Arial" font-size="13px" font-style="normal" font-weight="bold" text-decoration="none" x="595.280517578125" y="118.2099609375">Exploit Services</text></g></g><g transform="translate(-30,-14) scale(1,1)"><path fill="#C0C0C0" stroke="none" d="M 455 224 C 455 214.6111584 481.1913392 207 513.5 207 C 545.8086608 207 572 214.6111584 572 224 C 572 233.3888416 545.8086608 241 513.5 241 C 481.1913392 241 455 233.3888416 455 224 Z" opacity="0.2"/></g><g transform="translate(-30,-14) scale(1,1)"><path fill="#ffffff" stroke="none" d="M 448 217 C 448 207.6111584 474.1913392 200 506.5 200 C 538.8086608 200 565 207.6111584 565 217 C 565 226.3888416 538.8086608 234 506.5 234 C 474.1913392 234 448 226.3888416 448 217 Z"/></g><g transform="translate(-30,-14) scale(1,1)"><path fill="none" stroke="#000000" d="M 448 217 C 448 207.6111584 474.1913392 200 506.5 200 C 538.8086608 200 565 207.6111584 565 217 C 565 226.3888416 538.8086608 234 506.5 234 C 474.1913392 234 448 226.3888416 448 217 Z" stroke-miterlimit="10"/></g><g transform="translate(-30,-14) scale(1,1)"><g><path fill="none" stroke="none"/><text fill="#000000" stroke="none" font-family="Arial" font-size="13px" font-style="normal" font-weight="bold" text-decoration="none" x="469.661376953125" y="222.2099609375">Exploit data</text></g></g><g transform="translate(-30,-14) scale(1,1)"><path fill="none" stroke="#000000" d="M 527 111 L 567 112" stroke-miterlimit="10"/></g><g transform="translate(-30,-14) scale(1,1)"><path fill="#C0C0C0" stroke="none" d="M 455 304 C 455 294.6111584 481.6390544 287 514.5 287 C 547.3609456 287 574 294.6111584 574 304 C 574 313.3888416 547.3609456 321 514.5 321 C 481.6390544 321 455 313.3888416 455 304 Z" opacity="0.2"/></g><g transform="translate(-30,-14) scale(1,1)"><path fill="#ffffff" stroke="none" d="M 448 297 C 448 287.6111584 474.6390544 280 507.5 280 C 540.3609456 280 567 287.6111584 567 297 C 567 306.3888416 540.3609456 314 507.5 314 C 474.6390544 314 448 306.3888416 448 297 Z"/></g><g transform="translate(-30,-14) scale(1,1)"><path fill="none" stroke="#000000" d="M 448 297 C 448 287.6111584 474.6390544 280 507.5 280 C 540.3609456 280 567 287.6111584 567 297 C 567 306.3888416 540.3609456 314 507.5 314 C 474.6390544 314 448 306.3888416 448 297 Z" stroke-miterlimit="10"/></g><g transform="translate(-30,-14) scale(1,1)"><g><path fill="none" stroke="none"/><text fill="#000000" stroke="none" font-family="Arial" font-size="13px" font-style="normal" font-weight="bold" text-decoration="none" x="469.925048828125" y="302.2099609375">Deliver Data</text></g></g><g transform="translate(-30,-14) scale(1,1)"><path fill="none" stroke="#000000" d="M 253 329 L 447 304" stroke-miterlimit="10"/></g><g transform="translate(-30,-14) scale(1,1)"><path fill="none" stroke="#000000" d="M 506 235 L 507 279" stroke-miterlimit="10" stroke-dasharray="3"/></g><g transform="translate(-30,-14) scale(1,1)"><path fill="none" stroke="#000000" d="M 502.56065873692773 268.93559494306874 L 507 279 L 510.9775207532446 268.7443026245161" stroke-miterlimit="10"/></g><g transform="translate(-30,-14) scale(1,1)"><path fill="none" stroke="#000000" d="M 506 152 L 506 199" stroke-miterlimit="10"/></g><g transform="translate(-30,-14) scale(1,1)"><path fill="none" stroke="#000000" d="M 724 113 L 783 113" stroke-miterlimit="10" stroke-dasharray="3"/></g><g transform="translate(-30,-14) scale(1,1)"><path fill="none" stroke="#000000" d="M 772.8373251423759 117.20951775601598 L 783 113 L 772.8373251423758 108.79048224398402" stroke-miterlimit="10"/></g><g transform="translate(-30,-14) scale(1,1)"><path fill="#ffffff" stroke="none" d="M 225.69206516335228 33.68 C 225.69206516335228 28.886167936 229.57790748829774 25 234.371337890625 25 C 239.16476829295226 25 243.05061061789772 28.886167936 243.05061061789772 33.68 C 243.05061061789772 38.473832064 239.16476829295226 42.36 234.371337890625 42.36 C 229.57790748829774 42.36 225.69206516335228 38.473832064 225.69206516335228 33.68 Z"/></g><g transform="translate(-30,-14) scale(1,1)"><path fill="none" stroke="#000000" d="M 225.69206516335228 33.68 C 225.69206516335228 28.886167936 229.57790748829774 25 234.371337890625 25 C 239.16476829295226 25 243.05061061789772 28.886167936 243.05061061789772 33.68 C 243.05061061789772 38.473832064 239.16476829295226 42.36 234.371337890625 42.36 C 229.57790748829774 42.36 225.69206516335228 38.473832064 225.69206516335228 33.68 Z" stroke-miterlimit="10"/></g><g transform="translate(-30,-14) scale(1,1)"><path fill="none" stroke="#000000" d="M 234.371337890625 42.36 L 234.371337890625 59.64" stroke-miterlimit="10"/></g><g transform="translate(-30,-14) scale(1,1)"><path fill="none" stroke="#000000" d="M 225.18151970880683 48.84 L 243.56115607244317 48.84" stroke-miterlimit="10"/></g><g transform="translate(-30,-14) scale(1,1)"><path fill="none" stroke="#000000" d="M 234.371337890625 59.64 L 221.60770152698865 77" stroke-miterlimit="10"/></g><g transform="translate(-30,-14) scale(1,1)"><path fill="none" stroke="#000000" d="M 234.371337890625 59.64 L 247.13497425426135 77" stroke-miterlimit="10"/></g><g transform="translate(-30,-14) scale(1,1)"><g><path fill="none" stroke="none"/><text fill="#000000" stroke="none" font-family="Arial" font-size="13px" font-style="normal" font-weight="bold" text-decoration="none" x="188.5" y="95.7099609375">Domain Expert</text></g></g><g transform="translate(-30,-14) scale(1,1)"><path fill="#C0C0C0" stroke="none" d="M 55 256 C 55 246.6111584 87.2354944 239 127 239 C 166.7645056 239 199 246.6111584 199 256 C 199 265.3888416 166.7645056 273 127 273 C 87.2354944 273 55 265.3888416 55 256 Z" opacity="0.2"/></g><g transform="translate(-30,-14) scale(1,1)"><path fill="#ffffff" stroke="none" d="M 48 249 C 48 239.6111584 80.2354944 232 120 232 C 159.7645056 232 192 239.6111584 192 249 C 192 258.3888416 159.7645056 266 120 266 C 80.2354944 266 48 258.3888416 48 249 Z"/></g><g transform="translate(-30,-14) scale(1,1)"><path fill="none" stroke="#000000" d="M 48 249 C 48 239.6111584 80.2354944 232 120 232 C 159.7645056 232 192 239.6111584 192 249 C 192 258.3888416 159.7645056 266 120 266 C 80.2354944 266 48 258.3888416 48 249 Z" stroke-miterlimit="10"/></g><g transform="translate(-30,-14) scale(1,1)"><g><path fill="none" stroke="none"/><text fill="#000000" stroke="none" font-family="Arial" font-size="13px" font-style="normal" font-weight="bold" text-decoration="none" x="73.41455078125" y="254.03857421875">Store Contents</text></g></g><g transform="translate(-30,-14) scale(1,1)"><path fill="#C0C0C0" stroke="none" d="M 255 256 C 255 246.6111584 287.2354944 239 327 239 C 366.7645056 239 399 246.6111584 399 256 C 399 265.3888416 366.7645056 273 327 273 C 287.2354944 273 255 265.3888416 255 256 Z" opacity="0.2"/></g><g transform="translate(-30,-14) scale(1,1)"><path fill="#ffffff" stroke="none" d="M 248 249 C 248 239.6111584 280.2354944 232 320 232 C 359.7645056 232 392 239.6111584 392 249 C 392 258.3888416 359.7645056 266 320 266 C 280.2354944 266 248 258.3888416 248 249 Z"/></g><g transform="translate(-30,-14) scale(1,1)"><path fill="none" stroke="#000000" d="M 248 249 C 248 239.6111584 280.2354944 232 320 232 C 359.7645056 232 392 239.6111584 392 249 C 392 258.3888416 359.7645056 266 320 266 C 280.2354944 266 248 258.3888416 248 249 Z" stroke-miterlimit="10"/></g><g transform="translate(-30,-14) scale(1,1)"><g><path fill="none" stroke="none"/><text fill="#000000" stroke="none" font-family="Arial" font-size="13px" font-style="normal" font-weight="bold" text-decoration="none" x="273.405029296875" y="254.2099609375">Store Metadata</text></g></g><g transform="translate(-30,-14) scale(1,1)"><path fill="#C0C0C0" stroke="none" d="M 239 170.5 C 239 155.31216799999999 278.17508 143 326.5 143 C 374.82492 143 414 155.31216799999999 414 170.5 C 414 185.68783200000001 374.82492 198 326.5 198 C 278.17508 198 239 185.68783200000001 239 170.5 Z" opacity="0.2"/></g><g transform="translate(-30,-14) scale(1,1)"><path fill="#ffffff" stroke="none" d="M 232 163.5 C 232 148.31216799999999 271.17508 136 319.5 136 C 367.82492 136 407 148.31216799999999 407 163.5 C 407 178.68783200000001 367.82492 191 319.5 191 C 271.17508 191 232 178.68783200000001 232 163.5 Z"/></g><g transform="translate(-30,-14) scale(1,1)"><path fill="none" stroke="#000000" d="M 232 163.5 C 232 148.31216799999999 271.17508 136 319.5 136 C 367.82492 136 407 148.31216799999999 407 163.5 C 407 178.68783200000001 367.82492 191 319.5 191 C 271.17508 191 232 178.68783200000001 232 163.5 Z" stroke-miterlimit="10"/></g><g transform="translate(-30,-14) scale(1,1)"><g><path fill="none" stroke="none"/><text fill="#000000" stroke="none" font-family="Arial" font-size="13px" font-style="normal" font-weight="bold" text-decoration="none" x="262.063232421875" y="168.7099609375">Provides Metadata</text></g></g><g transform="translate(-30,-14) scale(1,1)"><path fill="none" stroke="#000000" d="M 269 104 L 295 135" stroke-miterlimit="10"/></g><g transform="translate(-30,-14) scale(1,1)"><path fill="#C0C0C0" stroke="none" d="M 47 162.5 C 47 147.31216799999999 83.936504 135 129.5 135 C 175.063496 135 212 147.31216799999999 212 162.5 C 212 177.68783200000001 175.063496 190 129.5 190 C 83.936504 190 47 177.68783200000001 47 162.5 Z" opacity="0.2"/></g><g transform="translate(-30,-14) scale(1,1)"><path fill="#ffffff" stroke="none" d="M 40 155.5 C 40 140.31216799999999 76.936504 128 122.5 128 C 168.063496 128 205 140.31216799999999 205 155.5 C 205 170.68783200000001 168.063496 183 122.5 183 C 76.936504 183 40 170.68783200000001 40 155.5 Z"/></g><g transform="translate(-30,-14) scale(1,1)"><path fill="none" stroke="#000000" d="M 40 155.5 C 40 140.31216799999999 76.936504 128 122.5 128 C 168.063496 128 205 140.31216799999999 205 155.5 C 205 170.68783200000001 168.063496 183 122.5 183 C 76.936504 183 40 170.68783200000001 40 155.5 Z" stroke-miterlimit="10"/></g><g transform="translate(-30,-14) scale(1,1)"><g><path fill="none" stroke="none"/><text fill="#000000" stroke="none" font-family="Arial" font-size="13px" font-style="normal" font-weight="bold" text-decoration="none" x="68.687744140625" y="160.7099609375">Provides Content</text></g></g><g transform="translate(-30,-14) scale(1,1)"><path fill="none" stroke="#000000" d="M 184 104 L 156 127" stroke-miterlimit="10"/></g><g transform="translate(-30,-14) scale(1,1)"><path fill="none" stroke="#000000" d="M 164 295 L 137 267" stroke-miterlimit="10"/></g><g transform="translate(-30,-14) scale(1,1)"><path fill="none" stroke="#000000" d="M 253 298 L 295 267" stroke-miterlimit="10"/></g><g transform="translate(-30,-14) scale(1,1)"><path fill="none" stroke="#000000" d="M 120 231 L 121 184" stroke-miterlimit="10" stroke-dasharray="3"/></g><g transform="translate(-30,-14) scale(1,1)"><path fill="none" stroke="#000000" d="M 124.9923870697424 194.2499192916507 L 121 184 L 116.5752565323953 194.0708314078774" stroke-miterlimit="10"/></g><g transform="translate(-30,-14) scale(1,1)"><path fill="none" stroke="#000000" d="M 320 231 L 319 192" stroke-miterlimit="10" stroke-dasharray="3"/></g><g transform="translate(-30,-14) scale(1,1)"><path fill="none" stroke="#000000" d="M 323.4686304262053 202.05143482861985 L 319 192 L 315.0523611490146 202.26723660495807" stroke-miterlimit="10"/></g><g transform="translate(-30,-14) scale(1,1)"><path fill="none" stroke="#000000" d="M 253 342 L 407 361" stroke-miterlimit="10"/></g></g></svg>