<svg version="1.1" xmlns="http://www.w3.org/2000/svg" xmlns:xlink="http://www.w3.org/1999/xlink" width="711" height="334"><defs/><g><text fill="#eeeeee" stroke="none" font-family="Arial" font-size="24px" font-style="normal" font-weight="normal" text-decoration="none" x="0" y="0">UNREGISTERED</text><text fill="#eeeeee" stroke="none" font-family="Arial" font-size="24px" font-style="normal" font-weight="normal" text-decoration="none" x="0" y="30">UNREGISTERED</text><text fill="#eeeeee" stroke="none" font-family="Arial" font-size="24px" font-style="normal" font-weight="normal" text-decoration="none" x="0" y="60">UNREGISTERED</text><text fill="#eeeeee" stroke="none" font-family="Arial" font-size="24px" font-style="normal" font-weight="normal" text-decoration="none" x="0" y="90">UNREGISTERED</text><text fill="#eeeeee" stroke="none" font-family="Arial" font-size="24px" font-style="normal" font-weight="normal" text-decoration="none" x="0" y="120">UNREGISTERED</text><text fill="#eeeeee" stroke="none" font-family="Arial" font-size="24px" font-style="normal" font-weight="normal" text-decoration="none" x="0" y="150">UNREGISTERED</text><text fill="#eeeeee" stroke="none" font-family="Arial" font-size="24px" font-style="normal" font-weight="normal" text-decoration="none" x="0" y="180">UNREGISTERED</text><text fill="#eeeeee" stroke="none" font-family="Arial" font-size="24px" font-style="normal" font-weight="normal" text-decoration="none" x="0" y="210">UNREGISTERED</text><text fill="#eeeeee" stroke="none" font-family="Arial" font-size="24px" font-style="normal" font-weight="normal" text-decoration="none" x="0" y="240">UNREGISTERED</text><text fill="#eeeeee" stroke="none" font-family="Arial" font-size="24px" font-style="normal" font-weight="normal" text-decoration="none" x="0" y="270">UNREGISTERED</text><text fill="#eeeeee" stroke="none" font-family="Arial" font-size="24px" font-style="normal" font-weight="normal" text-decoration="none" x="0" y="300">UNREGISTERED</text><text fill="#eeeeee" stroke="none" font-family="Arial" font-size="24px" font-style="normal" font-weight="normal" text-decoration="none" x="0" y="330">UNREGISTERED</text><text fill="#eeeeee" stroke="none" font-family="Arial" font-size="24px" font-style="normal" font-weight="normal" text-decoration="none" x="200" y="0">UNREGISTERED</text><text fill="#eeeeee" stroke="none" font-family="Arial" font-size="24px" font-style="normal" font-weight="normal" text-decoration="none" x="200" y="30">UNREGISTERED</text><text fill="#eeeeee" stroke="none" font-family="Arial" font-size="24px" font-style="normal" font-weight="normal" text-decoration="none" x="200" y="60">UNREGISTERED</text><text fill="#eeeeee" stroke="none" font-family="Arial" font-size="24px" font-style="normal" font-weight="normal" text-decoration="none" x="200" y="90">UNREGISTERED</text><text fill="#eeeeee" stroke="none" font-family="Arial" font-size="24px" font-style="normal" font-weight="normal" text-decoration="none" x="200" y="120">UNREGISTERED</text><text fill="#eeeeee" stroke="none" font-family="Arial" font-size="24px" font-style="normal" font-weight="normal" text-decoration="none" x="200" y="150">UNREGISTERED</text><text fill="#eeeeee" stroke="none" font-family="Arial" font-size="24px" font-style="normal" font-weight="normal" text-decoration="none" x="200" y="180">UNREGISTERED</text><text fill="#eeeeee" stroke="none" font-family="Arial" font-size="24px" font-style="normal" font-weight="normal" text-decoration="none" x="200" y="210">UNREGISTERED</text><text fill="#eeeeee" stroke="none" font-family="Arial" font-size="24px" font-style="normal" font-weight="normal" text-decoration="none" x="200" y="240">UNREGISTERED</text><text fill="#eeeeee" stroke="none" font-family="Arial" font-size="24px" font-style="normal" font-weight="normal" text-decoration="none" x="200" y="270">UNREGISTERED</text><text fill="#eeeeee" stroke="none" font-family="Arial" font-size="24px" font-style="normal" font-weight="normal" text-decoration="none" x="200" y="300">UNREGISTERED</text><text fill="#eeeeee" stroke="none" font-family="Arial" font-size="24px" font-style="normal" font-weight="normal" text-decoration="none" x="200" y="330">UNREGISTERED</text><text fill="#eeeeee" stroke="none" font-family="Arial" font-size="24px" font-style="normal" font-weight="normal" text-decoration="none" x="400" y="0">UNREGISTERED</text><text fill="#eeeeee" stroke="none" font-family="Arial" font-size="24px" font-style="normal" font-weight="normal" text-decoration="none" x="400" y="30">UNREGISTERED</text><text fill="#eeeeee" stroke="none" font-family="Arial" font-size="24px" font-style="normal" font-weight="normal" text-decoration="none" x="400" y="60">UNREGISTERED</text><text fill="#eeeeee" stroke="none" font-family="Arial" font-size="24px" font-style="normal" font-weight="normal" text-decoration="none" x="400" y="90">UNREGISTERED</text><text fill="#eeeeee" stroke="none" font-family="Arial" font-size="24px" font-style="normal" font-weight="normal" text-decoration="none" x="400" y="120">UNREGISTERED</text><text fill="#eeeeee" stroke="none" font-family="Arial" font-size="24px" font-style="normal" font-weight="normal" text-decoration="none" x="400" y="150">UNREGISTERED</text><text fill="#eeeeee" stroke="none" font-family="Arial" font-size="24px" font-style="normal" font-weight="normal" text-decoration="none" x="400" y="180">UNREGISTERED</text><text fill="#eeeeee" stroke="none" font-family="Arial" font-size="24px" font-style="normal" font-weight="normal" text-decoration="none" x="400" y="210">UNREGISTERED</text><text fill="#eeeeee" stroke="none" font-family="Arial" font-size="24px" font-style="normal" font-weight="normal" text-decoration="none" x="400" y="240">UNREGISTERED</text><text fill="#eeeeee" stroke="none" font-family="Arial" font-size="24px" font-style="normal" font-weight="normal" text-decoration="none" x="400" y="270">UNREGISTERED</text><text fill="#eeeeee" stroke="none" font-family="Arial" font-size="24px" font-style="normal" font-weight="normal" text-decoration="none" x="400" y="300">UNREGISTERED</text><text fill="#eeeeee" stroke="none" font-family="Arial" font-size="24px" font-style="normal" font-weight="normal" text-decoration="none" x="400" y="330">UNREGISTERED</text><text fill="#eeeeee" stroke="none" font-family="Arial" font-size="24px" font-style="normal" font-weight="normal" text-decoration="none" x="600" y="0">UNREGISTERED</text><text fill="#eeeeee" stroke="none" font-family="Arial" font-size="24px" font-style="normal" font-weight="normal" text-decoration="none" x="600" y="30">UNREGISTERED</text><text fill="#eeeeee" stroke="none" font-family="Arial" font-size="24px" font-style="normal" font-weight="normal" text-decoration="none" x="600" y="60">UNREGISTERED</text><text fill="#eeeeee" stroke="none" font-family="Arial" font-size="24px" font-style="normal" font-weight="normal" text-decoration="none" x="600" y="90">UNREGISTERED</text><text fill="#eeeeee" stroke="none" font-family="Arial" font-size="24px" font-style="normal" font-weight="normal" text-decoration="none" x="600" y="120">UNREGISTERED</text><text fill="#eeeeee" stroke="none" font-family="Arial" font-size="24px" font-style="normal" font-weight="normal" text-decoration="none" x="600" y="150">UNREGISTERED</text><text fill="#eeeeee" stroke="none" font-family="Arial" font-size="24px" font-style="normal" font-weight="normal" text-decoration="none" x="600" y="180">UNREGISTERED</text><text fill="#eeeeee" stroke="none" font-family="Arial" font-size="24px" font-style="normal" font-weight="normal" text-decoration="none" x="600" y="210">UNREGISTERED</text><text fill="#eeeeee" stroke="none" font-family="Arial" font-size="24px" font-style="normal" font-weight="normal" text-decoration="none" x="600" y="240">UNREGISTERED</text><text fill="#eeeeee" stroke="none" font-family="Arial" font-size="24px" font-style="normal" font-weight="normal" text-decoration="none" x="600" y="270">UNREGISTERED</text><text fill="#eeeeee" stroke="none" font-family="Arial" font-size="24px" font-style="normal" font-weight="normal" text-decoration="none" x="600" y="300">UNREGISTERED</text><text fill="#eeeeee" stroke="none" font-family="Arial" font-size="24px" font-style="normal" font-weight="normal" text-decoration="none" x="600" y="330">UNREGISTERED</text><g transform="translate(-78,-182) scale(1,1)"><path fill="#ffffff" stroke="none" d="M 163.76748419744317 293.23 C 163.76748419744317 287.027841696 168.73272716820682 282 174.857666015625 282 C 180.98260486304318 282 185.94784783380683 287.027841696 185.94784783380683 293.23 C 185.94784783380683 299.43215830400004 180.98260486304318 304.46 174.857666015625 304.46 C 168.73272716820682 304.46 163.76748419744317 299.43215830400004 163.76748419744317 293.23 Z"/></g><g transform="translate(-78,-182) scale(1,1)"><path fill="none" stroke="#000000" d="M 163.76748419744317 293.23 C 163.76748419744317 287.027841696 168.73272716820682 282 174.857666015625 282 C 180.98260486304318 282 185.94784783380683 287.027841696 185.94784783380683 293.23 C 185.94784783380683 299.43215830400004 180.98260486304318 304.46 174.857666015625 304.46 C 168.73272716820682 304.46 163.76748419744317 299.43215830400004 163.76748419744317 293.23 Z" stroke-miterlimit="10"/></g><g transform="translate(-78,-182) scale(1,1)"><path fill="none" stroke="#000000" d="M 174.857666015625 304.46 L 174.857666015625 326.54" stroke-miterlimit="10"/></g><g transform="translate(-78,-182) scale(1,1)"><path fill="none" stroke="#000000" d="M 163.11512056107955 312.74 L 186.60021147017045 312.74" stroke-miterlimit="10"/></g><g transform="translate(-78,-182) scale(1,1)"><path fill="none" stroke="#000000" d="M 174.857666015625 326.54 L 158.5485751065341 349" stroke-miterlimit="10"/></g><g transform="translate(-78,-182) scale(1,1)"><path fill="none" stroke="#000000" d="M 174.857666015625 326.54 L 191.1667569247159 349" stroke-miterlimit="10"/></g><g transform="translate(-78,-182) scale(1,1)"><g><path fill="none" stroke="none"/><text fill="#000000" stroke="none" font-family="Arial" font-size="13px" font-style="normal" font-weight="bold" text-decoration="none" x="128.986328125" y="367.7099609375">Domain Expert</text></g></g><g transform="translate(-78,-182) scale(1,1)"><path fill="#C0C0C0" stroke="none" d="M 303 320 C 303 310.6111584 326.0573328 303 354.5 303 C 382.9426672 303 406 310.6111584 406 320 C 406 329.3888416 382.9426672 337 354.5 337 C 326.0573328 337 303 329.3888416 303 320 Z" opacity="0.2"/></g><g transform="translate(-78,-182) scale(1,1)"><path fill="#ffffff" stroke="none" d="M 296 313 C 296 303.6111584 319.0573328 296 347.5 296 C 375.9426672 296 399 303.6111584 399 313 C 399 322.3888416 375.9426672 330 347.5 330 C 319.0573328 330 296 322.3888416 296 313 Z"/></g><g transform="translate(-78,-182) scale(1,1)"><path fill="none" stroke="#000000" d="M 296 313 C 296 303.6111584 319.0573328 296 347.5 296 C 375.9426672 296 399 303.6111584 399 313 C 399 322.3888416 375.9426672 330 347.5 330 C 319.0573328 330 296 322.3888416 296 313 Z" stroke-miterlimit="10"/></g><g transform="translate(-78,-182) scale(1,1)"><g><path fill="none" stroke="none"/><text fill="#000000" stroke="none" font-family="Arial" font-size="13px" font-style="normal" font-weight="bold" text-decoration="none" x="315.71728515625" y="318.2099609375">Define PoI</text></g></g><g transform="translate(-78,-182) scale(1,1)"><path fill="#C0C0C0" stroke="none" d="M 279 216 C 279 206.6111584 313.0263552 199 355 199 C 396.9736448 199 431 206.6111584 431 216 C 431 225.3888416 396.9736448 233 355 233 C 313.0263552 233 279 225.3888416 279 216 Z" opacity="0.2"/></g><g transform="translate(-78,-182) scale(1,1)"><path fill="#ffffff" stroke="none" d="M 272 209 C 272 199.6111584 306.0263552 192 348 192 C 389.9736448 192 424 199.6111584 424 209 C 424 218.3888416 389.9736448 226 348 226 C 306.0263552 226 272 218.3888416 272 209 Z"/></g><g transform="translate(-78,-182) scale(1,1)"><path fill="none" stroke="#000000" d="M 272 209 C 272 199.6111584 306.0263552 192 348 192 C 389.9736448 192 424 199.6111584 424 209 C 424 218.3888416 389.9736448 226 348 226 C 306.0263552 226 272 218.3888416 272 209 Z" stroke-miterlimit="10"/></g><g transform="translate(-78,-182) scale(1,1)"><g><path fill="none" stroke="none"/><text fill="#000000" stroke="none" font-family="Arial" font-size="13px" font-style="normal" font-weight="bold" text-decoration="none" x="298.872314453125" y="214.2099609375">Design Itinerary</text></g></g><g transform="translate(-78,-182) scale(1,1)"><path fill="none" stroke="#000000" d="M 348 227 L 347 295" stroke-miterlimit="10" stroke-dasharray="3"/></g><g transform="translate(-78,-182) scale(1,1)"><path fill="none" stroke="#000000" d="M 342.9403722946846 284.7765258891981 L 347 295 L 351.3584975915118 284.9003218494456" stroke-miterlimit="10"/></g><g transform="translate(-78,-182) scale(1,1)"><path fill="none" stroke="#000000" d="M 263 320 L 295 318" stroke-miterlimit="10"/></g><g transform="translate(-78,-182) scale(1,1)"><path fill="none" stroke="#000000" d="M 244 280 L 322 227" stroke-miterlimit="10"/></g><g transform="translate(-78,-182) scale(1,1)"><path fill="#C0C0C0" stroke="none" d="M 463 320 C 463 310.6111584 492.101488 303 528 303 C 563.898512 303 593 310.6111584 593 320 C 593 329.3888416 563.898512 337 528 337 C 492.101488 337 463 329.3888416 463 320 Z" opacity="0.2"/></g><g transform="translate(-78,-182) scale(1,1)"><path fill="#ffffff" stroke="none" d="M 456 313 C 456 303.6111584 485.101488 296 521 296 C 556.898512 296 586 303.6111584 586 313 C 586 322.3888416 556.898512 330 521 330 C 485.101488 330 456 322.3888416 456 313 Z"/></g><g transform="translate(-78,-182) scale(1,1)"><path fill="none" stroke="#000000" d="M 456 313 C 456 303.6111584 485.101488 296 521 296 C 556.898512 296 586 303.6111584 586 313 C 586 322.3888416 556.898512 330 521 330 C 485.101488 330 456 322.3888416 456 313 Z" stroke-miterlimit="10"/></g><g transform="translate(-78,-182) scale(1,1)"><g><path fill="none" stroke="none"/><text fill="#000000" stroke="none" font-family="Arial" font-size="13px" font-style="normal" font-weight="bold" text-decoration="none" x="479.464111328125" y="318.2099609375">Define Range</text></g></g><g transform="translate(-78,-182) scale(1,1)"><path fill="none" stroke="#000000" d="M 400 313 L 455 313" stroke-miterlimit="10" stroke-dasharray="3"/></g><g transform="translate(-78,-182) scale(1,1)"><path fill="none" stroke="#000000" d="M 444.83732514237585 317.209517756016 L 455 313 L 444.83732514237585 308.790482243984" stroke-miterlimit="10"/></g><g transform="translate(-78,-182) scale(1,1)"><g><path fill="none" stroke="none"/><text fill="#000000" stroke="none" font-family="Arial" font-size="13px" font-style="normal" font-weight="normal" text-decoration="none" x="399.5" y="287.7099609375">«include»</text></g></g><g transform="translate(-78,-182) scale(1,1)"><path fill="#C0C0C0" stroke="none" d="M 367 432 C 367 422.6111584 399.0116368 415 438.5 415 C 477.9883632 415 510 422.6111584 510 432 C 510 441.3888416 477.9883632 449 438.5 449 C 399.0116368 449 367 441.3888416 367 432 Z" opacity="0.2"/></g><g transform="translate(-78,-182) scale(1,1)"><path fill="#ffffff" stroke="none" d="M 360 425 C 360 415.6111584 392.0116368 408 431.5 408 C 470.9883632 408 503 415.6111584 503 425 C 503 434.3888416 470.9883632 442 431.5 442 C 392.0116368 442 360 434.3888416 360 425 Z"/></g><g transform="translate(-78,-182) scale(1,1)"><path fill="none" stroke="#000000" d="M 360 425 C 360 415.6111584 392.0116368 408 431.5 408 C 470.9883632 408 503 415.6111584 503 425 C 503 434.3888416 470.9883632 442 431.5 442 C 392.0116368 442 360 434.3888416 360 425 Z" stroke-miterlimit="10"/></g><g transform="translate(-78,-182) scale(1,1)"><g><path fill="none" stroke="none"/><text fill="#000000" stroke="none" font-family="Arial" font-size="13px" font-style="normal" font-weight="bold" text-decoration="none" x="385.285888671875" y="430.2099609375">PoI Annotation</text></g></g><g transform="translate(-78,-182) scale(1,1)"><path fill="none" stroke="#000000" d="M 263 361 L 383 407" stroke-miterlimit="10"/></g><g transform="translate(-78,-182) scale(1,1)"><path fill="#C0C0C0" stroke="none" d="M 543 392 C 543 382.6111584 597.3973968 375 664.5 375 C 731.6026032 375 786 382.6111584 786 392 C 786 401.3888416 731.6026032 409 664.5 409 C 597.3973968 409 543 401.3888416 543 392 Z" opacity="0.2"/></g><g transform="translate(-78,-182) scale(1,1)"><path fill="#ffffff" stroke="none" d="M 536 385 C 536 375.6111584 590.3973968 368 657.5 368 C 724.6026032 368 779 375.6111584 779 385 C 779 394.3888416 724.6026032 402 657.5 402 C 590.3973968 402 536 394.3888416 536 385 Z"/></g><g transform="translate(-78,-182) scale(1,1)"><path fill="none" stroke="#000000" d="M 536 385 C 536 375.6111584 590.3973968 368 657.5 368 C 724.6026032 368 779 375.6111584 779 385 C 779 394.3888416 724.6026032 402 657.5 402 C 590.3973968 402 536 394.3888416 536 385 Z" stroke-miterlimit="10"/></g><g transform="translate(-78,-182) scale(1,1)"><g><path fill="none" stroke="none"/><text fill="#000000" stroke="none" font-family="Arial" font-size="13px" font-style="normal" font-weight="bold" text-decoration="none" x="575.885009765625" y="390.2099609375">Annotate with Linked Data</text></g></g><g transform="translate(-78,-182) scale(1,1)"><path fill="#C0C0C0" stroke="none" d="M 567 472 C 567 462.6111584 613.3385232 455 670.5 455 C 727.6614768 455 774 462.6111584 774 472 C 774 481.3888416 727.6614768 489 670.5 489 C 613.3385232 489 567 481.3888416 567 472 Z" opacity="0.2"/></g><g transform="translate(-78,-182) scale(1,1)"><path fill="#ffffff" stroke="none" d="M 560 465 C 560 455.6111584 606.3385232 448 663.5 448 C 720.6614768 448 767 455.6111584 767 465 C 767 474.3888416 720.6614768 482 663.5 482 C 606.3385232 482 560 474.3888416 560 465 Z"/></g><g transform="translate(-78,-182) scale(1,1)"><path fill="none" stroke="#000000" d="M 560 465 C 560 455.6111584 606.3385232 448 663.5 448 C 720.6614768 448 767 455.6111584 767 465 C 767 474.3888416 720.6614768 482 663.5 482 C 606.3385232 482 560 474.3888416 560 465 Z" stroke-miterlimit="10"/></g><g transform="translate(-78,-182) scale(1,1)"><g><path fill="none" stroke="none"/><text fill="#000000" stroke="none" font-family="Arial" font-size="13px" font-style="normal" font-weight="bold" text-decoration="none" x="598.496826171875" y="470.2099609375">Semantic Annotation</text></g></g><g transform="translate(-78,-182) scale(1,1)"><path fill="none" stroke="#000000" d="M 504 412 L 555 403" stroke-miterlimit="10" stroke-dasharray="3"/></g><g transform="translate(-78,-182) scale(1,1)"><path fill="none" stroke="#000000" d="M 545.7235173354246 408.911587720218 L 555 403 L 544.260412437774 400.6206599668646" stroke-miterlimit="10"/></g><g transform="translate(-78,-182) scale(1,1)"><g><path fill="none" stroke="none"/><text fill="#000000" stroke="none" font-family="Arial" font-size="13px" font-style="normal" font-weight="normal" text-decoration="none" x="496.5" y="381.7099609375">«include»</text></g></g><g transform="translate(-78,-182) scale(1,1)"><path fill="none" stroke="#000000" d="M 504 438 L 559 447" stroke-miterlimit="10" stroke-dasharray="3"/></g><g transform="translate(-78,-182) scale(1,1)"><path fill="none" stroke="#000000" d="M 548.2909254939018 449.5131102687382 L 559 447 L 549.6505034836116 441.20457810940036" stroke-miterlimit="10"/></g><g transform="translate(-78,-182) scale(1,1)"><g><path fill="none" stroke="none"/><text fill="#000000" stroke="none" font-family="Arial" font-size="13px" font-style="normal" font-weight="normal" text-decoration="none" x="508.5" y="416.7099609375">«include»</text></g></g><g transform="translate(-78,-182) scale(1,1)"><path fill="#C0C0C0" stroke="none" d="M 247 496 C 247 486.6111584 295.5770992 479 355.5 479 C 415.4229008 479 464 486.6111584 464 496 C 464 505.3888416 415.4229008 513 355.5 513 C 295.5770992 513 247 505.3888416 247 496 Z" opacity="0.2"/></g><g transform="translate(-78,-182) scale(1,1)"><path fill="#ffffff" stroke="none" d="M 240 489 C 240 479.6111584 288.5770992 472 348.5 472 C 408.4229008 472 457 479.6111584 457 489 C 457 498.3888416 408.4229008 506 348.5 506 C 288.5770992 506 240 498.3888416 240 489 Z"/></g><g transform="translate(-78,-182) scale(1,1)"><path fill="none" stroke="#000000" d="M 240 489 C 240 479.6111584 288.5770992 472 348.5 472 C 408.4229008 472 457 479.6111584 457 489 C 457 498.3888416 408.4229008 506 348.5 506 C 288.5770992 506 240 498.3888416 240 489 Z" stroke-miterlimit="10"/></g><g transform="translate(-78,-182) scale(1,1)"><g><path fill="none" stroke="none"/><text fill="#000000" stroke="none" font-family="Arial" font-size="13px" font-style="normal" font-weight="bold" text-decoration="none" x="276.263671875" y="494.20361328125">Geo Reference Content</text></g></g><g transform="translate(-78,-182) scale(1,1)"><path fill="none" stroke="#000000" d="M 226 376 L 329 471" stroke-miterlimit="10"/></g><g transform="translate(-78,-182) scale(1,1)"><path fill="none" stroke="#000000" d="M 348 471 L 347 331" stroke-miterlimit="10" stroke-dasharray="3"/></g><g transform="translate(-78,-182) scale(1,1)"><path fill="none" stroke="#000000" d="M 351.28199905743674 341.13234839867397 L 347 331 L 342.8631783085009 341.1924828325949" stroke-miterlimit="10"/></g><g transform="translate(-78,-182) scale(1,1)"><path fill="none" stroke="#000000" d="M 418 407 L 361 331" stroke-miterlimit="10" stroke-dasharray="3"/></g><g transform="translate(-78,-182) scale(1,1)"><path fill="none" stroke="#000000" d="M 370.46521911938726 336.60442923248974 L 361 331 L 363.7299907097617 341.6558505397089" stroke-miterlimit="10"/></g></g></svg>