<svg version="1.1" xmlns="http://www.w3.org/2000/svg" xmlns:xlink="http://www.w3.org/1999/xlink" width="996" height="484"><defs/><g><text fill="#eeeeee" stroke="none" font-family="Arial" font-size="24px" font-style="normal" font-weight="normal" text-decoration="none" x="0" y="0">UNREGISTERED</text><text fill="#eeeeee" stroke="none" font-family="Arial" font-size="24px" font-style="normal" font-weight="normal" text-decoration="none" x="0" y="30">UNREGISTERED</text><text fill="#eeeeee" stroke="none" font-family="Arial" font-size="24px" font-style="normal" font-weight="normal" text-decoration="none" x="0" y="60">UNREGISTERED</text><text fill="#eeeeee" stroke="none" font-family="Arial" font-size="24px" font-style="normal" font-weight="normal" text-decoration="none" x="0" y="90">UNREGISTERED</text><text fill="#eeeeee" stroke="none" font-family="Arial" font-size="24px" font-style="normal" font-weight="normal" text-decoration="none" x="0" y="120">UNREGISTERED</text><text fill="#eeeeee" stroke="none" font-family="Arial" font-size="24px" font-style="normal" font-weight="normal" text-decoration="none" x="0" y="150">UNREGISTERED</text><text fill="#eeeeee" stroke="none" font-family="Arial" font-size="24px" font-style="normal" font-weight="normal" text-decoration="none" x="0" y="180">UNREGISTERED</text><text fill="#eeeeee" stroke="none" font-family="Arial" font-size="24px" font-style="normal" font-weight="normal" text-decoration="none" x="0" y="210">UNREGISTERED</text><text fill="#eeeeee" stroke="none" font-family="Arial" font-size="24px" font-style="normal" font-weight="normal" text-decoration="none" x="0" y="240">UNREGISTERED</text><text fill="#eeeeee" stroke="none" font-family="Arial" font-size="24px" font-style="normal" font-weight="normal" text-decoration="none" x="0" y="270">UNREGISTERED</text><text fill="#eeeeee" stroke="none" font-family="Arial" font-size="24px" font-style="normal" font-weight="normal" text-decoration="none" x="0" y="300">UNREGISTERED</text><text fill="#eeeeee" stroke="none" font-family="Arial" font-size="24px" font-style="normal" font-weight="normal" text-decoration="none" x="0" y="330">UNREGISTERED</text><text fill="#eeeeee" stroke="none" font-family="Arial" font-size="24px" font-style="normal" font-weight="normal" text-decoration="none" x="0" y="360">UNREGISTERED</text><text fill="#eeeeee" stroke="none" font-family="Arial" font-size="24px" font-style="normal" font-weight="normal" text-decoration="none" x="0" y="390">UNREGISTERED</text><text fill="#eeeeee" stroke="none" font-family="Arial" font-size="24px" font-style="normal" font-weight="normal" text-decoration="none" x="0" y="420">UNREGISTERED</text><text fill="#eeeeee" stroke="none" font-family="Arial" font-size="24px" font-style="normal" font-weight="normal" text-decoration="none" x="0" y="450">UNREGISTERED</text><text fill="#eeeeee" stroke="none" font-family="Arial" font-size="24px" font-style="normal" font-weight="normal" text-decoration="none" x="0" y="480">UNREGISTERED</text><text fill="#eeeeee" stroke="none" font-family="Arial" font-size="24px" font-style="normal" font-weight="normal" text-decoration="none" x="200" y="0">UNREGISTERED</text><text fill="#eeeeee" stroke="none" font-family="Arial" font-size="24px" font-style="normal" font-weight="normal" text-decoration="none" x="200" y="30">UNREGISTERED</text><text fill="#eeeeee" stroke="none" font-family="Arial" font-size="24px" font-style="normal" font-weight="normal" text-decoration="none" x="200" y="60">UNREGISTERED</text><text fill="#eeeeee" stroke="none" font-family="Arial" font-size="24px" font-style="normal" font-weight="normal" text-decoration="none" x="200" y="90">UNREGISTERED</text><text fill="#eeeeee" stroke="none" font-family="Arial" font-size="24px" font-style="normal" font-weight="normal" text-decoration="none" x="200" y="120">UNREGISTERED</text><text fill="#eeeeee" stroke="none" font-family="Arial" font-size="24px" font-style="normal" font-weight="normal" text-decoration="none" x="200" y="150">UNREGISTERED</text><text fill="#eeeeee" stroke="none" font-family="Arial" font-size="24px" font-style="normal" font-weight="normal" text-decoration="none" x="200" y="180">UNREGISTERED</text><text fill="#eeeeee" stroke="none" font-family="Arial" font-size="24px" font-style="normal" font-weight="normal" text-decoration="none" x="200" y="210">UNREGISTERED</text><text fill="#eeeeee" stroke="none" font-family="Arial" font-size="24px" font-style="normal" font-weight="normal" text-decoration="none" x="200" y="240">UNREGISTERED</text><text fill="#eeeeee" stroke="none" font-family="Arial" font-size="24px" font-style="normal" font-weight="normal" text-decoration="none" x="200" y="270">UNREGISTERED</text><text fill="#eeeeee" stroke="none" font-family="Arial" font-size="24px" font-style="normal" font-weight="normal" text-decoration="none" x="200" y="300">UNREGISTERED</text><text fill="#eeeeee" stroke="none" font-family="Arial" font-size="24px" font-style="normal" font-weight="normal" text-decoration="none" x="200" y="330">UNREGISTERED</text><text fill="#eeeeee" stroke="none" font-family="Arial" font-size="24px" font-style="normal" font-weight="normal" text-decoration="none" x="200" y="360">UNREGISTERED</text><text fill="#eeeeee" stroke="none" font-family="Arial" font-size="24px" font-style="normal" font-weight="normal" text-decoration="none" x="200" y="390">UNREGISTERED</text><text fill="#eeeeee" stroke="none" font-family="Arial" font-size="24px" font-style="normal" font-weight="normal" text-decoration="none" x="200" y="420">UNREGISTERED</text><text fill="#eeeeee" stroke="none" font-family="Arial" font-size="24px" font-style="normal" font-weight="normal" text-decoration="none" x="200" y="450">UNREGISTERED</text><text fill="#eeeeee" stroke="none" font-family="Arial" font-size="24px" font-style="normal" font-weight="normal" text-decoration="none" x="200" y="480">UNREGISTERED</text><text fill="#eeeeee" stroke="none" font-family="Arial" font-size="24px" font-style="normal" font-weight="normal" text-decoration="none" x="400" y="0">UNREGISTERED</text><text fill="#eeeeee" stroke="none" font-family="Arial" font-size="24px" font-style="normal" font-weight="normal" text-decoration="none" x="400" y="30">UNREGISTERED</text><text fill="#eeeeee" stroke="none" font-family="Arial" font-size="24px" font-style="normal" font-weight="normal" text-decoration="none" x="400" y="60">UNREGISTERED</text><text fill="#eeeeee" stroke="none" font-family="Arial" font-size="24px" font-style="normal" font-weight="normal" text-decoration="none" x="400" y="90">UNREGISTERED</text><text fill="#eeeeee" stroke="none" font-family="Arial" font-size="24px" font-style="normal" font-weight="normal" text-decoration="none" x="400" y="120">UNREGISTERED</text><text fill="#eeeeee" stroke="none" font-family="Arial" font-size="24px" font-style="normal" font-weight="normal" text-decoration="none" x="400" y="150">UNREGISTERED</text><text fill="#eeeeee" stroke="none" font-family="Arial" font-size="24px" font-style="normal" font-weight="normal" text-decoration="none" x="400" y="180">UNREGISTERED</text><text fill="#eeeeee" stroke="none" font-family="Arial" font-size="24px" font-style="normal" font-weight="normal" text-decoration="none" x="400" y="210">UNREGISTERED</text><text fill="#eeeeee" stroke="none" font-family="Arial" font-size="24px" font-style="normal" font-weight="normal" text-decoration="none" x="400" y="240">UNREGISTERED</text><text fill="#eeeeee" stroke="none" font-family="Arial" font-size="24px" font-style="normal" font-weight="normal" text-decoration="none" x="400" y="270">UNREGISTERED</text><text fill="#eeeeee" stroke="none" font-family="Arial" font-size="24px" font-style="normal" font-weight="normal" text-decoration="none" x="400" y="300">UNREGISTERED</text><text fill="#eeeeee" stroke="none" font-family="Arial" font-size="24px" font-style="normal" font-weight="normal" text-decoration="none" x="400" y="330">UNREGISTERED</text><text fill="#eeeeee" stroke="none" font-family="Arial" font-size="24px" font-style="normal" font-weight="normal" text-decoration="none" x="400" y="360">UNREGISTERED</text><text fill="#eeeeee" stroke="none" font-family="Arial" font-size="24px" font-style="normal" font-weight="normal" text-decoration="none" x="400" y="390">UNREGISTERED</text><text fill="#eeeeee" stroke="none" font-family="Arial" font-size="24px" font-style="normal" font-weight="normal" text-decoration="none" x="400" y="420">UNREGISTERED</text><text fill="#eeeeee" stroke="none" font-family="Arial" font-size="24px" font-style="normal" font-weight="normal" text-decoration="none" x="400" y="450">UNREGISTERED</text><text fill="#eeeeee" stroke="none" font-family="Arial" font-size="24px" font-style="normal" font-weight="normal" text-decoration="none" x="400" y="480">UNREGISTERED</text><text fill="#eeeeee" stroke="none" font-family="Arial" font-size="24px" font-style="normal" font-weight="normal" text-decoration="none" x="600" y="0">UNREGISTERED</text><text fill="#eeeeee" stroke="none" font-family="Arial" font-size="24px" font-style="normal" font-weight="normal" text-decoration="none" x="600" y="30">UNREGISTERED</text><text fill="#eeeeee" stroke="none" font-family="Arial" font-size="24px" font-style="normal" font-weight="normal" text-decoration="none" x="600" y="60">UNREGISTERED</text><text fill="#eeeeee" stroke="none" font-family="Arial" font-size="24px" font-style="normal" font-weight="normal" text-decoration="none" x="600" y="90">UNREGISTERED</text><text fill="#eeeeee" stroke="none" font-family="Arial" font-size="24px" font-style="normal" font-weight="normal" text-decoration="none" x="600" y="120">UNREGISTERED</text><text fill="#eeeeee" stroke="none" font-family="Arial" font-size="24px" font-style="normal" font-weight="normal" text-decoration="none" x="600" y="150">UNREGISTERED</text><text fill="#eeeeee" stroke="none" font-family="Arial" font-size="24px" font-style="normal" font-weight="normal" text-decoration="none" x="600" y="180">UNREGISTERED</text><text fill="#eeeeee" stroke="none" font-family="Arial" font-size="24px" font-style="normal" font-weight="normal" text-decoration="none" x="600" y="210">UNREGISTERED</text><text fill="#eeeeee" stroke="none" font-family="Arial" font-size="24px" font-style="normal" font-weight="normal" text-decoration="none" x="600" y="240">UNREGISTERED</text><text fill="#eeeeee" stroke="none" font-family="Arial" font-size="24px" font-style="normal" font-weight="normal" text-decoration="none" x="600" y="270">UNREGISTERED</text><text fill="#eeeeee" stroke="none" font-family="Arial" font-size="24px" font-style="normal" font-weight="normal" text-decoration="none" x="600" y="300">UNREGISTERED</text><text fill="#eeeeee" stroke="none" font-family="Arial" font-size="24px" font-style="normal" font-weight="normal" text-decoration="none" x="600" y="330">UNREGISTERED</text><text fill="#eeeeee" stroke="none" font-family="Arial" font-size="24px" font-style="normal" font-weight="normal" text-decoration="none" x="600" y="360">UNREGISTERED</text><text fill="#eeeeee" stroke="none" font-family="Arial" font-size="24px" font-style="normal" font-weight="normal" text-decoration="none" x="600" y="390">UNREGISTERED</text><text fill="#eeeeee" stroke="none" font-family="Arial" font-size="24px" font-style="normal" font-weight="normal" text-decoration="none" x="600" y="420">UNREGISTERED</text><text fill="#eeeeee" stroke="none" font-family="Arial" font-size="24px" font-style="normal" font-weight="normal" text-decoration="none" x="600" y="450">UNREGISTERED</text><text fill="#eeeeee" stroke="none" font-family="Arial" font-size="24px" font-style="normal" font-weight="normal" text-decoration="none" x="600" y="480">UNREGISTERED</text><text fill="#eeeeee" stroke="none" font-family="Arial" font-size="24px" font-style="normal" font-weight="normal" text-decoration="none" x="800" y="0">UNREGISTERED</text><text fill="#eeeeee" stroke="none" font-family="Arial" font-size="24px" font-style="normal" font-weight="normal" text-decoration="none" x="800" y="30">UNREGISTERED</text><text fill="#eeeeee" stroke="none" font-family="Arial" font-size="24px" font-style="normal" font-weight="normal" text-decoration="none" x="800" y="60">UNREGISTERED</text><text fill="#eeeeee" stroke="none" font-family="Arial" font-size="24px" font-style="normal" font-weight="normal" text-decoration="none" x="800" y="90">UNREGISTERED</text><text fill="#eeeeee" stroke="none" font-family="Arial" font-size="24px" font-style="normal" font-weight="normal" text-decoration="none" x="800" y="120">UNREGISTERED</text><text fill="#eeeeee" stroke="none" font-family="Arial" font-size="24px" font-style="normal" font-weight="normal" text-decoration="none" x="800" y="150">UNREGISTERED</text><text fill="#eeeeee" stroke="none" font-family="Arial" font-size="24px" font-style="normal" font-weight="normal" text-decoration="none" x="800" y="180">UNREGISTERED</text><text fill="#eeeeee" stroke="none" font-family="Arial" font-size="24px" font-style="normal" font-weight="normal" text-decoration="none" x="800" y="210">UNREGISTERED</text><text fill="#eeeeee" stroke="none" font-family="Arial" font-size="24px" font-style="normal" font-weight="normal" text-decoration="none" x="800" y="240">UNREGISTERED</text><text fill="#eeeeee" stroke="none" font-family="Arial" font-size="24px" font-style="normal" font-weight="normal" text-decoration="none" x="800" y="270">UNREGISTERED</text><text fill="#eeeeee" stroke="none" font-family="Arial" font-size="24px" font-style="normal" font-weight="normal" text-decoration="none" x="800" y="300">UNREGISTERED</text><text fill="#eeeeee" stroke="none" font-family="Arial" font-size="24px" font-style="normal" font-weight="normal" text-decoration="none" x="800" y="330">UNREGISTERED</text><text fill="#eeeeee" stroke="none" font-family="Arial" font-size="24px" font-style="normal" font-weight="normal" text-decoration="none" x="800" y="360">UNREGISTERED</text><text fill="#eeeeee" stroke="none" font-family="Arial" font-size="24px" font-style="normal" font-weight="normal" text-decoration="none" x="800" y="390">UNREGISTERED</text><text fill="#eeeeee" stroke="none" font-family="Arial" font-size="24px" font-style="normal" font-weight="normal" text-decoration="none" x="800" y="420">UNREGISTERED</text><text fill="#eeeeee" stroke="none" font-family="Arial" font-size="24px" font-style="normal" font-weight="normal" text-decoration="none" x="800" y="450">UNREGISTERED</text><text fill="#eeeeee" stroke="none" font-family="Arial" font-size="24px" font-style="normal" font-weight="normal" text-decoration="none" x="800" y="480">UNREGISTERED</text><g transform="translate(-62,2) scale(1,1)"><path fill="none" stroke="#000000" d="M 72 8 L 1048 8 L 1048 472 L 72 472 L 72 8" stroke-miterlimit="10"/></g><g transform="translate(-62,2) scale(1,1)"><path fill="#ffffff" stroke="none" d="M 72 8 L 72 30 L 222.42431640625 30 L 233.42431640625 19 L 233.42431640625 8 L 72 8"/></g><g transform="translate(-62,2) scale(1,1)"><path fill="none" stroke="#000000" d="M 72 8 L 72 30 L 222.42431640625 30 L 233.42431640625 19 L 233.42431640625 8 L 72 8 L 72 8" stroke-miterlimit="10"/></g><g transform="translate(-62,2) scale(1,1)"><g><path fill="none" stroke="none"/><text fill="#000000" stroke="none" font-family="Arial" font-size="13px" font-style="normal" font-weight="normal" text-decoration="none" x="96.72998046875" y="23.7099609375">Metadata-Annotation</text></g></g><g transform="translate(-62,2) scale(1,1)"><g><path fill="none" stroke="none"/><text fill="#000000" stroke="none" font-family="Arial" font-size="13px" font-style="normal" font-weight="bold" text-decoration="none" x="76.279541015625" y="23.7099609375">sd</text></g></g><g transform="translate(-62,2) scale(1,1)"><path fill="#ffffff" stroke="none" d="M 147.4590926846591 47.3 C 147.4590926846591 43.82060576 150.3374944068409 41 153.88818359375 41 C 157.4388727806591 41 160.31727450284092 43.82060576 160.31727450284092 47.3 C 160.31727450284092 50.779394239999995 157.4388727806591 53.6 153.88818359375 53.6 C 150.3374944068409 53.6 147.4590926846591 50.779394239999995 147.4590926846591 47.3 Z"/></g><g transform="translate(-62,2) scale(1,1)"><path fill="none" stroke="#000000" d="M 147.4590926846591 47.3 C 147.4590926846591 43.82060576 150.3374944068409 41 153.88818359375 41 C 157.4388727806591 41 160.31727450284092 43.82060576 160.31727450284092 47.3 C 160.31727450284092 50.779394239999995 157.4388727806591 53.6 153.88818359375 53.6 C 150.3374944068409 53.6 147.4590926846591 50.779394239999995 147.4590926846591 47.3 Z" stroke-miterlimit="10"/></g><g transform="translate(-62,2) scale(1,1)"><path fill="none" stroke="#000000" d="M 153.88818359375 53.6 L 153.88818359375 66.4" stroke-miterlimit="10"/></g><g transform="translate(-62,2) scale(1,1)"><path fill="none" stroke="#000000" d="M 147.0809108664773 58.4 L 160.69545632102273 58.4" stroke-miterlimit="10"/></g><g transform="translate(-62,2) scale(1,1)"><path fill="none" stroke="#000000" d="M 153.88818359375 66.4 L 144.43363813920456 79" stroke-miterlimit="10"/></g><g transform="translate(-62,2) scale(1,1)"><path fill="none" stroke="#000000" d="M 153.88818359375 66.4 L 163.34272904829547 79" stroke-miterlimit="10"/></g><g transform="translate(-62,2) scale(1,1)"><g><path fill="none" stroke="none"/><text fill="#000000" stroke="none" font-family="Arial" font-size="13px" font-style="normal" font-weight="bold" text-decoration="none" x="92.5" y="97.7099609375">Lifeline1: Annotator</text></g></g><g transform="translate(-62,2) scale(1,1)"><path fill="none" stroke="#000000" d="M 154.5 105 L 154.5 384" stroke-miterlimit="10" stroke-dasharray="3"/></g><g transform="translate(-62,2) scale(1,1)"><path fill="none" stroke="#000000" d="M 316.351318359375 40 L 356.351318359375 40 L 356.351318359375 80 L 316.351318359375 80 L 316.351318359375 40 Z Z" stroke-miterlimit="10"/></g><g transform="translate(-62,2) scale(1,1)"><path fill="none" stroke="#000000" d="M 316.351318359375 40 L 356.351318359375 80" stroke-miterlimit="10"/></g><g transform="translate(-62,2) scale(1,1)"><path fill="none" stroke="#000000" d="M 356.351318359375 40 L 316.351318359375 80" stroke-miterlimit="10"/></g><g transform="translate(-62,2) scale(1,1)"><g><path fill="none" stroke="none"/><text fill="#000000" stroke="none" font-family="Arial" font-size="13px" font-style="normal" font-weight="bold" text-decoration="none" x="309.983154296875" y="97.7099609375">Lifeline2</text></g></g><g transform="translate(-62,2) scale(1,1)"><path fill="none" stroke="#000000" d="M 337.5 105 L 337.5 384" stroke-miterlimit="10" stroke-dasharray="3"/></g><g transform="translate(-62,2) scale(1,1)"><path fill="#ffffff" stroke="none" d="M 521.439073153409 47.3 C 521.439073153409 43.82060576 524.317474875591 41 527.8681640625 41 C 531.418853249409 41 534.2972549715909 43.82060576 534.2972549715909 47.3 C 534.2972549715909 50.779394239999995 531.418853249409 53.6 527.8681640625 53.6 C 524.317474875591 53.6 521.439073153409 50.779394239999995 521.439073153409 47.3 Z"/></g><g transform="translate(-62,2) scale(1,1)"><path fill="none" stroke="#000000" d="M 521.439073153409 47.3 C 521.439073153409 43.82060576 524.317474875591 41 527.8681640625 41 C 531.418853249409 41 534.2972549715909 43.82060576 534.2972549715909 47.3 C 534.2972549715909 50.779394239999995 531.418853249409 53.6 527.8681640625 53.6 C 524.317474875591 53.6 521.439073153409 50.779394239999995 521.439073153409 47.3 Z" stroke-miterlimit="10"/></g><g transform="translate(-62,2) scale(1,1)"><path fill="none" stroke="#000000" d="M 527.8681640625 53.6 L 527.8681640625 66.4" stroke-miterlimit="10"/></g><g transform="translate(-62,2) scale(1,1)"><path fill="none" stroke="#000000" d="M 521.0608913352272 58.4 L 534.6754367897727 58.4" stroke-miterlimit="10"/></g><g transform="translate(-62,2) scale(1,1)"><path fill="none" stroke="#000000" d="M 527.8681640625 66.4 L 518.4136186079545 79" stroke-miterlimit="10"/></g><g transform="translate(-62,2) scale(1,1)"><path fill="none" stroke="#000000" d="M 527.8681640625 66.4 L 537.3227095170454 79" stroke-miterlimit="10"/></g><g transform="translate(-62,2) scale(1,1)"><g><path fill="none" stroke="none"/><text fill="#000000" stroke="none" font-family="Arial" font-size="13px" font-style="normal" font-weight="bold" text-decoration="none" x="436.5" y="97.7099609375">Lifeline3: Metadata Annotator</text></g></g><g transform="translate(-62,2) scale(1,1)"><path fill="none" stroke="#000000" d="M 528.5 105 L 528.5 384" stroke-miterlimit="10" stroke-dasharray="3"/></g><g transform="translate(-62,2) scale(1,1)"><rect fill="#ffffff" stroke="none" x="763.0612250434028" y="40" width="34.44444444444446" height="40"/></g><g transform="translate(-62,2) scale(1,1)"><path fill="none" stroke="#000000" d="M 763.0612250434028 40 L 797.5056694878473 40 L 797.5056694878473 80 L 763.0612250434028 80 L 763.0612250434028 40 Z Z" stroke-miterlimit="10"/></g><g transform="translate(-62,2) scale(1,1)"><rect fill="#ffffff" stroke="none" x="753.0612250434028" y="46" width="20" height="10"/></g><g transform="translate(-62,2) scale(1,1)"><path fill="none" stroke="#000000" d="M 753.0612250434028 46 L 773.0612250434028 46 L 773.0612250434028 56 L 753.0612250434028 56 L 753.0612250434028 46 Z Z" stroke-miterlimit="10"/></g><g transform="translate(-62,2) scale(1,1)"><rect fill="#ffffff" stroke="none" x="753.0612250434028" y="63" width="20" height="10"/></g><g transform="translate(-62,2) scale(1,1)"><path fill="none" stroke="#000000" d="M 753.0612250434028 63 L 773.0612250434028 63 L 773.0612250434028 73 L 753.0612250434028 73 L 753.0612250434028 63 Z Z" stroke-miterlimit="10"/></g><g transform="translate(-62,2) scale(1,1)"><g><path fill="none" stroke="none"/><text fill="#000000" stroke="none" font-family="Arial" font-size="13px" font-style="normal" font-weight="bold" text-decoration="none" x="668.5" y="97.7099609375">Lifeline3: Semantic Text Annotator</text></g></g><g transform="translate(-62,2) scale(1,1)"><path fill="none" stroke="#000000" d="M 776.5 105 L 776.5 384" stroke-miterlimit="10" stroke-dasharray="3"/></g><g transform="translate(-62,2) scale(1,1)"><path fill="none" stroke="#000000" d="M 154 118 L 330 118" stroke-miterlimit="10"/></g><g transform="translate(-62,2) scale(1,1)"><path fill="#000000" stroke="none" d="M 319.83732514237585 122.20951775601598 L 330 118 L 319.83732514237585 113.79048224398402"/></g><g transform="translate(-62,2) scale(1,1)"><path fill="none" stroke="#000000" d="M 319.83732514237585 122.20951775601598 L 330 118 L 319.83732514237585 113.79048224398402 L 319.83732514237585 122.20951775601598" stroke-miterlimit="10"/></g><g transform="translate(-62,2) scale(1,1)"><g><path fill="none" stroke="none"/><text fill="#000000" stroke="none" font-family="Arial" font-size="13px" font-style="normal" font-weight="normal" text-decoration="none" x="202.5" y="112.7099609375">1 : Load Data</text></g></g><g transform="translate(-62,2) scale(1,1)"><rect fill="#ffffff" stroke="none" x="330" y="118" width="13" height="28"/></g><g transform="translate(-62,2) scale(1,1)"><path fill="none" stroke="#000000" d="M 330 118 L 343 118 L 343 146 L 330 146 L 330 118 Z Z" stroke-miterlimit="10"/></g><g transform="translate(-62,2) scale(1,1)"><path fill="none" stroke="#000000" d="M 154 168 L 521 168" stroke-miterlimit="10"/></g><g transform="translate(-62,2) scale(1,1)"><path fill="#000000" stroke="none" d="M 510.83732514237585 172.209517756016 L 521 168 L 510.83732514237585 163.790482243984"/></g><g transform="translate(-62,2) scale(1,1)"><path fill="none" stroke="#000000" d="M 510.83732514237585 172.209517756016 L 521 168 L 510.83732514237585 163.790482243984 L 510.83732514237585 172.209517756016" stroke-miterlimit="10"/></g><g transform="translate(-62,2) scale(1,1)"><g><path fill="none" stroke="none"/><text fill="#000000" stroke="none" font-family="Arial" font-size="13px" font-style="normal" font-weight="normal" text-decoration="none" x="287.5" y="162.7099609375">2 : Edit Metadata</text></g></g><g transform="translate(-62,2) scale(1,1)"><rect fill="#ffffff" stroke="none" x="521" y="168" width="13" height="28"/></g><g transform="translate(-62,2) scale(1,1)"><path fill="none" stroke="#000000" d="M 521 168 L 534 168 L 534 196 L 521 196 L 521 168 Z Z" stroke-miterlimit="10"/></g><g transform="translate(-62,2) scale(1,1)"><path fill="none" stroke="#000000" d="M 154 229 L 769 229" stroke-miterlimit="10"/></g><g transform="translate(-62,2) scale(1,1)"><path fill="#000000" stroke="none" d="M 758.8373251423759 233.209517756016 L 769 229 L 758.8373251423758 224.790482243984"/></g><g transform="translate(-62,2) scale(1,1)"><path fill="none" stroke="#000000" d="M 758.8373251423759 233.209517756016 L 769 229 L 758.8373251423758 224.790482243984 L 758.8373251423759 233.209517756016" stroke-miterlimit="10"/></g><g transform="translate(-62,2) scale(1,1)"><g><path fill="none" stroke="none"/><text fill="#000000" stroke="none" font-family="Arial" font-size="13px" font-style="normal" font-weight="normal" text-decoration="none" x="391.5" y="223.7099609375">3 : Semantic Annotation</text></g></g><g transform="translate(-62,2) scale(1,1)"><rect fill="#ffffff" stroke="none" x="769" y="229" width="13" height="28"/></g><g transform="translate(-62,2) scale(1,1)"><path fill="none" stroke="#000000" d="M 769 229 L 782 229 L 782 257 L 769 257 L 769 229 Z Z" stroke-miterlimit="10"/></g></g></svg>