<svg version="1.1" xmlns="http://www.w3.org/2000/svg" xmlns:xlink="http://www.w3.org/1999/xlink" width="1148.18798828125" height="544"><defs/><g><text fill="#eeeeee" stroke="none" font-family="Arial" font-size="24px" font-style="normal" font-weight="normal" text-decoration="none" x="0" y="0">UNREGISTERED</text><text fill="#eeeeee" stroke="none" font-family="Arial" font-size="24px" font-style="normal" font-weight="normal" text-decoration="none" x="0" y="30">UNREGISTERED</text><text fill="#eeeeee" stroke="none" font-family="Arial" font-size="24px" font-style="normal" font-weight="normal" text-decoration="none" x="0" y="60">UNREGISTERED</text><text fill="#eeeeee" stroke="none" font-family="Arial" font-size="24px" font-style="normal" font-weight="normal" text-decoration="none" x="0" y="90">UNREGISTERED</text><text fill="#eeeeee" stroke="none" font-family="Arial" font-size="24px" font-style="normal" font-weight="normal" text-decoration="none" x="0" y="120">UNREGISTERED</text><text fill="#eeeeee" stroke="none" font-family="Arial" font-size="24px" font-style="normal" font-weight="normal" text-decoration="none" x="0" y="150">UNREGISTERED</text><text fill="#eeeeee" stroke="none" font-family="Arial" font-size="24px" font-style="normal" font-weight="normal" text-decoration="none" x="0" y="180">UNREGISTERED</text><text fill="#eeeeee" stroke="none" font-family="Arial" font-size="24px" font-style="normal" font-weight="normal" text-decoration="none" x="0" y="210">UNREGISTERED</text><text fill="#eeeeee" stroke="none" font-family="Arial" font-size="24px" font-style="normal" font-weight="normal" text-decoration="none" x="0" y="240">UNREGISTERED</text><text fill="#eeeeee" stroke="none" font-family="Arial" font-size="24px" font-style="normal" font-weight="normal" text-decoration="none" x="0" y="270">UNREGISTERED</text><text fill="#eeeeee" stroke="none" font-family="Arial" font-size="24px" font-style="normal" font-weight="normal" text-decoration="none" x="0" y="300">UNREGISTERED</text><text fill="#eeeeee" stroke="none" font-family="Arial" font-size="24px" font-style="normal" font-weight="normal" text-decoration="none" x="0" y="330">UNREGISTERED</text><text fill="#eeeeee" stroke="none" font-family="Arial" font-size="24px" font-style="normal" font-weight="normal" text-decoration="none" x="0" y="360">UNREGISTERED</text><text fill="#eeeeee" stroke="none" font-family="Arial" font-size="24px" font-style="normal" font-weight="normal" text-decoration="none" x="0" y="390">UNREGISTERED</text><text fill="#eeeeee" stroke="none" font-family="Arial" font-size="24px" font-style="normal" font-weight="normal" text-decoration="none" x="0" y="420">UNREGISTERED</text><text fill="#eeeeee" stroke="none" font-family="Arial" font-size="24px" font-style="normal" font-weight="normal" text-decoration="none" x="0" y="450">UNREGISTERED</text><text fill="#eeeeee" stroke="none" font-family="Arial" font-size="24px" font-style="normal" font-weight="normal" text-decoration="none" x="0" y="480">UNREGISTERED</text><text fill="#eeeeee" stroke="none" font-family="Arial" font-size="24px" font-style="normal" font-weight="normal" text-decoration="none" x="0" y="510">UNREGISTERED</text><text fill="#eeeeee" stroke="none" font-family="Arial" font-size="24px" font-style="normal" font-weight="normal" text-decoration="none" x="0" y="540">UNREGISTERED</text><text fill="#eeeeee" stroke="none" font-family="Arial" font-size="24px" font-style="normal" font-weight="normal" text-decoration="none" x="200" y="0">UNREGISTERED</text><text fill="#eeeeee" stroke="none" font-family="Arial" font-size="24px" font-style="normal" font-weight="normal" text-decoration="none" x="200" y="30">UNREGISTERED</text><text fill="#eeeeee" stroke="none" font-family="Arial" font-size="24px" font-style="normal" font-weight="normal" text-decoration="none" x="200" y="60">UNREGISTERED</text><text fill="#eeeeee" stroke="none" font-family="Arial" font-size="24px" font-style="normal" font-weight="normal" text-decoration="none" x="200" y="90">UNREGISTERED</text><text fill="#eeeeee" stroke="none" font-family="Arial" font-size="24px" font-style="normal" font-weight="normal" text-decoration="none" x="200" y="120">UNREGISTERED</text><text fill="#eeeeee" stroke="none" font-family="Arial" font-size="24px" font-style="normal" font-weight="normal" text-decoration="none" x="200" y="150">UNREGISTERED</text><text fill="#eeeeee" stroke="none" font-family="Arial" font-size="24px" font-style="normal" font-weight="normal" text-decoration="none" x="200" y="180">UNREGISTERED</text><text fill="#eeeeee" stroke="none" font-family="Arial" font-size="24px" font-style="normal" font-weight="normal" text-decoration="none" x="200" y="210">UNREGISTERED</text><text fill="#eeeeee" stroke="none" font-family="Arial" font-size="24px" font-style="normal" font-weight="normal" text-decoration="none" x="200" y="240">UNREGISTERED</text><text fill="#eeeeee" stroke="none" font-family="Arial" font-size="24px" font-style="normal" font-weight="normal" text-decoration="none" x="200" y="270">UNREGISTERED</text><text fill="#eeeeee" stroke="none" font-family="Arial" font-size="24px" font-style="normal" font-weight="normal" text-decoration="none" x="200" y="300">UNREGISTERED</text><text fill="#eeeeee" stroke="none" font-family="Arial" font-size="24px" font-style="normal" font-weight="normal" text-decoration="none" x="200" y="330">UNREGISTERED</text><text fill="#eeeeee" stroke="none" font-family="Arial" font-size="24px" font-style="normal" font-weight="normal" text-decoration="none" x="200" y="360">UNREGISTERED</text><text fill="#eeeeee" stroke="none" font-family="Arial" font-size="24px" font-style="normal" font-weight="normal" text-decoration="none" x="200" y="390">UNREGISTERED</text><text fill="#eeeeee" stroke="none" font-family="Arial" font-size="24px" font-style="normal" font-weight="normal" text-decoration="none" x="200" y="420">UNREGISTERED</text><text fill="#eeeeee" stroke="none" font-family="Arial" font-size="24px" font-style="normal" font-weight="normal" text-decoration="none" x="200" y="450">UNREGISTERED</text><text fill="#eeeeee" stroke="none" font-family="Arial" font-size="24px" font-style="normal" font-weight="normal" text-decoration="none" x="200" y="480">UNREGISTERED</text><text fill="#eeeeee" stroke="none" font-family="Arial" font-size="24px" font-style="normal" font-weight="normal" text-decoration="none" x="200" y="510">UNREGISTERED</text><text fill="#eeeeee" stroke="none" font-family="Arial" font-size="24px" font-style="normal" font-weight="normal" text-decoration="none" x="200" y="540">UNREGISTERED</text><text fill="#eeeeee" stroke="none" font-family="Arial" font-size="24px" font-style="normal" font-weight="normal" text-decoration="none" x="400" y="0">UNREGISTERED</text><text fill="#eeeeee" stroke="none" font-family="Arial" font-size="24px" font-style="normal" font-weight="normal" text-decoration="none" x="400" y="30">UNREGISTERED</text><text fill="#eeeeee" stroke="none" font-family="Arial" font-size="24px" font-style="normal" font-weight="normal" text-decoration="none" x="400" y="60">UNREGISTERED</text><text fill="#eeeeee" stroke="none" font-family="Arial" font-size="24px" font-style="normal" font-weight="normal" text-decoration="none" x="400" y="90">UNREGISTERED</text><text fill="#eeeeee" stroke="none" font-family="Arial" font-size="24px" font-style="normal" font-weight="normal" text-decoration="none" x="400" y="120">UNREGISTERED</text><text fill="#eeeeee" stroke="none" font-family="Arial" font-size="24px" font-style="normal" font-weight="normal" text-decoration="none" x="400" y="150">UNREGISTERED</text><text fill="#eeeeee" stroke="none" font-family="Arial" font-size="24px" font-style="normal" font-weight="normal" text-decoration="none" x="400" y="180">UNREGISTERED</text><text fill="#eeeeee" stroke="none" font-family="Arial" font-size="24px" font-style="normal" font-weight="normal" text-decoration="none" x="400" y="210">UNREGISTERED</text><text fill="#eeeeee" stroke="none" font-family="Arial" font-size="24px" font-style="normal" font-weight="normal" text-decoration="none" x="400" y="240">UNREGISTERED</text><text fill="#eeeeee" stroke="none" font-family="Arial" font-size="24px" font-style="normal" font-weight="normal" text-decoration="none" x="400" y="270">UNREGISTERED</text><text fill="#eeeeee" stroke="none" font-family="Arial" font-size="24px" font-style="normal" font-weight="normal" text-decoration="none" x="400" y="300">UNREGISTERED</text><text fill="#eeeeee" stroke="none" font-family="Arial" font-size="24px" font-style="normal" font-weight="normal" text-decoration="none" x="400" y="330">UNREGISTERED</text><text fill="#eeeeee" stroke="none" font-family="Arial" font-size="24px" font-style="normal" font-weight="normal" text-decoration="none" x="400" y="360">UNREGISTERED</text><text fill="#eeeeee" stroke="none" font-family="Arial" font-size="24px" font-style="normal" font-weight="normal" text-decoration="none" x="400" y="390">UNREGISTERED</text><text fill="#eeeeee" stroke="none" font-family="Arial" font-size="24px" font-style="normal" font-weight="normal" text-decoration="none" x="400" y="420">UNREGISTERED</text><text fill="#eeeeee" stroke="none" font-family="Arial" font-size="24px" font-style="normal" font-weight="normal" text-decoration="none" x="400" y="450">UNREGISTERED</text><text fill="#eeeeee" stroke="none" font-family="Arial" font-size="24px" font-style="normal" font-weight="normal" text-decoration="none" x="400" y="480">UNREGISTERED</text><text fill="#eeeeee" stroke="none" font-family="Arial" font-size="24px" font-style="normal" font-weight="normal" text-decoration="none" x="400" y="510">UNREGISTERED</text><text fill="#eeeeee" stroke="none" font-family="Arial" font-size="24px" font-style="normal" font-weight="normal" text-decoration="none" x="400" y="540">UNREGISTERED</text><text fill="#eeeeee" stroke="none" font-family="Arial" font-size="24px" font-style="normal" font-weight="normal" text-decoration="none" x="600" y="0">UNREGISTERED</text><text fill="#eeeeee" stroke="none" font-family="Arial" font-size="24px" font-style="normal" font-weight="normal" text-decoration="none" x="600" y="30">UNREGISTERED</text><text fill="#eeeeee" stroke="none" font-family="Arial" font-size="24px" font-style="normal" font-weight="normal" text-decoration="none" x="600" y="60">UNREGISTERED</text><text fill="#eeeeee" stroke="none" font-family="Arial" font-size="24px" font-style="normal" font-weight="normal" text-decoration="none" x="600" y="90">UNREGISTERED</text><text fill="#eeeeee" stroke="none" font-family="Arial" font-size="24px" font-style="normal" font-weight="normal" text-decoration="none" x="600" y="120">UNREGISTERED</text><text fill="#eeeeee" stroke="none" font-family="Arial" font-size="24px" font-style="normal" font-weight="normal" text-decoration="none" x="600" y="150">UNREGISTERED</text><text fill="#eeeeee" stroke="none" font-family="Arial" font-size="24px" font-style="normal" font-weight="normal" text-decoration="none" x="600" y="180">UNREGISTERED</text><text fill="#eeeeee" stroke="none" font-family="Arial" font-size="24px" font-style="normal" font-weight="normal" text-decoration="none" x="600" y="210">UNREGISTERED</text><text fill="#eeeeee" stroke="none" font-family="Arial" font-size="24px" font-style="normal" font-weight="normal" text-decoration="none" x="600" y="240">UNREGISTERED</text><text fill="#eeeeee" stroke="none" font-family="Arial" font-size="24px" font-style="normal" font-weight="normal" text-decoration="none" x="600" y="270">UNREGISTERED</text><text fill="#eeeeee" stroke="none" font-family="Arial" font-size="24px" font-style="normal" font-weight="normal" text-decoration="none" x="600" y="300">UNREGISTERED</text><text fill="#eeeeee" stroke="none" font-family="Arial" font-size="24px" font-style="normal" font-weight="normal" text-decoration="none" x="600" y="330">UNREGISTERED</text><text fill="#eeeeee" stroke="none" font-family="Arial" font-size="24px" font-style="normal" font-weight="normal" text-decoration="none" x="600" y="360">UNREGISTERED</text><text fill="#eeeeee" stroke="none" font-family="Arial" font-size="24px" font-style="normal" font-weight="normal" text-decoration="none" x="600" y="390">UNREGISTERED</text><text fill="#eeeeee" stroke="none" font-family="Arial" font-size="24px" font-style="normal" font-weight="normal" text-decoration="none" x="600" y="420">UNREGISTERED</text><text fill="#eeeeee" stroke="none" font-family="Arial" font-size="24px" font-style="normal" font-weight="normal" text-decoration="none" x="600" y="450">UNREGISTERED</text><text fill="#eeeeee" stroke="none" font-family="Arial" font-size="24px" font-style="normal" font-weight="normal" text-decoration="none" x="600" y="480">UNREGISTERED</text><text fill="#eeeeee" stroke="none" font-family="Arial" font-size="24px" font-style="normal" font-weight="normal" text-decoration="none" x="600" y="510">UNREGISTERED</text><text fill="#eeeeee" stroke="none" font-family="Arial" font-size="24px" font-style="normal" font-weight="normal" text-decoration="none" x="600" y="540">UNREGISTERED</text><text fill="#eeeeee" stroke="none" font-family="Arial" font-size="24px" font-style="normal" font-weight="normal" text-decoration="none" x="800" y="0">UNREGISTERED</text><text fill="#eeeeee" stroke="none" font-family="Arial" font-size="24px" font-style="normal" font-weight="normal" text-decoration="none" x="800" y="30">UNREGISTERED</text><text fill="#eeeeee" stroke="none" font-family="Arial" font-size="24px" font-style="normal" font-weight="normal" text-decoration="none" x="800" y="60">UNREGISTERED</text><text fill="#eeeeee" stroke="none" font-family="Arial" font-size="24px" font-style="normal" font-weight="normal" text-decoration="none" x="800" y="90">UNREGISTERED</text><text fill="#eeeeee" stroke="none" font-family="Arial" font-size="24px" font-style="normal" font-weight="normal" text-decoration="none" x="800" y="120">UNREGISTERED</text><text fill="#eeeeee" stroke="none" font-family="Arial" font-size="24px" font-style="normal" font-weight="normal" text-decoration="none" x="800" y="150">UNREGISTERED</text><text fill="#eeeeee" stroke="none" font-family="Arial" font-size="24px" font-style="normal" font-weight="normal" text-decoration="none" x="800" y="180">UNREGISTERED</text><text fill="#eeeeee" stroke="none" font-family="Arial" font-size="24px" font-style="normal" font-weight="normal" text-decoration="none" x="800" y="210">UNREGISTERED</text><text fill="#eeeeee" stroke="none" font-family="Arial" font-size="24px" font-style="normal" font-weight="normal" text-decoration="none" x="800" y="240">UNREGISTERED</text><text fill="#eeeeee" stroke="none" font-family="Arial" font-size="24px" font-style="normal" font-weight="normal" text-decoration="none" x="800" y="270">UNREGISTERED</text><text fill="#eeeeee" stroke="none" font-family="Arial" font-size="24px" font-style="normal" font-weight="normal" text-decoration="none" x="800" y="300">UNREGISTERED</text><text fill="#eeeeee" stroke="none" font-family="Arial" font-size="24px" font-style="normal" font-weight="normal" text-decoration="none" x="800" y="330">UNREGISTERED</text><text fill="#eeeeee" stroke="none" font-family="Arial" font-size="24px" font-style="normal" font-weight="normal" text-decoration="none" x="800" y="360">UNREGISTERED</text><text fill="#eeeeee" stroke="none" font-family="Arial" font-size="24px" font-style="normal" font-weight="normal" text-decoration="none" x="800" y="390">UNREGISTERED</text><text fill="#eeeeee" stroke="none" font-family="Arial" font-size="24px" font-style="normal" font-weight="normal" text-decoration="none" x="800" y="420">UNREGISTERED</text><text fill="#eeeeee" stroke="none" font-family="Arial" font-size="24px" font-style="normal" font-weight="normal" text-decoration="none" x="800" y="450">UNREGISTERED</text><text fill="#eeeeee" stroke="none" font-family="Arial" font-size="24px" font-style="normal" font-weight="normal" text-decoration="none" x="800" y="480">UNREGISTERED</text><text fill="#eeeeee" stroke="none" font-family="Arial" font-size="24px" font-style="normal" font-weight="normal" text-decoration="none" x="800" y="510">UNREGISTERED</text><text fill="#eeeeee" stroke="none" font-family="Arial" font-size="24px" font-style="normal" font-weight="normal" text-decoration="none" x="800" y="540">UNREGISTERED</text><text fill="#eeeeee" stroke="none" font-family="Arial" font-size="24px" font-style="normal" font-weight="normal" text-decoration="none" x="1000" y="0">UNREGISTERED</text><text fill="#eeeeee" stroke="none" font-family="Arial" font-size="24px" font-style="normal" font-weight="normal" text-decoration="none" x="1000" y="30">UNREGISTERED</text><text fill="#eeeeee" stroke="none" font-family="Arial" font-size="24px" font-style="normal" font-weight="normal" text-decoration="none" x="1000" y="60">UNREGISTERED</text><text fill="#eeeeee" stroke="none" font-family="Arial" font-size="24px" font-style="normal" font-weight="normal" text-decoration="none" x="1000" y="90">UNREGISTERED</text><text fill="#eeeeee" stroke="none" font-family="Arial" font-size="24px" font-style="normal" font-weight="normal" text-decoration="none" x="1000" y="120">UNREGISTERED</text><text fill="#eeeeee" stroke="none" font-family="Arial" font-size="24px" font-style="normal" font-weight="normal" text-decoration="none" x="1000" y="150">UNREGISTERED</text><text fill="#eeeeee" stroke="none" font-family="Arial" font-size="24px" font-style="normal" font-weight="normal" text-decoration="none" x="1000" y="180">UNREGISTERED</text><text fill="#eeeeee" stroke="none" font-family="Arial" font-size="24px" font-style="normal" font-weight="normal" text-decoration="none" x="1000" y="210">UNREGISTERED</text><text fill="#eeeeee" stroke="none" font-family="Arial" font-size="24px" font-style="normal" font-weight="normal" text-decoration="none" x="1000" y="240">UNREGISTERED</text><text fill="#eeeeee" stroke="none" font-family="Arial" font-size="24px" font-style="normal" font-weight="normal" text-decoration="none" x="1000" y="270">UNREGISTERED</text><text fill="#eeeeee" stroke="none" font-family="Arial" font-size="24px" font-style="normal" font-weight="normal" text-decoration="none" x="1000" y="300">UNREGISTERED</text><text fill="#eeeeee" stroke="none" font-family="Arial" font-size="24px" font-style="normal" font-weight="normal" text-decoration="none" x="1000" y="330">UNREGISTERED</text><text fill="#eeeeee" stroke="none" font-family="Arial" font-size="24px" font-style="normal" font-weight="normal" text-decoration="none" x="1000" y="360">UNREGISTERED</text><text fill="#eeeeee" stroke="none" font-family="Arial" font-size="24px" font-style="normal" font-weight="normal" text-decoration="none" x="1000" y="390">UNREGISTERED</text><text fill="#eeeeee" stroke="none" font-family="Arial" font-size="24px" font-style="normal" font-weight="normal" text-decoration="none" x="1000" y="420">UNREGISTERED</text><text fill="#eeeeee" stroke="none" font-family="Arial" font-size="24px" font-style="normal" font-weight="normal" text-decoration="none" x="1000" y="450">UNREGISTERED</text><text fill="#eeeeee" stroke="none" font-family="Arial" font-size="24px" font-style="normal" font-weight="normal" text-decoration="none" x="1000" y="480">UNREGISTERED</text><text fill="#eeeeee" stroke="none" font-family="Arial" font-size="24px" font-style="normal" font-weight="normal" text-decoration="none" x="1000" y="510">UNREGISTERED</text><text fill="#eeeeee" stroke="none" font-family="Arial" font-size="24px" font-style="normal" font-weight="normal" text-decoration="none" x="1000" y="540">UNREGISTERED</text><g transform="translate(-62,-78) scale(1,1)"><path fill="#ffffff" stroke="none" d="M 173.51846075994317 116.23 C 173.51846075994317 110.027841696 178.48370373070682 105 184.608642578125 105 C 190.73358142554318 105 195.69882439630683 110.027841696 195.69882439630683 116.23 C 195.69882439630683 122.43215830400001 190.73358142554318 127.46000000000001 184.608642578125 127.46000000000001 C 178.48370373070682 127.46000000000001 173.51846075994317 122.43215830400001 173.51846075994317 116.23 Z"/></g><g transform="translate(-62,-78) scale(1,1)"><path fill="none" stroke="#000000" d="M 173.51846075994317 116.23 C 173.51846075994317 110.027841696 178.48370373070682 105 184.608642578125 105 C 190.73358142554318 105 195.69882439630683 110.027841696 195.69882439630683 116.23 C 195.69882439630683 122.43215830400001 190.73358142554318 127.46000000000001 184.608642578125 127.46000000000001 C 178.48370373070682 127.46000000000001 173.51846075994317 122.43215830400001 173.51846075994317 116.23 Z" stroke-miterlimit="10"/></g><g transform="translate(-62,-78) scale(1,1)"><path fill="none" stroke="#000000" d="M 184.608642578125 127.46000000000001 L 184.608642578125 149.54" stroke-miterlimit="10"/></g><g transform="translate(-62,-78) scale(1,1)"><path fill="none" stroke="#000000" d="M 172.86609712357955 135.74 L 196.35118803267045 135.74" stroke-miterlimit="10"/></g><g transform="translate(-62,-78) scale(1,1)"><path fill="none" stroke="#000000" d="M 184.608642578125 149.54 L 168.2995516690341 172" stroke-miterlimit="10"/></g><g transform="translate(-62,-78) scale(1,1)"><path fill="none" stroke="#000000" d="M 184.608642578125 149.54 L 200.9177334872159 172" stroke-miterlimit="10"/></g><g transform="translate(-62,-78) scale(1,1)"><g><path fill="none" stroke="none"/><text fill="#000000" stroke="none" font-family="Arial" font-size="13px" font-style="normal" font-weight="bold" text-decoration="none" x="164.499267578125" y="190.7099609375">Visitor</text></g></g><g transform="translate(-62,-78) scale(1,1)"><path fill="#ffffff" stroke="none" d="M 1093.5184607599433 444.23 C 1093.5184607599433 438.027841696 1098.4837037307068 433 1104.608642578125 433 C 1110.7335814255432 433 1115.6988243963067 438.027841696 1115.6988243963067 444.23 C 1115.6988243963067 450.43215830400004 1110.7335814255432 455.46 1104.608642578125 455.46 C 1098.4837037307068 455.46 1093.5184607599433 450.43215830400004 1093.5184607599433 444.23 Z"/></g><g transform="translate(-62,-78) scale(1,1)"><path fill="none" stroke="#000000" d="M 1093.5184607599433 444.23 C 1093.5184607599433 438.027841696 1098.4837037307068 433 1104.608642578125 433 C 1110.7335814255432 433 1115.6988243963067 438.027841696 1115.6988243963067 444.23 C 1115.6988243963067 450.43215830400004 1110.7335814255432 455.46 1104.608642578125 455.46 C 1098.4837037307068 455.46 1093.5184607599433 450.43215830400004 1093.5184607599433 444.23 Z" stroke-miterlimit="10"/></g><g transform="translate(-62,-78) scale(1,1)"><path fill="none" stroke="#000000" d="M 1104.608642578125 455.46 L 1104.608642578125 477.54" stroke-miterlimit="10"/></g><g transform="translate(-62,-78) scale(1,1)"><path fill="none" stroke="#000000" d="M 1092.8660971235795 463.74 L 1116.3511880326705 463.74" stroke-miterlimit="10"/></g><g transform="translate(-62,-78) scale(1,1)"><path fill="none" stroke="#000000" d="M 1104.608642578125 477.54 L 1088.2995516690341 500" stroke-miterlimit="10"/></g><g transform="translate(-62,-78) scale(1,1)"><path fill="none" stroke="#000000" d="M 1104.608642578125 477.54 L 1120.9177334872159 500" stroke-miterlimit="10"/></g><g transform="translate(-62,-78) scale(1,1)"><g><path fill="none" stroke="none"/><text fill="#000000" stroke="none" font-family="Arial" font-size="13px" font-style="normal" font-weight="bold" text-decoration="none" x="1084.38818359375" y="518.7099609375">Admin</text></g></g><g transform="translate(-62,-78) scale(1,1)"><rect fill="#C0C0C0" stroke="none" x="1009" y="167" width="198.18798828125" height="52" opacity="0.2"/></g><g transform="translate(-62,-78) scale(1,1)"><rect fill="#ffffff" stroke="none" x="1002" y="160" width="198.18798828125" height="52"/></g><g transform="translate(-62,-78) scale(1,1)"><path fill="none" stroke="#000000" d="M 1002 160 L 1200.18798828125 160 L 1200.18798828125 212 L 1002 212 L 1002 160 Z Z" stroke-miterlimit="10"/></g><g transform="translate(-62,-78) scale(1,1)"><rect fill="#ffffff" stroke="none" x="992" y="167" width="20" height="10"/></g><g transform="translate(-62,-78) scale(1,1)"><path fill="none" stroke="#000000" d="M 992 167 L 1012 167 L 1012 177 L 992 177 L 992 167 Z Z" stroke-miterlimit="10"/></g><g transform="translate(-62,-78) scale(1,1)"><rect fill="#ffffff" stroke="none" x="992" y="187" width="20" height="10"/></g><g transform="translate(-62,-78) scale(1,1)"><path fill="none" stroke="#000000" d="M 992 187 L 1012 187 L 1012 197 L 992 197 L 992 187 Z Z" stroke-miterlimit="10"/></g><g transform="translate(-62,-78) scale(1,1)"><g><path fill="none" stroke="none"/><text fill="#000000" stroke="none" font-family="Arial" font-size="13px" font-style="normal" font-weight="normal" text-decoration="none" x="1067.79541015625" y="175.7099609375">«Repository»</text></g></g><g transform="translate(-62,-78) scale(1,1)"><g><path fill="none" stroke="none"/><text fill="#000000" stroke="none" font-family="Arial" font-size="13px" font-style="normal" font-weight="bold" text-decoration="none" x="1086.232177734375" y="190.53857421875">3D-DB</text></g></g><g transform="translate(-62,-78) scale(1,1)"><rect fill="#C0C0C0" stroke="none" x="1009" y="319" width="198.18798828125" height="52" opacity="0.2"/></g><g transform="translate(-62,-78) scale(1,1)"><rect fill="#ffffff" stroke="none" x="1002" y="312" width="198.18798828125" height="52"/></g><g transform="translate(-62,-78) scale(1,1)"><path fill="none" stroke="#000000" d="M 1002 312 L 1200.18798828125 312 L 1200.18798828125 364 L 1002 364 L 1002 312 Z Z" stroke-miterlimit="10"/></g><g transform="translate(-62,-78) scale(1,1)"><rect fill="#ffffff" stroke="none" x="992" y="319" width="20" height="10"/></g><g transform="translate(-62,-78) scale(1,1)"><path fill="none" stroke="#000000" d="M 992 319 L 1012 319 L 1012 329 L 992 329 L 992 319 Z Z" stroke-miterlimit="10"/></g><g transform="translate(-62,-78) scale(1,1)"><rect fill="#ffffff" stroke="none" x="992" y="339" width="20" height="10"/></g><g transform="translate(-62,-78) scale(1,1)"><path fill="none" stroke="#000000" d="M 992 339 L 1012 339 L 1012 349 L 992 349 L 992 339 Z Z" stroke-miterlimit="10"/></g><g transform="translate(-62,-78) scale(1,1)"><g><path fill="none" stroke="none"/><text fill="#000000" stroke="none" font-family="Arial" font-size="13px" font-style="normal" font-weight="normal" text-decoration="none" x="1071.0390625" y="327.7099609375">«Database»</text></g></g><g transform="translate(-62,-78) scale(1,1)"><g><path fill="none" stroke="none"/><text fill="#000000" stroke="none" font-family="Arial" font-size="13px" font-style="normal" font-weight="bold" text-decoration="none" x="1056.728271484375" y="342.7099609375">NoSql RealTime</text></g></g><g transform="translate(-62,-78) scale(1,1)"><rect fill="#C0C0C0" stroke="none" x="1025" y="567" width="172.17529296875" height="52" opacity="0.2"/></g><g transform="translate(-62,-78) scale(1,1)"><rect fill="#ffffff" stroke="none" x="1018" y="560" width="172.17529296875" height="52"/></g><g transform="translate(-62,-78) scale(1,1)"><path fill="none" stroke="#000000" d="M 1018 560 L 1190.17529296875 560 L 1190.17529296875 612 L 1018 612 L 1018 560 Z Z" stroke-miterlimit="10"/></g><g transform="translate(-62,-78) scale(1,1)"><rect fill="#ffffff" stroke="none" x="1008" y="567" width="20" height="10"/></g><g transform="translate(-62,-78) scale(1,1)"><path fill="none" stroke="#000000" d="M 1008 567 L 1028 567 L 1028 577 L 1008 577 L 1008 567 Z Z" stroke-miterlimit="10"/></g><g transform="translate(-62,-78) scale(1,1)"><rect fill="#ffffff" stroke="none" x="1008" y="587" width="20" height="10"/></g><g transform="translate(-62,-78) scale(1,1)"><path fill="none" stroke="#000000" d="M 1008 587 L 1028 587 L 1028 597 L 1008 597 L 1008 587 Z Z" stroke-miterlimit="10"/></g><g transform="translate(-62,-78) scale(1,1)"><g><path fill="none" stroke="none"/><text fill="#000000" stroke="none" font-family="Arial" font-size="13px" font-style="normal" font-weight="normal" text-decoration="none" x="1068.253173828125" y="575.53857421875">«Component»</text></g></g><g transform="translate(-62,-78) scale(1,1)"><g><path fill="none" stroke="none"/><text fill="#000000" stroke="none" font-family="Arial" font-size="13px" font-style="normal" font-weight="bold" text-decoration="none" x="1055.62451171875" y="590.7099609375">3D Scene Builder</text></g></g><g transform="translate(-62,-78) scale(1,1)"><path fill="#C0C0C0" stroke="none" d="M 559 130.5 C 559 110.8938896 593.0263552 95 635 95 C 676.9736448 95 711 110.8938896 711 130.5 C 711 150.1061104 676.9736448 166 635 166 C 593.0263552 166 559 150.1061104 559 130.5 Z" opacity="0.2"/></g><g transform="translate(-62,-78) scale(1,1)"><path fill="#ffffff" stroke="none" d="M 552 123.5 C 552 103.8938896 586.0263552 88 628 88 C 669.9736448 88 704 103.8938896 704 123.5 C 704 143.1061104 669.9736448 159 628 159 C 586.0263552 159 552 143.1061104 552 123.5 Z"/></g><g transform="translate(-62,-78) scale(1,1)"><path fill="none" stroke="#000000" d="M 552 123.5 C 552 103.8938896 586.0263552 88 628 88 C 669.9736448 88 704 103.8938896 704 123.5 C 704 143.1061104 669.9736448 159 628 159 C 586.0263552 159 552 143.1061104 552 123.5 Z" stroke-miterlimit="10"/></g><g transform="translate(-62,-78) scale(1,1)"><g><path fill="none" stroke="none"/><text fill="#000000" stroke="none" font-family="Arial" font-size="13px" font-style="normal" font-weight="bold" text-decoration="none" x="590.425048828125" y="128.7099609375">Start search</text></g></g><g transform="translate(-62,-78) scale(1,1)"><path fill="#C0C0C0" stroke="none" d="M 423 250.5 C 423 230.8938896 457.0263552 215 499 215 C 540.9736448 215 575 230.8938896 575 250.5 C 575 270.1061104 540.9736448 286 499 286 C 457.0263552 286 423 270.1061104 423 250.5 Z" opacity="0.2"/></g><g transform="translate(-62,-78) scale(1,1)"><path fill="#ffffff" stroke="none" d="M 416 243.5 C 416 223.8938896 450.0263552 208 492 208 C 533.9736448 208 568 223.8938896 568 243.5 C 568 263.1061104 533.9736448 279 492 279 C 450.0263552 279 416 263.1061104 416 243.5 Z"/></g><g transform="translate(-62,-78) scale(1,1)"><path fill="none" stroke="#000000" d="M 416 243.5 C 416 223.8938896 450.0263552 208 492 208 C 533.9736448 208 568 223.8938896 568 243.5 C 568 263.1061104 533.9736448 279 492 279 C 450.0263552 279 416 263.1061104 416 243.5 Z" stroke-miterlimit="10"/></g><g transform="translate(-62,-78) scale(1,1)"><g><path fill="none" stroke="none"/><text fill="#000000" stroke="none" font-family="Arial" font-size="13px" font-style="normal" font-weight="bold" text-decoration="none" x="448.286865234375" y="248.7099609375">Search Object</text></g></g><g transform="translate(-62,-78) scale(1,1)"><path fill="#C0C0C0" stroke="none" d="M 511 346.5 C 511 326.8938896 545.0263552 311 587 311 C 628.9736448 311 663 326.8938896 663 346.5 C 663 366.1061104 628.9736448 382 587 382 C 545.0263552 382 511 366.1061104 511 346.5 Z" opacity="0.2"/></g><g transform="translate(-62,-78) scale(1,1)"><path fill="#ffffff" stroke="none" d="M 504 339.5 C 504 319.8938896 538.0263552 304 580 304 C 621.9736448 304 656 319.8938896 656 339.5 C 656 359.1061104 621.9736448 375 580 375 C 538.0263552 375 504 359.1061104 504 339.5 Z"/></g><g transform="translate(-62,-78) scale(1,1)"><path fill="none" stroke="#000000" d="M 504 339.5 C 504 319.8938896 538.0263552 304 580 304 C 621.9736448 304 656 319.8938896 656 339.5 C 656 359.1061104 621.9736448 375 580 375 C 538.0263552 375 504 359.1061104 504 339.5 Z" stroke-miterlimit="10"/></g><g transform="translate(-62,-78) scale(1,1)"><g><path fill="none" stroke="none"/><text fill="#000000" stroke="none" font-family="Arial" font-size="13px" font-style="normal" font-weight="bold" text-decoration="none" x="541.71728515625" y="338.2099609375">Interact with</text><text fill="#000000" stroke="none" font-family="Arial" font-size="13px" font-style="normal" font-weight="bold" text-decoration="none" x="560.858642578125" y="351.2099609375">object</text></g></g><g transform="translate(-62,-78) scale(1,1)"><rect fill="#C0C0C0" stroke="none" x="89" y="247" width="249.40087890625" height="52" opacity="0.2"/></g><g transform="translate(-62,-78) scale(1,1)"><rect fill="#ffffff" stroke="none" x="82" y="240" width="249.40087890625" height="52"/></g><g transform="translate(-62,-78) scale(1,1)"><path fill="none" stroke="#000000" d="M 82 240 L 331.40087890625 240 L 331.40087890625 292 L 82 292 L 82 240 Z Z" stroke-miterlimit="10"/></g><g transform="translate(-62,-78) scale(1,1)"><rect fill="#ffffff" stroke="none" x="72" y="247" width="20" height="10"/></g><g transform="translate(-62,-78) scale(1,1)"><path fill="none" stroke="#000000" d="M 72 247 L 92 247 L 92 257 L 72 257 L 72 247 Z Z" stroke-miterlimit="10"/></g><g transform="translate(-62,-78) scale(1,1)"><rect fill="#ffffff" stroke="none" x="72" y="267" width="20" height="10"/></g><g transform="translate(-62,-78) scale(1,1)"><path fill="none" stroke="#000000" d="M 72 267 L 92 267 L 92 277 L 72 277 L 72 267 Z Z" stroke-miterlimit="10"/></g><g transform="translate(-62,-78) scale(1,1)"><g><path fill="none" stroke="none"/><text fill="#000000" stroke="none" font-family="Arial" font-size="13px" font-style="normal" font-weight="normal" text-decoration="none" x="170.865966796875" y="255.53857421875">«Component»</text></g></g><g transform="translate(-62,-78) scale(1,1)"><g><path fill="none" stroke="none"/><text fill="#000000" stroke="none" font-family="Arial" font-size="13px" font-style="normal" font-weight="bold" text-decoration="none" x="96.5" y="270.7099609375">Augmented Reality Colaboration App</text></g></g><g transform="translate(-62,-78) scale(1,1)"><path fill="none" stroke="#000000" d="M 191 199 L 197 239" stroke-miterlimit="10"/></g><g transform="translate(-62,-78) scale(1,1)"><path fill="none" stroke="#000000" d="M 191.32951907166841 229.57420316146013 L 197 239 L 199.65540934560602 228.3253196203695" stroke-miterlimit="10"/></g><g transform="translate(-62,-78) scale(1,1)"><path fill="none" stroke="#000000" d="M 282 239 L 551 149" stroke-miterlimit="10"/></g><g transform="translate(-62,-78) scale(1,1)"><path fill="none" stroke="#000000" d="M 586 160 L 533 207" stroke-miterlimit="10" stroke-dasharray="3"/></g><g transform="translate(-62,-78) scale(1,1)"><path fill="none" stroke="#000000" d="M 537.8106268982758 197.1076863754941 L 533 207 L 543.3965489470414 203.40670485601703" stroke-miterlimit="10"/></g><g transform="translate(-62,-78) scale(1,1)"><g><path fill="none" stroke="none"/><text fill="#000000" stroke="none" font-family="Arial" font-size="13px" font-style="normal" font-weight="normal" text-decoration="none" x="551.5" y="209.7099609375">«include»</text></g></g><g transform="translate(-62,-78) scale(1,1)"><path fill="none" stroke="#000000" d="M 620 160 L 588 303" stroke-miterlimit="10" stroke-dasharray="3"/></g><g transform="translate(-62,-78) scale(1,1)"><path fill="none" stroke="#000000" d="M 586.1113572755272 292.16334790355916 L 588 303 L 594.3271981050394 294.0018577395339" stroke-miterlimit="10"/></g><g transform="translate(-62,-78) scale(1,1)"><g><path fill="none" stroke="none"/><text fill="#000000" stroke="none" font-family="Arial" font-size="13px" font-style="normal" font-weight="normal" text-decoration="none" x="605.5" y="241.7099609375">«include»</text></g></g><g transform="translate(-62,-78) scale(1,1)"><path fill="none" stroke="#000000" d="M 1102 527 L 1100 559" stroke-miterlimit="10"/></g><g transform="translate(-62,-78) scale(1,1)"><path fill="none" stroke="#000000" d="M 1096.4326101898096 548.594533650905 L 1100 559 L 1104.8352502909322 549.1196986572251" stroke-miterlimit="10"/></g><g transform="translate(-62,-78) scale(1,1)"><path fill="#C0C0C0" stroke="none" d="M 711 258.5 C 711 243.31216799999999 743.2354944 231 783 231 C 822.7645056 231 855 243.31216799999999 855 258.5 C 855 273.687832 822.7645056 286 783 286 C 743.2354944 286 711 273.687832 711 258.5 Z" opacity="0.2"/></g><g transform="translate(-62,-78) scale(1,1)"><path fill="#ffffff" stroke="none" d="M 704 251.5 C 704 236.31216799999999 736.2354944 224 776 224 C 815.7645056 224 848 236.31216799999999 848 251.5 C 848 266.687832 815.7645056 279 776 279 C 736.2354944 279 704 266.687832 704 251.5 Z"/></g><g transform="translate(-62,-78) scale(1,1)"><path fill="none" stroke="#000000" d="M 704 251.5 C 704 236.31216799999999 736.2354944 224 776 224 C 815.7645056 224 848 236.31216799999999 848 251.5 C 848 266.687832 815.7645056 279 776 279 C 736.2354944 279 704 266.687832 704 251.5 Z" stroke-miterlimit="10"/></g><g transform="translate(-62,-78) scale(1,1)"><g><path fill="none" stroke="none"/><text fill="#000000" stroke="none" font-family="Arial" font-size="13px" font-style="normal" font-weight="bold" text-decoration="none" x="729.7763671875" y="256.7099609375">Load 3D Model</text></g></g><g transform="translate(-62,-78) scale(1,1)"><path fill="none" stroke="#000000" d="M 671 160 L 744 223" stroke-miterlimit="10" stroke-dasharray="3"/></g><g transform="translate(-62,-78) scale(1,1)"><path fill="none" stroke="#000000" d="M 733.5559968596106 219.547059455546 L 744 223 L 739.0565722307144 213.1733768826796" stroke-miterlimit="10"/></g><g transform="translate(-62,-78) scale(1,1)"><path fill="none" stroke="#000000" d="M 849 236 L 991 207" stroke-miterlimit="10"/></g><g transform="translate(-62,-78) scale(1,1)"><path fill="none" stroke="#000000" d="M 849 271 L 997 311" stroke-miterlimit="10"/></g><g transform="translate(-62,-78) scale(1,1)"><path fill="#C0C0C0" stroke="none" d="M 679 434.5 C 679 419.312168 712.1309248 407 753 407 C 793.8690752 407 827 419.312168 827 434.5 C 827 449.687832 793.8690752 462 753 462 C 712.1309248 462 679 449.687832 679 434.5 Z" opacity="0.2"/></g><g transform="translate(-62,-78) scale(1,1)"><path fill="#ffffff" stroke="none" d="M 672 427.5 C 672 412.312168 705.1309248 400 746 400 C 786.8690752 400 820 412.312168 820 427.5 C 820 442.687832 786.8690752 455 746 455 C 705.1309248 455 672 442.687832 672 427.5 Z"/></g><g transform="translate(-62,-78) scale(1,1)"><path fill="none" stroke="#000000" d="M 672 427.5 C 672 412.312168 705.1309248 400 746 400 C 786.8690752 400 820 412.312168 820 427.5 C 820 442.687832 786.8690752 455 746 455 C 705.1309248 455 672 442.687832 672 427.5 Z" stroke-miterlimit="10"/></g><g transform="translate(-62,-78) scale(1,1)"><g><path fill="none" stroke="none"/><text fill="#000000" stroke="none" font-family="Arial" font-size="13px" font-style="normal" font-weight="bold" text-decoration="none" x="698.31640625" y="432.7099609375">Place 3D Model</text></g></g><g transform="translate(-62,-78) scale(1,1)"><path fill="none" stroke="#000000" d="M 1057 213 L 787 399" stroke-miterlimit="10"/></g><g transform="translate(-62,-78) scale(1,1)"><path fill="none" stroke="#000000" d="M 991 365 L 821 408" stroke-miterlimit="10"/></g><g transform="translate(-62,-78) scale(1,1)"><path fill="#C0C0C0" stroke="none" d="M 647 570.5 C 647 555.312168 682.1456432 543 725.5 543 C 768.8543568 543 804 555.312168 804 570.5 C 804 585.687832 768.8543568 598 725.5 598 C 682.1456432 598 647 585.687832 647 570.5 Z" opacity="0.2"/></g><g transform="translate(-62,-78) scale(1,1)"><path fill="#ffffff" stroke="none" d="M 640 563.5 C 640 548.312168 675.1456432 536 718.5 536 C 761.8543568 536 797 548.312168 797 563.5 C 797 578.687832 761.8543568 591 718.5 591 C 675.1456432 591 640 578.687832 640 563.5 Z"/></g><g transform="translate(-62,-78) scale(1,1)"><path fill="none" stroke="#000000" d="M 640 563.5 C 640 548.312168 675.1456432 536 718.5 536 C 761.8543568 536 797 548.312168 797 563.5 C 797 578.687832 761.8543568 591 718.5 591 C 675.1456432 591 640 578.687832 640 563.5 Z" stroke-miterlimit="10"/></g><g transform="translate(-62,-78) scale(1,1)"><g><path fill="none" stroke="none"/><text fill="#000000" stroke="none" font-family="Arial" font-size="13px" font-style="normal" font-weight="bold" text-decoration="none" x="667.569580078125" y="568.7099609375">Create 3D Model</text></g></g><g transform="translate(-62,-78) scale(1,1)"><path fill="none" stroke="#000000" d="M 740 456 L 724 535" stroke-miterlimit="10" stroke-dasharray="3"/></g><g transform="translate(-62,-78) scale(1,1)"><path fill="none" stroke="#000000" d="M 721.8915541661463 524.2039610890982 L 724 535 L 730.14305597697 525.875151329265" stroke-miterlimit="10"/></g><g transform="translate(-62,-78) scale(1,1)"><g><path fill="none" stroke="none"/><text fill="#000000" stroke="none" font-family="Arial" font-size="13px" font-style="normal" font-weight="normal" text-decoration="none" x="733.5" y="504.7099609375">«include»</text></g></g><g transform="translate(-62,-78) scale(1,1)"><path fill="none" stroke="#000000" d="M 798 568 L 1007 580" stroke-miterlimit="10"/></g></g></svg>