<svg version="1.1" xmlns="http://www.w3.org/2000/svg" xmlns:xlink="http://www.w3.org/1999/xlink" width="1180" height="597"><defs/><g><text fill="#eeeeee" stroke="none" font-family="Arial" font-size="24px" font-style="normal" font-weight="normal" text-decoration="none" x="0" y="0">UNREGISTERED</text><text fill="#eeeeee" stroke="none" font-family="Arial" font-size="24px" font-style="normal" font-weight="normal" text-decoration="none" x="0" y="30">UNREGISTERED</text><text fill="#eeeeee" stroke="none" font-family="Arial" font-size="24px" font-style="normal" font-weight="normal" text-decoration="none" x="0" y="60">UNREGISTERED</text><text fill="#eeeeee" stroke="none" font-family="Arial" font-size="24px" font-style="normal" font-weight="normal" text-decoration="none" x="0" y="90">UNREGISTERED</text><text fill="#eeeeee" stroke="none" font-family="Arial" font-size="24px" font-style="normal" font-weight="normal" text-decoration="none" x="0" y="120">UNREGISTERED</text><text fill="#eeeeee" stroke="none" font-family="Arial" font-size="24px" font-style="normal" font-weight="normal" text-decoration="none" x="0" y="150">UNREGISTERED</text><text fill="#eeeeee" stroke="none" font-family="Arial" font-size="24px" font-style="normal" font-weight="normal" text-decoration="none" x="0" y="180">UNREGISTERED</text><text fill="#eeeeee" stroke="none" font-family="Arial" font-size="24px" font-style="normal" font-weight="normal" text-decoration="none" x="0" y="210">UNREGISTERED</text><text fill="#eeeeee" stroke="none" font-family="Arial" font-size="24px" font-style="normal" font-weight="normal" text-decoration="none" x="0" y="240">UNREGISTERED</text><text fill="#eeeeee" stroke="none" font-family="Arial" font-size="24px" font-style="normal" font-weight="normal" text-decoration="none" x="0" y="270">UNREGISTERED</text><text fill="#eeeeee" stroke="none" font-family="Arial" font-size="24px" font-style="normal" font-weight="normal" text-decoration="none" x="0" y="300">UNREGISTERED</text><text fill="#eeeeee" stroke="none" font-family="Arial" font-size="24px" font-style="normal" font-weight="normal" text-decoration="none" x="0" y="330">UNREGISTERED</text><text fill="#eeeeee" stroke="none" font-family="Arial" font-size="24px" font-style="normal" font-weight="normal" text-decoration="none" x="0" y="360">UNREGISTERED</text><text fill="#eeeeee" stroke="none" font-family="Arial" font-size="24px" font-style="normal" font-weight="normal" text-decoration="none" x="0" y="390">UNREGISTERED</text><text fill="#eeeeee" stroke="none" font-family="Arial" font-size="24px" font-style="normal" font-weight="normal" text-decoration="none" x="0" y="420">UNREGISTERED</text><text fill="#eeeeee" stroke="none" font-family="Arial" font-size="24px" font-style="normal" font-weight="normal" text-decoration="none" x="0" y="450">UNREGISTERED</text><text fill="#eeeeee" stroke="none" font-family="Arial" font-size="24px" font-style="normal" font-weight="normal" text-decoration="none" x="0" y="480">UNREGISTERED</text><text fill="#eeeeee" stroke="none" font-family="Arial" font-size="24px" font-style="normal" font-weight="normal" text-decoration="none" x="0" y="510">UNREGISTERED</text><text fill="#eeeeee" stroke="none" font-family="Arial" font-size="24px" font-style="normal" font-weight="normal" text-decoration="none" x="0" y="540">UNREGISTERED</text><text fill="#eeeeee" stroke="none" font-family="Arial" font-size="24px" font-style="normal" font-weight="normal" text-decoration="none" x="0" y="570">UNREGISTERED</text><text fill="#eeeeee" stroke="none" font-family="Arial" font-size="24px" font-style="normal" font-weight="normal" text-decoration="none" x="200" y="0">UNREGISTERED</text><text fill="#eeeeee" stroke="none" font-family="Arial" font-size="24px" font-style="normal" font-weight="normal" text-decoration="none" x="200" y="30">UNREGISTERED</text><text fill="#eeeeee" stroke="none" font-family="Arial" font-size="24px" font-style="normal" font-weight="normal" text-decoration="none" x="200" y="60">UNREGISTERED</text><text fill="#eeeeee" stroke="none" font-family="Arial" font-size="24px" font-style="normal" font-weight="normal" text-decoration="none" x="200" y="90">UNREGISTERED</text><text fill="#eeeeee" stroke="none" font-family="Arial" font-size="24px" font-style="normal" font-weight="normal" text-decoration="none" x="200" y="120">UNREGISTERED</text><text fill="#eeeeee" stroke="none" font-family="Arial" font-size="24px" font-style="normal" font-weight="normal" text-decoration="none" x="200" y="150">UNREGISTERED</text><text fill="#eeeeee" stroke="none" font-family="Arial" font-size="24px" font-style="normal" font-weight="normal" text-decoration="none" x="200" y="180">UNREGISTERED</text><text fill="#eeeeee" stroke="none" font-family="Arial" font-size="24px" font-style="normal" font-weight="normal" text-decoration="none" x="200" y="210">UNREGISTERED</text><text fill="#eeeeee" stroke="none" font-family="Arial" font-size="24px" font-style="normal" font-weight="normal" text-decoration="none" x="200" y="240">UNREGISTERED</text><text fill="#eeeeee" stroke="none" font-family="Arial" font-size="24px" font-style="normal" font-weight="normal" text-decoration="none" x="200" y="270">UNREGISTERED</text><text fill="#eeeeee" stroke="none" font-family="Arial" font-size="24px" font-style="normal" font-weight="normal" text-decoration="none" x="200" y="300">UNREGISTERED</text><text fill="#eeeeee" stroke="none" font-family="Arial" font-size="24px" font-style="normal" font-weight="normal" text-decoration="none" x="200" y="330">UNREGISTERED</text><text fill="#eeeeee" stroke="none" font-family="Arial" font-size="24px" font-style="normal" font-weight="normal" text-decoration="none" x="200" y="360">UNREGISTERED</text><text fill="#eeeeee" stroke="none" font-family="Arial" font-size="24px" font-style="normal" font-weight="normal" text-decoration="none" x="200" y="390">UNREGISTERED</text><text fill="#eeeeee" stroke="none" font-family="Arial" font-size="24px" font-style="normal" font-weight="normal" text-decoration="none" x="200" y="420">UNREGISTERED</text><text fill="#eeeeee" stroke="none" font-family="Arial" font-size="24px" font-style="normal" font-weight="normal" text-decoration="none" x="200" y="450">UNREGISTERED</text><text fill="#eeeeee" stroke="none" font-family="Arial" font-size="24px" font-style="normal" font-weight="normal" text-decoration="none" x="200" y="480">UNREGISTERED</text><text fill="#eeeeee" stroke="none" font-family="Arial" font-size="24px" font-style="normal" font-weight="normal" text-decoration="none" x="200" y="510">UNREGISTERED</text><text fill="#eeeeee" stroke="none" font-family="Arial" font-size="24px" font-style="normal" font-weight="normal" text-decoration="none" x="200" y="540">UNREGISTERED</text><text fill="#eeeeee" stroke="none" font-family="Arial" font-size="24px" font-style="normal" font-weight="normal" text-decoration="none" x="200" y="570">UNREGISTERED</text><text fill="#eeeeee" stroke="none" font-family="Arial" font-size="24px" font-style="normal" font-weight="normal" text-decoration="none" x="400" y="0">UNREGISTERED</text><text fill="#eeeeee" stroke="none" font-family="Arial" font-size="24px" font-style="normal" font-weight="normal" text-decoration="none" x="400" y="30">UNREGISTERED</text><text fill="#eeeeee" stroke="none" font-family="Arial" font-size="24px" font-style="normal" font-weight="normal" text-decoration="none" x="400" y="60">UNREGISTERED</text><text fill="#eeeeee" stroke="none" font-family="Arial" font-size="24px" font-style="normal" font-weight="normal" text-decoration="none" x="400" y="90">UNREGISTERED</text><text fill="#eeeeee" stroke="none" font-family="Arial" font-size="24px" font-style="normal" font-weight="normal" text-decoration="none" x="400" y="120">UNREGISTERED</text><text fill="#eeeeee" stroke="none" font-family="Arial" font-size="24px" font-style="normal" font-weight="normal" text-decoration="none" x="400" y="150">UNREGISTERED</text><text fill="#eeeeee" stroke="none" font-family="Arial" font-size="24px" font-style="normal" font-weight="normal" text-decoration="none" x="400" y="180">UNREGISTERED</text><text fill="#eeeeee" stroke="none" font-family="Arial" font-size="24px" font-style="normal" font-weight="normal" text-decoration="none" x="400" y="210">UNREGISTERED</text><text fill="#eeeeee" stroke="none" font-family="Arial" font-size="24px" font-style="normal" font-weight="normal" text-decoration="none" x="400" y="240">UNREGISTERED</text><text fill="#eeeeee" stroke="none" font-family="Arial" font-size="24px" font-style="normal" font-weight="normal" text-decoration="none" x="400" y="270">UNREGISTERED</text><text fill="#eeeeee" stroke="none" font-family="Arial" font-size="24px" font-style="normal" font-weight="normal" text-decoration="none" x="400" y="300">UNREGISTERED</text><text fill="#eeeeee" stroke="none" font-family="Arial" font-size="24px" font-style="normal" font-weight="normal" text-decoration="none" x="400" y="330">UNREGISTERED</text><text fill="#eeeeee" stroke="none" font-family="Arial" font-size="24px" font-style="normal" font-weight="normal" text-decoration="none" x="400" y="360">UNREGISTERED</text><text fill="#eeeeee" stroke="none" font-family="Arial" font-size="24px" font-style="normal" font-weight="normal" text-decoration="none" x="400" y="390">UNREGISTERED</text><text fill="#eeeeee" stroke="none" font-family="Arial" font-size="24px" font-style="normal" font-weight="normal" text-decoration="none" x="400" y="420">UNREGISTERED</text><text fill="#eeeeee" stroke="none" font-family="Arial" font-size="24px" font-style="normal" font-weight="normal" text-decoration="none" x="400" y="450">UNREGISTERED</text><text fill="#eeeeee" stroke="none" font-family="Arial" font-size="24px" font-style="normal" font-weight="normal" text-decoration="none" x="400" y="480">UNREGISTERED</text><text fill="#eeeeee" stroke="none" font-family="Arial" font-size="24px" font-style="normal" font-weight="normal" text-decoration="none" x="400" y="510">UNREGISTERED</text><text fill="#eeeeee" stroke="none" font-family="Arial" font-size="24px" font-style="normal" font-weight="normal" text-decoration="none" x="400" y="540">UNREGISTERED</text><text fill="#eeeeee" stroke="none" font-family="Arial" font-size="24px" font-style="normal" font-weight="normal" text-decoration="none" x="400" y="570">UNREGISTERED</text><text fill="#eeeeee" stroke="none" font-family="Arial" font-size="24px" font-style="normal" font-weight="normal" text-decoration="none" x="600" y="0">UNREGISTERED</text><text fill="#eeeeee" stroke="none" font-family="Arial" font-size="24px" font-style="normal" font-weight="normal" text-decoration="none" x="600" y="30">UNREGISTERED</text><text fill="#eeeeee" stroke="none" font-family="Arial" font-size="24px" font-style="normal" font-weight="normal" text-decoration="none" x="600" y="60">UNREGISTERED</text><text fill="#eeeeee" stroke="none" font-family="Arial" font-size="24px" font-style="normal" font-weight="normal" text-decoration="none" x="600" y="90">UNREGISTERED</text><text fill="#eeeeee" stroke="none" font-family="Arial" font-size="24px" font-style="normal" font-weight="normal" text-decoration="none" x="600" y="120">UNREGISTERED</text><text fill="#eeeeee" stroke="none" font-family="Arial" font-size="24px" font-style="normal" font-weight="normal" text-decoration="none" x="600" y="150">UNREGISTERED</text><text fill="#eeeeee" stroke="none" font-family="Arial" font-size="24px" font-style="normal" font-weight="normal" text-decoration="none" x="600" y="180">UNREGISTERED</text><text fill="#eeeeee" stroke="none" font-family="Arial" font-size="24px" font-style="normal" font-weight="normal" text-decoration="none" x="600" y="210">UNREGISTERED</text><text fill="#eeeeee" stroke="none" font-family="Arial" font-size="24px" font-style="normal" font-weight="normal" text-decoration="none" x="600" y="240">UNREGISTERED</text><text fill="#eeeeee" stroke="none" font-family="Arial" font-size="24px" font-style="normal" font-weight="normal" text-decoration="none" x="600" y="270">UNREGISTERED</text><text fill="#eeeeee" stroke="none" font-family="Arial" font-size="24px" font-style="normal" font-weight="normal" text-decoration="none" x="600" y="300">UNREGISTERED</text><text fill="#eeeeee" stroke="none" font-family="Arial" font-size="24px" font-style="normal" font-weight="normal" text-decoration="none" x="600" y="330">UNREGISTERED</text><text fill="#eeeeee" stroke="none" font-family="Arial" font-size="24px" font-style="normal" font-weight="normal" text-decoration="none" x="600" y="360">UNREGISTERED</text><text fill="#eeeeee" stroke="none" font-family="Arial" font-size="24px" font-style="normal" font-weight="normal" text-decoration="none" x="600" y="390">UNREGISTERED</text><text fill="#eeeeee" stroke="none" font-family="Arial" font-size="24px" font-style="normal" font-weight="normal" text-decoration="none" x="600" y="420">UNREGISTERED</text><text fill="#eeeeee" stroke="none" font-family="Arial" font-size="24px" font-style="normal" font-weight="normal" text-decoration="none" x="600" y="450">UNREGISTERED</text><text fill="#eeeeee" stroke="none" font-family="Arial" font-size="24px" font-style="normal" font-weight="normal" text-decoration="none" x="600" y="480">UNREGISTERED</text><text fill="#eeeeee" stroke="none" font-family="Arial" font-size="24px" font-style="normal" font-weight="normal" text-decoration="none" x="600" y="510">UNREGISTERED</text><text fill="#eeeeee" stroke="none" font-family="Arial" font-size="24px" font-style="normal" font-weight="normal" text-decoration="none" x="600" y="540">UNREGISTERED</text><text fill="#eeeeee" stroke="none" font-family="Arial" font-size="24px" font-style="normal" font-weight="normal" text-decoration="none" x="600" y="570">UNREGISTERED</text><text fill="#eeeeee" stroke="none" font-family="Arial" font-size="24px" font-style="normal" font-weight="normal" text-decoration="none" x="800" y="0">UNREGISTERED</text><text fill="#eeeeee" stroke="none" font-family="Arial" font-size="24px" font-style="normal" font-weight="normal" text-decoration="none" x="800" y="30">UNREGISTERED</text><text fill="#eeeeee" stroke="none" font-family="Arial" font-size="24px" font-style="normal" font-weight="normal" text-decoration="none" x="800" y="60">UNREGISTERED</text><text fill="#eeeeee" stroke="none" font-family="Arial" font-size="24px" font-style="normal" font-weight="normal" text-decoration="none" x="800" y="90">UNREGISTERED</text><text fill="#eeeeee" stroke="none" font-family="Arial" font-size="24px" font-style="normal" font-weight="normal" text-decoration="none" x="800" y="120">UNREGISTERED</text><text fill="#eeeeee" stroke="none" font-family="Arial" font-size="24px" font-style="normal" font-weight="normal" text-decoration="none" x="800" y="150">UNREGISTERED</text><text fill="#eeeeee" stroke="none" font-family="Arial" font-size="24px" font-style="normal" font-weight="normal" text-decoration="none" x="800" y="180">UNREGISTERED</text><text fill="#eeeeee" stroke="none" font-family="Arial" font-size="24px" font-style="normal" font-weight="normal" text-decoration="none" x="800" y="210">UNREGISTERED</text><text fill="#eeeeee" stroke="none" font-family="Arial" font-size="24px" font-style="normal" font-weight="normal" text-decoration="none" x="800" y="240">UNREGISTERED</text><text fill="#eeeeee" stroke="none" font-family="Arial" font-size="24px" font-style="normal" font-weight="normal" text-decoration="none" x="800" y="270">UNREGISTERED</text><text fill="#eeeeee" stroke="none" font-family="Arial" font-size="24px" font-style="normal" font-weight="normal" text-decoration="none" x="800" y="300">UNREGISTERED</text><text fill="#eeeeee" stroke="none" font-family="Arial" font-size="24px" font-style="normal" font-weight="normal" text-decoration="none" x="800" y="330">UNREGISTERED</text><text fill="#eeeeee" stroke="none" font-family="Arial" font-size="24px" font-style="normal" font-weight="normal" text-decoration="none" x="800" y="360">UNREGISTERED</text><text fill="#eeeeee" stroke="none" font-family="Arial" font-size="24px" font-style="normal" font-weight="normal" text-decoration="none" x="800" y="390">UNREGISTERED</text><text fill="#eeeeee" stroke="none" font-family="Arial" font-size="24px" font-style="normal" font-weight="normal" text-decoration="none" x="800" y="420">UNREGISTERED</text><text fill="#eeeeee" stroke="none" font-family="Arial" font-size="24px" font-style="normal" font-weight="normal" text-decoration="none" x="800" y="450">UNREGISTERED</text><text fill="#eeeeee" stroke="none" font-family="Arial" font-size="24px" font-style="normal" font-weight="normal" text-decoration="none" x="800" y="480">UNREGISTERED</text><text fill="#eeeeee" stroke="none" font-family="Arial" font-size="24px" font-style="normal" font-weight="normal" text-decoration="none" x="800" y="510">UNREGISTERED</text><text fill="#eeeeee" stroke="none" font-family="Arial" font-size="24px" font-style="normal" font-weight="normal" text-decoration="none" x="800" y="540">UNREGISTERED</text><text fill="#eeeeee" stroke="none" font-family="Arial" font-size="24px" font-style="normal" font-weight="normal" text-decoration="none" x="800" y="570">UNREGISTERED</text><text fill="#eeeeee" stroke="none" font-family="Arial" font-size="24px" font-style="normal" font-weight="normal" text-decoration="none" x="1000" y="0">UNREGISTERED</text><text fill="#eeeeee" stroke="none" font-family="Arial" font-size="24px" font-style="normal" font-weight="normal" text-decoration="none" x="1000" y="30">UNREGISTERED</text><text fill="#eeeeee" stroke="none" font-family="Arial" font-size="24px" font-style="normal" font-weight="normal" text-decoration="none" x="1000" y="60">UNREGISTERED</text><text fill="#eeeeee" stroke="none" font-family="Arial" font-size="24px" font-style="normal" font-weight="normal" text-decoration="none" x="1000" y="90">UNREGISTERED</text><text fill="#eeeeee" stroke="none" font-family="Arial" font-size="24px" font-style="normal" font-weight="normal" text-decoration="none" x="1000" y="120">UNREGISTERED</text><text fill="#eeeeee" stroke="none" font-family="Arial" font-size="24px" font-style="normal" font-weight="normal" text-decoration="none" x="1000" y="150">UNREGISTERED</text><text fill="#eeeeee" stroke="none" font-family="Arial" font-size="24px" font-style="normal" font-weight="normal" text-decoration="none" x="1000" y="180">UNREGISTERED</text><text fill="#eeeeee" stroke="none" font-family="Arial" font-size="24px" font-style="normal" font-weight="normal" text-decoration="none" x="1000" y="210">UNREGISTERED</text><text fill="#eeeeee" stroke="none" font-family="Arial" font-size="24px" font-style="normal" font-weight="normal" text-decoration="none" x="1000" y="240">UNREGISTERED</text><text fill="#eeeeee" stroke="none" font-family="Arial" font-size="24px" font-style="normal" font-weight="normal" text-decoration="none" x="1000" y="270">UNREGISTERED</text><text fill="#eeeeee" stroke="none" font-family="Arial" font-size="24px" font-style="normal" font-weight="normal" text-decoration="none" x="1000" y="300">UNREGISTERED</text><text fill="#eeeeee" stroke="none" font-family="Arial" font-size="24px" font-style="normal" font-weight="normal" text-decoration="none" x="1000" y="330">UNREGISTERED</text><text fill="#eeeeee" stroke="none" font-family="Arial" font-size="24px" font-style="normal" font-weight="normal" text-decoration="none" x="1000" y="360">UNREGISTERED</text><text fill="#eeeeee" stroke="none" font-family="Arial" font-size="24px" font-style="normal" font-weight="normal" text-decoration="none" x="1000" y="390">UNREGISTERED</text><text fill="#eeeeee" stroke="none" font-family="Arial" font-size="24px" font-style="normal" font-weight="normal" text-decoration="none" x="1000" y="420">UNREGISTERED</text><text fill="#eeeeee" stroke="none" font-family="Arial" font-size="24px" font-style="normal" font-weight="normal" text-decoration="none" x="1000" y="450">UNREGISTERED</text><text fill="#eeeeee" stroke="none" font-family="Arial" font-size="24px" font-style="normal" font-weight="normal" text-decoration="none" x="1000" y="480">UNREGISTERED</text><text fill="#eeeeee" stroke="none" font-family="Arial" font-size="24px" font-style="normal" font-weight="normal" text-decoration="none" x="1000" y="510">UNREGISTERED</text><text fill="#eeeeee" stroke="none" font-family="Arial" font-size="24px" font-style="normal" font-weight="normal" text-decoration="none" x="1000" y="540">UNREGISTERED</text><text fill="#eeeeee" stroke="none" font-family="Arial" font-size="24px" font-style="normal" font-weight="normal" text-decoration="none" x="1000" y="570">UNREGISTERED</text><g transform="translate(-289,-260) scale(1,1)"><path fill="#ffffff" stroke="none" d="M 316.36467258522725 375.68 C 316.36467258522725 370.886167936 320.25051491017274 367 325.0439453125 367 C 329.83737571482726 367 333.72321803977275 370.886167936 333.72321803977275 375.68 C 333.72321803977275 380.473832064 329.83737571482726 384.36 325.0439453125 384.36 C 320.25051491017274 384.36 316.36467258522725 380.473832064 316.36467258522725 375.68 Z"/></g><g transform="translate(-289,-260) scale(1,1)"><path fill="none" stroke="#000000" d="M 316.36467258522725 375.68 C 316.36467258522725 370.886167936 320.25051491017274 367 325.0439453125 367 C 329.83737571482726 367 333.72321803977275 370.886167936 333.72321803977275 375.68 C 333.72321803977275 380.473832064 329.83737571482726 384.36 325.0439453125 384.36 C 320.25051491017274 384.36 316.36467258522725 380.473832064 316.36467258522725 375.68 Z" stroke-miterlimit="10"/></g><g transform="translate(-289,-260) scale(1,1)"><path fill="none" stroke="#000000" d="M 325.0439453125 384.36 L 325.0439453125 401.64" stroke-miterlimit="10"/></g><g transform="translate(-289,-260) scale(1,1)"><path fill="none" stroke="#000000" d="M 315.85412713068183 390.84 L 334.23376349431817 390.84" stroke-miterlimit="10"/></g><g transform="translate(-289,-260) scale(1,1)"><path fill="none" stroke="#000000" d="M 325.0439453125 401.64 L 312.28030894886365 419" stroke-miterlimit="10"/></g><g transform="translate(-289,-260) scale(1,1)"><path fill="none" stroke="#000000" d="M 325.0439453125 401.64 L 337.80758167613635 419" stroke-miterlimit="10"/></g><g transform="translate(-289,-260) scale(1,1)"><g><path fill="none" stroke="none"/><text fill="#000000" stroke="none" font-family="Arial" font-size="13px" font-style="normal" font-weight="bold" text-decoration="none" x="303.5" y="437.7099609375">Tourist</text></g></g><g transform="translate(-289,-260) scale(1,1)"><path fill="#C0C0C0" stroke="none" d="M 570 409.5 C 570 384.9233264 606.4887888 365 651.5 365 C 696.5112112 365 733 384.9233264 733 409.5 C 733 434.0766736 696.5112112 454 651.5 454 C 606.4887888 454 570 434.0766736 570 409.5 Z" opacity="0.2"/></g><g transform="translate(-289,-260) scale(1,1)"><path fill="#ffffff" stroke="none" d="M 563 402.5 C 563 377.9233264 599.4887888 358 644.5 358 C 689.5112112 358 726 377.9233264 726 402.5 C 726 427.0766736 689.5112112 447 644.5 447 C 599.4887888 447 563 427.0766736 563 402.5 Z"/></g><g transform="translate(-289,-260) scale(1,1)"><path fill="none" stroke="#000000" d="M 563 402.5 C 563 377.9233264 599.4887888 358 644.5 358 C 689.5112112 358 726 377.9233264 726 402.5 C 726 427.0766736 689.5112112 447 644.5 447 C 599.4887888 447 563 427.0766736 563 402.5 Z" stroke-miterlimit="10"/></g><g transform="translate(-289,-260) scale(1,1)"><g><path fill="none" stroke="none"/><text fill="#000000" stroke="none" font-family="Arial" font-size="13px" font-style="normal" font-weight="bold" text-decoration="none" x="618.84912109375" y="401.2099609375">Itinerary</text><text fill="#000000" stroke="none" font-family="Arial" font-size="13px" font-style="normal" font-weight="bold" text-decoration="none" x="618.85546875" y="413.971923828125">Request</text></g></g><g transform="translate(-289,-260) scale(1,1)"><path fill="#C0C0C0" stroke="none" d="M 970 409.5 C 970 384.9233264 1006.4887888 365 1051.5 365 C 1096.5112112 365 1133 384.9233264 1133 409.5 C 1133 434.0766736 1096.5112112 454 1051.5 454 C 1006.4887888 454 970 434.0766736 970 409.5 Z" opacity="0.2"/></g><g transform="translate(-289,-260) scale(1,1)"><path fill="#ffffff" stroke="none" d="M 963 402.5 C 963 377.9233264 999.4887888 358 1044.5 358 C 1089.5112112 358 1126 377.9233264 1126 402.5 C 1126 427.0766736 1089.5112112 447 1044.5 447 C 999.4887888 447 963 427.0766736 963 402.5 Z"/></g><g transform="translate(-289,-260) scale(1,1)"><path fill="none" stroke="#000000" d="M 963 402.5 C 963 377.9233264 999.4887888 358 1044.5 358 C 1089.5112112 358 1126 377.9233264 1126 402.5 C 1126 427.0766736 1089.5112112 447 1044.5 447 C 999.4887888 447 963 427.0766736 963 402.5 Z" stroke-miterlimit="10"/></g><g transform="translate(-289,-260) scale(1,1)"><g><path fill="none" stroke="none"/><text fill="#000000" stroke="none" font-family="Arial" font-size="13px" font-style="normal" font-weight="bold" text-decoration="none" x="993.918701171875" y="394.7099609375">Preferences and</text><text fill="#000000" stroke="none" font-family="Arial" font-size="13px" font-style="normal" font-weight="bold" text-decoration="none" x="1009.464111328125" y="407.7099609375">constraints</text><text fill="#000000" stroke="none" font-family="Arial" font-size="13px" font-style="normal" font-weight="bold" text-decoration="none" x="1015.25634765625" y="420.7099609375">definition</text></g></g><g transform="translate(-289,-260) scale(1,1)"><path fill="#C0C0C0" stroke="none" d="M 1306 321.5 C 1306 296.9233264 1341.817216 277 1386 277 C 1430.182784 277 1466 296.9233264 1466 321.5 C 1466 346.0766736 1430.182784 366 1386 366 C 1341.817216 366 1306 346.0766736 1306 321.5 Z" opacity="0.2"/></g><g transform="translate(-289,-260) scale(1,1)"><path fill="#ffffff" stroke="none" d="M 1299 314.5 C 1299 289.9233264 1334.817216 270 1379 270 C 1423.182784 270 1459 289.9233264 1459 314.5 C 1459 339.0766736 1423.182784 359 1379 359 C 1334.817216 359 1299 339.0766736 1299 314.5 Z"/></g><g transform="translate(-289,-260) scale(1,1)"><path fill="none" stroke="#000000" d="M 1299 314.5 C 1299 289.9233264 1334.817216 270 1379 270 C 1423.182784 270 1459 289.9233264 1459 314.5 C 1459 339.0766736 1423.182784 359 1379 359 C 1334.817216 359 1299 339.0766736 1299 314.5 Z" stroke-miterlimit="10"/></g><g transform="translate(-289,-260) scale(1,1)"><g><path fill="none" stroke="none"/><text fill="#000000" stroke="none" font-family="Arial" font-size="13px" font-style="normal" font-weight="bold" text-decoration="none" x="1333.503173828125" y="319.7099609375">Authentication</text></g></g><g transform="translate(-289,-260) scale(1,1)"><path fill="#C0C0C0" stroke="none" d="M 570 553.5 C 570 528.9233264 606.4887888 509 651.5 509 C 696.5112112 509 733 528.9233264 733 553.5 C 733 578.0766736 696.5112112 598 651.5 598 C 606.4887888 598 570 578.0766736 570 553.5 Z" opacity="0.2"/></g><g transform="translate(-289,-260) scale(1,1)"><path fill="#ffffff" stroke="none" d="M 563 546.5 C 563 521.9233264 599.4887888 502 644.5 502 C 689.5112112 502 726 521.9233264 726 546.5 C 726 571.0766736 689.5112112 591 644.5 591 C 599.4887888 591 563 571.0766736 563 546.5 Z"/></g><g transform="translate(-289,-260) scale(1,1)"><path fill="none" stroke="#000000" d="M 563 546.5 C 563 521.9233264 599.4887888 502 644.5 502 C 689.5112112 502 726 521.9233264 726 546.5 C 726 571.0766736 689.5112112 591 644.5 591 C 599.4887888 591 563 571.0766736 563 546.5 Z" stroke-miterlimit="10"/></g><g transform="translate(-289,-260) scale(1,1)"><g><path fill="none" stroke="none"/><text fill="#000000" stroke="none" font-family="Arial" font-size="13px" font-style="normal" font-weight="bold" text-decoration="none" x="596.927490234375" y="551.7099609375">View Itineraries</text></g></g><g transform="translate(-289,-260) scale(1,1)"><path fill="#C0C0C0" stroke="none" d="M 1138 553.5 C 1138 528.9233264 1174.4887888 509 1219.5 509 C 1264.5112112 509 1301 528.9233264 1301 553.5 C 1301 578.0766736 1264.5112112 598 1219.5 598 C 1174.4887888 598 1138 578.0766736 1138 553.5 Z" opacity="0.2"/></g><g transform="translate(-289,-260) scale(1,1)"><path fill="#ffffff" stroke="none" d="M 1131 546.5 C 1131 521.9233264 1167.4887888 502 1212.5 502 C 1257.5112112 502 1294 521.9233264 1294 546.5 C 1294 571.0766736 1257.5112112 591 1212.5 591 C 1167.4887888 591 1131 571.0766736 1131 546.5 Z"/></g><g transform="translate(-289,-260) scale(1,1)"><path fill="none" stroke="#000000" d="M 1131 546.5 C 1131 521.9233264 1167.4887888 502 1212.5 502 C 1257.5112112 502 1294 521.9233264 1294 546.5 C 1294 571.0766736 1257.5112112 591 1212.5 591 C 1167.4887888 591 1131 571.0766736 1131 546.5 Z" stroke-miterlimit="10"/></g><g transform="translate(-289,-260) scale(1,1)"><g><path fill="none" stroke="none"/><text fill="#000000" stroke="none" font-family="Arial" font-size="13px" font-style="normal" font-weight="bold" text-decoration="none" x="1166.622314453125" y="551.7099609375">Post Feedback</text></g></g><g transform="translate(-289,-260) scale(1,1)"><path fill="#C0C0C0" stroke="none" d="M 1138 681.5 C 1138 656.9233264 1174.4887888 637 1219.5 637 C 1264.5112112 637 1301 656.9233264 1301 681.5 C 1301 706.0766736 1264.5112112 726 1219.5 726 C 1174.4887888 726 1138 706.0766736 1138 681.5 Z" opacity="0.2"/></g><g transform="translate(-289,-260) scale(1,1)"><path fill="#ffffff" stroke="none" d="M 1131 674.5 C 1131 649.9233264 1167.4887888 630 1212.5 630 C 1257.5112112 630 1294 649.9233264 1294 674.5 C 1294 699.0766736 1257.5112112 719 1212.5 719 C 1167.4887888 719 1131 699.0766736 1131 674.5 Z"/></g><g transform="translate(-289,-260) scale(1,1)"><path fill="none" stroke="#000000" d="M 1131 674.5 C 1131 649.9233264 1167.4887888 630 1212.5 630 C 1257.5112112 630 1294 649.9233264 1294 674.5 C 1294 699.0766736 1257.5112112 719 1212.5 719 C 1167.4887888 719 1131 699.0766736 1131 674.5 Z" stroke-miterlimit="10"/></g><g transform="translate(-289,-260) scale(1,1)"><g><path fill="none" stroke="none"/><text fill="#000000" stroke="none" font-family="Arial" font-size="13px" font-style="normal" font-weight="bold" text-decoration="none" x="1174.569580078125" y="673.03857421875">Save-Export</text><text fill="#000000" stroke="none" font-family="Arial" font-size="13px" font-style="normal" font-weight="bold" text-decoration="none" x="1186.84912109375" y="686.2099609375">Itinerary</text></g></g><g transform="translate(-289,-260) scale(1,1)"><path fill="#C0C0C0" stroke="none" d="M 762 809.5 C 762 784.9233264 798.4887888 765 843.5 765 C 888.5112112 765 925 784.9233264 925 809.5 C 925 834.0766736 888.5112112 854 843.5 854 C 798.4887888 854 762 834.0766736 762 809.5 Z" opacity="0.2"/></g><g transform="translate(-289,-260) scale(1,1)"><path fill="#ffffff" stroke="none" d="M 755 802.5 C 755 777.9233264 791.4887888 758 836.5 758 C 881.5112112 758 918 777.9233264 918 802.5 C 918 827.0766736 881.5112112 847 836.5 847 C 791.4887888 847 755 827.0766736 755 802.5 Z"/></g><g transform="translate(-289,-260) scale(1,1)"><path fill="none" stroke="#000000" d="M 755 802.5 C 755 777.9233264 791.4887888 758 836.5 758 C 881.5112112 758 918 777.9233264 918 802.5 C 918 827.0766736 881.5112112 847 836.5 847 C 791.4887888 847 755 827.0766736 755 802.5 Z" stroke-miterlimit="10"/></g><g transform="translate(-289,-260) scale(1,1)"><g><path fill="none" stroke="none"/><text fill="#000000" stroke="none" font-family="Arial" font-size="13px" font-style="normal" font-weight="bold" text-decoration="none" x="785.201416015625" y="807.7099609375">Explore Itinerary</text></g></g><g transform="translate(-289,-260) scale(1,1)"><path fill="#C0C0C0" stroke="none" d="M 1138 809.5 C 1138 784.9233264 1174.4887888 765 1219.5 765 C 1264.5112112 765 1301 784.9233264 1301 809.5 C 1301 834.0766736 1264.5112112 854 1219.5 854 C 1174.4887888 854 1138 834.0766736 1138 809.5 Z" opacity="0.2"/></g><g transform="translate(-289,-260) scale(1,1)"><path fill="#ffffff" stroke="none" d="M 1131 802.5 C 1131 777.9233264 1167.4887888 758 1212.5 758 C 1257.5112112 758 1294 777.9233264 1294 802.5 C 1294 827.0766736 1257.5112112 847 1212.5 847 C 1167.4887888 847 1131 827.0766736 1131 802.5 Z"/></g><g transform="translate(-289,-260) scale(1,1)"><path fill="none" stroke="#000000" d="M 1131 802.5 C 1131 777.9233264 1167.4887888 758 1212.5 758 C 1257.5112112 758 1294 777.9233264 1294 802.5 C 1294 827.0766736 1257.5112112 847 1212.5 847 C 1167.4887888 847 1131 827.0766736 1131 802.5 Z" stroke-miterlimit="10"/></g><g transform="translate(-289,-260) scale(1,1)"><g><path fill="none" stroke="none"/><text fill="#000000" stroke="none" font-family="Arial" font-size="13px" font-style="normal" font-weight="bold" text-decoration="none" x="1183.24365234375" y="794.7099609375">Extended</text><text fill="#000000" stroke="none" font-family="Arial" font-size="13px" font-style="normal" font-weight="bold" text-decoration="none" x="1191.1845703125" y="807.7099609375">Reality</text><text fill="#000000" stroke="none" font-family="Arial" font-size="13px" font-style="normal" font-weight="bold" text-decoration="none" x="1176.746826171875" y="820.7099609375">Exploration</text></g></g><g transform="translate(-289,-260) scale(1,1)"><path fill="none" stroke="#000000" d="M 352 405 L 562 403" stroke-miterlimit="10"/></g><g transform="translate(-289,-260) scale(1,1)"><path fill="none" stroke="#000000" d="M 551.877874830558 407.3061098516119 L 562 403 L 551.7976971760596 398.8874561292775" stroke-miterlimit="10"/></g><g transform="translate(-289,-260) scale(1,1)"><path fill="none" stroke="#000000" d="M 351 406 L 427 406 L 427 544 L 563 544" stroke-miterlimit="10"/></g><g transform="translate(-289,-260) scale(1,1)"><path fill="none" stroke="#000000" d="M 552.8373251423759 548.209517756016 L 563 544 L 552.8373251423758 539.790482243984" stroke-miterlimit="10"/></g><g transform="translate(-289,-260) scale(1,1)"><path fill="none" stroke="#000000" d="M 1299 318 L 643 318 L 643 358" stroke-miterlimit="10" stroke-dasharray="3"/></g><g transform="translate(-289,-260) scale(1,1)"><path fill="none" stroke="#000000" d="M 638.790482243984 347.83732514237585 L 643 358 L 647.209517756016 347.83732514237585" stroke-miterlimit="10"/></g><g transform="translate(-289,-260) scale(1,1)"><g><path fill="none" stroke="none"/><text fill="#000000" stroke="none" font-family="Arial" font-size="13px" font-style="normal" font-weight="normal" text-decoration="none" x="778.5" y="315.7099609375">«extend»</text></g></g><g transform="translate(-289,-260) scale(1,1)"><path fill="none" stroke="#000000" d="M 726 402 L 963 402" stroke-miterlimit="10" stroke-dasharray="3"/></g><g transform="translate(-289,-260) scale(1,1)"><path fill="none" stroke="#000000" d="M 952.8373251423759 406.209517756016 L 963 402 L 952.8373251423758 397.790482243984" stroke-miterlimit="10"/></g><g transform="translate(-289,-260) scale(1,1)"><g><path fill="none" stroke="none"/><text fill="#000000" stroke="none" font-family="Arial" font-size="13px" font-style="normal" font-weight="normal" text-decoration="none" x="816.5" y="392.7099609375">«include»</text></g></g><g transform="translate(-289,-260) scale(1,1)"><path fill="none" stroke="#000000" d="M 1130 546 L 727 546" stroke-miterlimit="10" stroke-dasharray="3"/></g><g transform="translate(-289,-260) scale(1,1)"><path fill="none" stroke="#000000" d="M 737.1626748576241 541.790482243984 L 727 546 L 737.1626748576241 550.209517756016" stroke-miterlimit="10"/></g><g transform="translate(-289,-260) scale(1,1)"><g><path fill="none" stroke="none"/><text fill="#000000" stroke="none" font-family="Arial" font-size="13px" font-style="normal" font-weight="normal" text-decoration="none" x="900.5" y="535.7099609375">«extend»</text></g></g><g transform="translate(-289,-260) scale(1,1)"><path fill="none" stroke="#000000" d="M 1131 678 L 763 678 L 763 574 L 726 574" stroke-miterlimit="10" stroke-dasharray="3"/></g><g transform="translate(-289,-260) scale(1,1)"><path fill="none" stroke="#000000" d="M 736.1626748576241 569.790482243984 L 726 574 L 736.1626748576241 578.209517756016" stroke-miterlimit="10"/></g><g transform="translate(-289,-260) scale(1,1)"><g><path fill="none" stroke="none"/><text fill="#000000" stroke="none" font-family="Arial" font-size="13px" font-style="normal" font-weight="normal" text-decoration="none" x="898.5" y="671.7099609375">«extend»</text></g></g><g transform="translate(-289,-260) scale(1,1)"><path fill="none" stroke="#000000" d="M 755 802 L 679 802 L 679 591" stroke-miterlimit="10" stroke-dasharray="3"/></g><g transform="translate(-289,-260) scale(1,1)"><path fill="none" stroke="#000000" d="M 683.209517756016 601.1626748576241 L 679 591 L 674.790482243984 601.1626748576241" stroke-miterlimit="10"/></g><g transform="translate(-289,-260) scale(1,1)"><g><path fill="none" stroke="none"/><text fill="#000000" stroke="none" font-family="Arial" font-size="13px" font-style="normal" font-weight="normal" text-decoration="none" x="622.5" y="735.7099609375">«extend»</text></g></g><g transform="translate(-289,-260) scale(1,1)"><path fill="none" stroke="#000000" d="M 1131 802 L 918 802" stroke-miterlimit="10" stroke-dasharray="3"/></g><g transform="translate(-289,-260) scale(1,1)"><path fill="none" stroke="#000000" d="M 928.1626748576241 797.790482243984 L 918 802 L 928.1626748576241 806.209517756016" stroke-miterlimit="10"/></g><g transform="translate(-289,-260) scale(1,1)"><g><path fill="none" stroke="none"/><text fill="#000000" stroke="none" font-family="Arial" font-size="13px" font-style="normal" font-weight="normal" text-decoration="none" x="1002.5" y="792.7099609375">«extend»</text></g></g></g></svg>