<svg version="1.1" xmlns="http://www.w3.org/2000/svg" xmlns:xlink="http://www.w3.org/1999/xlink" width="1148" height="612"><defs/><g><text fill="#eeeeee" stroke="none" font-family="Arial" font-size="24px" font-style="normal" font-weight="normal" text-decoration="none" x="0" y="0">UNREGISTERED</text><text fill="#eeeeee" stroke="none" font-family="Arial" font-size="24px" font-style="normal" font-weight="normal" text-decoration="none" x="0" y="30">UNREGISTERED</text><text fill="#eeeeee" stroke="none" font-family="Arial" font-size="24px" font-style="normal" font-weight="normal" text-decoration="none" x="0" y="60">UNREGISTERED</text><text fill="#eeeeee" stroke="none" font-family="Arial" font-size="24px" font-style="normal" font-weight="normal" text-decoration="none" x="0" y="90">UNREGISTERED</text><text fill="#eeeeee" stroke="none" font-family="Arial" font-size="24px" font-style="normal" font-weight="normal" text-decoration="none" x="0" y="120">UNREGISTERED</text><text fill="#eeeeee" stroke="none" font-family="Arial" font-size="24px" font-style="normal" font-weight="normal" text-decoration="none" x="0" y="150">UNREGISTERED</text><text fill="#eeeeee" stroke="none" font-family="Arial" font-size="24px" font-style="normal" font-weight="normal" text-decoration="none" x="0" y="180">UNREGISTERED</text><text fill="#eeeeee" stroke="none" font-family="Arial" font-size="24px" font-style="normal" font-weight="normal" text-decoration="none" x="0" y="210">UNREGISTERED</text><text fill="#eeeeee" stroke="none" font-family="Arial" font-size="24px" font-style="normal" font-weight="normal" text-decoration="none" x="0" y="240">UNREGISTERED</text><text fill="#eeeeee" stroke="none" font-family="Arial" font-size="24px" font-style="normal" font-weight="normal" text-decoration="none" x="0" y="270">UNREGISTERED</text><text fill="#eeeeee" stroke="none" font-family="Arial" font-size="24px" font-style="normal" font-weight="normal" text-decoration="none" x="0" y="300">UNREGISTERED</text><text fill="#eeeeee" stroke="none" font-family="Arial" font-size="24px" font-style="normal" font-weight="normal" text-decoration="none" x="0" y="330">UNREGISTERED</text><text fill="#eeeeee" stroke="none" font-family="Arial" font-size="24px" font-style="normal" font-weight="normal" text-decoration="none" x="0" y="360">UNREGISTERED</text><text fill="#eeeeee" stroke="none" font-family="Arial" font-size="24px" font-style="normal" font-weight="normal" text-decoration="none" x="0" y="390">UNREGISTERED</text><text fill="#eeeeee" stroke="none" font-family="Arial" font-size="24px" font-style="normal" font-weight="normal" text-decoration="none" x="0" y="420">UNREGISTERED</text><text fill="#eeeeee" stroke="none" font-family="Arial" font-size="24px" font-style="normal" font-weight="normal" text-decoration="none" x="0" y="450">UNREGISTERED</text><text fill="#eeeeee" stroke="none" font-family="Arial" font-size="24px" font-style="normal" font-weight="normal" text-decoration="none" x="0" y="480">UNREGISTERED</text><text fill="#eeeeee" stroke="none" font-family="Arial" font-size="24px" font-style="normal" font-weight="normal" text-decoration="none" x="0" y="510">UNREGISTERED</text><text fill="#eeeeee" stroke="none" font-family="Arial" font-size="24px" font-style="normal" font-weight="normal" text-decoration="none" x="0" y="540">UNREGISTERED</text><text fill="#eeeeee" stroke="none" font-family="Arial" font-size="24px" font-style="normal" font-weight="normal" text-decoration="none" x="0" y="570">UNREGISTERED</text><text fill="#eeeeee" stroke="none" font-family="Arial" font-size="24px" font-style="normal" font-weight="normal" text-decoration="none" x="0" y="600">UNREGISTERED</text><text fill="#eeeeee" stroke="none" font-family="Arial" font-size="24px" font-style="normal" font-weight="normal" text-decoration="none" x="200" y="0">UNREGISTERED</text><text fill="#eeeeee" stroke="none" font-family="Arial" font-size="24px" font-style="normal" font-weight="normal" text-decoration="none" x="200" y="30">UNREGISTERED</text><text fill="#eeeeee" stroke="none" font-family="Arial" font-size="24px" font-style="normal" font-weight="normal" text-decoration="none" x="200" y="60">UNREGISTERED</text><text fill="#eeeeee" stroke="none" font-family="Arial" font-size="24px" font-style="normal" font-weight="normal" text-decoration="none" x="200" y="90">UNREGISTERED</text><text fill="#eeeeee" stroke="none" font-family="Arial" font-size="24px" font-style="normal" font-weight="normal" text-decoration="none" x="200" y="120">UNREGISTERED</text><text fill="#eeeeee" stroke="none" font-family="Arial" font-size="24px" font-style="normal" font-weight="normal" text-decoration="none" x="200" y="150">UNREGISTERED</text><text fill="#eeeeee" stroke="none" font-family="Arial" font-size="24px" font-style="normal" font-weight="normal" text-decoration="none" x="200" y="180">UNREGISTERED</text><text fill="#eeeeee" stroke="none" font-family="Arial" font-size="24px" font-style="normal" font-weight="normal" text-decoration="none" x="200" y="210">UNREGISTERED</text><text fill="#eeeeee" stroke="none" font-family="Arial" font-size="24px" font-style="normal" font-weight="normal" text-decoration="none" x="200" y="240">UNREGISTERED</text><text fill="#eeeeee" stroke="none" font-family="Arial" font-size="24px" font-style="normal" font-weight="normal" text-decoration="none" x="200" y="270">UNREGISTERED</text><text fill="#eeeeee" stroke="none" font-family="Arial" font-size="24px" font-style="normal" font-weight="normal" text-decoration="none" x="200" y="300">UNREGISTERED</text><text fill="#eeeeee" stroke="none" font-family="Arial" font-size="24px" font-style="normal" font-weight="normal" text-decoration="none" x="200" y="330">UNREGISTERED</text><text fill="#eeeeee" stroke="none" font-family="Arial" font-size="24px" font-style="normal" font-weight="normal" text-decoration="none" x="200" y="360">UNREGISTERED</text><text fill="#eeeeee" stroke="none" font-family="Arial" font-size="24px" font-style="normal" font-weight="normal" text-decoration="none" x="200" y="390">UNREGISTERED</text><text fill="#eeeeee" stroke="none" font-family="Arial" font-size="24px" font-style="normal" font-weight="normal" text-decoration="none" x="200" y="420">UNREGISTERED</text><text fill="#eeeeee" stroke="none" font-family="Arial" font-size="24px" font-style="normal" font-weight="normal" text-decoration="none" x="200" y="450">UNREGISTERED</text><text fill="#eeeeee" stroke="none" font-family="Arial" font-size="24px" font-style="normal" font-weight="normal" text-decoration="none" x="200" y="480">UNREGISTERED</text><text fill="#eeeeee" stroke="none" font-family="Arial" font-size="24px" font-style="normal" font-weight="normal" text-decoration="none" x="200" y="510">UNREGISTERED</text><text fill="#eeeeee" stroke="none" font-family="Arial" font-size="24px" font-style="normal" font-weight="normal" text-decoration="none" x="200" y="540">UNREGISTERED</text><text fill="#eeeeee" stroke="none" font-family="Arial" font-size="24px" font-style="normal" font-weight="normal" text-decoration="none" x="200" y="570">UNREGISTERED</text><text fill="#eeeeee" stroke="none" font-family="Arial" font-size="24px" font-style="normal" font-weight="normal" text-decoration="none" x="200" y="600">UNREGISTERED</text><text fill="#eeeeee" stroke="none" font-family="Arial" font-size="24px" font-style="normal" font-weight="normal" text-decoration="none" x="400" y="0">UNREGISTERED</text><text fill="#eeeeee" stroke="none" font-family="Arial" font-size="24px" font-style="normal" font-weight="normal" text-decoration="none" x="400" y="30">UNREGISTERED</text><text fill="#eeeeee" stroke="none" font-family="Arial" font-size="24px" font-style="normal" font-weight="normal" text-decoration="none" x="400" y="60">UNREGISTERED</text><text fill="#eeeeee" stroke="none" font-family="Arial" font-size="24px" font-style="normal" font-weight="normal" text-decoration="none" x="400" y="90">UNREGISTERED</text><text fill="#eeeeee" stroke="none" font-family="Arial" font-size="24px" font-style="normal" font-weight="normal" text-decoration="none" x="400" y="120">UNREGISTERED</text><text fill="#eeeeee" stroke="none" font-family="Arial" font-size="24px" font-style="normal" font-weight="normal" text-decoration="none" x="400" y="150">UNREGISTERED</text><text fill="#eeeeee" stroke="none" font-family="Arial" font-size="24px" font-style="normal" font-weight="normal" text-decoration="none" x="400" y="180">UNREGISTERED</text><text fill="#eeeeee" stroke="none" font-family="Arial" font-size="24px" font-style="normal" font-weight="normal" text-decoration="none" x="400" y="210">UNREGISTERED</text><text fill="#eeeeee" stroke="none" font-family="Arial" font-size="24px" font-style="normal" font-weight="normal" text-decoration="none" x="400" y="240">UNREGISTERED</text><text fill="#eeeeee" stroke="none" font-family="Arial" font-size="24px" font-style="normal" font-weight="normal" text-decoration="none" x="400" y="270">UNREGISTERED</text><text fill="#eeeeee" stroke="none" font-family="Arial" font-size="24px" font-style="normal" font-weight="normal" text-decoration="none" x="400" y="300">UNREGISTERED</text><text fill="#eeeeee" stroke="none" font-family="Arial" font-size="24px" font-style="normal" font-weight="normal" text-decoration="none" x="400" y="330">UNREGISTERED</text><text fill="#eeeeee" stroke="none" font-family="Arial" font-size="24px" font-style="normal" font-weight="normal" text-decoration="none" x="400" y="360">UNREGISTERED</text><text fill="#eeeeee" stroke="none" font-family="Arial" font-size="24px" font-style="normal" font-weight="normal" text-decoration="none" x="400" y="390">UNREGISTERED</text><text fill="#eeeeee" stroke="none" font-family="Arial" font-size="24px" font-style="normal" font-weight="normal" text-decoration="none" x="400" y="420">UNREGISTERED</text><text fill="#eeeeee" stroke="none" font-family="Arial" font-size="24px" font-style="normal" font-weight="normal" text-decoration="none" x="400" y="450">UNREGISTERED</text><text fill="#eeeeee" stroke="none" font-family="Arial" font-size="24px" font-style="normal" font-weight="normal" text-decoration="none" x="400" y="480">UNREGISTERED</text><text fill="#eeeeee" stroke="none" font-family="Arial" font-size="24px" font-style="normal" font-weight="normal" text-decoration="none" x="400" y="510">UNREGISTERED</text><text fill="#eeeeee" stroke="none" font-family="Arial" font-size="24px" font-style="normal" font-weight="normal" text-decoration="none" x="400" y="540">UNREGISTERED</text><text fill="#eeeeee" stroke="none" font-family="Arial" font-size="24px" font-style="normal" font-weight="normal" text-decoration="none" x="400" y="570">UNREGISTERED</text><text fill="#eeeeee" stroke="none" font-family="Arial" font-size="24px" font-style="normal" font-weight="normal" text-decoration="none" x="400" y="600">UNREGISTERED</text><text fill="#eeeeee" stroke="none" font-family="Arial" font-size="24px" font-style="normal" font-weight="normal" text-decoration="none" x="600" y="0">UNREGISTERED</text><text fill="#eeeeee" stroke="none" font-family="Arial" font-size="24px" font-style="normal" font-weight="normal" text-decoration="none" x="600" y="30">UNREGISTERED</text><text fill="#eeeeee" stroke="none" font-family="Arial" font-size="24px" font-style="normal" font-weight="normal" text-decoration="none" x="600" y="60">UNREGISTERED</text><text fill="#eeeeee" stroke="none" font-family="Arial" font-size="24px" font-style="normal" font-weight="normal" text-decoration="none" x="600" y="90">UNREGISTERED</text><text fill="#eeeeee" stroke="none" font-family="Arial" font-size="24px" font-style="normal" font-weight="normal" text-decoration="none" x="600" y="120">UNREGISTERED</text><text fill="#eeeeee" stroke="none" font-family="Arial" font-size="24px" font-style="normal" font-weight="normal" text-decoration="none" x="600" y="150">UNREGISTERED</text><text fill="#eeeeee" stroke="none" font-family="Arial" font-size="24px" font-style="normal" font-weight="normal" text-decoration="none" x="600" y="180">UNREGISTERED</text><text fill="#eeeeee" stroke="none" font-family="Arial" font-size="24px" font-style="normal" font-weight="normal" text-decoration="none" x="600" y="210">UNREGISTERED</text><text fill="#eeeeee" stroke="none" font-family="Arial" font-size="24px" font-style="normal" font-weight="normal" text-decoration="none" x="600" y="240">UNREGISTERED</text><text fill="#eeeeee" stroke="none" font-family="Arial" font-size="24px" font-style="normal" font-weight="normal" text-decoration="none" x="600" y="270">UNREGISTERED</text><text fill="#eeeeee" stroke="none" font-family="Arial" font-size="24px" font-style="normal" font-weight="normal" text-decoration="none" x="600" y="300">UNREGISTERED</text><text fill="#eeeeee" stroke="none" font-family="Arial" font-size="24px" font-style="normal" font-weight="normal" text-decoration="none" x="600" y="330">UNREGISTERED</text><text fill="#eeeeee" stroke="none" font-family="Arial" font-size="24px" font-style="normal" font-weight="normal" text-decoration="none" x="600" y="360">UNREGISTERED</text><text fill="#eeeeee" stroke="none" font-family="Arial" font-size="24px" font-style="normal" font-weight="normal" text-decoration="none" x="600" y="390">UNREGISTERED</text><text fill="#eeeeee" stroke="none" font-family="Arial" font-size="24px" font-style="normal" font-weight="normal" text-decoration="none" x="600" y="420">UNREGISTERED</text><text fill="#eeeeee" stroke="none" font-family="Arial" font-size="24px" font-style="normal" font-weight="normal" text-decoration="none" x="600" y="450">UNREGISTERED</text><text fill="#eeeeee" stroke="none" font-family="Arial" font-size="24px" font-style="normal" font-weight="normal" text-decoration="none" x="600" y="480">UNREGISTERED</text><text fill="#eeeeee" stroke="none" font-family="Arial" font-size="24px" font-style="normal" font-weight="normal" text-decoration="none" x="600" y="510">UNREGISTERED</text><text fill="#eeeeee" stroke="none" font-family="Arial" font-size="24px" font-style="normal" font-weight="normal" text-decoration="none" x="600" y="540">UNREGISTERED</text><text fill="#eeeeee" stroke="none" font-family="Arial" font-size="24px" font-style="normal" font-weight="normal" text-decoration="none" x="600" y="570">UNREGISTERED</text><text fill="#eeeeee" stroke="none" font-family="Arial" font-size="24px" font-style="normal" font-weight="normal" text-decoration="none" x="600" y="600">UNREGISTERED</text><text fill="#eeeeee" stroke="none" font-family="Arial" font-size="24px" font-style="normal" font-weight="normal" text-decoration="none" x="800" y="0">UNREGISTERED</text><text fill="#eeeeee" stroke="none" font-family="Arial" font-size="24px" font-style="normal" font-weight="normal" text-decoration="none" x="800" y="30">UNREGISTERED</text><text fill="#eeeeee" stroke="none" font-family="Arial" font-size="24px" font-style="normal" font-weight="normal" text-decoration="none" x="800" y="60">UNREGISTERED</text><text fill="#eeeeee" stroke="none" font-family="Arial" font-size="24px" font-style="normal" font-weight="normal" text-decoration="none" x="800" y="90">UNREGISTERED</text><text fill="#eeeeee" stroke="none" font-family="Arial" font-size="24px" font-style="normal" font-weight="normal" text-decoration="none" x="800" y="120">UNREGISTERED</text><text fill="#eeeeee" stroke="none" font-family="Arial" font-size="24px" font-style="normal" font-weight="normal" text-decoration="none" x="800" y="150">UNREGISTERED</text><text fill="#eeeeee" stroke="none" font-family="Arial" font-size="24px" font-style="normal" font-weight="normal" text-decoration="none" x="800" y="180">UNREGISTERED</text><text fill="#eeeeee" stroke="none" font-family="Arial" font-size="24px" font-style="normal" font-weight="normal" text-decoration="none" x="800" y="210">UNREGISTERED</text><text fill="#eeeeee" stroke="none" font-family="Arial" font-size="24px" font-style="normal" font-weight="normal" text-decoration="none" x="800" y="240">UNREGISTERED</text><text fill="#eeeeee" stroke="none" font-family="Arial" font-size="24px" font-style="normal" font-weight="normal" text-decoration="none" x="800" y="270">UNREGISTERED</text><text fill="#eeeeee" stroke="none" font-family="Arial" font-size="24px" font-style="normal" font-weight="normal" text-decoration="none" x="800" y="300">UNREGISTERED</text><text fill="#eeeeee" stroke="none" font-family="Arial" font-size="24px" font-style="normal" font-weight="normal" text-decoration="none" x="800" y="330">UNREGISTERED</text><text fill="#eeeeee" stroke="none" font-family="Arial" font-size="24px" font-style="normal" font-weight="normal" text-decoration="none" x="800" y="360">UNREGISTERED</text><text fill="#eeeeee" stroke="none" font-family="Arial" font-size="24px" font-style="normal" font-weight="normal" text-decoration="none" x="800" y="390">UNREGISTERED</text><text fill="#eeeeee" stroke="none" font-family="Arial" font-size="24px" font-style="normal" font-weight="normal" text-decoration="none" x="800" y="420">UNREGISTERED</text><text fill="#eeeeee" stroke="none" font-family="Arial" font-size="24px" font-style="normal" font-weight="normal" text-decoration="none" x="800" y="450">UNREGISTERED</text><text fill="#eeeeee" stroke="none" font-family="Arial" font-size="24px" font-style="normal" font-weight="normal" text-decoration="none" x="800" y="480">UNREGISTERED</text><text fill="#eeeeee" stroke="none" font-family="Arial" font-size="24px" font-style="normal" font-weight="normal" text-decoration="none" x="800" y="510">UNREGISTERED</text><text fill="#eeeeee" stroke="none" font-family="Arial" font-size="24px" font-style="normal" font-weight="normal" text-decoration="none" x="800" y="540">UNREGISTERED</text><text fill="#eeeeee" stroke="none" font-family="Arial" font-size="24px" font-style="normal" font-weight="normal" text-decoration="none" x="800" y="570">UNREGISTERED</text><text fill="#eeeeee" stroke="none" font-family="Arial" font-size="24px" font-style="normal" font-weight="normal" text-decoration="none" x="800" y="600">UNREGISTERED</text><text fill="#eeeeee" stroke="none" font-family="Arial" font-size="24px" font-style="normal" font-weight="normal" text-decoration="none" x="1000" y="0">UNREGISTERED</text><text fill="#eeeeee" stroke="none" font-family="Arial" font-size="24px" font-style="normal" font-weight="normal" text-decoration="none" x="1000" y="30">UNREGISTERED</text><text fill="#eeeeee" stroke="none" font-family="Arial" font-size="24px" font-style="normal" font-weight="normal" text-decoration="none" x="1000" y="60">UNREGISTERED</text><text fill="#eeeeee" stroke="none" font-family="Arial" font-size="24px" font-style="normal" font-weight="normal" text-decoration="none" x="1000" y="90">UNREGISTERED</text><text fill="#eeeeee" stroke="none" font-family="Arial" font-size="24px" font-style="normal" font-weight="normal" text-decoration="none" x="1000" y="120">UNREGISTERED</text><text fill="#eeeeee" stroke="none" font-family="Arial" font-size="24px" font-style="normal" font-weight="normal" text-decoration="none" x="1000" y="150">UNREGISTERED</text><text fill="#eeeeee" stroke="none" font-family="Arial" font-size="24px" font-style="normal" font-weight="normal" text-decoration="none" x="1000" y="180">UNREGISTERED</text><text fill="#eeeeee" stroke="none" font-family="Arial" font-size="24px" font-style="normal" font-weight="normal" text-decoration="none" x="1000" y="210">UNREGISTERED</text><text fill="#eeeeee" stroke="none" font-family="Arial" font-size="24px" font-style="normal" font-weight="normal" text-decoration="none" x="1000" y="240">UNREGISTERED</text><text fill="#eeeeee" stroke="none" font-family="Arial" font-size="24px" font-style="normal" font-weight="normal" text-decoration="none" x="1000" y="270">UNREGISTERED</text><text fill="#eeeeee" stroke="none" font-family="Arial" font-size="24px" font-style="normal" font-weight="normal" text-decoration="none" x="1000" y="300">UNREGISTERED</text><text fill="#eeeeee" stroke="none" font-family="Arial" font-size="24px" font-style="normal" font-weight="normal" text-decoration="none" x="1000" y="330">UNREGISTERED</text><text fill="#eeeeee" stroke="none" font-family="Arial" font-size="24px" font-style="normal" font-weight="normal" text-decoration="none" x="1000" y="360">UNREGISTERED</text><text fill="#eeeeee" stroke="none" font-family="Arial" font-size="24px" font-style="normal" font-weight="normal" text-decoration="none" x="1000" y="390">UNREGISTERED</text><text fill="#eeeeee" stroke="none" font-family="Arial" font-size="24px" font-style="normal" font-weight="normal" text-decoration="none" x="1000" y="420">UNREGISTERED</text><text fill="#eeeeee" stroke="none" font-family="Arial" font-size="24px" font-style="normal" font-weight="normal" text-decoration="none" x="1000" y="450">UNREGISTERED</text><text fill="#eeeeee" stroke="none" font-family="Arial" font-size="24px" font-style="normal" font-weight="normal" text-decoration="none" x="1000" y="480">UNREGISTERED</text><text fill="#eeeeee" stroke="none" font-family="Arial" font-size="24px" font-style="normal" font-weight="normal" text-decoration="none" x="1000" y="510">UNREGISTERED</text><text fill="#eeeeee" stroke="none" font-family="Arial" font-size="24px" font-style="normal" font-weight="normal" text-decoration="none" x="1000" y="540">UNREGISTERED</text><text fill="#eeeeee" stroke="none" font-family="Arial" font-size="24px" font-style="normal" font-weight="normal" text-decoration="none" x="1000" y="570">UNREGISTERED</text><text fill="#eeeeee" stroke="none" font-family="Arial" font-size="24px" font-style="normal" font-weight="normal" text-decoration="none" x="1000" y="600">UNREGISTERED</text><g transform="translate(-6,10) scale(1,1)"><path fill="none" stroke="#000000" d="M 16 0 L 1144 0 L 1144 592 L 16 592 L 16 0" stroke-miterlimit="10"/></g><g transform="translate(-6,10) scale(1,1)"><path fill="#ffffff" stroke="none" d="M 16 0 L 16 22 L 228.30126953125 22 L 239.30126953125 11 L 239.30126953125 0 L 16 0"/></g><g transform="translate(-6,10) scale(1,1)"><path fill="none" stroke="#000000" d="M 16 0 L 16 22 L 228.30126953125 22 L 239.30126953125 11 L 239.30126953125 0 L 16 0 L 16 0" stroke-miterlimit="10"/></g><g transform="translate(-6,10) scale(1,1)"><g><path fill="none" stroke="none"/><text fill="#000000" stroke="none" font-family="Arial" font-size="13px" font-style="normal" font-weight="normal" text-decoration="none" x="40.72998046875" y="15.7099609375">POI and TOI score computation</text></g></g><g transform="translate(-6,10) scale(1,1)"><g><path fill="none" stroke="none"/><text fill="#000000" stroke="none" font-family="Arial" font-size="13px" font-style="normal" font-weight="bold" text-decoration="none" x="20.279541015625" y="15.7099609375">sd</text></g></g><g transform="translate(-6,10) scale(1,1)"><path fill="#ffffff" stroke="none" d="M 76.6299911221591 47.3 C 76.6299911221591 43.82060576 79.50839284434092 41 83.05908203125 41 C 86.60977121815908 41 89.4881729403409 43.82060576 89.4881729403409 47.3 C 89.4881729403409 50.779394239999995 86.60977121815908 53.6 83.05908203125 53.6 C 79.50839284434092 53.6 76.6299911221591 50.779394239999995 76.6299911221591 47.3 Z"/></g><g transform="translate(-6,10) scale(1,1)"><path fill="none" stroke="#000000" d="M 76.6299911221591 47.3 C 76.6299911221591 43.82060576 79.50839284434092 41 83.05908203125 41 C 86.60977121815908 41 89.4881729403409 43.82060576 89.4881729403409 47.3 C 89.4881729403409 50.779394239999995 86.60977121815908 53.6 83.05908203125 53.6 C 79.50839284434092 53.6 76.6299911221591 50.779394239999995 76.6299911221591 47.3 Z" stroke-miterlimit="10"/></g><g transform="translate(-6,10) scale(1,1)"><path fill="none" stroke="#000000" d="M 83.05908203125 53.6 L 83.05908203125 66.4" stroke-miterlimit="10"/></g><g transform="translate(-6,10) scale(1,1)"><path fill="none" stroke="#000000" d="M 76.25180930397727 58.4 L 89.86635475852273 58.4" stroke-miterlimit="10"/></g><g transform="translate(-6,10) scale(1,1)"><path fill="none" stroke="#000000" d="M 83.05908203125 66.4 L 73.60453657670455 79" stroke-miterlimit="10"/></g><g transform="translate(-6,10) scale(1,1)"><path fill="none" stroke="#000000" d="M 83.05908203125 66.4 L 92.51362748579545 79" stroke-miterlimit="10"/></g><g transform="translate(-6,10) scale(1,1)"><g><path fill="none" stroke="none"/><text fill="#000000" stroke="none" font-family="Arial" font-size="13px" font-style="normal" font-weight="bold" text-decoration="none" x="32.5" y="97.7099609375">Lifeline1: Admin</text></g></g><g transform="translate(-6,10) scale(1,1)"><path fill="none" stroke="#000000" d="M 84.5 105 L 84.5 592" stroke-miterlimit="10" stroke-dasharray="3"/></g><g transform="translate(-6,10) scale(1,1)"><rect fill="#ffffff" stroke="none" x="356.66034613715277" y="40" width="34.44444444444446" height="40"/></g><g transform="translate(-6,10) scale(1,1)"><path fill="none" stroke="#000000" d="M 356.66034613715277 40 L 391.10479058159723 40 L 391.10479058159723 80 L 356.66034613715277 80 L 356.66034613715277 40 Z Z" stroke-miterlimit="10"/></g><g transform="translate(-6,10) scale(1,1)"><rect fill="#ffffff" stroke="none" x="346.66034613715277" y="46" width="20" height="10"/></g><g transform="translate(-6,10) scale(1,1)"><path fill="none" stroke="#000000" d="M 346.66034613715277 46 L 366.66034613715277 46 L 366.66034613715277 56 L 346.66034613715277 56 L 346.66034613715277 46 Z Z" stroke-miterlimit="10"/></g><g transform="translate(-6,10) scale(1,1)"><rect fill="#ffffff" stroke="none" x="346.66034613715277" y="63" width="20" height="10"/></g><g transform="translate(-6,10) scale(1,1)"><path fill="none" stroke="#000000" d="M 346.66034613715277 63 L 366.66034613715277 63 L 366.66034613715277 73 L 346.66034613715277 73 L 346.66034613715277 63 Z Z" stroke-miterlimit="10"/></g><g transform="translate(-6,10) scale(1,1)"><g><path fill="none" stroke="none"/><text fill="#000000" stroke="none" font-family="Arial" font-size="13px" font-style="normal" font-weight="bold" text-decoration="none" x="284.5" y="97.7099609375">Lifeline2: POI-TOI Frontend</text></g></g><g transform="translate(-6,10) scale(1,1)"><path fill="none" stroke="#000000" d="M 369.5 105 L 369.5 592" stroke-miterlimit="10" stroke-dasharray="3"/></g><g transform="translate(-6,10) scale(1,1)"><rect fill="#ffffff" stroke="none" x="597.0939398871528" y="40" width="34.44444444444446" height="40"/></g><g transform="translate(-6,10) scale(1,1)"><path fill="none" stroke="#000000" d="M 597.0939398871528 40 L 631.5383843315973 40 L 631.5383843315973 80 L 597.0939398871528 80 L 597.0939398871528 40 Z Z" stroke-miterlimit="10"/></g><g transform="translate(-6,10) scale(1,1)"><rect fill="#ffffff" stroke="none" x="587.0939398871528" y="46" width="20" height="10"/></g><g transform="translate(-6,10) scale(1,1)"><path fill="none" stroke="#000000" d="M 587.0939398871528 46 L 607.0939398871528 46 L 607.0939398871528 56 L 587.0939398871528 56 L 587.0939398871528 46 Z Z" stroke-miterlimit="10"/></g><g transform="translate(-6,10) scale(1,1)"><rect fill="#ffffff" stroke="none" x="587.0939398871528" y="63" width="20" height="10"/></g><g transform="translate(-6,10) scale(1,1)"><path fill="none" stroke="#000000" d="M 587.0939398871528 63 L 607.0939398871528 63 L 607.0939398871528 73 L 587.0939398871528 73 L 587.0939398871528 63 Z Z" stroke-miterlimit="10"/></g><g transform="translate(-6,10) scale(1,1)"><g><path fill="none" stroke="none"/><text fill="#000000" stroke="none" font-family="Arial" font-size="13px" font-style="normal" font-weight="bold" text-decoration="none" x="532.5" y="97.7099609375">Lifeline3: POI-TOI Scorer</text></g></g><g transform="translate(-6,10) scale(1,1)"><path fill="none" stroke="#000000" d="M 610.5 105 L 610.5 592" stroke-miterlimit="10" stroke-dasharray="3"/></g><g transform="translate(-6,10) scale(1,1)"><rect fill="#ffffff" stroke="none" x="1033.8871527777778" y="40" width="34.44444444444434" height="40"/></g><g transform="translate(-6,10) scale(1,1)"><path fill="none" stroke="#000000" d="M 1033.8871527777778 40 L 1068.3315972222222 40 L 1068.3315972222222 80 L 1033.8871527777778 80 L 1033.8871527777778 40 Z Z" stroke-miterlimit="10"/></g><g transform="translate(-6,10) scale(1,1)"><rect fill="#ffffff" stroke="none" x="1023.8871527777778" y="46" width="20" height="10"/></g><g transform="translate(-6,10) scale(1,1)"><path fill="none" stroke="#000000" d="M 1023.8871527777778 46 L 1043.8871527777778 46 L 1043.8871527777778 56 L 1023.8871527777778 56 L 1023.8871527777778 46 Z Z" stroke-miterlimit="10"/></g><g transform="translate(-6,10) scale(1,1)"><rect fill="#ffffff" stroke="none" x="1023.8871527777778" y="63" width="20" height="10"/></g><g transform="translate(-6,10) scale(1,1)"><path fill="none" stroke="#000000" d="M 1023.8871527777778 63 L 1043.8871527777778 63 L 1043.8871527777778 73 L 1023.8871527777778 73 L 1023.8871527777778 63 Z Z" stroke-miterlimit="10"/></g><g transform="translate(-6,10) scale(1,1)"><g><path fill="none" stroke="none"/><text fill="#000000" stroke="none" font-family="Arial" font-size="13px" font-style="normal" font-weight="bold" text-decoration="none" x="980.5" y="97.7099609375">Lifeline5: POI-TOI DB</text></g></g><g transform="translate(-6,10) scale(1,1)"><path fill="none" stroke="#000000" d="M 1047.5 105 L 1047.5 592" stroke-miterlimit="10" stroke-dasharray="3"/></g><g transform="translate(-6,10) scale(1,1)"><rect fill="#ffffff" stroke="none" x="803.2289496527778" y="40" width="34.44444444444446" height="40"/></g><g transform="translate(-6,10) scale(1,1)"><path fill="none" stroke="#000000" d="M 803.2289496527778 40 L 837.6733940972223 40 L 837.6733940972223 80 L 803.2289496527778 80 L 803.2289496527778 40 Z Z" stroke-miterlimit="10"/></g><g transform="translate(-6,10) scale(1,1)"><rect fill="#ffffff" stroke="none" x="793.2289496527778" y="46" width="20" height="10"/></g><g transform="translate(-6,10) scale(1,1)"><path fill="none" stroke="#000000" d="M 793.2289496527778 46 L 813.2289496527778 46 L 813.2289496527778 56 L 793.2289496527778 56 L 793.2289496527778 46 Z Z" stroke-miterlimit="10"/></g><g transform="translate(-6,10) scale(1,1)"><rect fill="#ffffff" stroke="none" x="793.2289496527778" y="63" width="20" height="10"/></g><g transform="translate(-6,10) scale(1,1)"><path fill="none" stroke="#000000" d="M 793.2289496527778 63 L 813.2289496527778 63 L 813.2289496527778 73 L 793.2289496527778 73 L 793.2289496527778 63 Z Z" stroke-miterlimit="10"/></g><g transform="translate(-6,10) scale(1,1)"><g><path fill="none" stroke="none"/><text fill="#000000" stroke="none" font-family="Arial" font-size="13px" font-style="normal" font-weight="bold" text-decoration="none" x="732.5" y="97.7099609375">Lifeline4: POI-TOI Manager</text></g></g><g transform="translate(-6,10) scale(1,1)"><path fill="none" stroke="#000000" d="M 816.5 105 L 816.5 592" stroke-miterlimit="10" stroke-dasharray="3"/></g><g transform="translate(-6,10) scale(1,1)"><path fill="none" stroke="#000000" d="M 84 113 L 362 113" stroke-miterlimit="10"/></g><g transform="translate(-6,10) scale(1,1)"><path fill="#000000" stroke="none" d="M 351.83732514237585 117.20951775601598 L 362 113 L 351.83732514237585 108.79048224398402"/></g><g transform="translate(-6,10) scale(1,1)"><path fill="none" stroke="#000000" d="M 351.83732514237585 117.20951775601598 L 362 113 L 351.83732514237585 108.79048224398402 L 351.83732514237585 117.20951775601598" stroke-miterlimit="10"/></g><g transform="translate(-6,10) scale(1,1)"><g><path fill="none" stroke="none"/><text fill="#000000" stroke="none" font-family="Arial" font-size="13px" font-style="normal" font-weight="normal" text-decoration="none" x="197.58544921875" y="107.7099609375">1 : Login</text></g></g><g transform="translate(-6,10) scale(1,1)"><rect fill="#ffffff" stroke="none" x="362" y="113" width="13" height="28"/></g><g transform="translate(-6,10) scale(1,1)"><path fill="none" stroke="#000000" d="M 362 113 L 375 113 L 375 141 L 362 141 L 362 113 Z Z" stroke-miterlimit="10"/></g><g transform="translate(-6,10) scale(1,1)"><path fill="none" stroke="#000000" d="M 362 140 L 84 140" stroke-miterlimit="10" stroke-dasharray="3"/></g><g transform="translate(-6,10) scale(1,1)"><path fill="none" stroke="#000000" d="M 94.16267485762415 135.790482243984 L 84 140 L 94.16267485762415 144.209517756016" stroke-miterlimit="10"/></g><g transform="translate(-6,10) scale(1,1)"><g><path fill="none" stroke="none"/><text fill="#000000" stroke="none" font-family="Arial" font-size="13px" font-style="normal" font-weight="normal" text-decoration="none" x="164.5" y="154.7099609375">2 : Display interface</text></g></g><g transform="translate(-6,10) scale(1,1)"><path fill="none" stroke="#000000" d="M 84 208 L 362 208" stroke-miterlimit="10"/></g><g transform="translate(-6,10) scale(1,1)"><path fill="#000000" stroke="none" d="M 351.83732514237585 212.209517756016 L 362 208 L 351.83732514237585 203.790482243984"/></g><g transform="translate(-6,10) scale(1,1)"><path fill="none" stroke="#000000" d="M 351.83732514237585 212.209517756016 L 362 208 L 351.83732514237585 203.790482243984 L 351.83732514237585 212.209517756016" stroke-miterlimit="10"/></g><g transform="translate(-6,10) scale(1,1)"><g><path fill="none" stroke="none"/><text fill="#000000" stroke="none" font-family="Arial" font-size="13px" font-style="normal" font-weight="normal" text-decoration="none" x="89.5" y="202.7099609375">3 : Import POIs and TOIs from external source</text></g></g><g transform="translate(-6,10) scale(1,1)"><rect fill="#ffffff" stroke="none" x="362" y="208" width="13" height="96"/></g><g transform="translate(-6,10) scale(1,1)"><path fill="none" stroke="#000000" d="M 362 208 L 375 208 L 375 304 L 362 304 L 362 208 Z Z" stroke-miterlimit="10"/></g><g transform="translate(-6,10) scale(1,1)"><path fill="none" stroke="#000000" d="M 375 238 L 809 238" stroke-miterlimit="10"/></g><g transform="translate(-6,10) scale(1,1)"><path fill="#000000" stroke="none" d="M 798.8373251423759 242.209517756016 L 809 238 L 798.8373251423758 233.790482243984"/></g><g transform="translate(-6,10) scale(1,1)"><path fill="none" stroke="#000000" d="M 798.8373251423759 242.209517756016 L 809 238 L 798.8373251423758 233.790482243984 L 798.8373251423759 242.209517756016" stroke-miterlimit="10"/></g><g transform="translate(-6,10) scale(1,1)"><g><path fill="none" stroke="none"/><text fill="#000000" stroke="none" font-family="Arial" font-size="13px" font-style="normal" font-weight="normal" text-decoration="none" x="458.5" y="232.7099609375">4 : Import POIs and TOIs from external source</text></g></g><g transform="translate(-6,10) scale(1,1)"><rect fill="#ffffff" stroke="none" x="809" y="238" width="13" height="66"/></g><g transform="translate(-6,10) scale(1,1)"><path fill="none" stroke="#000000" d="M 809 238 L 822 238 L 822 304 L 809 304 L 809 238 Z Z" stroke-miterlimit="10"/></g><g transform="translate(-6,10) scale(1,1)"><path fill="none" stroke="#000000" d="M 822 259 L 1040 259" stroke-miterlimit="10"/></g><g transform="translate(-6,10) scale(1,1)"><path fill="#000000" stroke="none" d="M 1029.837325142376 263.209517756016 L 1040 259 L 1029.837325142376 254.790482243984"/></g><g transform="translate(-6,10) scale(1,1)"><path fill="none" stroke="#000000" d="M 1029.837325142376 263.209517756016 L 1040 259 L 1029.837325142376 254.790482243984 L 1029.837325142376 263.209517756016" stroke-miterlimit="10"/></g><g transform="translate(-6,10) scale(1,1)"><g><path fill="none" stroke="none"/><text fill="#000000" stroke="none" font-family="Arial" font-size="13px" font-style="normal" font-weight="normal" text-decoration="none" x="844.5" y="253.7099609375">5 : Write POIs and TOIs to DB</text></g></g><g transform="translate(-6,10) scale(1,1)"><rect fill="#ffffff" stroke="none" x="1040" y="259" width="13" height="28"/></g><g transform="translate(-6,10) scale(1,1)"><path fill="none" stroke="#000000" d="M 1040 259 L 1053 259 L 1053 287 L 1040 287 L 1040 259 Z Z" stroke-miterlimit="10"/></g><g transform="translate(-6,10) scale(1,1)"><path fill="none" stroke="#000000" d="M 1040 285 L 822 285" stroke-miterlimit="10" stroke-dasharray="3"/></g><g transform="translate(-6,10) scale(1,1)"><path fill="none" stroke="#000000" d="M 832.1626748576241 280.790482243984 L 822 285 L 832.1626748576241 289.209517756016" stroke-miterlimit="10"/></g><g transform="translate(-6,10) scale(1,1)"><g><path fill="none" stroke="none"/><text fill="#000000" stroke="none" font-family="Arial" font-size="13px" font-style="normal" font-weight="normal" text-decoration="none" x="910.5" y="299.7099609375">6 : Ack</text></g></g><g transform="translate(-6,10) scale(1,1)"><path fill="none" stroke="#000000" d="M 809 297 L 375 297" stroke-miterlimit="10" stroke-dasharray="3"/></g><g transform="translate(-6,10) scale(1,1)"><path fill="none" stroke="#000000" d="M 385.16267485762415 292.790482243984 L 375 297 L 385.16267485762415 301.209517756016" stroke-miterlimit="10"/></g><g transform="translate(-6,10) scale(1,1)"><g><path fill="none" stroke="none"/><text fill="#000000" stroke="none" font-family="Arial" font-size="13px" font-style="normal" font-weight="normal" text-decoration="none" x="571.5" y="311.7099609375">7 : Ack</text></g></g><g transform="translate(-6,10) scale(1,1)"><path fill="none" stroke="#000000" d="M 362 302 L 84 302" stroke-miterlimit="10" stroke-dasharray="3"/></g><g transform="translate(-6,10) scale(1,1)"><path fill="none" stroke="#000000" d="M 94.16267485762415 297.790482243984 L 84 302 L 94.16267485762415 306.209517756016" stroke-miterlimit="10"/></g><g transform="translate(-6,10) scale(1,1)"><g><path fill="none" stroke="none"/><text fill="#000000" stroke="none" font-family="Arial" font-size="13px" font-style="normal" font-weight="normal" text-decoration="none" x="202.5" y="316.7099609375">8 : Ack</text></g></g><g transform="translate(-6,10) scale(1,1)"><path fill="none" stroke="#000000" d="M 84 352 L 362 352" stroke-miterlimit="10"/></g><g transform="translate(-6,10) scale(1,1)"><path fill="#000000" stroke="none" d="M 351.83732514237585 356.209517756016 L 362 352 L 351.83732514237585 347.790482243984"/></g><g transform="translate(-6,10) scale(1,1)"><path fill="none" stroke="#000000" d="M 351.83732514237585 356.209517756016 L 362 352 L 351.83732514237585 347.790482243984 L 351.83732514237585 356.209517756016" stroke-miterlimit="10"/></g><g transform="translate(-6,10) scale(1,1)"><g><path fill="none" stroke="none"/><text fill="#000000" stroke="none" font-family="Arial" font-size="13px" font-style="normal" font-weight="normal" text-decoration="none" x="119.5" y="346.7099609375">9 : Start POI-TOI score computation</text></g></g><g transform="translate(-6,10) scale(1,1)"><rect fill="#ffffff" stroke="none" x="362" y="352" width="13" height="112"/></g><g transform="translate(-6,10) scale(1,1)"><path fill="none" stroke="#000000" d="M 362 352 L 375 352 L 375 464 L 362 464 L 362 352 Z Z" stroke-miterlimit="10"/></g><g transform="translate(-6,10) scale(1,1)"><path fill="none" stroke="#000000" d="M 375 360 L 603 360" stroke-miterlimit="10"/></g><g transform="translate(-6,10) scale(1,1)"><path fill="#000000" stroke="none" d="M 592.8373251423759 364.209517756016 L 603 360 L 592.8373251423758 355.790482243984"/></g><g transform="translate(-6,10) scale(1,1)"><path fill="none" stroke="#000000" d="M 592.8373251423759 364.209517756016 L 603 360 L 592.8373251423758 355.790482243984 L 592.8373251423759 364.209517756016" stroke-miterlimit="10"/></g><g transform="translate(-6,10) scale(1,1)"><g><path fill="none" stroke="none"/><text fill="#000000" stroke="none" font-family="Arial" font-size="13px" font-style="normal" font-weight="normal" text-decoration="none" x="381.5" y="354.7099609375">10 : Start POI-TOI score computation</text></g></g><g transform="translate(-6,10) scale(1,1)"><rect fill="#ffffff" stroke="none" x="603" y="360" width="13" height="96"/></g><g transform="translate(-6,10) scale(1,1)"><path fill="none" stroke="#000000" d="M 603 360 L 616 360 L 616 456 L 603 456 L 603 360 Z Z" stroke-miterlimit="10"/></g><g transform="translate(-6,10) scale(1,1)"><path fill="none" stroke="#000000" d="M 616 379 L 809 379" stroke-miterlimit="10"/></g><g transform="translate(-6,10) scale(1,1)"><path fill="#000000" stroke="none" d="M 798.8373251423759 383.209517756016 L 809 379 L 798.8373251423758 374.790482243984"/></g><g transform="translate(-6,10) scale(1,1)"><path fill="none" stroke="#000000" d="M 798.8373251423759 383.209517756016 L 809 379 L 798.8373251423758 374.790482243984 L 798.8373251423759 383.209517756016" stroke-miterlimit="10"/></g><g transform="translate(-6,10) scale(1,1)"><g><path fill="none" stroke="none"/><text fill="#000000" stroke="none" font-family="Arial" font-size="13px" font-style="normal" font-weight="normal" text-decoration="none" x="637.5" y="373.7099609375">11 : Write POI-TOI scores</text></g></g><g transform="translate(-6,10) scale(1,1)"><rect fill="#ffffff" stroke="none" x="809" y="379" width="13" height="69"/></g><g transform="translate(-6,10) scale(1,1)"><path fill="none" stroke="#000000" d="M 809 379 L 822 379 L 822 448 L 809 448 L 809 379 Z Z" stroke-miterlimit="10"/></g><g transform="translate(-6,10) scale(1,1)"><path fill="none" stroke="#000000" d="M 822 401 L 1040 401" stroke-miterlimit="10"/></g><g transform="translate(-6,10) scale(1,1)"><path fill="#000000" stroke="none" d="M 1029.837325142376 405.209517756016 L 1040 401 L 1029.837325142376 396.790482243984"/></g><g transform="translate(-6,10) scale(1,1)"><path fill="none" stroke="#000000" d="M 1029.837325142376 405.209517756016 L 1040 401 L 1029.837325142376 396.790482243984 L 1029.837325142376 405.209517756016" stroke-miterlimit="10"/></g><g transform="translate(-6,10) scale(1,1)"><g><path fill="none" stroke="none"/><text fill="#000000" stroke="none" font-family="Arial" font-size="13px" font-style="normal" font-weight="normal" text-decoration="none" x="856.5" y="395.7099609375">12 : Write POI-TOI scores</text></g></g><g transform="translate(-6,10) scale(1,1)"><rect fill="#ffffff" stroke="none" x="1040" y="401" width="13" height="28"/></g><g transform="translate(-6,10) scale(1,1)"><path fill="none" stroke="#000000" d="M 1040 401 L 1053 401 L 1053 429 L 1040 429 L 1040 401 Z Z" stroke-miterlimit="10"/></g><g transform="translate(-6,10) scale(1,1)"><path fill="none" stroke="#000000" d="M 1040 424 L 822 424" stroke-miterlimit="10" stroke-dasharray="3"/></g><g transform="translate(-6,10) scale(1,1)"><path fill="none" stroke="#000000" d="M 832.1626748576241 419.790482243984 L 822 424 L 832.1626748576241 428.209517756016" stroke-miterlimit="10"/></g><g transform="translate(-6,10) scale(1,1)"><g><path fill="none" stroke="none"/><text fill="#000000" stroke="none" font-family="Arial" font-size="13px" font-style="normal" font-weight="normal" text-decoration="none" x="906.5" y="438.7099609375">13 : Ack</text></g></g><g transform="translate(-6,10) scale(1,1)"><path fill="none" stroke="#000000" d="M 809 434 L 616 434" stroke-miterlimit="10" stroke-dasharray="3"/></g><g transform="translate(-6,10) scale(1,1)"><path fill="none" stroke="#000000" d="M 626.1626748576241 429.790482243984 L 616 434 L 626.1626748576241 438.209517756016" stroke-miterlimit="10"/></g><g transform="translate(-6,10) scale(1,1)"><g><path fill="none" stroke="none"/><text fill="#000000" stroke="none" font-family="Arial" font-size="13px" font-style="normal" font-weight="normal" text-decoration="none" x="687.5" y="448.7099609375">14 : Ack</text></g></g><g transform="translate(-6,10) scale(1,1)"><path fill="none" stroke="#000000" d="M 603 448 L 375 448" stroke-miterlimit="10" stroke-dasharray="3"/></g><g transform="translate(-6,10) scale(1,1)"><path fill="none" stroke="#000000" d="M 385.16267485762415 443.790482243984 L 375 448 L 385.16267485762415 452.209517756016" stroke-miterlimit="10"/></g><g transform="translate(-6,10) scale(1,1)"><g><path fill="none" stroke="none"/><text fill="#000000" stroke="none" font-family="Arial" font-size="13px" font-style="normal" font-weight="normal" text-decoration="none" x="464.5" y="462.7099609375">15 : Ack</text></g></g><g transform="translate(-6,10) scale(1,1)"><path fill="none" stroke="#000000" d="M 362 456 L 84 456" stroke-miterlimit="10" stroke-dasharray="3"/></g><g transform="translate(-6,10) scale(1,1)"><path fill="none" stroke="#000000" d="M 94.16267485762415 451.790482243984 L 84 456 L 94.16267485762415 460.209517756016" stroke-miterlimit="10"/></g><g transform="translate(-6,10) scale(1,1)"><g><path fill="none" stroke="none"/><text fill="#000000" stroke="none" font-family="Arial" font-size="13px" font-style="normal" font-weight="normal" text-decoration="none" x="198.5" y="470.7099609375">16 : Ack</text></g></g></g></svg>