<svg version="1.1" xmlns="http://www.w3.org/2000/svg" xmlns:xlink="http://www.w3.org/1999/xlink" width="850" height="787"><defs/><g><text fill="#eeeeee" stroke="none" font-family="Arial" font-size="24px" font-style="normal" font-weight="normal" text-decoration="none" x="0" y="0">UNREGISTERED</text><text fill="#eeeeee" stroke="none" font-family="Arial" font-size="24px" font-style="normal" font-weight="normal" text-decoration="none" x="0" y="30">UNREGISTERED</text><text fill="#eeeeee" stroke="none" font-family="Arial" font-size="24px" font-style="normal" font-weight="normal" text-decoration="none" x="0" y="60">UNREGISTERED</text><text fill="#eeeeee" stroke="none" font-family="Arial" font-size="24px" font-style="normal" font-weight="normal" text-decoration="none" x="0" y="90">UNREGISTERED</text><text fill="#eeeeee" stroke="none" font-family="Arial" font-size="24px" font-style="normal" font-weight="normal" text-decoration="none" x="0" y="120">UNREGISTERED</text><text fill="#eeeeee" stroke="none" font-family="Arial" font-size="24px" font-style="normal" font-weight="normal" text-decoration="none" x="0" y="150">UNREGISTERED</text><text fill="#eeeeee" stroke="none" font-family="Arial" font-size="24px" font-style="normal" font-weight="normal" text-decoration="none" x="0" y="180">UNREGISTERED</text><text fill="#eeeeee" stroke="none" font-family="Arial" font-size="24px" font-style="normal" font-weight="normal" text-decoration="none" x="0" y="210">UNREGISTERED</text><text fill="#eeeeee" stroke="none" font-family="Arial" font-size="24px" font-style="normal" font-weight="normal" text-decoration="none" x="0" y="240">UNREGISTERED</text><text fill="#eeeeee" stroke="none" font-family="Arial" font-size="24px" font-style="normal" font-weight="normal" text-decoration="none" x="0" y="270">UNREGISTERED</text><text fill="#eeeeee" stroke="none" font-family="Arial" font-size="24px" font-style="normal" font-weight="normal" text-decoration="none" x="0" y="300">UNREGISTERED</text><text fill="#eeeeee" stroke="none" font-family="Arial" font-size="24px" font-style="normal" font-weight="normal" text-decoration="none" x="0" y="330">UNREGISTERED</text><text fill="#eeeeee" stroke="none" font-family="Arial" font-size="24px" font-style="normal" font-weight="normal" text-decoration="none" x="0" y="360">UNREGISTERED</text><text fill="#eeeeee" stroke="none" font-family="Arial" font-size="24px" font-style="normal" font-weight="normal" text-decoration="none" x="0" y="390">UNREGISTERED</text><text fill="#eeeeee" stroke="none" font-family="Arial" font-size="24px" font-style="normal" font-weight="normal" text-decoration="none" x="0" y="420">UNREGISTERED</text><text fill="#eeeeee" stroke="none" font-family="Arial" font-size="24px" font-style="normal" font-weight="normal" text-decoration="none" x="0" y="450">UNREGISTERED</text><text fill="#eeeeee" stroke="none" font-family="Arial" font-size="24px" font-style="normal" font-weight="normal" text-decoration="none" x="0" y="480">UNREGISTERED</text><text fill="#eeeeee" stroke="none" font-family="Arial" font-size="24px" font-style="normal" font-weight="normal" text-decoration="none" x="0" y="510">UNREGISTERED</text><text fill="#eeeeee" stroke="none" font-family="Arial" font-size="24px" font-style="normal" font-weight="normal" text-decoration="none" x="0" y="540">UNREGISTERED</text><text fill="#eeeeee" stroke="none" font-family="Arial" font-size="24px" font-style="normal" font-weight="normal" text-decoration="none" x="0" y="570">UNREGISTERED</text><text fill="#eeeeee" stroke="none" font-family="Arial" font-size="24px" font-style="normal" font-weight="normal" text-decoration="none" x="0" y="600">UNREGISTERED</text><text fill="#eeeeee" stroke="none" font-family="Arial" font-size="24px" font-style="normal" font-weight="normal" text-decoration="none" x="0" y="630">UNREGISTERED</text><text fill="#eeeeee" stroke="none" font-family="Arial" font-size="24px" font-style="normal" font-weight="normal" text-decoration="none" x="0" y="660">UNREGISTERED</text><text fill="#eeeeee" stroke="none" font-family="Arial" font-size="24px" font-style="normal" font-weight="normal" text-decoration="none" x="0" y="690">UNREGISTERED</text><text fill="#eeeeee" stroke="none" font-family="Arial" font-size="24px" font-style="normal" font-weight="normal" text-decoration="none" x="0" y="720">UNREGISTERED</text><text fill="#eeeeee" stroke="none" font-family="Arial" font-size="24px" font-style="normal" font-weight="normal" text-decoration="none" x="0" y="750">UNREGISTERED</text><text fill="#eeeeee" stroke="none" font-family="Arial" font-size="24px" font-style="normal" font-weight="normal" text-decoration="none" x="0" y="780">UNREGISTERED</text><text fill="#eeeeee" stroke="none" font-family="Arial" font-size="24px" font-style="normal" font-weight="normal" text-decoration="none" x="200" y="0">UNREGISTERED</text><text fill="#eeeeee" stroke="none" font-family="Arial" font-size="24px" font-style="normal" font-weight="normal" text-decoration="none" x="200" y="30">UNREGISTERED</text><text fill="#eeeeee" stroke="none" font-family="Arial" font-size="24px" font-style="normal" font-weight="normal" text-decoration="none" x="200" y="60">UNREGISTERED</text><text fill="#eeeeee" stroke="none" font-family="Arial" font-size="24px" font-style="normal" font-weight="normal" text-decoration="none" x="200" y="90">UNREGISTERED</text><text fill="#eeeeee" stroke="none" font-family="Arial" font-size="24px" font-style="normal" font-weight="normal" text-decoration="none" x="200" y="120">UNREGISTERED</text><text fill="#eeeeee" stroke="none" font-family="Arial" font-size="24px" font-style="normal" font-weight="normal" text-decoration="none" x="200" y="150">UNREGISTERED</text><text fill="#eeeeee" stroke="none" font-family="Arial" font-size="24px" font-style="normal" font-weight="normal" text-decoration="none" x="200" y="180">UNREGISTERED</text><text fill="#eeeeee" stroke="none" font-family="Arial" font-size="24px" font-style="normal" font-weight="normal" text-decoration="none" x="200" y="210">UNREGISTERED</text><text fill="#eeeeee" stroke="none" font-family="Arial" font-size="24px" font-style="normal" font-weight="normal" text-decoration="none" x="200" y="240">UNREGISTERED</text><text fill="#eeeeee" stroke="none" font-family="Arial" font-size="24px" font-style="normal" font-weight="normal" text-decoration="none" x="200" y="270">UNREGISTERED</text><text fill="#eeeeee" stroke="none" font-family="Arial" font-size="24px" font-style="normal" font-weight="normal" text-decoration="none" x="200" y="300">UNREGISTERED</text><text fill="#eeeeee" stroke="none" font-family="Arial" font-size="24px" font-style="normal" font-weight="normal" text-decoration="none" x="200" y="330">UNREGISTERED</text><text fill="#eeeeee" stroke="none" font-family="Arial" font-size="24px" font-style="normal" font-weight="normal" text-decoration="none" x="200" y="360">UNREGISTERED</text><text fill="#eeeeee" stroke="none" font-family="Arial" font-size="24px" font-style="normal" font-weight="normal" text-decoration="none" x="200" y="390">UNREGISTERED</text><text fill="#eeeeee" stroke="none" font-family="Arial" font-size="24px" font-style="normal" font-weight="normal" text-decoration="none" x="200" y="420">UNREGISTERED</text><text fill="#eeeeee" stroke="none" font-family="Arial" font-size="24px" font-style="normal" font-weight="normal" text-decoration="none" x="200" y="450">UNREGISTERED</text><text fill="#eeeeee" stroke="none" font-family="Arial" font-size="24px" font-style="normal" font-weight="normal" text-decoration="none" x="200" y="480">UNREGISTERED</text><text fill="#eeeeee" stroke="none" font-family="Arial" font-size="24px" font-style="normal" font-weight="normal" text-decoration="none" x="200" y="510">UNREGISTERED</text><text fill="#eeeeee" stroke="none" font-family="Arial" font-size="24px" font-style="normal" font-weight="normal" text-decoration="none" x="200" y="540">UNREGISTERED</text><text fill="#eeeeee" stroke="none" font-family="Arial" font-size="24px" font-style="normal" font-weight="normal" text-decoration="none" x="200" y="570">UNREGISTERED</text><text fill="#eeeeee" stroke="none" font-family="Arial" font-size="24px" font-style="normal" font-weight="normal" text-decoration="none" x="200" y="600">UNREGISTERED</text><text fill="#eeeeee" stroke="none" font-family="Arial" font-size="24px" font-style="normal" font-weight="normal" text-decoration="none" x="200" y="630">UNREGISTERED</text><text fill="#eeeeee" stroke="none" font-family="Arial" font-size="24px" font-style="normal" font-weight="normal" text-decoration="none" x="200" y="660">UNREGISTERED</text><text fill="#eeeeee" stroke="none" font-family="Arial" font-size="24px" font-style="normal" font-weight="normal" text-decoration="none" x="200" y="690">UNREGISTERED</text><text fill="#eeeeee" stroke="none" font-family="Arial" font-size="24px" font-style="normal" font-weight="normal" text-decoration="none" x="200" y="720">UNREGISTERED</text><text fill="#eeeeee" stroke="none" font-family="Arial" font-size="24px" font-style="normal" font-weight="normal" text-decoration="none" x="200" y="750">UNREGISTERED</text><text fill="#eeeeee" stroke="none" font-family="Arial" font-size="24px" font-style="normal" font-weight="normal" text-decoration="none" x="200" y="780">UNREGISTERED</text><text fill="#eeeeee" stroke="none" font-family="Arial" font-size="24px" font-style="normal" font-weight="normal" text-decoration="none" x="400" y="0">UNREGISTERED</text><text fill="#eeeeee" stroke="none" font-family="Arial" font-size="24px" font-style="normal" font-weight="normal" text-decoration="none" x="400" y="30">UNREGISTERED</text><text fill="#eeeeee" stroke="none" font-family="Arial" font-size="24px" font-style="normal" font-weight="normal" text-decoration="none" x="400" y="60">UNREGISTERED</text><text fill="#eeeeee" stroke="none" font-family="Arial" font-size="24px" font-style="normal" font-weight="normal" text-decoration="none" x="400" y="90">UNREGISTERED</text><text fill="#eeeeee" stroke="none" font-family="Arial" font-size="24px" font-style="normal" font-weight="normal" text-decoration="none" x="400" y="120">UNREGISTERED</text><text fill="#eeeeee" stroke="none" font-family="Arial" font-size="24px" font-style="normal" font-weight="normal" text-decoration="none" x="400" y="150">UNREGISTERED</text><text fill="#eeeeee" stroke="none" font-family="Arial" font-size="24px" font-style="normal" font-weight="normal" text-decoration="none" x="400" y="180">UNREGISTERED</text><text fill="#eeeeee" stroke="none" font-family="Arial" font-size="24px" font-style="normal" font-weight="normal" text-decoration="none" x="400" y="210">UNREGISTERED</text><text fill="#eeeeee" stroke="none" font-family="Arial" font-size="24px" font-style="normal" font-weight="normal" text-decoration="none" x="400" y="240">UNREGISTERED</text><text fill="#eeeeee" stroke="none" font-family="Arial" font-size="24px" font-style="normal" font-weight="normal" text-decoration="none" x="400" y="270">UNREGISTERED</text><text fill="#eeeeee" stroke="none" font-family="Arial" font-size="24px" font-style="normal" font-weight="normal" text-decoration="none" x="400" y="300">UNREGISTERED</text><text fill="#eeeeee" stroke="none" font-family="Arial" font-size="24px" font-style="normal" font-weight="normal" text-decoration="none" x="400" y="330">UNREGISTERED</text><text fill="#eeeeee" stroke="none" font-family="Arial" font-size="24px" font-style="normal" font-weight="normal" text-decoration="none" x="400" y="360">UNREGISTERED</text><text fill="#eeeeee" stroke="none" font-family="Arial" font-size="24px" font-style="normal" font-weight="normal" text-decoration="none" x="400" y="390">UNREGISTERED</text><text fill="#eeeeee" stroke="none" font-family="Arial" font-size="24px" font-style="normal" font-weight="normal" text-decoration="none" x="400" y="420">UNREGISTERED</text><text fill="#eeeeee" stroke="none" font-family="Arial" font-size="24px" font-style="normal" font-weight="normal" text-decoration="none" x="400" y="450">UNREGISTERED</text><text fill="#eeeeee" stroke="none" font-family="Arial" font-size="24px" font-style="normal" font-weight="normal" text-decoration="none" x="400" y="480">UNREGISTERED</text><text fill="#eeeeee" stroke="none" font-family="Arial" font-size="24px" font-style="normal" font-weight="normal" text-decoration="none" x="400" y="510">UNREGISTERED</text><text fill="#eeeeee" stroke="none" font-family="Arial" font-size="24px" font-style="normal" font-weight="normal" text-decoration="none" x="400" y="540">UNREGISTERED</text><text fill="#eeeeee" stroke="none" font-family="Arial" font-size="24px" font-style="normal" font-weight="normal" text-decoration="none" x="400" y="570">UNREGISTERED</text><text fill="#eeeeee" stroke="none" font-family="Arial" font-size="24px" font-style="normal" font-weight="normal" text-decoration="none" x="400" y="600">UNREGISTERED</text><text fill="#eeeeee" stroke="none" font-family="Arial" font-size="24px" font-style="normal" font-weight="normal" text-decoration="none" x="400" y="630">UNREGISTERED</text><text fill="#eeeeee" stroke="none" font-family="Arial" font-size="24px" font-style="normal" font-weight="normal" text-decoration="none" x="400" y="660">UNREGISTERED</text><text fill="#eeeeee" stroke="none" font-family="Arial" font-size="24px" font-style="normal" font-weight="normal" text-decoration="none" x="400" y="690">UNREGISTERED</text><text fill="#eeeeee" stroke="none" font-family="Arial" font-size="24px" font-style="normal" font-weight="normal" text-decoration="none" x="400" y="720">UNREGISTERED</text><text fill="#eeeeee" stroke="none" font-family="Arial" font-size="24px" font-style="normal" font-weight="normal" text-decoration="none" x="400" y="750">UNREGISTERED</text><text fill="#eeeeee" stroke="none" font-family="Arial" font-size="24px" font-style="normal" font-weight="normal" text-decoration="none" x="400" y="780">UNREGISTERED</text><text fill="#eeeeee" stroke="none" font-family="Arial" font-size="24px" font-style="normal" font-weight="normal" text-decoration="none" x="600" y="0">UNREGISTERED</text><text fill="#eeeeee" stroke="none" font-family="Arial" font-size="24px" font-style="normal" font-weight="normal" text-decoration="none" x="600" y="30">UNREGISTERED</text><text fill="#eeeeee" stroke="none" font-family="Arial" font-size="24px" font-style="normal" font-weight="normal" text-decoration="none" x="600" y="60">UNREGISTERED</text><text fill="#eeeeee" stroke="none" font-family="Arial" font-size="24px" font-style="normal" font-weight="normal" text-decoration="none" x="600" y="90">UNREGISTERED</text><text fill="#eeeeee" stroke="none" font-family="Arial" font-size="24px" font-style="normal" font-weight="normal" text-decoration="none" x="600" y="120">UNREGISTERED</text><text fill="#eeeeee" stroke="none" font-family="Arial" font-size="24px" font-style="normal" font-weight="normal" text-decoration="none" x="600" y="150">UNREGISTERED</text><text fill="#eeeeee" stroke="none" font-family="Arial" font-size="24px" font-style="normal" font-weight="normal" text-decoration="none" x="600" y="180">UNREGISTERED</text><text fill="#eeeeee" stroke="none" font-family="Arial" font-size="24px" font-style="normal" font-weight="normal" text-decoration="none" x="600" y="210">UNREGISTERED</text><text fill="#eeeeee" stroke="none" font-family="Arial" font-size="24px" font-style="normal" font-weight="normal" text-decoration="none" x="600" y="240">UNREGISTERED</text><text fill="#eeeeee" stroke="none" font-family="Arial" font-size="24px" font-style="normal" font-weight="normal" text-decoration="none" x="600" y="270">UNREGISTERED</text><text fill="#eeeeee" stroke="none" font-family="Arial" font-size="24px" font-style="normal" font-weight="normal" text-decoration="none" x="600" y="300">UNREGISTERED</text><text fill="#eeeeee" stroke="none" font-family="Arial" font-size="24px" font-style="normal" font-weight="normal" text-decoration="none" x="600" y="330">UNREGISTERED</text><text fill="#eeeeee" stroke="none" font-family="Arial" font-size="24px" font-style="normal" font-weight="normal" text-decoration="none" x="600" y="360">UNREGISTERED</text><text fill="#eeeeee" stroke="none" font-family="Arial" font-size="24px" font-style="normal" font-weight="normal" text-decoration="none" x="600" y="390">UNREGISTERED</text><text fill="#eeeeee" stroke="none" font-family="Arial" font-size="24px" font-style="normal" font-weight="normal" text-decoration="none" x="600" y="420">UNREGISTERED</text><text fill="#eeeeee" stroke="none" font-family="Arial" font-size="24px" font-style="normal" font-weight="normal" text-decoration="none" x="600" y="450">UNREGISTERED</text><text fill="#eeeeee" stroke="none" font-family="Arial" font-size="24px" font-style="normal" font-weight="normal" text-decoration="none" x="600" y="480">UNREGISTERED</text><text fill="#eeeeee" stroke="none" font-family="Arial" font-size="24px" font-style="normal" font-weight="normal" text-decoration="none" x="600" y="510">UNREGISTERED</text><text fill="#eeeeee" stroke="none" font-family="Arial" font-size="24px" font-style="normal" font-weight="normal" text-decoration="none" x="600" y="540">UNREGISTERED</text><text fill="#eeeeee" stroke="none" font-family="Arial" font-size="24px" font-style="normal" font-weight="normal" text-decoration="none" x="600" y="570">UNREGISTERED</text><text fill="#eeeeee" stroke="none" font-family="Arial" font-size="24px" font-style="normal" font-weight="normal" text-decoration="none" x="600" y="600">UNREGISTERED</text><text fill="#eeeeee" stroke="none" font-family="Arial" font-size="24px" font-style="normal" font-weight="normal" text-decoration="none" x="600" y="630">UNREGISTERED</text><text fill="#eeeeee" stroke="none" font-family="Arial" font-size="24px" font-style="normal" font-weight="normal" text-decoration="none" x="600" y="660">UNREGISTERED</text><text fill="#eeeeee" stroke="none" font-family="Arial" font-size="24px" font-style="normal" font-weight="normal" text-decoration="none" x="600" y="690">UNREGISTERED</text><text fill="#eeeeee" stroke="none" font-family="Arial" font-size="24px" font-style="normal" font-weight="normal" text-decoration="none" x="600" y="720">UNREGISTERED</text><text fill="#eeeeee" stroke="none" font-family="Arial" font-size="24px" font-style="normal" font-weight="normal" text-decoration="none" x="600" y="750">UNREGISTERED</text><text fill="#eeeeee" stroke="none" font-family="Arial" font-size="24px" font-style="normal" font-weight="normal" text-decoration="none" x="600" y="780">UNREGISTERED</text><text fill="#eeeeee" stroke="none" font-family="Arial" font-size="24px" font-style="normal" font-weight="normal" text-decoration="none" x="800" y="0">UNREGISTERED</text><text fill="#eeeeee" stroke="none" font-family="Arial" font-size="24px" font-style="normal" font-weight="normal" text-decoration="none" x="800" y="30">UNREGISTERED</text><text fill="#eeeeee" stroke="none" font-family="Arial" font-size="24px" font-style="normal" font-weight="normal" text-decoration="none" x="800" y="60">UNREGISTERED</text><text fill="#eeeeee" stroke="none" font-family="Arial" font-size="24px" font-style="normal" font-weight="normal" text-decoration="none" x="800" y="90">UNREGISTERED</text><text fill="#eeeeee" stroke="none" font-family="Arial" font-size="24px" font-style="normal" font-weight="normal" text-decoration="none" x="800" y="120">UNREGISTERED</text><text fill="#eeeeee" stroke="none" font-family="Arial" font-size="24px" font-style="normal" font-weight="normal" text-decoration="none" x="800" y="150">UNREGISTERED</text><text fill="#eeeeee" stroke="none" font-family="Arial" font-size="24px" font-style="normal" font-weight="normal" text-decoration="none" x="800" y="180">UNREGISTERED</text><text fill="#eeeeee" stroke="none" font-family="Arial" font-size="24px" font-style="normal" font-weight="normal" text-decoration="none" x="800" y="210">UNREGISTERED</text><text fill="#eeeeee" stroke="none" font-family="Arial" font-size="24px" font-style="normal" font-weight="normal" text-decoration="none" x="800" y="240">UNREGISTERED</text><text fill="#eeeeee" stroke="none" font-family="Arial" font-size="24px" font-style="normal" font-weight="normal" text-decoration="none" x="800" y="270">UNREGISTERED</text><text fill="#eeeeee" stroke="none" font-family="Arial" font-size="24px" font-style="normal" font-weight="normal" text-decoration="none" x="800" y="300">UNREGISTERED</text><text fill="#eeeeee" stroke="none" font-family="Arial" font-size="24px" font-style="normal" font-weight="normal" text-decoration="none" x="800" y="330">UNREGISTERED</text><text fill="#eeeeee" stroke="none" font-family="Arial" font-size="24px" font-style="normal" font-weight="normal" text-decoration="none" x="800" y="360">UNREGISTERED</text><text fill="#eeeeee" stroke="none" font-family="Arial" font-size="24px" font-style="normal" font-weight="normal" text-decoration="none" x="800" y="390">UNREGISTERED</text><text fill="#eeeeee" stroke="none" font-family="Arial" font-size="24px" font-style="normal" font-weight="normal" text-decoration="none" x="800" y="420">UNREGISTERED</text><text fill="#eeeeee" stroke="none" font-family="Arial" font-size="24px" font-style="normal" font-weight="normal" text-decoration="none" x="800" y="450">UNREGISTERED</text><text fill="#eeeeee" stroke="none" font-family="Arial" font-size="24px" font-style="normal" font-weight="normal" text-decoration="none" x="800" y="480">UNREGISTERED</text><text fill="#eeeeee" stroke="none" font-family="Arial" font-size="24px" font-style="normal" font-weight="normal" text-decoration="none" x="800" y="510">UNREGISTERED</text><text fill="#eeeeee" stroke="none" font-family="Arial" font-size="24px" font-style="normal" font-weight="normal" text-decoration="none" x="800" y="540">UNREGISTERED</text><text fill="#eeeeee" stroke="none" font-family="Arial" font-size="24px" font-style="normal" font-weight="normal" text-decoration="none" x="800" y="570">UNREGISTERED</text><text fill="#eeeeee" stroke="none" font-family="Arial" font-size="24px" font-style="normal" font-weight="normal" text-decoration="none" x="800" y="600">UNREGISTERED</text><text fill="#eeeeee" stroke="none" font-family="Arial" font-size="24px" font-style="normal" font-weight="normal" text-decoration="none" x="800" y="630">UNREGISTERED</text><text fill="#eeeeee" stroke="none" font-family="Arial" font-size="24px" font-style="normal" font-weight="normal" text-decoration="none" x="800" y="660">UNREGISTERED</text><text fill="#eeeeee" stroke="none" font-family="Arial" font-size="24px" font-style="normal" font-weight="normal" text-decoration="none" x="800" y="690">UNREGISTERED</text><text fill="#eeeeee" stroke="none" font-family="Arial" font-size="24px" font-style="normal" font-weight="normal" text-decoration="none" x="800" y="720">UNREGISTERED</text><text fill="#eeeeee" stroke="none" font-family="Arial" font-size="24px" font-style="normal" font-weight="normal" text-decoration="none" x="800" y="750">UNREGISTERED</text><text fill="#eeeeee" stroke="none" font-family="Arial" font-size="24px" font-style="normal" font-weight="normal" text-decoration="none" x="800" y="780">UNREGISTERED</text><g transform="translate(-134,-78) scale(1,1)"><path fill="#ffffff" stroke="none" d="M 173.51846075994317 436.23 C 173.51846075994317 430.027841696 178.48370373070682 425 184.608642578125 425 C 190.73358142554318 425 195.69882439630683 430.027841696 195.69882439630683 436.23 C 195.69882439630683 442.43215830400004 190.73358142554318 447.46 184.608642578125 447.46 C 178.48370373070682 447.46 173.51846075994317 442.43215830400004 173.51846075994317 436.23 Z"/></g><g transform="translate(-134,-78) scale(1,1)"><path fill="none" stroke="#000000" d="M 173.51846075994317 436.23 C 173.51846075994317 430.027841696 178.48370373070682 425 184.608642578125 425 C 190.73358142554318 425 195.69882439630683 430.027841696 195.69882439630683 436.23 C 195.69882439630683 442.43215830400004 190.73358142554318 447.46 184.608642578125 447.46 C 178.48370373070682 447.46 173.51846075994317 442.43215830400004 173.51846075994317 436.23 Z" stroke-miterlimit="10"/></g><g transform="translate(-134,-78) scale(1,1)"><path fill="none" stroke="#000000" d="M 184.608642578125 447.46 L 184.608642578125 469.54" stroke-miterlimit="10"/></g><g transform="translate(-134,-78) scale(1,1)"><path fill="none" stroke="#000000" d="M 172.86609712357955 455.74 L 196.35118803267045 455.74" stroke-miterlimit="10"/></g><g transform="translate(-134,-78) scale(1,1)"><path fill="none" stroke="#000000" d="M 184.608642578125 469.54 L 168.2995516690341 492" stroke-miterlimit="10"/></g><g transform="translate(-134,-78) scale(1,1)"><path fill="none" stroke="#000000" d="M 184.608642578125 469.54 L 200.9177334872159 492" stroke-miterlimit="10"/></g><g transform="translate(-134,-78) scale(1,1)"><g><path fill="none" stroke="none"/><text fill="#000000" stroke="none" font-family="Arial" font-size="13px" font-style="normal" font-weight="bold" text-decoration="none" x="163.064697265625" y="510.7099609375">Tourist</text></g></g><g transform="translate(-134,-78) scale(1,1)"><path fill="#C0C0C0" stroke="none" d="M 327 482.5 C 327 467.312168 377.5918176 455 440 455 C 502.4081824 455 553 467.312168 553 482.5 C 553 497.687832 502.4081824 510 440 510 C 377.5918176 510 327 497.687832 327 482.5 Z" opacity="0.2"/></g><g transform="translate(-134,-78) scale(1,1)"><path fill="#ffffff" stroke="none" d="M 320 475.5 C 320 460.312168 370.5918176 448 433 448 C 495.4081824 448 546 460.312168 546 475.5 C 546 490.687832 495.4081824 503 433 503 C 370.5918176 503 320 490.687832 320 475.5 Z"/></g><g transform="translate(-134,-78) scale(1,1)"><path fill="none" stroke="#000000" d="M 320 475.5 C 320 460.312168 370.5918176 448 433 448 C 495.4081824 448 546 460.312168 546 475.5 C 546 490.687832 495.4081824 503 433 503 C 370.5918176 503 320 490.687832 320 475.5 Z" stroke-miterlimit="10"/></g><g transform="translate(-134,-78) scale(1,1)"><g><path fill="none" stroke="none"/><text fill="#000000" stroke="none" font-family="Arial" font-size="13px" font-style="normal" font-weight="bold" text-decoration="none" x="386.392333984375" y="480.7099609375">Select Itinerary</text></g></g><g transform="translate(-134,-78) scale(1,1)"><path fill="none" stroke="#000000" d="M 226 472 L 319 473" stroke-miterlimit="10"/></g><g transform="translate(-134,-78) scale(1,1)"><path fill="#C0C0C0" stroke="none" d="M 735 658.5 C 735 643.312168 785.5918176 631 848 631 C 910.4081824 631 961 643.312168 961 658.5 C 961 673.687832 910.4081824 686 848 686 C 785.5918176 686 735 673.687832 735 658.5 Z" opacity="0.2"/></g><g transform="translate(-134,-78) scale(1,1)"><path fill="#ffffff" stroke="none" d="M 728 651.5 C 728 636.312168 778.5918176 624 841 624 C 903.4081824 624 954 636.312168 954 651.5 C 954 666.687832 903.4081824 679 841 679 C 778.5918176 679 728 666.687832 728 651.5 Z"/></g><g transform="translate(-134,-78) scale(1,1)"><path fill="none" stroke="#000000" d="M 728 651.5 C 728 636.312168 778.5918176 624 841 624 C 903.4081824 624 954 636.312168 954 651.5 C 954 666.687832 903.4081824 679 841 679 C 778.5918176 679 728 666.687832 728 651.5 Z" stroke-miterlimit="10"/></g><g transform="translate(-134,-78) scale(1,1)"><g><path fill="none" stroke="none"/><text fill="#000000" stroke="none" font-family="Arial" font-size="13px" font-style="normal" font-weight="bold" text-decoration="none" x="795.503173828125" y="656.7099609375">Authentication</text></g></g><g transform="translate(-134,-78) scale(1,1)"><path fill="#C0C0C0" stroke="none" d="M 343 650.5 C 343 635.312168 393.5918176 623 456 623 C 518.4081824 623 569 635.312168 569 650.5 C 569 665.687832 518.4081824 678 456 678 C 393.5918176 678 343 665.687832 343 650.5 Z" opacity="0.2"/></g><g transform="translate(-134,-78) scale(1,1)"><path fill="#ffffff" stroke="none" d="M 336 643.5 C 336 628.312168 386.5918176 616 449 616 C 511.4081824 616 562 628.312168 562 643.5 C 562 658.687832 511.4081824 671 449 671 C 386.5918176 671 336 658.687832 336 643.5 Z"/></g><g transform="translate(-134,-78) scale(1,1)"><path fill="none" stroke="#000000" d="M 336 643.5 C 336 628.312168 386.5918176 616 449 616 C 511.4081824 616 562 628.312168 562 643.5 C 562 658.687832 511.4081824 671 449 671 C 386.5918176 671 336 658.687832 336 643.5 Z" stroke-miterlimit="10"/></g><g transform="translate(-134,-78) scale(1,1)"><g><path fill="none" stroke="none"/><text fill="#000000" stroke="none" font-family="Arial" font-size="13px" font-style="normal" font-weight="bold" text-decoration="none" x="395.898681640625" y="648.7099609375">Itinerary Request</text></g></g><g transform="translate(-134,-78) scale(1,1)"><path fill="none" stroke="#000000" d="M 226 498 L 406 615" stroke-miterlimit="10"/></g><g transform="translate(-134,-78) scale(1,1)"><path fill="none" stroke="#000000" d="M 395.18503200243276 612.9909038819417 L 406 615 L 399.7733082797393 605.9320173014702" stroke-miterlimit="10"/></g><g transform="translate(-134,-78) scale(1,1)"><path fill="none" stroke="#000000" d="M 727 649 L 563 645" stroke-miterlimit="10" stroke-dasharray="3"/></g><g transform="translate(-134,-78) scale(1,1)"><path fill="none" stroke="#000000" d="M 573.2622940389803 641.0395301973742 L 563 645 L 573.0570127596144 649.456062651372" stroke-miterlimit="10"/></g><g transform="translate(-134,-78) scale(1,1)"><g><path fill="none" stroke="none"/><text fill="#000000" stroke="none" font-family="Arial" font-size="13px" font-style="normal" font-weight="normal" text-decoration="none" x="617.5" y="680.7099609375">«extend»</text></g></g><g transform="translate(-134,-78) scale(1,1)"><path fill="none" stroke="#000000" d="M 446 615 L 436 504" stroke-miterlimit="10" stroke-dasharray="3"/></g><g transform="translate(-134,-78) scale(1,1)"><path fill="none" stroke="#000000" d="M 441.1044016755947 513.7439767823095 L 436 504 L 432.7193249802177 514.4993890972083" stroke-miterlimit="10"/></g><g transform="translate(-134,-78) scale(1,1)"><g><path fill="none" stroke="none"/><text fill="#000000" stroke="none" font-family="Arial" font-size="13px" font-style="normal" font-weight="normal" text-decoration="none" x="384.5" y="565.7099609375">«extend»</text></g></g><g transform="translate(-134,-78) scale(1,1)"><path fill="#C0C0C0" stroke="none" d="M 599 474.5 C 599 459.312168 676.9024448 447 773 447 C 869.0975552 447 947 459.312168 947 474.5 C 947 489.687832 869.0975552 502 773 502 C 676.9024448 502 599 489.687832 599 474.5 Z" opacity="0.2"/></g><g transform="translate(-134,-78) scale(1,1)"><path fill="#ffffff" stroke="none" d="M 592 467.5 C 592 452.312168 669.9024448 440 766 440 C 862.0975552 440 940 452.312168 940 467.5 C 940 482.687832 862.0975552 495 766 495 C 669.9024448 495 592 482.687832 592 467.5 Z"/></g><g transform="translate(-134,-78) scale(1,1)"><path fill="none" stroke="#000000" d="M 592 467.5 C 592 452.312168 669.9024448 440 766 440 C 862.0975552 440 940 452.312168 940 467.5 C 940 482.687832 862.0975552 495 766 495 C 669.9024448 495 592 482.687832 592 467.5 Z" stroke-miterlimit="10"/></g><g transform="translate(-134,-78) scale(1,1)"><g><path fill="none" stroke="none"/><text fill="#000000" stroke="none" font-family="Arial" font-size="13px" font-style="normal" font-weight="bold" text-decoration="none" x="647.52734375" y="472.7099609375">Preferences and constraints definition</text></g></g><g transform="translate(-134,-78) scale(1,1)"><path fill="none" stroke="#000000" d="M 499 615 L 714 496" stroke-miterlimit="10" stroke-dasharray="3"/></g><g transform="translate(-134,-78) scale(1,1)"><path fill="none" stroke="#000000" d="M 707.1469340471605 504.604387662468 L 714 496 L 703.0699297287396 497.23837145691755" stroke-miterlimit="10"/></g><g transform="translate(-134,-78) scale(1,1)"><g><path fill="none" stroke="none"/><text fill="#000000" stroke="none" font-family="Arial" font-size="13px" font-style="normal" font-weight="normal" text-decoration="none" x="563.5" y="532.7099609375">«include»</text></g></g><g transform="translate(-134,-78) scale(1,1)"><path fill="#C0C0C0" stroke="none" d="M 351 290.5 C 351 275.312168 401.5918176 263 464 263 C 526.4081824 263 577 275.312168 577 290.5 C 577 305.687832 526.4081824 318 464 318 C 401.5918176 318 351 305.687832 351 290.5 Z" opacity="0.2"/></g><g transform="translate(-134,-78) scale(1,1)"><path fill="#ffffff" stroke="none" d="M 344 283.5 C 344 268.312168 394.5918176 256 457 256 C 519.4081824 256 570 268.312168 570 283.5 C 570 298.687832 519.4081824 311 457 311 C 394.5918176 311 344 298.687832 344 283.5 Z"/></g><g transform="translate(-134,-78) scale(1,1)"><path fill="none" stroke="#000000" d="M 344 283.5 C 344 268.312168 394.5918176 256 457 256 C 519.4081824 256 570 268.312168 570 283.5 C 570 298.687832 519.4081824 311 457 311 C 394.5918176 311 344 298.687832 344 283.5 Z" stroke-miterlimit="10"/></g><g transform="translate(-134,-78) scale(1,1)"><g><path fill="none" stroke="none"/><text fill="#000000" stroke="none" font-family="Arial" font-size="13px" font-style="normal" font-weight="bold" text-decoration="none" x="409.427490234375" y="288.7099609375">View Itineraries</text></g></g><g transform="translate(-134,-78) scale(1,1)"><path fill="none" stroke="#000000" d="M 226 442 L 415 312" stroke-miterlimit="10"/></g><g transform="translate(-134,-78) scale(1,1)"><path fill="none" stroke="#000000" d="M 409.01241460197906 321.2276118850657 L 415 312 L 404.24123082403827 314.2910447002134" stroke-miterlimit="10"/></g><g transform="translate(-134,-78) scale(1,1)"><path fill="none" stroke="#000000" d="M 437 447 L 453 312" stroke-miterlimit="10" stroke-dasharray="3"/></g><g transform="translate(-134,-78) scale(1,1)"><path fill="none" stroke="#000000" d="M 455.98416691726345 322.58748071119425 L 453 312 L 447.62364525682233 321.59660406995675" stroke-miterlimit="10"/></g><g transform="translate(-134,-78) scale(1,1)"><g><path fill="none" stroke="none"/><text fill="#000000" stroke="none" font-family="Arial" font-size="13px" font-style="normal" font-weight="normal" text-decoration="none" x="387.5" y="379.7099609375">«include»</text></g></g><g transform="translate(-134,-78) scale(1,1)"><path fill="#C0C0C0" stroke="none" d="M 335 834.5 C 335 819.312168 379.0999472 807 433.5 807 C 487.9000528 807 532 819.312168 532 834.5 C 532 849.687832 487.9000528 862 433.5 862 C 379.0999472 862 335 849.687832 335 834.5 Z" opacity="0.2"/></g><g transform="translate(-134,-78) scale(1,1)"><path fill="#ffffff" stroke="none" d="M 328 827.5 C 328 812.312168 372.0999472 800 426.5 800 C 480.9000528 800 525 812.312168 525 827.5 C 525 842.687832 480.9000528 855 426.5 855 C 372.0999472 855 328 842.687832 328 827.5 Z"/></g><g transform="translate(-134,-78) scale(1,1)"><path fill="none" stroke="#000000" d="M 328 827.5 C 328 812.312168 372.0999472 800 426.5 800 C 480.9000528 800 525 812.312168 525 827.5 C 525 842.687832 480.9000528 855 426.5 855 C 372.0999472 855 328 842.687832 328 827.5 Z" stroke-miterlimit="10"/></g><g transform="translate(-134,-78) scale(1,1)"><g><path fill="none" stroke="none"/><text fill="#000000" stroke="none" font-family="Arial" font-size="13px" font-style="normal" font-weight="bold" text-decoration="none" x="378.4609375" y="832.7099609375">Navigate to POI</text></g></g><g transform="translate(-134,-78) scale(1,1)"><path fill="none" stroke="#000000" d="M 217 519 L 407 799" stroke-miterlimit="10"/></g><g transform="translate(-134,-78) scale(1,1)"><path fill="none" stroke="#000000" d="M 397.8103696883684 792.9542829428146 L 407 799 L 404.77691761831875 788.2269825617769" stroke-miterlimit="10"/></g><g transform="translate(-134,-78) scale(1,1)"><path fill="none" stroke="#000000" d="M 430 799 L 445 672" stroke-miterlimit="10" stroke-dasharray="3"/></g><g transform="translate(-134,-78) scale(1,1)"><path fill="none" stroke="#000000" d="M 447.9884296813418 682.5862782902999 L 445 672 L 439.6275097261769 681.598768059375" stroke-miterlimit="10"/></g><g transform="translate(-134,-78) scale(1,1)"><g><path fill="none" stroke="none"/><text fill="#000000" stroke="none" font-family="Arial" font-size="13px" font-style="normal" font-weight="normal" text-decoration="none" x="380.5" y="735.7099609375">«extend»</text></g></g><g transform="translate(-134,-78) scale(1,1)"><path fill="#C0C0C0" stroke="none" d="M 695 290.5 C 695 275.312168 745.5918176 263 808 263 C 870.4081824 263 921 275.312168 921 290.5 C 921 305.687832 870.4081824 318 808 318 C 745.5918176 318 695 305.687832 695 290.5 Z" opacity="0.2"/></g><g transform="translate(-134,-78) scale(1,1)"><path fill="#ffffff" stroke="none" d="M 688 283.5 C 688 268.312168 738.5918176 256 801 256 C 863.4081824 256 914 268.312168 914 283.5 C 914 298.687832 863.4081824 311 801 311 C 738.5918176 311 688 298.687832 688 283.5 Z"/></g><g transform="translate(-134,-78) scale(1,1)"><path fill="none" stroke="#000000" d="M 688 283.5 C 688 268.312168 738.5918176 256 801 256 C 863.4081824 256 914 268.312168 914 283.5 C 914 298.687832 863.4081824 311 801 311 C 738.5918176 311 688 298.687832 688 283.5 Z" stroke-miterlimit="10"/></g><g transform="translate(-134,-78) scale(1,1)"><g><path fill="none" stroke="none"/><text fill="#000000" stroke="none" font-family="Arial" font-size="13px" font-style="normal" font-weight="bold" text-decoration="none" x="749.701416015625" y="288.7099609375">Explore Itinerary</text></g></g><g transform="translate(-134,-78) scale(1,1)"><path fill="none" stroke="#000000" d="M 687 283 L 571 283" stroke-miterlimit="10" stroke-dasharray="3"/></g><g transform="translate(-134,-78) scale(1,1)"><path fill="none" stroke="#000000" d="M 581.1626748576241 278.790482243984 L 571 283 L 581.1626748576241 287.209517756016" stroke-miterlimit="10"/></g><g transform="translate(-134,-78) scale(1,1)"><g><path fill="none" stroke="none"/><text fill="#000000" stroke="none" font-family="Arial" font-size="13px" font-style="normal" font-weight="normal" text-decoration="none" x="601.5" y="317.7099609375">«extend»</text></g></g><g transform="translate(-134,-78) scale(1,1)"><path fill="#C0C0C0" stroke="none" d="M 351 122.5 C 351 107.312168 395.9953776 95 451.5 95 C 507.0046224 95 552 107.312168 552 122.5 C 552 137.68783200000001 507.0046224 150 451.5 150 C 395.9953776 150 351 137.68783200000001 351 122.5 Z" opacity="0.2"/></g><g transform="translate(-134,-78) scale(1,1)"><path fill="#ffffff" stroke="none" d="M 344 115.5 C 344 100.312168 388.9953776 88 444.5 88 C 500.0046224 88 545 100.312168 545 115.5 C 545 130.68783200000001 500.0046224 143 444.5 143 C 388.9953776 143 344 130.68783200000001 344 115.5 Z"/></g><g transform="translate(-134,-78) scale(1,1)"><path fill="none" stroke="#000000" d="M 344 115.5 C 344 100.312168 388.9953776 88 444.5 88 C 500.0046224 88 545 100.312168 545 115.5 C 545 130.68783200000001 500.0046224 143 444.5 143 C 388.9953776 143 344 130.68783200000001 344 115.5 Z" stroke-miterlimit="10"/></g><g transform="translate(-134,-78) scale(1,1)"><g><path fill="none" stroke="none"/><text fill="#000000" stroke="none" font-family="Arial" font-size="13px" font-style="normal" font-weight="bold" text-decoration="none" x="378.049560546875" y="120.7099609375">Read POI Information</text></g></g><g transform="translate(-134,-78) scale(1,1)"><path fill="none" stroke="#000000" d="M 219 423 L 423 144" stroke-miterlimit="10"/></g><g transform="translate(-134,-78) scale(1,1)"><path fill="none" stroke="#000000" d="M 420.39969948599276 154.68823826628383 L 423 144 L 413.6035841163958 149.71903563044947" stroke-miterlimit="10"/></g><g transform="translate(-134,-78) scale(1,1)"><path fill="none" stroke="#000000" d="M 506 144 L 742 255" stroke-miterlimit="10" stroke-dasharray="3"/></g><g transform="translate(-134,-78) scale(1,1)"><path fill="none" stroke="#000000" d="M 731.0121159752116 254.48385597184586 L 742 255 L 734.5953616375575 246.86542375280402" stroke-miterlimit="10"/></g><g transform="translate(-134,-78) scale(1,1)"><g><path fill="none" stroke="none"/><text fill="#000000" stroke="none" font-family="Arial" font-size="13px" font-style="normal" font-weight="normal" text-decoration="none" x="609.5" y="175.7099609375">«extend»</text></g></g><g transform="translate(-134,-78) scale(1,1)"><path fill="#C0C0C0" stroke="none" d="M 711 122.5 C 711 107.312168 771.441552 95 846 95 C 920.558448 95 981 107.312168 981 122.5 C 981 137.68783200000001 920.558448 150 846 150 C 771.441552 150 711 137.68783200000001 711 122.5 Z" opacity="0.2"/></g><g transform="translate(-134,-78) scale(1,1)"><path fill="#ffffff" stroke="none" d="M 704 115.5 C 704 100.312168 764.441552 88 839 88 C 913.558448 88 974 100.312168 974 115.5 C 974 130.68783200000001 913.558448 143 839 143 C 764.441552 143 704 130.68783200000001 704 115.5 Z"/></g><g transform="translate(-134,-78) scale(1,1)"><path fill="none" stroke="#000000" d="M 704 115.5 C 704 100.312168 764.441552 88 839 88 C 913.558448 88 974 100.312168 974 115.5 C 974 130.68783200000001 913.558448 143 839 143 C 764.441552 143 704 130.68783200000001 704 115.5 Z" stroke-miterlimit="10"/></g><g transform="translate(-134,-78) scale(1,1)"><g><path fill="none" stroke="none"/><text fill="#000000" stroke="none" font-family="Arial" font-size="13px" font-style="normal" font-weight="bold" text-decoration="none" x="747.9619140625" y="120.7099609375">Navigate to external resource</text></g></g><g transform="translate(-134,-78) scale(1,1)"><path fill="none" stroke="#000000" d="M 703 115 L 546 115" stroke-miterlimit="10" stroke-dasharray="3"/></g><g transform="translate(-134,-78) scale(1,1)"><path fill="none" stroke="#000000" d="M 556.1626748576241 110.79048224398402 L 546 115 L 556.1626748576241 119.20951775601598" stroke-miterlimit="10"/></g><g transform="translate(-134,-78) scale(1,1)"><g><path fill="none" stroke="none"/><text fill="#000000" stroke="none" font-family="Arial" font-size="13px" font-style="normal" font-weight="normal" text-decoration="none" x="596.5" y="149.7099609375">«extend»</text></g></g></g></svg>