<svg version="1.1" xmlns="http://www.w3.org/2000/svg" xmlns:xlink="http://www.w3.org/1999/xlink" width="849" height="302"><defs/><g><text fill="#eeeeee" stroke="none" font-family="Arial" font-size="24px" font-style="normal" font-weight="normal" text-decoration="none" x="0" y="0">UNREGISTERED</text><text fill="#eeeeee" stroke="none" font-family="Arial" font-size="24px" font-style="normal" font-weight="normal" text-decoration="none" x="0" y="30">UNREGISTERED</text><text fill="#eeeeee" stroke="none" font-family="Arial" font-size="24px" font-style="normal" font-weight="normal" text-decoration="none" x="0" y="60">UNREGISTERED</text><text fill="#eeeeee" stroke="none" font-family="Arial" font-size="24px" font-style="normal" font-weight="normal" text-decoration="none" x="0" y="90">UNREGISTERED</text><text fill="#eeeeee" stroke="none" font-family="Arial" font-size="24px" font-style="normal" font-weight="normal" text-decoration="none" x="0" y="120">UNREGISTERED</text><text fill="#eeeeee" stroke="none" font-family="Arial" font-size="24px" font-style="normal" font-weight="normal" text-decoration="none" x="0" y="150">UNREGISTERED</text><text fill="#eeeeee" stroke="none" font-family="Arial" font-size="24px" font-style="normal" font-weight="normal" text-decoration="none" x="0" y="180">UNREGISTERED</text><text fill="#eeeeee" stroke="none" font-family="Arial" font-size="24px" font-style="normal" font-weight="normal" text-decoration="none" x="0" y="210">UNREGISTERED</text><text fill="#eeeeee" stroke="none" font-family="Arial" font-size="24px" font-style="normal" font-weight="normal" text-decoration="none" x="0" y="240">UNREGISTERED</text><text fill="#eeeeee" stroke="none" font-family="Arial" font-size="24px" font-style="normal" font-weight="normal" text-decoration="none" x="0" y="270">UNREGISTERED</text><text fill="#eeeeee" stroke="none" font-family="Arial" font-size="24px" font-style="normal" font-weight="normal" text-decoration="none" x="0" y="300">UNREGISTERED</text><text fill="#eeeeee" stroke="none" font-family="Arial" font-size="24px" font-style="normal" font-weight="normal" text-decoration="none" x="200" y="0">UNREGISTERED</text><text fill="#eeeeee" stroke="none" font-family="Arial" font-size="24px" font-style="normal" font-weight="normal" text-decoration="none" x="200" y="30">UNREGISTERED</text><text fill="#eeeeee" stroke="none" font-family="Arial" font-size="24px" font-style="normal" font-weight="normal" text-decoration="none" x="200" y="60">UNREGISTERED</text><text fill="#eeeeee" stroke="none" font-family="Arial" font-size="24px" font-style="normal" font-weight="normal" text-decoration="none" x="200" y="90">UNREGISTERED</text><text fill="#eeeeee" stroke="none" font-family="Arial" font-size="24px" font-style="normal" font-weight="normal" text-decoration="none" x="200" y="120">UNREGISTERED</text><text fill="#eeeeee" stroke="none" font-family="Arial" font-size="24px" font-style="normal" font-weight="normal" text-decoration="none" x="200" y="150">UNREGISTERED</text><text fill="#eeeeee" stroke="none" font-family="Arial" font-size="24px" font-style="normal" font-weight="normal" text-decoration="none" x="200" y="180">UNREGISTERED</text><text fill="#eeeeee" stroke="none" font-family="Arial" font-size="24px" font-style="normal" font-weight="normal" text-decoration="none" x="200" y="210">UNREGISTERED</text><text fill="#eeeeee" stroke="none" font-family="Arial" font-size="24px" font-style="normal" font-weight="normal" text-decoration="none" x="200" y="240">UNREGISTERED</text><text fill="#eeeeee" stroke="none" font-family="Arial" font-size="24px" font-style="normal" font-weight="normal" text-decoration="none" x="200" y="270">UNREGISTERED</text><text fill="#eeeeee" stroke="none" font-family="Arial" font-size="24px" font-style="normal" font-weight="normal" text-decoration="none" x="200" y="300">UNREGISTERED</text><text fill="#eeeeee" stroke="none" font-family="Arial" font-size="24px" font-style="normal" font-weight="normal" text-decoration="none" x="400" y="0">UNREGISTERED</text><text fill="#eeeeee" stroke="none" font-family="Arial" font-size="24px" font-style="normal" font-weight="normal" text-decoration="none" x="400" y="30">UNREGISTERED</text><text fill="#eeeeee" stroke="none" font-family="Arial" font-size="24px" font-style="normal" font-weight="normal" text-decoration="none" x="400" y="60">UNREGISTERED</text><text fill="#eeeeee" stroke="none" font-family="Arial" font-size="24px" font-style="normal" font-weight="normal" text-decoration="none" x="400" y="90">UNREGISTERED</text><text fill="#eeeeee" stroke="none" font-family="Arial" font-size="24px" font-style="normal" font-weight="normal" text-decoration="none" x="400" y="120">UNREGISTERED</text><text fill="#eeeeee" stroke="none" font-family="Arial" font-size="24px" font-style="normal" font-weight="normal" text-decoration="none" x="400" y="150">UNREGISTERED</text><text fill="#eeeeee" stroke="none" font-family="Arial" font-size="24px" font-style="normal" font-weight="normal" text-decoration="none" x="400" y="180">UNREGISTERED</text><text fill="#eeeeee" stroke="none" font-family="Arial" font-size="24px" font-style="normal" font-weight="normal" text-decoration="none" x="400" y="210">UNREGISTERED</text><text fill="#eeeeee" stroke="none" font-family="Arial" font-size="24px" font-style="normal" font-weight="normal" text-decoration="none" x="400" y="240">UNREGISTERED</text><text fill="#eeeeee" stroke="none" font-family="Arial" font-size="24px" font-style="normal" font-weight="normal" text-decoration="none" x="400" y="270">UNREGISTERED</text><text fill="#eeeeee" stroke="none" font-family="Arial" font-size="24px" font-style="normal" font-weight="normal" text-decoration="none" x="400" y="300">UNREGISTERED</text><text fill="#eeeeee" stroke="none" font-family="Arial" font-size="24px" font-style="normal" font-weight="normal" text-decoration="none" x="600" y="0">UNREGISTERED</text><text fill="#eeeeee" stroke="none" font-family="Arial" font-size="24px" font-style="normal" font-weight="normal" text-decoration="none" x="600" y="30">UNREGISTERED</text><text fill="#eeeeee" stroke="none" font-family="Arial" font-size="24px" font-style="normal" font-weight="normal" text-decoration="none" x="600" y="60">UNREGISTERED</text><text fill="#eeeeee" stroke="none" font-family="Arial" font-size="24px" font-style="normal" font-weight="normal" text-decoration="none" x="600" y="90">UNREGISTERED</text><text fill="#eeeeee" stroke="none" font-family="Arial" font-size="24px" font-style="normal" font-weight="normal" text-decoration="none" x="600" y="120">UNREGISTERED</text><text fill="#eeeeee" stroke="none" font-family="Arial" font-size="24px" font-style="normal" font-weight="normal" text-decoration="none" x="600" y="150">UNREGISTERED</text><text fill="#eeeeee" stroke="none" font-family="Arial" font-size="24px" font-style="normal" font-weight="normal" text-decoration="none" x="600" y="180">UNREGISTERED</text><text fill="#eeeeee" stroke="none" font-family="Arial" font-size="24px" font-style="normal" font-weight="normal" text-decoration="none" x="600" y="210">UNREGISTERED</text><text fill="#eeeeee" stroke="none" font-family="Arial" font-size="24px" font-style="normal" font-weight="normal" text-decoration="none" x="600" y="240">UNREGISTERED</text><text fill="#eeeeee" stroke="none" font-family="Arial" font-size="24px" font-style="normal" font-weight="normal" text-decoration="none" x="600" y="270">UNREGISTERED</text><text fill="#eeeeee" stroke="none" font-family="Arial" font-size="24px" font-style="normal" font-weight="normal" text-decoration="none" x="600" y="300">UNREGISTERED</text><text fill="#eeeeee" stroke="none" font-family="Arial" font-size="24px" font-style="normal" font-weight="normal" text-decoration="none" x="800" y="0">UNREGISTERED</text><text fill="#eeeeee" stroke="none" font-family="Arial" font-size="24px" font-style="normal" font-weight="normal" text-decoration="none" x="800" y="30">UNREGISTERED</text><text fill="#eeeeee" stroke="none" font-family="Arial" font-size="24px" font-style="normal" font-weight="normal" text-decoration="none" x="800" y="60">UNREGISTERED</text><text fill="#eeeeee" stroke="none" font-family="Arial" font-size="24px" font-style="normal" font-weight="normal" text-decoration="none" x="800" y="90">UNREGISTERED</text><text fill="#eeeeee" stroke="none" font-family="Arial" font-size="24px" font-style="normal" font-weight="normal" text-decoration="none" x="800" y="120">UNREGISTERED</text><text fill="#eeeeee" stroke="none" font-family="Arial" font-size="24px" font-style="normal" font-weight="normal" text-decoration="none" x="800" y="150">UNREGISTERED</text><text fill="#eeeeee" stroke="none" font-family="Arial" font-size="24px" font-style="normal" font-weight="normal" text-decoration="none" x="800" y="180">UNREGISTERED</text><text fill="#eeeeee" stroke="none" font-family="Arial" font-size="24px" font-style="normal" font-weight="normal" text-decoration="none" x="800" y="210">UNREGISTERED</text><text fill="#eeeeee" stroke="none" font-family="Arial" font-size="24px" font-style="normal" font-weight="normal" text-decoration="none" x="800" y="240">UNREGISTERED</text><text fill="#eeeeee" stroke="none" font-family="Arial" font-size="24px" font-style="normal" font-weight="normal" text-decoration="none" x="800" y="270">UNREGISTERED</text><text fill="#eeeeee" stroke="none" font-family="Arial" font-size="24px" font-style="normal" font-weight="normal" text-decoration="none" x="800" y="300">UNREGISTERED</text><g transform="translate(-134,-206) scale(1,1)"><path fill="#ffffff" stroke="none" d="M 173.51846075994317 276.23 C 173.51846075994317 270.027841696 178.48370373070682 265 184.608642578125 265 C 190.73358142554318 265 195.69882439630683 270.027841696 195.69882439630683 276.23 C 195.69882439630683 282.43215830400004 190.73358142554318 287.46 184.608642578125 287.46 C 178.48370373070682 287.46 173.51846075994317 282.43215830400004 173.51846075994317 276.23 Z"/></g><g transform="translate(-134,-206) scale(1,1)"><path fill="none" stroke="#000000" d="M 173.51846075994317 276.23 C 173.51846075994317 270.027841696 178.48370373070682 265 184.608642578125 265 C 190.73358142554318 265 195.69882439630683 270.027841696 195.69882439630683 276.23 C 195.69882439630683 282.43215830400004 190.73358142554318 287.46 184.608642578125 287.46 C 178.48370373070682 287.46 173.51846075994317 282.43215830400004 173.51846075994317 276.23 Z" stroke-miterlimit="10"/></g><g transform="translate(-134,-206) scale(1,1)"><path fill="none" stroke="#000000" d="M 184.608642578125 287.46 L 184.608642578125 309.54" stroke-miterlimit="10"/></g><g transform="translate(-134,-206) scale(1,1)"><path fill="none" stroke="#000000" d="M 172.86609712357955 295.74 L 196.35118803267045 295.74" stroke-miterlimit="10"/></g><g transform="translate(-134,-206) scale(1,1)"><path fill="none" stroke="#000000" d="M 184.608642578125 309.54 L 168.2995516690341 332" stroke-miterlimit="10"/></g><g transform="translate(-134,-206) scale(1,1)"><path fill="none" stroke="#000000" d="M 184.608642578125 309.54 L 200.9177334872159 332" stroke-miterlimit="10"/></g><g transform="translate(-134,-206) scale(1,1)"><g><path fill="none" stroke="none"/><text fill="#000000" stroke="none" font-family="Arial" font-size="13px" font-style="normal" font-weight="bold" text-decoration="none" x="163.064697265625" y="350.7099609375">Tourist</text></g></g><g transform="translate(-134,-206) scale(1,1)"><path fill="#C0C0C0" stroke="none" d="M 295 320 C 295 310.6111584 330.1456432 303 373.5 303 C 416.8543568 303 452 310.6111584 452 320 C 452 329.3888416 416.8543568 337 373.5 337 C 330.1456432 337 295 329.3888416 295 320 Z" opacity="0.2"/></g><g transform="translate(-134,-206) scale(1,1)"><path fill="#ffffff" stroke="none" d="M 288 313 C 288 303.6111584 323.1456432 296 366.5 296 C 409.8543568 296 445 303.6111584 445 313 C 445 322.3888416 409.8543568 330 366.5 330 C 323.1456432 330 288 322.3888416 288 313 Z"/></g><g transform="translate(-134,-206) scale(1,1)"><path fill="none" stroke="#000000" d="M 288 313 C 288 303.6111584 323.1456432 296 366.5 296 C 409.8543568 296 445 303.6111584 445 313 C 445 322.3888416 409.8543568 330 366.5 330 C 323.1456432 330 288 322.3888416 288 313 Z" stroke-miterlimit="10"/></g><g transform="translate(-134,-206) scale(1,1)"><g><path fill="none" stroke="none"/><text fill="#000000" stroke="none" font-family="Arial" font-size="13px" font-style="normal" font-weight="bold" text-decoration="none" x="315.563232421875" y="318.2099609375">Access to Portal</text></g></g><g transform="translate(-134,-206) scale(1,1)"><path fill="none" stroke="#000000" d="M 226 311 L 287 312" stroke-miterlimit="10"/></g><g transform="translate(-134,-206) scale(1,1)"><path fill="#C0C0C0" stroke="none" d="M 527 240 C 527 230.6111584 559.2354944 223 599 223 C 638.7645056 223 671 230.6111584 671 240 C 671 249.3888416 638.7645056 257 599 257 C 559.2354944 257 527 249.3888416 527 240 Z" opacity="0.2"/></g><g transform="translate(-134,-206) scale(1,1)"><path fill="#ffffff" stroke="none" d="M 520 233 C 520 223.6111584 552.2354944 216 592 216 C 631.7645056 216 664 223.6111584 664 233 C 664 242.3888416 631.7645056 250 592 250 C 552.2354944 250 520 242.3888416 520 233 Z"/></g><g transform="translate(-134,-206) scale(1,1)"><path fill="none" stroke="#000000" d="M 520 233 C 520 223.6111584 552.2354944 216 592 216 C 631.7645056 216 664 223.6111584 664 233 C 664 242.3888416 631.7645056 250 592 250 C 552.2354944 250 520 242.3888416 520 233 Z" stroke-miterlimit="10"/></g><g transform="translate(-134,-206) scale(1,1)"><g><path fill="none" stroke="none"/><text fill="#000000" stroke="none" font-family="Arial" font-size="13px" font-style="normal" font-weight="bold" text-decoration="none" x="551.543212890625" y="238.2099609375">select Action</text></g></g><g transform="translate(-134,-206) scale(1,1)"><path fill="#C0C0C0" stroke="none" d="M 519 344 C 519 334.6111584 553.9217856 327 597 327 C 640.0782144 327 675 334.6111584 675 344 C 675 353.3888416 640.0782144 361 597 361 C 553.9217856 361 519 353.3888416 519 344 Z" opacity="0.2"/></g><g transform="translate(-134,-206) scale(1,1)"><path fill="#ffffff" stroke="none" d="M 512 337 C 512 327.6111584 546.9217856 320 590 320 C 633.0782144 320 668 327.6111584 668 337 C 668 346.3888416 633.0782144 354 590 354 C 546.9217856 354 512 346.3888416 512 337 Z"/></g><g transform="translate(-134,-206) scale(1,1)"><path fill="none" stroke="#000000" d="M 512 337 C 512 327.6111584 546.9217856 320 590 320 C 633.0782144 320 668 327.6111584 668 337 C 668 346.3888416 633.0782144 354 590 354 C 546.9217856 354 512 346.3888416 512 337 Z" stroke-miterlimit="10"/></g><g transform="translate(-134,-206) scale(1,1)"><g><path fill="none" stroke="none"/><text fill="#000000" stroke="none" font-family="Arial" font-size="13px" font-style="normal" font-weight="bold" text-decoration="none" x="539.41552734375" y="342.2099609375">select Character</text></g></g><g transform="translate(-134,-206) scale(1,1)"><path fill="#C0C0C0" stroke="none" d="M 519 488 C 519 478.6111584 545.862912 471 579 471 C 612.137088 471 639 478.6111584 639 488 C 639 497.3888416 612.137088 505 579 505 C 545.862912 505 519 497.3888416 519 488 Z" opacity="0.2"/></g><g transform="translate(-134,-206) scale(1,1)"><path fill="#ffffff" stroke="none" d="M 512 481 C 512 471.6111584 538.862912 464 572 464 C 605.137088 464 632 471.6111584 632 481 C 632 490.3888416 605.137088 498 572 498 C 538.862912 498 512 490.3888416 512 481 Z"/></g><g transform="translate(-134,-206) scale(1,1)"><path fill="none" stroke="#000000" d="M 512 481 C 512 471.6111584 538.862912 464 572 464 C 605.137088 464 632 471.6111584 632 481 C 632 490.3888416 605.137088 498 572 498 C 538.862912 498 512 490.3888416 512 481 Z" stroke-miterlimit="10"/></g><g transform="translate(-134,-206) scale(1,1)"><g><path fill="none" stroke="none"/><text fill="#000000" stroke="none" font-family="Arial" font-size="13px" font-style="normal" font-weight="bold" text-decoration="none" x="534.063232421875" y="486.2099609375">select Event</text></g></g><g transform="translate(-134,-206) scale(1,1)"><path fill="none" stroke="#000000" d="M 417 295 L 541 251" stroke-miterlimit="10"/></g><g transform="translate(-134,-206) scale(1,1)"><path fill="none" stroke="#000000" d="M 446 322 L 511 329" stroke-miterlimit="10"/></g><g transform="translate(-134,-206) scale(1,1)"><path fill="none" stroke="#000000" d="M 388 331 L 550 463" stroke-miterlimit="10"/></g><g transform="translate(-134,-206) scale(1,1)"><path fill="#C0C0C0" stroke="none" d="M 727 352 C 727 342.6111584 783.6359728 335 853.5 335 C 923.3640272 335 980 342.6111584 980 352 C 980 361.3888416 923.3640272 369 853.5 369 C 783.6359728 369 727 361.3888416 727 352 Z" opacity="0.2"/></g><g transform="translate(-134,-206) scale(1,1)"><path fill="#ffffff" stroke="none" d="M 720 345 C 720 335.6111584 776.6359728 328 846.5 328 C 916.3640272 328 973 335.6111584 973 345 C 973 354.3888416 916.3640272 362 846.5 362 C 776.6359728 362 720 354.3888416 720 345 Z"/></g><g transform="translate(-134,-206) scale(1,1)"><path fill="none" stroke="#000000" d="M 720 345 C 720 335.6111584 776.6359728 328 846.5 328 C 916.3640272 328 973 335.6111584 973 345 C 973 354.3888416 916.3640272 362 846.5 362 C 776.6359728 362 720 354.3888416 720 345 Z" stroke-miterlimit="10"/></g><g transform="translate(-134,-206) scale(1,1)"><g><path fill="none" stroke="none"/><text fill="#000000" stroke="none" font-family="Arial" font-size="13px" font-style="normal" font-weight="bold" text-decoration="none" x="761.60009765625" y="350.2099609375">navigate associated stories</text></g></g><g transform="translate(-134,-206) scale(1,1)"><path fill="none" stroke="#000000" d="M 633 251 L 805 327" stroke-miterlimit="10"/></g><g transform="translate(-134,-206) scale(1,1)"><path fill="none" stroke="#000000" d="M 669 339 L 719 341" stroke-miterlimit="10"/></g><g transform="translate(-134,-206) scale(1,1)"><path fill="none" stroke="#000000" d="M 608 463 L 810 363" stroke-miterlimit="10"/></g></g></svg>