<svg version="1.1" xmlns="http://www.w3.org/2000/svg" xmlns:xlink="http://www.w3.org/1999/xlink" width="99.458984375" height="122"><defs/><g><text fill="#eeeeee" stroke="none" font-family="Arial" font-size="24px" font-style="normal" font-weight="normal" text-decoration="none" x="0" y="0">UNREGISTERED</text><text fill="#eeeeee" stroke="none" font-family="Arial" font-size="24px" font-style="normal" font-weight="normal" text-decoration="none" x="0" y="30">UNREGISTERED</text><text fill="#eeeeee" stroke="none" font-family="Arial" font-size="24px" font-style="normal" font-weight="normal" text-decoration="none" x="0" y="60">UNREGISTERED</text><text fill="#eeeeee" stroke="none" font-family="Arial" font-size="24px" font-style="normal" font-weight="normal" text-decoration="none" x="0" y="90">UNREGISTERED</text><text fill="#eeeeee" stroke="none" font-family="Arial" font-size="24px" font-style="normal" font-weight="normal" text-decoration="none" x="0" y="120">UNREGISTERED</text><g transform="translate(-278,-342) scale(1,1)"><rect fill="#C0C0C0" stroke="none" x="295" y="359" width="79.458984375" height="102" opacity="0.2"/></g><g transform="translate(-278,-342) scale(1,1)"><rect fill="#ffffff" stroke="none" x="288" y="352" width="79.458984375" height="102"/></g><g transform="translate(-278,-342) scale(1,1)"><path fill="none" stroke="#000000" d="M 288 352 L 367.458984375 352 L 367.458984375 454 L 288 454 L 288 352 Z Z" stroke-miterlimit="10"/></g><g transform="translate(-278,-342) scale(1,1)"><path fill="none" stroke="#000000" d="M 288 377 L 367.458984375 377" stroke-miterlimit="10"/></g><g transform="translate(-278,-342) scale(1,1)"><path fill="none" stroke="#000000" d="M 288 445 L 367.458984375 445" stroke-miterlimit="10"/></g><g transform="translate(-278,-342) scale(1,1)"><g><path fill="none" stroke="none"/><text fill="#000000" stroke="none" font-family="Arial" font-size="13px" font-style="normal" font-weight="bold" text-decoration="none" x="316.5322265625" y="369.53857421875">POI</text></g></g><g transform="translate(-278,-342) scale(1,1)"><g><path fill="none" stroke="none"/><text fill="#000000" stroke="none" font-family="Arial" font-size="13px" font-style="normal" font-weight="normal" text-decoration="none" x="293" y="391.75146484375">+name</text></g></g><g transform="translate(-278,-342) scale(1,1)"><g><path fill="none" stroke="none"/><text fill="#000000" stroke="none" font-family="Arial" font-size="13px" font-style="normal" font-weight="normal" text-decoration="none" x="293" y="407.7099609375">+description</text></g></g><g transform="translate(-278,-342) scale(1,1)"><g><path fill="none" stroke="none"/><text fill="#000000" stroke="none" font-family="Arial" font-size="13px" font-style="normal" font-weight="normal" text-decoration="none" x="293" y="422.7099609375">+lat</text></g></g><g transform="translate(-278,-342) scale(1,1)"><g><path fill="none" stroke="none"/><text fill="#000000" stroke="none" font-family="Arial" font-size="13px" font-style="normal" font-weight="normal" text-decoration="none" x="293" y="437.7099609375">+long</text></g></g></g></svg>