<svg version="1.1" xmlns="http://www.w3.org/2000/svg" xmlns:xlink="http://www.w3.org/1999/xlink" width="817.71533203125" height="590"><defs/><g><text fill="#eeeeee" stroke="none" font-family="Arial" font-size="24px" font-style="normal" font-weight="normal" text-decoration="none" x="0" y="0">UNREGISTERED</text><text fill="#eeeeee" stroke="none" font-family="Arial" font-size="24px" font-style="normal" font-weight="normal" text-decoration="none" x="0" y="30">UNREGISTERED</text><text fill="#eeeeee" stroke="none" font-family="Arial" font-size="24px" font-style="normal" font-weight="normal" text-decoration="none" x="0" y="60">UNREGISTERED</text><text fill="#eeeeee" stroke="none" font-family="Arial" font-size="24px" font-style="normal" font-weight="normal" text-decoration="none" x="0" y="90">UNREGISTERED</text><text fill="#eeeeee" stroke="none" font-family="Arial" font-size="24px" font-style="normal" font-weight="normal" text-decoration="none" x="0" y="120">UNREGISTERED</text><text fill="#eeeeee" stroke="none" font-family="Arial" font-size="24px" font-style="normal" font-weight="normal" text-decoration="none" x="0" y="150">UNREGISTERED</text><text fill="#eeeeee" stroke="none" font-family="Arial" font-size="24px" font-style="normal" font-weight="normal" text-decoration="none" x="0" y="180">UNREGISTERED</text><text fill="#eeeeee" stroke="none" font-family="Arial" font-size="24px" font-style="normal" font-weight="normal" text-decoration="none" x="0" y="210">UNREGISTERED</text><text fill="#eeeeee" stroke="none" font-family="Arial" font-size="24px" font-style="normal" font-weight="normal" text-decoration="none" x="0" y="240">UNREGISTERED</text><text fill="#eeeeee" stroke="none" font-family="Arial" font-size="24px" font-style="normal" font-weight="normal" text-decoration="none" x="0" y="270">UNREGISTERED</text><text fill="#eeeeee" stroke="none" font-family="Arial" font-size="24px" font-style="normal" font-weight="normal" text-decoration="none" x="0" y="300">UNREGISTERED</text><text fill="#eeeeee" stroke="none" font-family="Arial" font-size="24px" font-style="normal" font-weight="normal" text-decoration="none" x="0" y="330">UNREGISTERED</text><text fill="#eeeeee" stroke="none" font-family="Arial" font-size="24px" font-style="normal" font-weight="normal" text-decoration="none" x="0" y="360">UNREGISTERED</text><text fill="#eeeeee" stroke="none" font-family="Arial" font-size="24px" font-style="normal" font-weight="normal" text-decoration="none" x="0" y="390">UNREGISTERED</text><text fill="#eeeeee" stroke="none" font-family="Arial" font-size="24px" font-style="normal" font-weight="normal" text-decoration="none" x="0" y="420">UNREGISTERED</text><text fill="#eeeeee" stroke="none" font-family="Arial" font-size="24px" font-style="normal" font-weight="normal" text-decoration="none" x="0" y="450">UNREGISTERED</text><text fill="#eeeeee" stroke="none" font-family="Arial" font-size="24px" font-style="normal" font-weight="normal" text-decoration="none" x="0" y="480">UNREGISTERED</text><text fill="#eeeeee" stroke="none" font-family="Arial" font-size="24px" font-style="normal" font-weight="normal" text-decoration="none" x="0" y="510">UNREGISTERED</text><text fill="#eeeeee" stroke="none" font-family="Arial" font-size="24px" font-style="normal" font-weight="normal" text-decoration="none" x="0" y="540">UNREGISTERED</text><text fill="#eeeeee" stroke="none" font-family="Arial" font-size="24px" font-style="normal" font-weight="normal" text-decoration="none" x="0" y="570">UNREGISTERED</text><text fill="#eeeeee" stroke="none" font-family="Arial" font-size="24px" font-style="normal" font-weight="normal" text-decoration="none" x="200" y="0">UNREGISTERED</text><text fill="#eeeeee" stroke="none" font-family="Arial" font-size="24px" font-style="normal" font-weight="normal" text-decoration="none" x="200" y="30">UNREGISTERED</text><text fill="#eeeeee" stroke="none" font-family="Arial" font-size="24px" font-style="normal" font-weight="normal" text-decoration="none" x="200" y="60">UNREGISTERED</text><text fill="#eeeeee" stroke="none" font-family="Arial" font-size="24px" font-style="normal" font-weight="normal" text-decoration="none" x="200" y="90">UNREGISTERED</text><text fill="#eeeeee" stroke="none" font-family="Arial" font-size="24px" font-style="normal" font-weight="normal" text-decoration="none" x="200" y="120">UNREGISTERED</text><text fill="#eeeeee" stroke="none" font-family="Arial" font-size="24px" font-style="normal" font-weight="normal" text-decoration="none" x="200" y="150">UNREGISTERED</text><text fill="#eeeeee" stroke="none" font-family="Arial" font-size="24px" font-style="normal" font-weight="normal" text-decoration="none" x="200" y="180">UNREGISTERED</text><text fill="#eeeeee" stroke="none" font-family="Arial" font-size="24px" font-style="normal" font-weight="normal" text-decoration="none" x="200" y="210">UNREGISTERED</text><text fill="#eeeeee" stroke="none" font-family="Arial" font-size="24px" font-style="normal" font-weight="normal" text-decoration="none" x="200" y="240">UNREGISTERED</text><text fill="#eeeeee" stroke="none" font-family="Arial" font-size="24px" font-style="normal" font-weight="normal" text-decoration="none" x="200" y="270">UNREGISTERED</text><text fill="#eeeeee" stroke="none" font-family="Arial" font-size="24px" font-style="normal" font-weight="normal" text-decoration="none" x="200" y="300">UNREGISTERED</text><text fill="#eeeeee" stroke="none" font-family="Arial" font-size="24px" font-style="normal" font-weight="normal" text-decoration="none" x="200" y="330">UNREGISTERED</text><text fill="#eeeeee" stroke="none" font-family="Arial" font-size="24px" font-style="normal" font-weight="normal" text-decoration="none" x="200" y="360">UNREGISTERED</text><text fill="#eeeeee" stroke="none" font-family="Arial" font-size="24px" font-style="normal" font-weight="normal" text-decoration="none" x="200" y="390">UNREGISTERED</text><text fill="#eeeeee" stroke="none" font-family="Arial" font-size="24px" font-style="normal" font-weight="normal" text-decoration="none" x="200" y="420">UNREGISTERED</text><text fill="#eeeeee" stroke="none" font-family="Arial" font-size="24px" font-style="normal" font-weight="normal" text-decoration="none" x="200" y="450">UNREGISTERED</text><text fill="#eeeeee" stroke="none" font-family="Arial" font-size="24px" font-style="normal" font-weight="normal" text-decoration="none" x="200" y="480">UNREGISTERED</text><text fill="#eeeeee" stroke="none" font-family="Arial" font-size="24px" font-style="normal" font-weight="normal" text-decoration="none" x="200" y="510">UNREGISTERED</text><text fill="#eeeeee" stroke="none" font-family="Arial" font-size="24px" font-style="normal" font-weight="normal" text-decoration="none" x="200" y="540">UNREGISTERED</text><text fill="#eeeeee" stroke="none" font-family="Arial" font-size="24px" font-style="normal" font-weight="normal" text-decoration="none" x="200" y="570">UNREGISTERED</text><text fill="#eeeeee" stroke="none" font-family="Arial" font-size="24px" font-style="normal" font-weight="normal" text-decoration="none" x="400" y="0">UNREGISTERED</text><text fill="#eeeeee" stroke="none" font-family="Arial" font-size="24px" font-style="normal" font-weight="normal" text-decoration="none" x="400" y="30">UNREGISTERED</text><text fill="#eeeeee" stroke="none" font-family="Arial" font-size="24px" font-style="normal" font-weight="normal" text-decoration="none" x="400" y="60">UNREGISTERED</text><text fill="#eeeeee" stroke="none" font-family="Arial" font-size="24px" font-style="normal" font-weight="normal" text-decoration="none" x="400" y="90">UNREGISTERED</text><text fill="#eeeeee" stroke="none" font-family="Arial" font-size="24px" font-style="normal" font-weight="normal" text-decoration="none" x="400" y="120">UNREGISTERED</text><text fill="#eeeeee" stroke="none" font-family="Arial" font-size="24px" font-style="normal" font-weight="normal" text-decoration="none" x="400" y="150">UNREGISTERED</text><text fill="#eeeeee" stroke="none" font-family="Arial" font-size="24px" font-style="normal" font-weight="normal" text-decoration="none" x="400" y="180">UNREGISTERED</text><text fill="#eeeeee" stroke="none" font-family="Arial" font-size="24px" font-style="normal" font-weight="normal" text-decoration="none" x="400" y="210">UNREGISTERED</text><text fill="#eeeeee" stroke="none" font-family="Arial" font-size="24px" font-style="normal" font-weight="normal" text-decoration="none" x="400" y="240">UNREGISTERED</text><text fill="#eeeeee" stroke="none" font-family="Arial" font-size="24px" font-style="normal" font-weight="normal" text-decoration="none" x="400" y="270">UNREGISTERED</text><text fill="#eeeeee" stroke="none" font-family="Arial" font-size="24px" font-style="normal" font-weight="normal" text-decoration="none" x="400" y="300">UNREGISTERED</text><text fill="#eeeeee" stroke="none" font-family="Arial" font-size="24px" font-style="normal" font-weight="normal" text-decoration="none" x="400" y="330">UNREGISTERED</text><text fill="#eeeeee" stroke="none" font-family="Arial" font-size="24px" font-style="normal" font-weight="normal" text-decoration="none" x="400" y="360">UNREGISTERED</text><text fill="#eeeeee" stroke="none" font-family="Arial" font-size="24px" font-style="normal" font-weight="normal" text-decoration="none" x="400" y="390">UNREGISTERED</text><text fill="#eeeeee" stroke="none" font-family="Arial" font-size="24px" font-style="normal" font-weight="normal" text-decoration="none" x="400" y="420">UNREGISTERED</text><text fill="#eeeeee" stroke="none" font-family="Arial" font-size="24px" font-style="normal" font-weight="normal" text-decoration="none" x="400" y="450">UNREGISTERED</text><text fill="#eeeeee" stroke="none" font-family="Arial" font-size="24px" font-style="normal" font-weight="normal" text-decoration="none" x="400" y="480">UNREGISTERED</text><text fill="#eeeeee" stroke="none" font-family="Arial" font-size="24px" font-style="normal" font-weight="normal" text-decoration="none" x="400" y="510">UNREGISTERED</text><text fill="#eeeeee" stroke="none" font-family="Arial" font-size="24px" font-style="normal" font-weight="normal" text-decoration="none" x="400" y="540">UNREGISTERED</text><text fill="#eeeeee" stroke="none" font-family="Arial" font-size="24px" font-style="normal" font-weight="normal" text-decoration="none" x="400" y="570">UNREGISTERED</text><text fill="#eeeeee" stroke="none" font-family="Arial" font-size="24px" font-style="normal" font-weight="normal" text-decoration="none" x="600" y="0">UNREGISTERED</text><text fill="#eeeeee" stroke="none" font-family="Arial" font-size="24px" font-style="normal" font-weight="normal" text-decoration="none" x="600" y="30">UNREGISTERED</text><text fill="#eeeeee" stroke="none" font-family="Arial" font-size="24px" font-style="normal" font-weight="normal" text-decoration="none" x="600" y="60">UNREGISTERED</text><text fill="#eeeeee" stroke="none" font-family="Arial" font-size="24px" font-style="normal" font-weight="normal" text-decoration="none" x="600" y="90">UNREGISTERED</text><text fill="#eeeeee" stroke="none" font-family="Arial" font-size="24px" font-style="normal" font-weight="normal" text-decoration="none" x="600" y="120">UNREGISTERED</text><text fill="#eeeeee" stroke="none" font-family="Arial" font-size="24px" font-style="normal" font-weight="normal" text-decoration="none" x="600" y="150">UNREGISTERED</text><text fill="#eeeeee" stroke="none" font-family="Arial" font-size="24px" font-style="normal" font-weight="normal" text-decoration="none" x="600" y="180">UNREGISTERED</text><text fill="#eeeeee" stroke="none" font-family="Arial" font-size="24px" font-style="normal" font-weight="normal" text-decoration="none" x="600" y="210">UNREGISTERED</text><text fill="#eeeeee" stroke="none" font-family="Arial" font-size="24px" font-style="normal" font-weight="normal" text-decoration="none" x="600" y="240">UNREGISTERED</text><text fill="#eeeeee" stroke="none" font-family="Arial" font-size="24px" font-style="normal" font-weight="normal" text-decoration="none" x="600" y="270">UNREGISTERED</text><text fill="#eeeeee" stroke="none" font-family="Arial" font-size="24px" font-style="normal" font-weight="normal" text-decoration="none" x="600" y="300">UNREGISTERED</text><text fill="#eeeeee" stroke="none" font-family="Arial" font-size="24px" font-style="normal" font-weight="normal" text-decoration="none" x="600" y="330">UNREGISTERED</text><text fill="#eeeeee" stroke="none" font-family="Arial" font-size="24px" font-style="normal" font-weight="normal" text-decoration="none" x="600" y="360">UNREGISTERED</text><text fill="#eeeeee" stroke="none" font-family="Arial" font-size="24px" font-style="normal" font-weight="normal" text-decoration="none" x="600" y="390">UNREGISTERED</text><text fill="#eeeeee" stroke="none" font-family="Arial" font-size="24px" font-style="normal" font-weight="normal" text-decoration="none" x="600" y="420">UNREGISTERED</text><text fill="#eeeeee" stroke="none" font-family="Arial" font-size="24px" font-style="normal" font-weight="normal" text-decoration="none" x="600" y="450">UNREGISTERED</text><text fill="#eeeeee" stroke="none" font-family="Arial" font-size="24px" font-style="normal" font-weight="normal" text-decoration="none" x="600" y="480">UNREGISTERED</text><text fill="#eeeeee" stroke="none" font-family="Arial" font-size="24px" font-style="normal" font-weight="normal" text-decoration="none" x="600" y="510">UNREGISTERED</text><text fill="#eeeeee" stroke="none" font-family="Arial" font-size="24px" font-style="normal" font-weight="normal" text-decoration="none" x="600" y="540">UNREGISTERED</text><text fill="#eeeeee" stroke="none" font-family="Arial" font-size="24px" font-style="normal" font-weight="normal" text-decoration="none" x="600" y="570">UNREGISTERED</text><text fill="#eeeeee" stroke="none" font-family="Arial" font-size="24px" font-style="normal" font-weight="normal" text-decoration="none" x="800" y="0">UNREGISTERED</text><text fill="#eeeeee" stroke="none" font-family="Arial" font-size="24px" font-style="normal" font-weight="normal" text-decoration="none" x="800" y="30">UNREGISTERED</text><text fill="#eeeeee" stroke="none" font-family="Arial" font-size="24px" font-style="normal" font-weight="normal" text-decoration="none" x="800" y="60">UNREGISTERED</text><text fill="#eeeeee" stroke="none" font-family="Arial" font-size="24px" font-style="normal" font-weight="normal" text-decoration="none" x="800" y="90">UNREGISTERED</text><text fill="#eeeeee" stroke="none" font-family="Arial" font-size="24px" font-style="normal" font-weight="normal" text-decoration="none" x="800" y="120">UNREGISTERED</text><text fill="#eeeeee" stroke="none" font-family="Arial" font-size="24px" font-style="normal" font-weight="normal" text-decoration="none" x="800" y="150">UNREGISTERED</text><text fill="#eeeeee" stroke="none" font-family="Arial" font-size="24px" font-style="normal" font-weight="normal" text-decoration="none" x="800" y="180">UNREGISTERED</text><text fill="#eeeeee" stroke="none" font-family="Arial" font-size="24px" font-style="normal" font-weight="normal" text-decoration="none" x="800" y="210">UNREGISTERED</text><text fill="#eeeeee" stroke="none" font-family="Arial" font-size="24px" font-style="normal" font-weight="normal" text-decoration="none" x="800" y="240">UNREGISTERED</text><text fill="#eeeeee" stroke="none" font-family="Arial" font-size="24px" font-style="normal" font-weight="normal" text-decoration="none" x="800" y="270">UNREGISTERED</text><text fill="#eeeeee" stroke="none" font-family="Arial" font-size="24px" font-style="normal" font-weight="normal" text-decoration="none" x="800" y="300">UNREGISTERED</text><text fill="#eeeeee" stroke="none" font-family="Arial" font-size="24px" font-style="normal" font-weight="normal" text-decoration="none" x="800" y="330">UNREGISTERED</text><text fill="#eeeeee" stroke="none" font-family="Arial" font-size="24px" font-style="normal" font-weight="normal" text-decoration="none" x="800" y="360">UNREGISTERED</text><text fill="#eeeeee" stroke="none" font-family="Arial" font-size="24px" font-style="normal" font-weight="normal" text-decoration="none" x="800" y="390">UNREGISTERED</text><text fill="#eeeeee" stroke="none" font-family="Arial" font-size="24px" font-style="normal" font-weight="normal" text-decoration="none" x="800" y="420">UNREGISTERED</text><text fill="#eeeeee" stroke="none" font-family="Arial" font-size="24px" font-style="normal" font-weight="normal" text-decoration="none" x="800" y="450">UNREGISTERED</text><text fill="#eeeeee" stroke="none" font-family="Arial" font-size="24px" font-style="normal" font-weight="normal" text-decoration="none" x="800" y="480">UNREGISTERED</text><text fill="#eeeeee" stroke="none" font-family="Arial" font-size="24px" font-style="normal" font-weight="normal" text-decoration="none" x="800" y="510">UNREGISTERED</text><text fill="#eeeeee" stroke="none" font-family="Arial" font-size="24px" font-style="normal" font-weight="normal" text-decoration="none" x="800" y="540">UNREGISTERED</text><text fill="#eeeeee" stroke="none" font-family="Arial" font-size="24px" font-style="normal" font-weight="normal" text-decoration="none" x="800" y="570">UNREGISTERED</text><g transform="translate(-166,-86) scale(1,1)"><path fill="#ffffff" stroke="none" d="M 248.26066867897728 273.68 C 248.26066867897728 268.886167936 252.1465110039227 265 256.93994140625 265 C 261.73337180857726 265 265.61921413352275 268.886167936 265.61921413352275 273.68 C 265.61921413352275 278.473832064 261.73337180857726 282.36 256.93994140625 282.36 C 252.1465110039227 282.36 248.26066867897728 278.473832064 248.26066867897728 273.68 Z"/></g><g transform="translate(-166,-86) scale(1,1)"><path fill="none" stroke="#000000" d="M 248.26066867897728 273.68 C 248.26066867897728 268.886167936 252.1465110039227 265 256.93994140625 265 C 261.73337180857726 265 265.61921413352275 268.886167936 265.61921413352275 273.68 C 265.61921413352275 278.473832064 261.73337180857726 282.36 256.93994140625 282.36 C 252.1465110039227 282.36 248.26066867897728 278.473832064 248.26066867897728 273.68 Z" stroke-miterlimit="10"/></g><g transform="translate(-166,-86) scale(1,1)"><path fill="none" stroke="#000000" d="M 256.93994140625 282.36 L 256.93994140625 299.64" stroke-miterlimit="10"/></g><g transform="translate(-166,-86) scale(1,1)"><path fill="none" stroke="#000000" d="M 247.75012322443183 288.84 L 266.12975958806817 288.84" stroke-miterlimit="10"/></g><g transform="translate(-166,-86) scale(1,1)"><path fill="none" stroke="#000000" d="M 256.93994140625 299.64 L 244.17630504261365 317" stroke-miterlimit="10"/></g><g transform="translate(-166,-86) scale(1,1)"><path fill="none" stroke="#000000" d="M 256.93994140625 299.64 L 269.70357776988635 317" stroke-miterlimit="10"/></g><g transform="translate(-166,-86) scale(1,1)"><g><path fill="none" stroke="none"/><text fill="#000000" stroke="none" font-family="Arial" font-size="13px" font-style="normal" font-weight="bold" text-decoration="none" x="212.5" y="335.7099609375">Travel Planner</text></g></g><g transform="translate(-166,-86) scale(1,1)"><path fill="#C0C0C0" stroke="none" d="M 367 224 C 367 214.6111584 402.81721600000003 207 447 207 C 491.18278399999997 207 527 214.6111584 527 224 C 527 233.3888416 491.18278399999997 241 447 241 C 402.81721600000003 241 367 233.3888416 367 224 Z" opacity="0.2"/></g><g transform="translate(-166,-86) scale(1,1)"><path fill="#ffffff" stroke="none" d="M 360 217 C 360 207.6111584 395.81721600000003 200 440 200 C 484.18278399999997 200 520 207.6111584 520 217 C 520 226.3888416 484.18278399999997 234 440 234 C 395.81721600000003 234 360 226.3888416 360 217 Z"/></g><g transform="translate(-166,-86) scale(1,1)"><path fill="none" stroke="#000000" d="M 360 217 C 360 207.6111584 395.81721600000003 200 440 200 C 484.18278399999997 200 520 207.6111584 520 217 C 520 226.3888416 484.18278399999997 234 440 234 C 395.81721600000003 234 360 226.3888416 360 217 Z" stroke-miterlimit="10"/></g><g transform="translate(-166,-86) scale(1,1)"><g><path fill="none" stroke="none"/><text fill="#000000" stroke="none" font-family="Arial" font-size="13px" font-style="normal" font-weight="bold" text-decoration="none" x="388" y="222.2099609375">Show Start Point</text></g></g><g transform="translate(-166,-86) scale(1,1)"><path fill="#C0C0C0" stroke="none" d="M 383 280 C 383 270.6111584 413.8923488 263 452 263 C 490.1076512 263 521 270.6111584 521 280 C 521 289.3888416 490.1076512 297 452 297 C 413.8923488 297 383 289.3888416 383 280 Z" opacity="0.2"/></g><g transform="translate(-166,-86) scale(1,1)"><path fill="#ffffff" stroke="none" d="M 376 273 C 376 263.6111584 406.8923488 256 445 256 C 483.1076512 256 514 263.6111584 514 273 C 514 282.3888416 483.1076512 290 445 290 C 406.8923488 290 376 282.3888416 376 273 Z"/></g><g transform="translate(-166,-86) scale(1,1)"><path fill="none" stroke="#000000" d="M 376 273 C 376 263.6111584 406.8923488 256 445 256 C 483.1076512 256 514 263.6111584 514 273 C 514 282.3888416 483.1076512 290 445 290 C 406.8923488 290 376 282.3888416 376 273 Z" stroke-miterlimit="10"/></g><g transform="translate(-166,-86) scale(1,1)"><g><path fill="none" stroke="none"/><text fill="#000000" stroke="none" font-family="Arial" font-size="13px" font-style="normal" font-weight="bold" text-decoration="none" x="400.56640625" y="278.2099609375">List Itineraries</text></g></g><g transform="translate(-166,-86) scale(1,1)"><path fill="#C0C0C0" stroke="none" d="M 399 352 C 399 342.6111584 421.6096176 335 449.5 335 C 477.3903824 335 500 342.6111584 500 352 C 500 361.3888416 477.3903824 369 449.5 369 C 421.6096176 369 399 361.3888416 399 352 Z" opacity="0.2"/></g><g transform="translate(-166,-86) scale(1,1)"><path fill="#ffffff" stroke="none" d="M 392 345 C 392 335.6111584 414.6096176 328 442.5 328 C 470.3903824 328 493 335.6111584 493 345 C 493 354.3888416 470.3903824 362 442.5 362 C 414.6096176 362 392 354.3888416 392 345 Z"/></g><g transform="translate(-166,-86) scale(1,1)"><path fill="none" stroke="#000000" d="M 392 345 C 392 335.6111584 414.6096176 328 442.5 328 C 470.3903824 328 493 335.6111584 493 345 C 493 354.3888416 470.3903824 362 442.5 362 C 414.6096176 362 392 354.3888416 392 345 Z" stroke-miterlimit="10"/></g><g transform="translate(-166,-86) scale(1,1)"><g><path fill="none" stroke="none"/><text fill="#000000" stroke="none" font-family="Arial" font-size="13px" font-style="normal" font-weight="bold" text-decoration="none" x="414.325927734375" y="350.2099609375">List POIs</text></g></g><g transform="translate(-166,-86) scale(1,1)"><path fill="none" stroke="#000000" d="M 444 291 L 443 327" stroke-miterlimit="10" stroke-dasharray="3"/></g><g transform="translate(-166,-86) scale(1,1)"><path fill="none" stroke="#000000" d="M 439.0742930232062 316.72435769733335 L 443 327 L 447.49008232902077 316.9581296224948" stroke-miterlimit="10"/></g><g transform="translate(-166,-86) scale(1,1)"><g><path fill="none" stroke="none"/><text fill="#000000" stroke="none" font-family="Arial" font-size="13px" font-style="normal" font-weight="normal" text-decoration="none" x="444.5" y="312.7099609375">«include»</text></g></g><g transform="translate(-166,-86) scale(1,1)"><path fill="none" stroke="#000000" d="M 307 279 L 401 235" stroke-miterlimit="10"/></g><g transform="translate(-166,-86) scale(1,1)"><path fill="none" stroke="#000000" d="M 307 295 L 375 284" stroke-miterlimit="10"/></g><g transform="translate(-166,-86) scale(1,1)"><path fill="none" stroke="#000000" d="M 307 314 L 391 333" stroke-miterlimit="10"/></g><g transform="translate(-166,-86) scale(1,1)"><path fill="#ffffff" stroke="none" d="M 875.7674841974432 108.23 C 875.7674841974432 102.027841696 880.7327271682068 97 886.857666015625 97 C 892.9826048630432 97 897.9478478338068 102.027841696 897.9478478338068 108.23 C 897.9478478338068 114.43215830400001 892.9826048630432 119.46000000000001 886.857666015625 119.46000000000001 C 880.7327271682068 119.46000000000001 875.7674841974432 114.43215830400001 875.7674841974432 108.23 Z"/></g><g transform="translate(-166,-86) scale(1,1)"><path fill="none" stroke="#000000" d="M 875.7674841974432 108.23 C 875.7674841974432 102.027841696 880.7327271682068 97 886.857666015625 97 C 892.9826048630432 97 897.9478478338068 102.027841696 897.9478478338068 108.23 C 897.9478478338068 114.43215830400001 892.9826048630432 119.46000000000001 886.857666015625 119.46000000000001 C 880.7327271682068 119.46000000000001 875.7674841974432 114.43215830400001 875.7674841974432 108.23 Z" stroke-miterlimit="10"/></g><g transform="translate(-166,-86) scale(1,1)"><path fill="none" stroke="#000000" d="M 886.857666015625 119.46000000000001 L 886.857666015625 141.54" stroke-miterlimit="10"/></g><g transform="translate(-166,-86) scale(1,1)"><path fill="none" stroke="#000000" d="M 875.1151205610796 127.74 L 898.6002114701704 127.74" stroke-miterlimit="10"/></g><g transform="translate(-166,-86) scale(1,1)"><path fill="none" stroke="#000000" d="M 886.857666015625 141.54 L 870.5485751065341 164" stroke-miterlimit="10"/></g><g transform="translate(-166,-86) scale(1,1)"><path fill="none" stroke="#000000" d="M 886.857666015625 141.54 L 903.1667569247159 164" stroke-miterlimit="10"/></g><g transform="translate(-166,-86) scale(1,1)"><g><path fill="none" stroke="none"/><text fill="#000000" stroke="none" font-family="Arial" font-size="13px" font-style="normal" font-weight="bold" text-decoration="none" x="872.404052734375" y="182.471923828125">User</text></g></g><g transform="translate(-166,-86) scale(1,1)"><path fill="#C0C0C0" stroke="none" d="M 591 280 C 591 270.6111584 629.7273648 263 677.5 263 C 725.2726352 263 764 270.6111584 764 280 C 764 289.3888416 725.2726352 297 677.5 297 C 629.7273648 297 591 289.3888416 591 280 Z" opacity="0.2"/></g><g transform="translate(-166,-86) scale(1,1)"><path fill="#ffffff" stroke="none" d="M 584 273 C 584 263.6111584 622.7273648 256 670.5 256 C 718.2726352 256 757 263.6111584 757 273 C 757 282.3888416 718.2726352 290 670.5 290 C 622.7273648 290 584 282.3888416 584 273 Z"/></g><g transform="translate(-166,-86) scale(1,1)"><path fill="none" stroke="#000000" d="M 584 273 C 584 263.6111584 622.7273648 256 670.5 256 C 718.2726352 256 757 263.6111584 757 273 C 757 282.3888416 718.2726352 290 670.5 290 C 622.7273648 290 584 282.3888416 584 273 Z" stroke-miterlimit="10"/></g><g transform="translate(-166,-86) scale(1,1)"><g><path fill="none" stroke="none"/><text fill="#000000" stroke="none" font-family="Arial" font-size="13px" font-style="normal" font-weight="bold" text-decoration="none" x="613.786865234375" y="278.2099609375">Choose Itineraries</text></g></g><g transform="translate(-166,-86) scale(1,1)"><path fill="#ffffff" stroke="none" d="M 832.4093503196023 281.68 C 832.4093503196023 276.886167936 836.2951926445477 273 841.088623046875 273 C 845.8820534492023 273 849.7678957741477 276.886167936 849.7678957741477 281.68 C 849.7678957741477 286.473832064 845.8820534492023 290.36 841.088623046875 290.36 C 836.2951926445477 290.36 832.4093503196023 286.473832064 832.4093503196023 281.68 Z"/></g><g transform="translate(-166,-86) scale(1,1)"><path fill="none" stroke="#000000" d="M 832.4093503196023 281.68 C 832.4093503196023 276.886167936 836.2951926445477 273 841.088623046875 273 C 845.8820534492023 273 849.7678957741477 276.886167936 849.7678957741477 281.68 C 849.7678957741477 286.473832064 845.8820534492023 290.36 841.088623046875 290.36 C 836.2951926445477 290.36 832.4093503196023 286.473832064 832.4093503196023 281.68 Z" stroke-miterlimit="10"/></g><g transform="translate(-166,-86) scale(1,1)"><path fill="none" stroke="#000000" d="M 841.088623046875 290.36 L 841.088623046875 307.64" stroke-miterlimit="10"/></g><g transform="translate(-166,-86) scale(1,1)"><path fill="none" stroke="#000000" d="M 831.8988048650568 296.84 L 850.2784412286932 296.84" stroke-miterlimit="10"/></g><g transform="translate(-166,-86) scale(1,1)"><path fill="none" stroke="#000000" d="M 841.088623046875 307.64 L 828.3249866832386 325" stroke-miterlimit="10"/></g><g transform="translate(-166,-86) scale(1,1)"><path fill="none" stroke="#000000" d="M 841.088623046875 307.64 L 853.8522594105114 325" stroke-miterlimit="10"/></g><g transform="translate(-166,-86) scale(1,1)"><g><path fill="none" stroke="none"/><text fill="#000000" stroke="none" font-family="Arial" font-size="13px" font-style="normal" font-weight="bold" text-decoration="none" x="820.979248046875" y="343.7099609375">Visitor</text></g></g><g transform="translate(-166,-86) scale(1,1)"><path fill="none" stroke="#000000" d="M 852 271 L 873 191" stroke-miterlimit="10"/></g><g transform="translate(-166,-86) scale(1,1)"><path fill="#FFFFFF" stroke="none" d="M 875.9825835938434 212.79688498629417 L 873 191 L 859.6962799021106 208.52173026721428"/></g><g transform="translate(-166,-86) scale(1,1)"><path fill="none" stroke="#000000" d="M 875.9825835938434 212.79688498629417 L 873 191 L 859.6962799021106 208.52173026721428 L 875.9825835938434 212.79688498629417" stroke-miterlimit="10"/></g><g transform="translate(-166,-86) scale(1,1)"><path fill="none" stroke="#000000" d="M 583 273 L 515 273" stroke-miterlimit="10" stroke-dasharray="3"/></g><g transform="translate(-166,-86) scale(1,1)"><path fill="none" stroke="#000000" d="M 525.1626748576241 268.790482243984 L 515 273 L 525.1626748576241 277.209517756016" stroke-miterlimit="10"/></g><g transform="translate(-166,-86) scale(1,1)"><path fill="none" stroke="#000000" d="M 815 305 L 751 291" stroke-miterlimit="10"/></g><g transform="translate(-166,-86) scale(1,1)"><path fill="#C0C0C0" stroke="none" d="M 607 344 C 607 334.6111584 635.8776304 327 671.5 327 C 707.1223696 327 736 334.6111584 736 344 C 736 353.3888416 707.1223696 361 671.5 361 C 635.8776304 361 607 353.3888416 607 344 Z" opacity="0.2"/></g><g transform="translate(-166,-86) scale(1,1)"><path fill="#ffffff" stroke="none" d="M 600 337 C 600 327.6111584 628.8776304 320 664.5 320 C 700.1223696 320 729 327.6111584 729 337 C 729 346.3888416 700.1223696 354 664.5 354 C 628.8776304 354 600 346.3888416 600 337 Z"/></g><g transform="translate(-166,-86) scale(1,1)"><path fill="none" stroke="#000000" d="M 600 337 C 600 327.6111584 628.8776304 320 664.5 320 C 700.1223696 320 729 327.6111584 729 337 C 729 346.3888416 700.1223696 354 664.5 354 C 628.8776304 354 600 346.3888416 600 337 Z" stroke-miterlimit="10"/></g><g transform="translate(-166,-86) scale(1,1)"><g><path fill="none" stroke="none"/><text fill="#000000" stroke="none" font-family="Arial" font-size="13px" font-style="normal" font-weight="bold" text-decoration="none" x="623.31640625" y="342.2099609375">Plan Itinerary</text></g></g><g transform="translate(-166,-86) scale(1,1)"><path fill="none" stroke="#000000" d="M 815 315 L 730 327" stroke-miterlimit="10"/></g><g transform="translate(-166,-86) scale(1,1)"><path fill="none" stroke="#000000" d="M 599 339 L 494 343" stroke-miterlimit="10" stroke-dasharray="3"/></g><g transform="translate(-166,-86) scale(1,1)"><path fill="none" stroke="#000000" d="M 503.9950622530009 338.4066645497378 L 494 343 L 504.31555494262363 346.8195976523337" stroke-miterlimit="10"/></g><g transform="translate(-166,-86) scale(1,1)"><path fill="#C0C0C0" stroke="none" d="M 615 424 C 615 414.6111584 640.9674816 407 673 407 C 705.0325184 407 731 414.6111584 731 424 C 731 433.3888416 705.0325184 441 673 441 C 640.9674816 441 615 433.3888416 615 424 Z" opacity="0.2"/></g><g transform="translate(-166,-86) scale(1,1)"><path fill="#ffffff" stroke="none" d="M 608 417 C 608 407.6111584 633.9674816 400 666 400 C 698.0325184 400 724 407.6111584 724 417 C 724 426.3888416 698.0325184 434 666 434 C 633.9674816 434 608 426.3888416 608 417 Z"/></g><g transform="translate(-166,-86) scale(1,1)"><path fill="none" stroke="#000000" d="M 608 417 C 608 407.6111584 633.9674816 400 666 400 C 698.0325184 400 724 407.6111584 724 417 C 724 426.3888416 698.0325184 434 666 434 C 633.9674816 434 608 426.3888416 608 417 Z" stroke-miterlimit="10"/></g><g transform="translate(-166,-86) scale(1,1)"><g><path fill="none" stroke="none"/><text fill="#000000" stroke="none" font-family="Arial" font-size="13px" font-style="normal" font-weight="bold" text-decoration="none" x="629.5263671875" y="421.971923828125">Move to PoI</text></g></g><g transform="translate(-166,-86) scale(1,1)"><path fill="#C0C0C0" stroke="none" d="M 375 424 C 375 414.6111584 404.3253456 407 440.5 407 C 476.6746544 407 506 414.6111584 506 424 C 506 433.3888416 476.6746544 441 440.5 441 C 404.3253456 441 375 433.3888416 375 424 Z" opacity="0.2"/></g><g transform="translate(-166,-86) scale(1,1)"><path fill="#ffffff" stroke="none" d="M 368 417 C 368 407.6111584 397.3253456 400 433.5 400 C 469.6746544 400 499 407.6111584 499 417 C 499 426.3888416 469.6746544 434 433.5 434 C 397.3253456 434 368 426.3888416 368 417 Z"/></g><g transform="translate(-166,-86) scale(1,1)"><path fill="none" stroke="#000000" d="M 368 417 C 368 407.6111584 397.3253456 400 433.5 400 C 469.6746544 400 499 407.6111584 499 417 C 499 426.3888416 469.6746544 434 433.5 434 C 397.3253456 434 368 426.3888416 368 417 Z" stroke-miterlimit="10"/></g><g transform="translate(-166,-86) scale(1,1)"><g><path fill="none" stroke="none"/><text fill="#000000" stroke="none" font-family="Arial" font-size="13px" font-style="normal" font-weight="bold" text-decoration="none" x="391.608642578125" y="422.2099609375">Guides to PoI</text></g></g><g transform="translate(-166,-86) scale(1,1)"><path fill="none" stroke="#000000" d="M 307 336 L 405 399" stroke-miterlimit="10"/></g><g transform="translate(-166,-86) scale(1,1)"><path fill="none" stroke="#000000" d="M 815 327 L 696 399" stroke-miterlimit="10"/></g><g transform="translate(-166,-86) scale(1,1)"><path fill="none" stroke="#000000" d="M 607 417 L 500 417" stroke-miterlimit="10" stroke-dasharray="3"/></g><g transform="translate(-166,-86) scale(1,1)"><path fill="none" stroke="#000000" d="M 510.16267485762415 412.790482243984 L 500 417 L 510.16267485762415 421.209517756016" stroke-miterlimit="10"/></g><g transform="translate(-166,-86) scale(1,1)"><path fill="#C0C0C0" stroke="none" d="M 367 512 C 367 502.6111584 413.5623808 495 471 495 C 528.4376192 495 575 502.6111584 575 512 C 575 521.3888416 528.4376192 529 471 529 C 413.5623808 529 367 521.3888416 367 512 Z" opacity="0.2"/></g><g transform="translate(-166,-86) scale(1,1)"><path fill="#ffffff" stroke="none" d="M 360 505 C 360 495.6111584 406.5623808 488 464 488 C 521.4376192 488 568 495.6111584 568 505 C 568 514.3888416 521.4376192 522 464 522 C 406.5623808 522 360 514.3888416 360 505 Z"/></g><g transform="translate(-166,-86) scale(1,1)"><path fill="none" stroke="#000000" d="M 360 505 C 360 495.6111584 406.5623808 488 464 488 C 521.4376192 488 568 495.6111584 568 505 C 568 514.3888416 521.4376192 522 464 522 C 406.5623808 522 360 514.3888416 360 505 Z" stroke-miterlimit="10"/></g><g transform="translate(-166,-86) scale(1,1)"><g><path fill="none" stroke="none"/><text fill="#000000" stroke="none" font-family="Arial" font-size="13px" font-style="normal" font-weight="bold" text-decoration="none" x="395.02001953125" y="510.2099609375">Recommends Content</text></g></g><g transform="translate(-166,-86) scale(1,1)"><path fill="none" stroke="#000000" d="M 283 344 L 368 472 L 412 487" stroke-miterlimit="10"/></g><g transform="translate(-166,-86) scale(1,1)"><path fill="#C0C0C0" stroke="none" d="M 639 504 C 639 494.6111584 671.6832096 487 712 487 C 752.3167904 487 785 494.6111584 785 504 C 785 513.3888416 752.3167904 521 712 521 C 671.6832096 521 639 513.3888416 639 504 Z" opacity="0.2"/></g><g transform="translate(-166,-86) scale(1,1)"><path fill="#ffffff" stroke="none" d="M 632 497 C 632 487.6111584 664.6832096 480 705 480 C 745.3167904 480 778 487.6111584 778 497 C 778 506.3888416 745.3167904 514 705 514 C 664.6832096 514 632 506.3888416 632 497 Z"/></g><g transform="translate(-166,-86) scale(1,1)"><path fill="none" stroke="#000000" d="M 632 497 C 632 487.6111584 664.6832096 480 705 480 C 745.3167904 480 778 487.6111584 778 497 C 778 506.3888416 745.3167904 514 705 514 C 664.6832096 514 632 506.3888416 632 497 Z" stroke-miterlimit="10"/></g><g transform="translate(-166,-86) scale(1,1)"><g><path fill="none" stroke="none"/><text fill="#000000" stroke="none" font-family="Arial" font-size="13px" font-style="normal" font-weight="bold" text-decoration="none" x="657.687744140625" y="502.2099609375">Ask Something</text></g></g><g transform="translate(-166,-86) scale(1,1)"><path fill="#C0C0C0" stroke="none" d="M 423 584 C 423 574.6111584 445.6096176 567 473.5 567 C 501.3903824 567 524 574.6111584 524 584 C 524 593.3888416 501.3903824 601 473.5 601 C 445.6096176 601 423 593.3888416 423 584 Z" opacity="0.2"/></g><g transform="translate(-166,-86) scale(1,1)"><path fill="#ffffff" stroke="none" d="M 416 577 C 416 567.6111584 438.6096176 560 466.5 560 C 494.3903824 560 517 567.6111584 517 577 C 517 586.3888416 494.3903824 594 466.5 594 C 438.6096176 594 416 586.3888416 416 577 Z"/></g><g transform="translate(-166,-86) scale(1,1)"><path fill="none" stroke="#000000" d="M 416 577 C 416 567.6111584 438.6096176 560 466.5 560 C 494.3903824 560 517 567.6111584 517 577 C 517 586.3888416 494.3903824 594 466.5 594 C 438.6096176 594 416 586.3888416 416 577 Z" stroke-miterlimit="10"/></g><g transform="translate(-166,-86) scale(1,1)"><g><path fill="none" stroke="none"/><text fill="#000000" stroke="none" font-family="Arial" font-size="13px" font-style="normal" font-weight="bold" text-decoration="none" x="441.34423828125" y="582.20361328125">Infer ToI</text></g></g><g transform="translate(-166,-86) scale(1,1)"><path fill="none" stroke="#000000" d="M 270 344 L 352 576 L 415 577" stroke-miterlimit="10"/></g><g transform="translate(-166,-86) scale(1,1)"><path fill="#ffffff" stroke="none" d="M 243.01555149147728 521.6800000000001 C 243.01555149147728 516.8861679360001 246.9013938164227 513 251.69482421875 513 C 256.48825462107726 513 260.37409694602275 516.8861679360001 260.37409694602275 521.6800000000001 C 260.37409694602275 526.473832064 256.48825462107726 530.36 251.69482421875 530.36 C 246.9013938164227 530.36 243.01555149147728 526.473832064 243.01555149147728 521.6800000000001 Z"/></g><g transform="translate(-166,-86) scale(1,1)"><path fill="none" stroke="#000000" d="M 243.01555149147728 521.6800000000001 C 243.01555149147728 516.8861679360001 246.9013938164227 513 251.69482421875 513 C 256.48825462107726 513 260.37409694602275 516.8861679360001 260.37409694602275 521.6800000000001 C 260.37409694602275 526.473832064 256.48825462107726 530.36 251.69482421875 530.36 C 246.9013938164227 530.36 243.01555149147728 526.473832064 243.01555149147728 521.6800000000001 Z" stroke-miterlimit="10"/></g><g transform="translate(-166,-86) scale(1,1)"><path fill="none" stroke="#000000" d="M 251.69482421875 530.36 L 251.69482421875 547.64" stroke-miterlimit="10"/></g><g transform="translate(-166,-86) scale(1,1)"><path fill="none" stroke="#000000" d="M 242.50500603693183 536.84 L 260.88464240056817 536.84" stroke-miterlimit="10"/></g><g transform="translate(-166,-86) scale(1,1)"><path fill="none" stroke="#000000" d="M 251.69482421875 547.64 L 238.93118785511365 565" stroke-miterlimit="10"/></g><g transform="translate(-166,-86) scale(1,1)"><path fill="none" stroke="#000000" d="M 251.69482421875 547.64 L 264.45846058238635 565" stroke-miterlimit="10"/></g><g transform="translate(-166,-86) scale(1,1)"><g><path fill="none" stroke="none"/><text fill="#000000" stroke="none" font-family="Arial" font-size="13px" font-style="normal" font-weight="bold" text-decoration="none" x="204.5" y="583.7099609375">Content Viewer</text></g></g><g transform="translate(-166,-86) scale(1,1)"><path fill="none" stroke="#000000" d="M 255 344 L 252 511" stroke-miterlimit="10"/></g><g transform="translate(-166,-86) scale(1,1)"><path fill="#FFFFFF" stroke="none" d="M 243.94738974633088 490.526713304833 L 252 511 L 260.78274453870716 490.8291448280493"/></g><g transform="translate(-166,-86) scale(1,1)"><path fill="none" stroke="#000000" d="M 243.94738974633088 490.526713304833 L 252 511 L 260.78274453870716 490.8291448280493 L 243.94738974633088 490.526713304833" stroke-miterlimit="10"/></g><g transform="translate(-166,-86) scale(1,1)"><path fill="none" stroke="#000000" d="M 505 487 L 625 435" stroke-miterlimit="10" stroke-dasharray="3"/></g><g transform="translate(-166,-86) scale(1,1)"><path fill="none" stroke="#000000" d="M 617.3489160848368 442.9032218065249 L 625 435 L 614.0014449475456 435.178288412776" stroke-miterlimit="10"/></g><g transform="translate(-166,-86) scale(1,1)"><path fill="none" stroke="#000000" d="M 494 435 L 644 479" stroke-miterlimit="10" stroke-dasharray="3"/></g><g transform="translate(-166,-86) scale(1,1)"><path fill="none" stroke="#000000" d="M 633.0633444538904 480.17879831428 L 644 479 L 635.4330804181658 472.1001529815231" stroke-miterlimit="10"/></g><g transform="translate(-166,-86) scale(1,1)"><path fill="none" stroke="#000000" d="M 815 347 L 718 479" stroke-miterlimit="10"/></g><g transform="translate(-166,-86) scale(1,1)"><path fill="none" stroke="#000000" d="M 569 502 L 631 499" stroke-miterlimit="10" stroke-dasharray="3"/></g><g transform="translate(-166,-86) scale(1,1)"><path fill="none" stroke="#000000" d="M 621.0526495984063 503.69576617687835 L 631 499 L 620.6457529696573 495.2865691827315" stroke-miterlimit="10"/></g><g transform="translate(-166,-86) scale(1,1)"><path fill="none" stroke="#000000" d="M 518 577 L 704 576 L 705 515" stroke-miterlimit="10" stroke-dasharray="3"/></g><g transform="translate(-166,-86) scale(1,1)"><path fill="none" stroke="#000000" d="M 709.0423733815929 525.230308765809 L 705 515 L 700.6244689282767 525.0923103321481" stroke-miterlimit="10"/></g><g transform="translate(-166,-86) scale(1,1)"><path fill="none" stroke="#000000" d="M 465 523 L 466 559" stroke-miterlimit="10" stroke-dasharray="3"/></g><g transform="translate(-166,-86) scale(1,1)"><path fill="none" stroke="#000000" d="M 461.50991767097923 548.9581296224949 L 466 559 L 469.9257069767938 548.7243576973333" stroke-miterlimit="10"/></g><g transform="translate(-166,-86) scale(1,1)"><path fill="#C0C0C0" stroke="none" d="M 183 648 C 183 638.6111584 216.3547824 631 257.5 631 C 298.6452176 631 332 638.6111584 332 648 C 332 657.3888416 298.6452176 665 257.5 665 C 216.3547824 665 183 657.3888416 183 648 Z" opacity="0.2"/></g><g transform="translate(-166,-86) scale(1,1)"><path fill="#ffffff" stroke="none" d="M 176 641 C 176 631.6111584 209.3547824 624 250.5 624 C 291.6452176 624 325 631.6111584 325 641 C 325 650.3888416 291.6452176 658 250.5 658 C 209.3547824 658 176 650.3888416 176 641 Z"/></g><g transform="translate(-166,-86) scale(1,1)"><path fill="none" stroke="#000000" d="M 176 641 C 176 631.6111584 209.3547824 624 250.5 624 C 291.6452176 624 325 631.6111584 325 641 C 325 650.3888416 291.6452176 658 250.5 658 C 209.3547824 658 176 650.3888416 176 641 Z" stroke-miterlimit="10"/></g><g transform="translate(-166,-86) scale(1,1)"><g><path fill="none" stroke="none"/><text fill="#000000" stroke="none" font-family="Arial" font-size="13px" font-style="normal" font-weight="bold" text-decoration="none" x="212.925048828125" y="646.2099609375">Deliver Data</text></g></g><g transform="translate(-166,-86) scale(1,1)"><path fill="none" stroke="#000000" d="M 251 592 L 250 623" stroke-miterlimit="10"/></g><g transform="translate(-166,-86) scale(1,1)"><path fill="#C0C0C0" stroke="none" d="M 777 656 C 777 646.6111584 810.1309248 639 851 639 C 891.8690752 639 925 646.6111584 925 656 C 925 665.3888416 891.8690752 673 851 673 C 810.1309248 673 777 665.3888416 777 656 Z" opacity="0.2"/></g><g transform="translate(-166,-86) scale(1,1)"><path fill="#ffffff" stroke="none" d="M 770 649 C 770 639.6111584 803.1309248 632 844 632 C 884.8690752 632 918 639.6111584 918 649 C 918 658.3888416 884.8690752 666 844 666 C 803.1309248 666 770 658.3888416 770 649 Z"/></g><g transform="translate(-166,-86) scale(1,1)"><path fill="none" stroke="#000000" d="M 770 649 C 770 639.6111584 803.1309248 632 844 632 C 884.8690752 632 918 639.6111584 918 649 C 918 658.3888416 884.8690752 666 844 666 C 803.1309248 666 770 658.3888416 770 649 Z" stroke-miterlimit="10"/></g><g transform="translate(-166,-86) scale(1,1)"><g><path fill="none" stroke="none"/><text fill="#000000" stroke="none" font-family="Arial" font-size="13px" font-style="normal" font-weight="bold" text-decoration="none" x="807.161376953125" y="654.2099609375">Exploit data</text></g></g><g transform="translate(-166,-86) scale(1,1)"><path fill="none" stroke="#000000" d="M 769 648 L 326 642" stroke-miterlimit="10" stroke-dasharray="3"/></g><g transform="translate(-166,-86) scale(1,1)"><path fill="none" stroke="#000000" d="M 336.2187514190567 637.9284991175824 L 326 642 L 336.10473430723914 646.3467625401101" stroke-miterlimit="10"/></g><g transform="translate(-166,-86) scale(1,1)"><path fill="none" stroke="#000000" d="M 841 352 L 844 631" stroke-miterlimit="10"/></g></g></svg>