<svg version="1.1" xmlns="http://www.w3.org/2000/svg" xmlns:xlink="http://www.w3.org/1999/xlink" width="691" height="286"><defs/><g><text fill="#eeeeee" stroke="none" font-family="Arial" font-size="24px" font-style="normal" font-weight="normal" text-decoration="none" x="0" y="0">UNREGISTERED</text><text fill="#eeeeee" stroke="none" font-family="Arial" font-size="24px" font-style="normal" font-weight="normal" text-decoration="none" x="0" y="30">UNREGISTERED</text><text fill="#eeeeee" stroke="none" font-family="Arial" font-size="24px" font-style="normal" font-weight="normal" text-decoration="none" x="0" y="60">UNREGISTERED</text><text fill="#eeeeee" stroke="none" font-family="Arial" font-size="24px" font-style="normal" font-weight="normal" text-decoration="none" x="0" y="90">UNREGISTERED</text><text fill="#eeeeee" stroke="none" font-family="Arial" font-size="24px" font-style="normal" font-weight="normal" text-decoration="none" x="0" y="120">UNREGISTERED</text><text fill="#eeeeee" stroke="none" font-family="Arial" font-size="24px" font-style="normal" font-weight="normal" text-decoration="none" x="0" y="150">UNREGISTERED</text><text fill="#eeeeee" stroke="none" font-family="Arial" font-size="24px" font-style="normal" font-weight="normal" text-decoration="none" x="0" y="180">UNREGISTERED</text><text fill="#eeeeee" stroke="none" font-family="Arial" font-size="24px" font-style="normal" font-weight="normal" text-decoration="none" x="0" y="210">UNREGISTERED</text><text fill="#eeeeee" stroke="none" font-family="Arial" font-size="24px" font-style="normal" font-weight="normal" text-decoration="none" x="0" y="240">UNREGISTERED</text><text fill="#eeeeee" stroke="none" font-family="Arial" font-size="24px" font-style="normal" font-weight="normal" text-decoration="none" x="0" y="270">UNREGISTERED</text><text fill="#eeeeee" stroke="none" font-family="Arial" font-size="24px" font-style="normal" font-weight="normal" text-decoration="none" x="200" y="0">UNREGISTERED</text><text fill="#eeeeee" stroke="none" font-family="Arial" font-size="24px" font-style="normal" font-weight="normal" text-decoration="none" x="200" y="30">UNREGISTERED</text><text fill="#eeeeee" stroke="none" font-family="Arial" font-size="24px" font-style="normal" font-weight="normal" text-decoration="none" x="200" y="60">UNREGISTERED</text><text fill="#eeeeee" stroke="none" font-family="Arial" font-size="24px" font-style="normal" font-weight="normal" text-decoration="none" x="200" y="90">UNREGISTERED</text><text fill="#eeeeee" stroke="none" font-family="Arial" font-size="24px" font-style="normal" font-weight="normal" text-decoration="none" x="200" y="120">UNREGISTERED</text><text fill="#eeeeee" stroke="none" font-family="Arial" font-size="24px" font-style="normal" font-weight="normal" text-decoration="none" x="200" y="150">UNREGISTERED</text><text fill="#eeeeee" stroke="none" font-family="Arial" font-size="24px" font-style="normal" font-weight="normal" text-decoration="none" x="200" y="180">UNREGISTERED</text><text fill="#eeeeee" stroke="none" font-family="Arial" font-size="24px" font-style="normal" font-weight="normal" text-decoration="none" x="200" y="210">UNREGISTERED</text><text fill="#eeeeee" stroke="none" font-family="Arial" font-size="24px" font-style="normal" font-weight="normal" text-decoration="none" x="200" y="240">UNREGISTERED</text><text fill="#eeeeee" stroke="none" font-family="Arial" font-size="24px" font-style="normal" font-weight="normal" text-decoration="none" x="200" y="270">UNREGISTERED</text><text fill="#eeeeee" stroke="none" font-family="Arial" font-size="24px" font-style="normal" font-weight="normal" text-decoration="none" x="400" y="0">UNREGISTERED</text><text fill="#eeeeee" stroke="none" font-family="Arial" font-size="24px" font-style="normal" font-weight="normal" text-decoration="none" x="400" y="30">UNREGISTERED</text><text fill="#eeeeee" stroke="none" font-family="Arial" font-size="24px" font-style="normal" font-weight="normal" text-decoration="none" x="400" y="60">UNREGISTERED</text><text fill="#eeeeee" stroke="none" font-family="Arial" font-size="24px" font-style="normal" font-weight="normal" text-decoration="none" x="400" y="90">UNREGISTERED</text><text fill="#eeeeee" stroke="none" font-family="Arial" font-size="24px" font-style="normal" font-weight="normal" text-decoration="none" x="400" y="120">UNREGISTERED</text><text fill="#eeeeee" stroke="none" font-family="Arial" font-size="24px" font-style="normal" font-weight="normal" text-decoration="none" x="400" y="150">UNREGISTERED</text><text fill="#eeeeee" stroke="none" font-family="Arial" font-size="24px" font-style="normal" font-weight="normal" text-decoration="none" x="400" y="180">UNREGISTERED</text><text fill="#eeeeee" stroke="none" font-family="Arial" font-size="24px" font-style="normal" font-weight="normal" text-decoration="none" x="400" y="210">UNREGISTERED</text><text fill="#eeeeee" stroke="none" font-family="Arial" font-size="24px" font-style="normal" font-weight="normal" text-decoration="none" x="400" y="240">UNREGISTERED</text><text fill="#eeeeee" stroke="none" font-family="Arial" font-size="24px" font-style="normal" font-weight="normal" text-decoration="none" x="400" y="270">UNREGISTERED</text><text fill="#eeeeee" stroke="none" font-family="Arial" font-size="24px" font-style="normal" font-weight="normal" text-decoration="none" x="600" y="0">UNREGISTERED</text><text fill="#eeeeee" stroke="none" font-family="Arial" font-size="24px" font-style="normal" font-weight="normal" text-decoration="none" x="600" y="30">UNREGISTERED</text><text fill="#eeeeee" stroke="none" font-family="Arial" font-size="24px" font-style="normal" font-weight="normal" text-decoration="none" x="600" y="60">UNREGISTERED</text><text fill="#eeeeee" stroke="none" font-family="Arial" font-size="24px" font-style="normal" font-weight="normal" text-decoration="none" x="600" y="90">UNREGISTERED</text><text fill="#eeeeee" stroke="none" font-family="Arial" font-size="24px" font-style="normal" font-weight="normal" text-decoration="none" x="600" y="120">UNREGISTERED</text><text fill="#eeeeee" stroke="none" font-family="Arial" font-size="24px" font-style="normal" font-weight="normal" text-decoration="none" x="600" y="150">UNREGISTERED</text><text fill="#eeeeee" stroke="none" font-family="Arial" font-size="24px" font-style="normal" font-weight="normal" text-decoration="none" x="600" y="180">UNREGISTERED</text><text fill="#eeeeee" stroke="none" font-family="Arial" font-size="24px" font-style="normal" font-weight="normal" text-decoration="none" x="600" y="210">UNREGISTERED</text><text fill="#eeeeee" stroke="none" font-family="Arial" font-size="24px" font-style="normal" font-weight="normal" text-decoration="none" x="600" y="240">UNREGISTERED</text><text fill="#eeeeee" stroke="none" font-family="Arial" font-size="24px" font-style="normal" font-weight="normal" text-decoration="none" x="600" y="270">UNREGISTERED</text><g transform="translate(-62,-46) scale(1,1)"><path fill="#ffffff" stroke="none" d="M 125.87418181818182 163.21 C 125.87418181818182 157.571172192 130.40766453061818 153 136 153 C 141.59233546938182 153 146.12581818181818 157.571172192 146.12581818181818 163.21 C 146.12581818181818 168.848827808 141.59233546938182 173.42000000000002 136 173.42000000000002 C 130.40766453061818 173.42000000000002 125.87418181818182 168.848827808 125.87418181818182 163.21 Z"/></g><g transform="translate(-62,-46) scale(1,1)"><path fill="none" stroke="#000000" d="M 125.87418181818182 163.21 C 125.87418181818182 157.571172192 130.40766453061818 153 136 153 C 141.59233546938182 153 146.12581818181818 157.571172192 146.12581818181818 163.21 C 146.12581818181818 168.848827808 141.59233546938182 173.42000000000002 136 173.42000000000002 C 130.40766453061818 173.42000000000002 125.87418181818182 168.848827808 125.87418181818182 163.21 Z" stroke-miterlimit="10"/></g><g transform="translate(-62,-46) scale(1,1)"><path fill="none" stroke="#000000" d="M 136 173.42000000000002 L 136 193.57999999999998" stroke-miterlimit="10"/></g><g transform="translate(-62,-46) scale(1,1)"><path fill="none" stroke="#000000" d="M 125.27854545454547 180.98 L 146.72145454545455 180.98" stroke-miterlimit="10"/></g><g transform="translate(-62,-46) scale(1,1)"><path fill="none" stroke="#000000" d="M 136 193.57999999999998 L 121.10909090909092 214" stroke-miterlimit="10"/></g><g transform="translate(-62,-46) scale(1,1)"><path fill="none" stroke="#000000" d="M 136 193.57999999999998 L 150.89090909090908 214" stroke-miterlimit="10"/></g><g transform="translate(-62,-46) scale(1,1)"><g><path fill="none" stroke="none"/><text fill="#000000" stroke="none" font-family="Arial" font-size="13px" font-style="normal" font-weight="bold" text-decoration="none" x="90.128662109375" y="232.7099609375">Domain Expert</text></g></g><g transform="translate(-62,-46) scale(1,1)"><path fill="#C0C0C0" stroke="none" d="M 439 120 C 439 110.6111584 467.2060576 103 502 103 C 536.7939424 103 565 110.6111584 565 120 C 565 129.3888416 536.7939424 137 502 137 C 467.2060576 137 439 129.3888416 439 120 Z" opacity="0.2"/></g><g transform="translate(-62,-46) scale(1,1)"><path fill="#ffffff" stroke="none" d="M 432 113 C 432 103.6111584 460.2060576 96 495 96 C 529.7939424 96 558 103.6111584 558 113 C 558 122.3888416 529.7939424 130 495 130 C 460.2060576 130 432 122.3888416 432 113 Z"/></g><g transform="translate(-62,-46) scale(1,1)"><path fill="none" stroke="#000000" d="M 432 113 C 432 103.6111584 460.2060576 96 495 96 C 529.7939424 96 558 103.6111584 558 113 C 558 122.3888416 529.7939424 130 495 130 C 460.2060576 130 432 122.3888416 432 113 Z" stroke-miterlimit="10"/></g><g transform="translate(-62,-46) scale(1,1)"><g><path fill="none" stroke="none"/><text fill="#000000" stroke="none" font-family="Arial" font-size="13px" font-style="normal" font-weight="bold" text-decoration="none" x="454.905029296875" y="118.2099609375">Scan Artifact</text></g></g><g transform="translate(-62,-46) scale(1,1)"><path fill="#C0C0C0" stroke="none" d="M 495 232 C 495 222.6111584 536.8613712 215 588.5 215 C 640.1386288 215 682 222.6111584 682 232 C 682 241.3888416 640.1386288 249 588.5 249 C 536.8613712 249 495 241.3888416 495 232 Z" opacity="0.2"/></g><g transform="translate(-62,-46) scale(1,1)"><path fill="#ffffff" stroke="none" d="M 488 225 C 488 215.6111584 529.8613712 208 581.5 208 C 633.1386288 208 675 215.6111584 675 225 C 675 234.3888416 633.1386288 242 581.5 242 C 529.8613712 242 488 234.3888416 488 225 Z"/></g><g transform="translate(-62,-46) scale(1,1)"><path fill="none" stroke="#000000" d="M 488 225 C 488 215.6111584 529.8613712 208 581.5 208 C 633.1386288 208 675 215.6111584 675 225 C 675 234.3888416 633.1386288 242 581.5 242 C 529.8613712 242 488 234.3888416 488 225 Z" stroke-miterlimit="10"/></g><g transform="translate(-62,-46) scale(1,1)"><g><path fill="none" stroke="none"/><text fill="#000000" stroke="none" font-family="Arial" font-size="13px" font-style="normal" font-weight="bold" text-decoration="none" x="519.73095703125" y="230.2099609375">Elaborate 3D Object</text></g></g><g transform="translate(-62,-46) scale(1,1)"><path fill="#C0C0C0" stroke="none" d="M 615 80 C 615 70.6111584 645.220776 63 682.5 63 C 719.779224 63 750 70.6111584 750 80 C 750 89.3888416 719.779224 97 682.5 97 C 645.220776 97 615 89.3888416 615 80 Z" opacity="0.2"/></g><g transform="translate(-62,-46) scale(1,1)"><path fill="#ffffff" stroke="none" d="M 608 73 C 608 63.6111584 638.220776 56 675.5 56 C 712.779224 56 743 63.6111584 743 73 C 743 82.3888416 712.779224 90 675.5 90 C 638.220776 90 608 82.3888416 608 73 Z"/></g><g transform="translate(-62,-46) scale(1,1)"><path fill="none" stroke="#000000" d="M 608 73 C 608 63.6111584 638.220776 56 675.5 56 C 712.779224 56 743 63.6111584 743 73 C 743 82.3888416 712.779224 90 675.5 90 C 638.220776 90 608 82.3888416 608 73 Z" stroke-miterlimit="10"/></g><g transform="translate(-62,-46) scale(1,1)"><g><path fill="none" stroke="none"/><text fill="#000000" stroke="none" font-family="Arial" font-size="13px" font-style="normal" font-weight="bold" text-decoration="none" x="632.16455078125" y="78.2099609375">Scan Building</text></g></g><g transform="translate(-62,-46) scale(1,1)"><path fill="#C0C0C0" stroke="none" d="M 607 168 C 607 158.6111584 633.6390544 151 666.5 151 C 699.3609456 151 726 158.6111584 726 168 C 726 177.3888416 699.3609456 185 666.5 185 C 633.6390544 185 607 177.3888416 607 168 Z" opacity="0.2"/></g><g transform="translate(-62,-46) scale(1,1)"><path fill="#ffffff" stroke="none" d="M 600 161 C 600 151.6111584 626.6390544 144 659.5 144 C 692.3609456 144 719 151.6111584 719 161 C 719 170.3888416 692.3609456 178 659.5 178 C 626.6390544 178 600 170.3888416 600 161 Z"/></g><g transform="translate(-62,-46) scale(1,1)"><path fill="none" stroke="#000000" d="M 600 161 C 600 151.6111584 626.6390544 144 659.5 144 C 692.3609456 144 719 151.6111584 719 161 C 719 170.3888416 692.3609456 178 659.5 178 C 626.6390544 178 600 170.3888416 600 161 Z" stroke-miterlimit="10"/></g><g transform="translate(-62,-46) scale(1,1)"><g><path fill="none" stroke="none"/><text fill="#000000" stroke="none" font-family="Arial" font-size="13px" font-style="normal" font-weight="bold" text-decoration="none" x="621.931396484375" y="166.2099609375">Scan Object</text></g></g><g transform="translate(-62,-46) scale(1,1)"><path fill="none" stroke="#000000" d="M 559 99 L 607 88" stroke-miterlimit="10" stroke-dasharray="3"/></g><g transform="translate(-62,-46) scale(1,1)"><path fill="none" stroke="#000000" d="M 598.0344182699182 94.37325224992888 L 607 88 L 596.1538064772399 86.16694624551407" stroke-miterlimit="10"/></g><g transform="translate(-62,-46) scale(1,1)"><g><path fill="none" stroke="none"/><text fill="#000000" stroke="none" font-family="Arial" font-size="13px" font-style="normal" font-weight="normal" text-decoration="none" x="548.5" y="67.7099609375">«include»</text></g></g><g transform="translate(-62,-46) scale(1,1)"><path fill="none" stroke="#000000" d="M 557 131 L 599 143" stroke-miterlimit="10" stroke-dasharray="3"/></g><g transform="translate(-62,-46) scale(1,1)"><path fill="none" stroke="#000000" d="M 588.0719012864703 144.2556506310878 L 599 143 L 590.3847882181439 136.16054637023055" stroke-miterlimit="10"/></g><g transform="translate(-62,-46) scale(1,1)"><g><path fill="none" stroke="none"/><text fill="#000000" stroke="none" font-family="Arial" font-size="13px" font-style="normal" font-weight="normal" text-decoration="none" x="558.5" y="112.7099609375">«include»</text></g></g><g transform="translate(-62,-46) scale(1,1)"><path fill="#C0C0C0" stroke="none" d="M 487 312 C 487 302.6111584 523.2649312 295 568 295 C 612.7350688 295 649 302.6111584 649 312 C 649 321.3888416 612.7350688 329 568 329 C 523.2649312 329 487 321.3888416 487 312 Z" opacity="0.2"/></g><g transform="translate(-62,-46) scale(1,1)"><path fill="#ffffff" stroke="none" d="M 480 305 C 480 295.6111584 516.2649312 288 561 288 C 605.7350688 288 642 295.6111584 642 305 C 642 314.3888416 605.7350688 322 561 322 C 516.2649312 322 480 314.3888416 480 305 Z"/></g><g transform="translate(-62,-46) scale(1,1)"><path fill="none" stroke="#000000" d="M 480 305 C 480 295.6111584 516.2649312 288 561 288 C 605.7350688 288 642 295.6111584 642 305 C 642 314.3888416 605.7350688 322 561 322 C 516.2649312 322 480 314.3888416 480 305 Z" stroke-miterlimit="10"/></g><g transform="translate(-62,-46) scale(1,1)"><g><path fill="none" stroke="none"/><text fill="#000000" stroke="none" font-family="Arial" font-size="13px" font-style="normal" font-weight="bold" text-decoration="none" x="508.266845703125" y="310.2099609375">Export 3D Object</text></g></g><g transform="translate(-62,-46) scale(1,1)"><path fill="#C0C0C0" stroke="none" d="M 271 208 C 271 198.6111584 305.697928 191 348.5 191 C 391.302072 191 426 198.6111584 426 208 C 426 217.3888416 391.302072 225 348.5 225 C 305.697928 225 271 217.3888416 271 208 Z" opacity="0.2"/></g><g transform="translate(-62,-46) scale(1,1)"><path fill="#ffffff" stroke="none" d="M 264 201 C 264 191.6111584 298.697928 184 341.5 184 C 384.302072 184 419 191.6111584 419 201 C 419 210.3888416 384.302072 218 341.5 218 C 298.697928 218 264 210.3888416 264 201 Z"/></g><g transform="translate(-62,-46) scale(1,1)"><path fill="none" stroke="#000000" d="M 264 201 C 264 191.6111584 298.697928 184 341.5 184 C 384.302072 184 419 191.6111584 419 201 C 419 210.3888416 384.302072 218 341.5 218 C 298.697928 218 264 210.3888416 264 201 Z" stroke-miterlimit="10"/></g><g transform="translate(-62,-46) scale(1,1)"><g><path fill="none" stroke="none"/><text fill="#000000" stroke="none" font-family="Arial" font-size="13px" font-style="normal" font-weight="bold" text-decoration="none" x="291.29638671875" y="206.03857421875">Creates Content</text></g></g><g transform="translate(-62,-46) scale(1,1)"><path fill="none" stroke="#000000" d="M 373 183 L 464 131" stroke-miterlimit="10" stroke-dasharray="3"/></g><g transform="translate(-62,-46) scale(1,1)"><path fill="none" stroke="#000000" d="M 457.2648329196912 139.69698363803937 L 464 131 L 453.08782157876317 132.38721379141532" stroke-miterlimit="10"/></g><g transform="translate(-62,-46) scale(1,1)"><g><path fill="none" stroke="none"/><text fill="#000000" stroke="none" font-family="Arial" font-size="13px" font-style="normal" font-weight="normal" text-decoration="none" x="375.5" y="134.7099609375">«include»</text></g></g><g transform="translate(-62,-46) scale(1,1)"><path fill="none" stroke="#000000" d="M 420 209 L 487 216" stroke-miterlimit="10" stroke-dasharray="3"/></g><g transform="translate(-62,-46) scale(1,1)"><path fill="none" stroke="#000000" d="M 476.4549213552255 219.13070541180753 L 487 216 L 477.329760355548 210.75724640872104" stroke-miterlimit="10"/></g><g transform="translate(-62,-46) scale(1,1)"><g><path fill="none" stroke="none"/><text fill="#000000" stroke="none" font-family="Arial" font-size="13px" font-style="normal" font-weight="normal" text-decoration="none" x="428.5" y="186.7099609375">«include»</text></g></g><g transform="translate(-62,-46) scale(1,1)"><path fill="none" stroke="#000000" d="M 379 219 L 523 287" stroke-miterlimit="10" stroke-dasharray="3"/></g><g transform="translate(-62,-46) scale(1,1)"><path fill="none" stroke="#000000" d="M 512.0129243881288 286.46692449031553 L 523 287 L 515.6079056372189 278.8540230216542" stroke-miterlimit="10"/></g><g transform="translate(-62,-46) scale(1,1)"><g><path fill="none" stroke="none"/><text fill="#000000" stroke="none" font-family="Arial" font-size="13px" font-style="normal" font-weight="normal" text-decoration="none" x="435.5" y="229.7099609375">«include»</text></g></g><g transform="translate(-62,-46) scale(1,1)"><path fill="none" stroke="#000000" d="M 201 198 L 263 199" stroke-miterlimit="10"/></g></g></svg>