<svg version="1.1" xmlns="http://www.w3.org/2000/svg" xmlns:xlink="http://www.w3.org/1999/xlink" width="805.21728515625" height="405"><defs/><g><text fill="#eeeeee" stroke="none" font-family="Arial" font-size="24px" font-style="normal" font-weight="normal" text-decoration="none" x="0" y="0">UNREGISTERED</text><text fill="#eeeeee" stroke="none" font-family="Arial" font-size="24px" font-style="normal" font-weight="normal" text-decoration="none" x="0" y="30">UNREGISTERED</text><text fill="#eeeeee" stroke="none" font-family="Arial" font-size="24px" font-style="normal" font-weight="normal" text-decoration="none" x="0" y="60">UNREGISTERED</text><text fill="#eeeeee" stroke="none" font-family="Arial" font-size="24px" font-style="normal" font-weight="normal" text-decoration="none" x="0" y="90">UNREGISTERED</text><text fill="#eeeeee" stroke="none" font-family="Arial" font-size="24px" font-style="normal" font-weight="normal" text-decoration="none" x="0" y="120">UNREGISTERED</text><text fill="#eeeeee" stroke="none" font-family="Arial" font-size="24px" font-style="normal" font-weight="normal" text-decoration="none" x="0" y="150">UNREGISTERED</text><text fill="#eeeeee" stroke="none" font-family="Arial" font-size="24px" font-style="normal" font-weight="normal" text-decoration="none" x="0" y="180">UNREGISTERED</text><text fill="#eeeeee" stroke="none" font-family="Arial" font-size="24px" font-style="normal" font-weight="normal" text-decoration="none" x="0" y="210">UNREGISTERED</text><text fill="#eeeeee" stroke="none" font-family="Arial" font-size="24px" font-style="normal" font-weight="normal" text-decoration="none" x="0" y="240">UNREGISTERED</text><text fill="#eeeeee" stroke="none" font-family="Arial" font-size="24px" font-style="normal" font-weight="normal" text-decoration="none" x="0" y="270">UNREGISTERED</text><text fill="#eeeeee" stroke="none" font-family="Arial" font-size="24px" font-style="normal" font-weight="normal" text-decoration="none" x="0" y="300">UNREGISTERED</text><text fill="#eeeeee" stroke="none" font-family="Arial" font-size="24px" font-style="normal" font-weight="normal" text-decoration="none" x="0" y="330">UNREGISTERED</text><text fill="#eeeeee" stroke="none" font-family="Arial" font-size="24px" font-style="normal" font-weight="normal" text-decoration="none" x="0" y="360">UNREGISTERED</text><text fill="#eeeeee" stroke="none" font-family="Arial" font-size="24px" font-style="normal" font-weight="normal" text-decoration="none" x="0" y="390">UNREGISTERED</text><text fill="#eeeeee" stroke="none" font-family="Arial" font-size="24px" font-style="normal" font-weight="normal" text-decoration="none" x="200" y="0">UNREGISTERED</text><text fill="#eeeeee" stroke="none" font-family="Arial" font-size="24px" font-style="normal" font-weight="normal" text-decoration="none" x="200" y="30">UNREGISTERED</text><text fill="#eeeeee" stroke="none" font-family="Arial" font-size="24px" font-style="normal" font-weight="normal" text-decoration="none" x="200" y="60">UNREGISTERED</text><text fill="#eeeeee" stroke="none" font-family="Arial" font-size="24px" font-style="normal" font-weight="normal" text-decoration="none" x="200" y="90">UNREGISTERED</text><text fill="#eeeeee" stroke="none" font-family="Arial" font-size="24px" font-style="normal" font-weight="normal" text-decoration="none" x="200" y="120">UNREGISTERED</text><text fill="#eeeeee" stroke="none" font-family="Arial" font-size="24px" font-style="normal" font-weight="normal" text-decoration="none" x="200" y="150">UNREGISTERED</text><text fill="#eeeeee" stroke="none" font-family="Arial" font-size="24px" font-style="normal" font-weight="normal" text-decoration="none" x="200" y="180">UNREGISTERED</text><text fill="#eeeeee" stroke="none" font-family="Arial" font-size="24px" font-style="normal" font-weight="normal" text-decoration="none" x="200" y="210">UNREGISTERED</text><text fill="#eeeeee" stroke="none" font-family="Arial" font-size="24px" font-style="normal" font-weight="normal" text-decoration="none" x="200" y="240">UNREGISTERED</text><text fill="#eeeeee" stroke="none" font-family="Arial" font-size="24px" font-style="normal" font-weight="normal" text-decoration="none" x="200" y="270">UNREGISTERED</text><text fill="#eeeeee" stroke="none" font-family="Arial" font-size="24px" font-style="normal" font-weight="normal" text-decoration="none" x="200" y="300">UNREGISTERED</text><text fill="#eeeeee" stroke="none" font-family="Arial" font-size="24px" font-style="normal" font-weight="normal" text-decoration="none" x="200" y="330">UNREGISTERED</text><text fill="#eeeeee" stroke="none" font-family="Arial" font-size="24px" font-style="normal" font-weight="normal" text-decoration="none" x="200" y="360">UNREGISTERED</text><text fill="#eeeeee" stroke="none" font-family="Arial" font-size="24px" font-style="normal" font-weight="normal" text-decoration="none" x="200" y="390">UNREGISTERED</text><text fill="#eeeeee" stroke="none" font-family="Arial" font-size="24px" font-style="normal" font-weight="normal" text-decoration="none" x="400" y="0">UNREGISTERED</text><text fill="#eeeeee" stroke="none" font-family="Arial" font-size="24px" font-style="normal" font-weight="normal" text-decoration="none" x="400" y="30">UNREGISTERED</text><text fill="#eeeeee" stroke="none" font-family="Arial" font-size="24px" font-style="normal" font-weight="normal" text-decoration="none" x="400" y="60">UNREGISTERED</text><text fill="#eeeeee" stroke="none" font-family="Arial" font-size="24px" font-style="normal" font-weight="normal" text-decoration="none" x="400" y="90">UNREGISTERED</text><text fill="#eeeeee" stroke="none" font-family="Arial" font-size="24px" font-style="normal" font-weight="normal" text-decoration="none" x="400" y="120">UNREGISTERED</text><text fill="#eeeeee" stroke="none" font-family="Arial" font-size="24px" font-style="normal" font-weight="normal" text-decoration="none" x="400" y="150">UNREGISTERED</text><text fill="#eeeeee" stroke="none" font-family="Arial" font-size="24px" font-style="normal" font-weight="normal" text-decoration="none" x="400" y="180">UNREGISTERED</text><text fill="#eeeeee" stroke="none" font-family="Arial" font-size="24px" font-style="normal" font-weight="normal" text-decoration="none" x="400" y="210">UNREGISTERED</text><text fill="#eeeeee" stroke="none" font-family="Arial" font-size="24px" font-style="normal" font-weight="normal" text-decoration="none" x="400" y="240">UNREGISTERED</text><text fill="#eeeeee" stroke="none" font-family="Arial" font-size="24px" font-style="normal" font-weight="normal" text-decoration="none" x="400" y="270">UNREGISTERED</text><text fill="#eeeeee" stroke="none" font-family="Arial" font-size="24px" font-style="normal" font-weight="normal" text-decoration="none" x="400" y="300">UNREGISTERED</text><text fill="#eeeeee" stroke="none" font-family="Arial" font-size="24px" font-style="normal" font-weight="normal" text-decoration="none" x="400" y="330">UNREGISTERED</text><text fill="#eeeeee" stroke="none" font-family="Arial" font-size="24px" font-style="normal" font-weight="normal" text-decoration="none" x="400" y="360">UNREGISTERED</text><text fill="#eeeeee" stroke="none" font-family="Arial" font-size="24px" font-style="normal" font-weight="normal" text-decoration="none" x="400" y="390">UNREGISTERED</text><text fill="#eeeeee" stroke="none" font-family="Arial" font-size="24px" font-style="normal" font-weight="normal" text-decoration="none" x="600" y="0">UNREGISTERED</text><text fill="#eeeeee" stroke="none" font-family="Arial" font-size="24px" font-style="normal" font-weight="normal" text-decoration="none" x="600" y="30">UNREGISTERED</text><text fill="#eeeeee" stroke="none" font-family="Arial" font-size="24px" font-style="normal" font-weight="normal" text-decoration="none" x="600" y="60">UNREGISTERED</text><text fill="#eeeeee" stroke="none" font-family="Arial" font-size="24px" font-style="normal" font-weight="normal" text-decoration="none" x="600" y="90">UNREGISTERED</text><text fill="#eeeeee" stroke="none" font-family="Arial" font-size="24px" font-style="normal" font-weight="normal" text-decoration="none" x="600" y="120">UNREGISTERED</text><text fill="#eeeeee" stroke="none" font-family="Arial" font-size="24px" font-style="normal" font-weight="normal" text-decoration="none" x="600" y="150">UNREGISTERED</text><text fill="#eeeeee" stroke="none" font-family="Arial" font-size="24px" font-style="normal" font-weight="normal" text-decoration="none" x="600" y="180">UNREGISTERED</text><text fill="#eeeeee" stroke="none" font-family="Arial" font-size="24px" font-style="normal" font-weight="normal" text-decoration="none" x="600" y="210">UNREGISTERED</text><text fill="#eeeeee" stroke="none" font-family="Arial" font-size="24px" font-style="normal" font-weight="normal" text-decoration="none" x="600" y="240">UNREGISTERED</text><text fill="#eeeeee" stroke="none" font-family="Arial" font-size="24px" font-style="normal" font-weight="normal" text-decoration="none" x="600" y="270">UNREGISTERED</text><text fill="#eeeeee" stroke="none" font-family="Arial" font-size="24px" font-style="normal" font-weight="normal" text-decoration="none" x="600" y="300">UNREGISTERED</text><text fill="#eeeeee" stroke="none" font-family="Arial" font-size="24px" font-style="normal" font-weight="normal" text-decoration="none" x="600" y="330">UNREGISTERED</text><text fill="#eeeeee" stroke="none" font-family="Arial" font-size="24px" font-style="normal" font-weight="normal" text-decoration="none" x="600" y="360">UNREGISTERED</text><text fill="#eeeeee" stroke="none" font-family="Arial" font-size="24px" font-style="normal" font-weight="normal" text-decoration="none" x="600" y="390">UNREGISTERED</text><text fill="#eeeeee" stroke="none" font-family="Arial" font-size="24px" font-style="normal" font-weight="normal" text-decoration="none" x="800" y="0">UNREGISTERED</text><text fill="#eeeeee" stroke="none" font-family="Arial" font-size="24px" font-style="normal" font-weight="normal" text-decoration="none" x="800" y="30">UNREGISTERED</text><text fill="#eeeeee" stroke="none" font-family="Arial" font-size="24px" font-style="normal" font-weight="normal" text-decoration="none" x="800" y="60">UNREGISTERED</text><text fill="#eeeeee" stroke="none" font-family="Arial" font-size="24px" font-style="normal" font-weight="normal" text-decoration="none" x="800" y="90">UNREGISTERED</text><text fill="#eeeeee" stroke="none" font-family="Arial" font-size="24px" font-style="normal" font-weight="normal" text-decoration="none" x="800" y="120">UNREGISTERED</text><text fill="#eeeeee" stroke="none" font-family="Arial" font-size="24px" font-style="normal" font-weight="normal" text-decoration="none" x="800" y="150">UNREGISTERED</text><text fill="#eeeeee" stroke="none" font-family="Arial" font-size="24px" font-style="normal" font-weight="normal" text-decoration="none" x="800" y="180">UNREGISTERED</text><text fill="#eeeeee" stroke="none" font-family="Arial" font-size="24px" font-style="normal" font-weight="normal" text-decoration="none" x="800" y="210">UNREGISTERED</text><text fill="#eeeeee" stroke="none" font-family="Arial" font-size="24px" font-style="normal" font-weight="normal" text-decoration="none" x="800" y="240">UNREGISTERED</text><text fill="#eeeeee" stroke="none" font-family="Arial" font-size="24px" font-style="normal" font-weight="normal" text-decoration="none" x="800" y="270">UNREGISTERED</text><text fill="#eeeeee" stroke="none" font-family="Arial" font-size="24px" font-style="normal" font-weight="normal" text-decoration="none" x="800" y="300">UNREGISTERED</text><text fill="#eeeeee" stroke="none" font-family="Arial" font-size="24px" font-style="normal" font-weight="normal" text-decoration="none" x="800" y="330">UNREGISTERED</text><text fill="#eeeeee" stroke="none" font-family="Arial" font-size="24px" font-style="normal" font-weight="normal" text-decoration="none" x="800" y="360">UNREGISTERED</text><text fill="#eeeeee" stroke="none" font-family="Arial" font-size="24px" font-style="normal" font-weight="normal" text-decoration="none" x="800" y="390">UNREGISTERED</text><g transform="translate(-70,-310) scale(1,1)"><path fill="#ffffff" stroke="none" d="M 813.5184607599432 332.23 C 813.5184607599432 326.027841696 818.4837037307068 321 824.608642578125 321 C 830.7335814255432 321 835.6988243963068 326.027841696 835.6988243963068 332.23 C 835.6988243963068 338.43215830400004 830.7335814255432 343.46 824.608642578125 343.46 C 818.4837037307068 343.46 813.5184607599432 338.43215830400004 813.5184607599432 332.23 Z"/></g><g transform="translate(-70,-310) scale(1,1)"><path fill="none" stroke="#000000" d="M 813.5184607599432 332.23 C 813.5184607599432 326.027841696 818.4837037307068 321 824.608642578125 321 C 830.7335814255432 321 835.6988243963068 326.027841696 835.6988243963068 332.23 C 835.6988243963068 338.43215830400004 830.7335814255432 343.46 824.608642578125 343.46 C 818.4837037307068 343.46 813.5184607599432 338.43215830400004 813.5184607599432 332.23 Z" stroke-miterlimit="10"/></g><g transform="translate(-70,-310) scale(1,1)"><path fill="none" stroke="#000000" d="M 824.608642578125 343.46 L 824.608642578125 365.54" stroke-miterlimit="10"/></g><g transform="translate(-70,-310) scale(1,1)"><path fill="none" stroke="#000000" d="M 812.8660971235796 351.74 L 836.3511880326704 351.74" stroke-miterlimit="10"/></g><g transform="translate(-70,-310) scale(1,1)"><path fill="none" stroke="#000000" d="M 824.608642578125 365.54 L 808.2995516690341 388" stroke-miterlimit="10"/></g><g transform="translate(-70,-310) scale(1,1)"><path fill="none" stroke="#000000" d="M 824.608642578125 365.54 L 840.9177334872159 388" stroke-miterlimit="10"/></g><g transform="translate(-70,-310) scale(1,1)"><g><path fill="none" stroke="none"/><text fill="#000000" stroke="none" font-family="Arial" font-size="13px" font-style="normal" font-weight="bold" text-decoration="none" x="810.155029296875" y="406.471923828125">User</text></g></g><g transform="translate(-70,-310) scale(1,1)"><path fill="#ffffff" stroke="none" d="M 109.51846075994318 332.23 C 109.51846075994318 326.027841696 114.48370373070681 321 120.608642578125 321 C 126.73358142554319 321 131.69882439630683 326.027841696 131.69882439630683 332.23 C 131.69882439630683 338.43215830400004 126.73358142554319 343.46 120.608642578125 343.46 C 114.48370373070681 343.46 109.51846075994318 338.43215830400004 109.51846075994318 332.23 Z"/></g><g transform="translate(-70,-310) scale(1,1)"><path fill="none" stroke="#000000" d="M 109.51846075994318 332.23 C 109.51846075994318 326.027841696 114.48370373070681 321 120.608642578125 321 C 126.73358142554319 321 131.69882439630683 326.027841696 131.69882439630683 332.23 C 131.69882439630683 338.43215830400004 126.73358142554319 343.46 120.608642578125 343.46 C 114.48370373070681 343.46 109.51846075994318 338.43215830400004 109.51846075994318 332.23 Z" stroke-miterlimit="10"/></g><g transform="translate(-70,-310) scale(1,1)"><path fill="none" stroke="#000000" d="M 120.608642578125 343.46 L 120.608642578125 365.54" stroke-miterlimit="10"/></g><g transform="translate(-70,-310) scale(1,1)"><path fill="none" stroke="#000000" d="M 108.86609712357955 351.74 L 132.35118803267045 351.74" stroke-miterlimit="10"/></g><g transform="translate(-70,-310) scale(1,1)"><path fill="none" stroke="#000000" d="M 120.608642578125 365.54 L 104.29955166903409 388" stroke-miterlimit="10"/></g><g transform="translate(-70,-310) scale(1,1)"><path fill="none" stroke="#000000" d="M 120.608642578125 365.54 L 136.9177334872159 388" stroke-miterlimit="10"/></g><g transform="translate(-70,-310) scale(1,1)"><g><path fill="none" stroke="none"/><text fill="#000000" stroke="none" font-family="Arial" font-size="13px" font-style="normal" font-weight="bold" text-decoration="none" x="100.38818359375" y="406.7099609375">Admin</text></g></g><g transform="translate(-70,-310) scale(1,1)"><rect fill="#C0C0C0" stroke="none" x="185" y="359" width="172.17529296875" height="52" opacity="0.2"/></g><g transform="translate(-70,-310) scale(1,1)"><rect fill="#ffffff" stroke="none" x="178" y="352" width="172.17529296875" height="52"/></g><g transform="translate(-70,-310) scale(1,1)"><path fill="none" stroke="#000000" d="M 178 352 L 350.17529296875 352 L 350.17529296875 404 L 178 404 L 178 352 Z Z" stroke-miterlimit="10"/></g><g transform="translate(-70,-310) scale(1,1)"><rect fill="#ffffff" stroke="none" x="168" y="359" width="20" height="10"/></g><g transform="translate(-70,-310) scale(1,1)"><path fill="none" stroke="#000000" d="M 168 359 L 188 359 L 188 369 L 168 369 L 168 359 Z Z" stroke-miterlimit="10"/></g><g transform="translate(-70,-310) scale(1,1)"><rect fill="#ffffff" stroke="none" x="168" y="379" width="20" height="10"/></g><g transform="translate(-70,-310) scale(1,1)"><path fill="none" stroke="#000000" d="M 168 379 L 188 379 L 188 389 L 168 389 L 168 379 Z Z" stroke-miterlimit="10"/></g><g transform="translate(-70,-310) scale(1,1)"><g><path fill="none" stroke="none"/><text fill="#000000" stroke="none" font-family="Arial" font-size="13px" font-style="normal" font-weight="normal" text-decoration="none" x="228.253173828125" y="367.53857421875">«Component»</text></g></g><g transform="translate(-70,-310) scale(1,1)"><g><path fill="none" stroke="none"/><text fill="#000000" stroke="none" font-family="Arial" font-size="13px" font-style="normal" font-weight="bold" text-decoration="none" x="219.2490234375" y="382.7099609375">Audio Enhancer</text></g></g><g transform="translate(-70,-310) scale(1,1)"><rect fill="#C0C0C0" stroke="none" x="377" y="359" width="198.18798828125" height="52" opacity="0.2"/></g><g transform="translate(-70,-310) scale(1,1)"><rect fill="#ffffff" stroke="none" x="370" y="352" width="198.18798828125" height="52"/></g><g transform="translate(-70,-310) scale(1,1)"><path fill="none" stroke="#000000" d="M 370 352 L 568.18798828125 352 L 568.18798828125 404 L 370 404 L 370 352 Z Z" stroke-miterlimit="10"/></g><g transform="translate(-70,-310) scale(1,1)"><rect fill="#ffffff" stroke="none" x="360" y="359" width="20" height="10"/></g><g transform="translate(-70,-310) scale(1,1)"><path fill="none" stroke="#000000" d="M 360 359 L 380 359 L 380 369 L 360 369 L 360 359 Z Z" stroke-miterlimit="10"/></g><g transform="translate(-70,-310) scale(1,1)"><rect fill="#ffffff" stroke="none" x="360" y="379" width="20" height="10"/></g><g transform="translate(-70,-310) scale(1,1)"><path fill="none" stroke="#000000" d="M 360 379 L 380 379 L 380 389 L 360 389 L 360 379 Z Z" stroke-miterlimit="10"/></g><g transform="translate(-70,-310) scale(1,1)"><g><path fill="none" stroke="none"/><text fill="#000000" stroke="none" font-family="Arial" font-size="13px" font-style="normal" font-weight="normal" text-decoration="none" x="439.0390625" y="367.7099609375">«Database»</text></g></g><g transform="translate(-70,-310) scale(1,1)"><g><path fill="none" stroke="none"/><text fill="#000000" stroke="none" font-family="Arial" font-size="13px" font-style="normal" font-weight="bold" text-decoration="none" x="444.488525390625" y="382.7099609375">Audio DB</text></g></g><g transform="translate(-70,-310) scale(1,1)"><rect fill="#C0C0C0" stroke="none" x="593" y="359" width="184.4453125" height="52" opacity="0.2"/></g><g transform="translate(-70,-310) scale(1,1)"><rect fill="#ffffff" stroke="none" x="586" y="352" width="184.4453125" height="52"/></g><g transform="translate(-70,-310) scale(1,1)"><path fill="none" stroke="#000000" d="M 586 352 L 770.4453125 352 L 770.4453125 404 L 586 404 L 586 352 Z Z" stroke-miterlimit="10"/></g><g transform="translate(-70,-310) scale(1,1)"><rect fill="#ffffff" stroke="none" x="576" y="359" width="20" height="10"/></g><g transform="translate(-70,-310) scale(1,1)"><path fill="none" stroke="#000000" d="M 576 359 L 596 359 L 596 369 L 576 369 L 576 359 Z Z" stroke-miterlimit="10"/></g><g transform="translate(-70,-310) scale(1,1)"><rect fill="#ffffff" stroke="none" x="576" y="379" width="20" height="10"/></g><g transform="translate(-70,-310) scale(1,1)"><path fill="none" stroke="#000000" d="M 576 379 L 596 379 L 596 389 L 576 389 L 576 379 Z Z" stroke-miterlimit="10"/></g><g transform="translate(-70,-310) scale(1,1)"><g><path fill="none" stroke="none"/><text fill="#000000" stroke="none" font-family="Arial" font-size="13px" font-style="normal" font-weight="normal" text-decoration="none" x="642.38818359375" y="367.53857421875">«Component»</text></g></g><g transform="translate(-70,-310) scale(1,1)"><g><path fill="none" stroke="none"/><text fill="#000000" stroke="none" font-family="Arial" font-size="13px" font-style="normal" font-weight="bold" text-decoration="none" x="600.5" y="382.7099609375">Cochlear Implant Streamer</text></g></g><g transform="translate(-70,-310) scale(1,1)"><path fill="none" stroke="#000000" d="M 120 416 L 120 704" stroke-miterlimit="10" stroke-dasharray="6,4"/></g><g transform="translate(-70,-310) scale(1,1)"><path fill="none" stroke="#000000" d="M 264 416 L 264 704" stroke-miterlimit="10" stroke-dasharray="6,4"/></g><g transform="translate(-70,-310) scale(1,1)"><path fill="none" stroke="#000000" d="M 464 416 L 465 704" stroke-miterlimit="10" stroke-dasharray="6,4"/></g><g transform="translate(-70,-310) scale(1,1)"><path fill="none" stroke="#000000" d="M 672 416 L 671 704" stroke-miterlimit="10" stroke-dasharray="6,4"/></g><g transform="translate(-70,-310) scale(1,1)"><path fill="none" stroke="#000000" d="M 824 416 L 824 704" stroke-miterlimit="10" stroke-dasharray="6,4"/></g><g transform="translate(-70,-310) scale(1,1)"><rect fill="#ffffff" stroke="none" x="256" y="432" width="15" height="63"/></g><g transform="translate(-70,-310) scale(1,1)"><path fill="none" stroke="#000000" d="M 256 432 L 271 432 L 271 495 L 256 495 L 256 432 Z Z" stroke-miterlimit="10"/></g><g transform="translate(-70,-310) scale(1,1)"><rect fill="#ffffff" stroke="none" x="456" y="496" width="15" height="63"/></g><g transform="translate(-70,-310) scale(1,1)"><path fill="none" stroke="#000000" d="M 456 496 L 471 496 L 471 559 L 456 559 L 456 496 Z Z" stroke-miterlimit="10"/></g><g transform="translate(-70,-310) scale(1,1)"><rect fill="#ffffff" stroke="none" x="664" y="560" width="15" height="63"/></g><g transform="translate(-70,-310) scale(1,1)"><path fill="none" stroke="#000000" d="M 664 560 L 679 560 L 679 623 L 664 623 L 664 560 Z Z" stroke-miterlimit="10"/></g><g transform="translate(-70,-310) scale(1,1)"><rect fill="#ffffff" stroke="none" x="816" y="624" width="15" height="63"/></g><g transform="translate(-70,-310) scale(1,1)"><path fill="none" stroke="#000000" d="M 816 624 L 831 624 L 831 687 L 816 687 L 816 624 Z Z" stroke-miterlimit="10"/></g><g transform="translate(-70,-310) scale(1,1)"><path fill="none" stroke="#000000" d="M 128 432 L 244 432" stroke-miterlimit="10"/></g><g transform="translate(-70,-310) scale(1,1)"><path fill="#000000" stroke="none" d="M 233.83732514237585 436.209517756016 L 244 432 L 233.83732514237585 427.790482243984"/></g><g transform="translate(-70,-310) scale(1,1)"><path fill="none" stroke="#000000" d="M 233.83732514237585 436.209517756016 L 244 432 L 233.83732514237585 427.790482243984 L 233.83732514237585 436.209517756016" stroke-miterlimit="10"/></g><g transform="translate(-70,-310) scale(1,1)"><path fill="none" stroke="#000000" d="M 280 496 L 444 496" stroke-miterlimit="10"/></g><g transform="translate(-70,-310) scale(1,1)"><path fill="#000000" stroke="none" d="M 433.83732514237585 500.209517756016 L 444 496 L 433.83732514237585 491.790482243984"/></g><g transform="translate(-70,-310) scale(1,1)"><path fill="none" stroke="#000000" d="M 433.83732514237585 500.209517756016 L 444 496 L 433.83732514237585 491.790482243984 L 433.83732514237585 500.209517756016" stroke-miterlimit="10"/></g><g transform="translate(-70,-310) scale(1,1)"><path fill="none" stroke="#000000" d="M 480 560 L 654 560" stroke-miterlimit="10"/></g><g transform="translate(-70,-310) scale(1,1)"><path fill="#000000" stroke="none" d="M 643.8373251423759 564.209517756016 L 654 560 L 643.8373251423758 555.790482243984"/></g><g transform="translate(-70,-310) scale(1,1)"><path fill="none" stroke="#000000" d="M 643.8373251423759 564.209517756016 L 654 560 L 643.8373251423758 555.790482243984 L 643.8373251423759 564.209517756016" stroke-miterlimit="10"/></g><g transform="translate(-70,-310) scale(1,1)"><path fill="none" stroke="#000000" d="M 688 624 L 807 624" stroke-miterlimit="10"/></g><g transform="translate(-70,-310) scale(1,1)"><path fill="#000000" stroke="none" d="M 796.8373251423759 628.209517756016 L 807 624 L 796.8373251423758 619.790482243984"/></g><g transform="translate(-70,-310) scale(1,1)"><path fill="none" stroke="#000000" d="M 796.8373251423759 628.209517756016 L 807 624 L 796.8373251423758 619.790482243984 L 796.8373251423759 628.209517756016" stroke-miterlimit="10"/></g></g></svg>