<svg version="1.1" xmlns="http://www.w3.org/2000/svg" xmlns:xlink="http://www.w3.org/1999/xlink" width="695" height="455"><defs/><g><text fill="#eeeeee" stroke="none" font-family="Arial" font-size="24px" font-style="normal" font-weight="normal" text-decoration="none" x="0" y="0">UNREGISTERED</text><text fill="#eeeeee" stroke="none" font-family="Arial" font-size="24px" font-style="normal" font-weight="normal" text-decoration="none" x="0" y="30">UNREGISTERED</text><text fill="#eeeeee" stroke="none" font-family="Arial" font-size="24px" font-style="normal" font-weight="normal" text-decoration="none" x="0" y="60">UNREGISTERED</text><text fill="#eeeeee" stroke="none" font-family="Arial" font-size="24px" font-style="normal" font-weight="normal" text-decoration="none" x="0" y="90">UNREGISTERED</text><text fill="#eeeeee" stroke="none" font-family="Arial" font-size="24px" font-style="normal" font-weight="normal" text-decoration="none" x="0" y="120">UNREGISTERED</text><text fill="#eeeeee" stroke="none" font-family="Arial" font-size="24px" font-style="normal" font-weight="normal" text-decoration="none" x="0" y="150">UNREGISTERED</text><text fill="#eeeeee" stroke="none" font-family="Arial" font-size="24px" font-style="normal" font-weight="normal" text-decoration="none" x="0" y="180">UNREGISTERED</text><text fill="#eeeeee" stroke="none" font-family="Arial" font-size="24px" font-style="normal" font-weight="normal" text-decoration="none" x="0" y="210">UNREGISTERED</text><text fill="#eeeeee" stroke="none" font-family="Arial" font-size="24px" font-style="normal" font-weight="normal" text-decoration="none" x="0" y="240">UNREGISTERED</text><text fill="#eeeeee" stroke="none" font-family="Arial" font-size="24px" font-style="normal" font-weight="normal" text-decoration="none" x="0" y="270">UNREGISTERED</text><text fill="#eeeeee" stroke="none" font-family="Arial" font-size="24px" font-style="normal" font-weight="normal" text-decoration="none" x="0" y="300">UNREGISTERED</text><text fill="#eeeeee" stroke="none" font-family="Arial" font-size="24px" font-style="normal" font-weight="normal" text-decoration="none" x="0" y="330">UNREGISTERED</text><text fill="#eeeeee" stroke="none" font-family="Arial" font-size="24px" font-style="normal" font-weight="normal" text-decoration="none" x="0" y="360">UNREGISTERED</text><text fill="#eeeeee" stroke="none" font-family="Arial" font-size="24px" font-style="normal" font-weight="normal" text-decoration="none" x="0" y="390">UNREGISTERED</text><text fill="#eeeeee" stroke="none" font-family="Arial" font-size="24px" font-style="normal" font-weight="normal" text-decoration="none" x="0" y="420">UNREGISTERED</text><text fill="#eeeeee" stroke="none" font-family="Arial" font-size="24px" font-style="normal" font-weight="normal" text-decoration="none" x="0" y="450">UNREGISTERED</text><text fill="#eeeeee" stroke="none" font-family="Arial" font-size="24px" font-style="normal" font-weight="normal" text-decoration="none" x="200" y="0">UNREGISTERED</text><text fill="#eeeeee" stroke="none" font-family="Arial" font-size="24px" font-style="normal" font-weight="normal" text-decoration="none" x="200" y="30">UNREGISTERED</text><text fill="#eeeeee" stroke="none" font-family="Arial" font-size="24px" font-style="normal" font-weight="normal" text-decoration="none" x="200" y="60">UNREGISTERED</text><text fill="#eeeeee" stroke="none" font-family="Arial" font-size="24px" font-style="normal" font-weight="normal" text-decoration="none" x="200" y="90">UNREGISTERED</text><text fill="#eeeeee" stroke="none" font-family="Arial" font-size="24px" font-style="normal" font-weight="normal" text-decoration="none" x="200" y="120">UNREGISTERED</text><text fill="#eeeeee" stroke="none" font-family="Arial" font-size="24px" font-style="normal" font-weight="normal" text-decoration="none" x="200" y="150">UNREGISTERED</text><text fill="#eeeeee" stroke="none" font-family="Arial" font-size="24px" font-style="normal" font-weight="normal" text-decoration="none" x="200" y="180">UNREGISTERED</text><text fill="#eeeeee" stroke="none" font-family="Arial" font-size="24px" font-style="normal" font-weight="normal" text-decoration="none" x="200" y="210">UNREGISTERED</text><text fill="#eeeeee" stroke="none" font-family="Arial" font-size="24px" font-style="normal" font-weight="normal" text-decoration="none" x="200" y="240">UNREGISTERED</text><text fill="#eeeeee" stroke="none" font-family="Arial" font-size="24px" font-style="normal" font-weight="normal" text-decoration="none" x="200" y="270">UNREGISTERED</text><text fill="#eeeeee" stroke="none" font-family="Arial" font-size="24px" font-style="normal" font-weight="normal" text-decoration="none" x="200" y="300">UNREGISTERED</text><text fill="#eeeeee" stroke="none" font-family="Arial" font-size="24px" font-style="normal" font-weight="normal" text-decoration="none" x="200" y="330">UNREGISTERED</text><text fill="#eeeeee" stroke="none" font-family="Arial" font-size="24px" font-style="normal" font-weight="normal" text-decoration="none" x="200" y="360">UNREGISTERED</text><text fill="#eeeeee" stroke="none" font-family="Arial" font-size="24px" font-style="normal" font-weight="normal" text-decoration="none" x="200" y="390">UNREGISTERED</text><text fill="#eeeeee" stroke="none" font-family="Arial" font-size="24px" font-style="normal" font-weight="normal" text-decoration="none" x="200" y="420">UNREGISTERED</text><text fill="#eeeeee" stroke="none" font-family="Arial" font-size="24px" font-style="normal" font-weight="normal" text-decoration="none" x="200" y="450">UNREGISTERED</text><text fill="#eeeeee" stroke="none" font-family="Arial" font-size="24px" font-style="normal" font-weight="normal" text-decoration="none" x="400" y="0">UNREGISTERED</text><text fill="#eeeeee" stroke="none" font-family="Arial" font-size="24px" font-style="normal" font-weight="normal" text-decoration="none" x="400" y="30">UNREGISTERED</text><text fill="#eeeeee" stroke="none" font-family="Arial" font-size="24px" font-style="normal" font-weight="normal" text-decoration="none" x="400" y="60">UNREGISTERED</text><text fill="#eeeeee" stroke="none" font-family="Arial" font-size="24px" font-style="normal" font-weight="normal" text-decoration="none" x="400" y="90">UNREGISTERED</text><text fill="#eeeeee" stroke="none" font-family="Arial" font-size="24px" font-style="normal" font-weight="normal" text-decoration="none" x="400" y="120">UNREGISTERED</text><text fill="#eeeeee" stroke="none" font-family="Arial" font-size="24px" font-style="normal" font-weight="normal" text-decoration="none" x="400" y="150">UNREGISTERED</text><text fill="#eeeeee" stroke="none" font-family="Arial" font-size="24px" font-style="normal" font-weight="normal" text-decoration="none" x="400" y="180">UNREGISTERED</text><text fill="#eeeeee" stroke="none" font-family="Arial" font-size="24px" font-style="normal" font-weight="normal" text-decoration="none" x="400" y="210">UNREGISTERED</text><text fill="#eeeeee" stroke="none" font-family="Arial" font-size="24px" font-style="normal" font-weight="normal" text-decoration="none" x="400" y="240">UNREGISTERED</text><text fill="#eeeeee" stroke="none" font-family="Arial" font-size="24px" font-style="normal" font-weight="normal" text-decoration="none" x="400" y="270">UNREGISTERED</text><text fill="#eeeeee" stroke="none" font-family="Arial" font-size="24px" font-style="normal" font-weight="normal" text-decoration="none" x="400" y="300">UNREGISTERED</text><text fill="#eeeeee" stroke="none" font-family="Arial" font-size="24px" font-style="normal" font-weight="normal" text-decoration="none" x="400" y="330">UNREGISTERED</text><text fill="#eeeeee" stroke="none" font-family="Arial" font-size="24px" font-style="normal" font-weight="normal" text-decoration="none" x="400" y="360">UNREGISTERED</text><text fill="#eeeeee" stroke="none" font-family="Arial" font-size="24px" font-style="normal" font-weight="normal" text-decoration="none" x="400" y="390">UNREGISTERED</text><text fill="#eeeeee" stroke="none" font-family="Arial" font-size="24px" font-style="normal" font-weight="normal" text-decoration="none" x="400" y="420">UNREGISTERED</text><text fill="#eeeeee" stroke="none" font-family="Arial" font-size="24px" font-style="normal" font-weight="normal" text-decoration="none" x="400" y="450">UNREGISTERED</text><text fill="#eeeeee" stroke="none" font-family="Arial" font-size="24px" font-style="normal" font-weight="normal" text-decoration="none" x="600" y="0">UNREGISTERED</text><text fill="#eeeeee" stroke="none" font-family="Arial" font-size="24px" font-style="normal" font-weight="normal" text-decoration="none" x="600" y="30">UNREGISTERED</text><text fill="#eeeeee" stroke="none" font-family="Arial" font-size="24px" font-style="normal" font-weight="normal" text-decoration="none" x="600" y="60">UNREGISTERED</text><text fill="#eeeeee" stroke="none" font-family="Arial" font-size="24px" font-style="normal" font-weight="normal" text-decoration="none" x="600" y="90">UNREGISTERED</text><text fill="#eeeeee" stroke="none" font-family="Arial" font-size="24px" font-style="normal" font-weight="normal" text-decoration="none" x="600" y="120">UNREGISTERED</text><text fill="#eeeeee" stroke="none" font-family="Arial" font-size="24px" font-style="normal" font-weight="normal" text-decoration="none" x="600" y="150">UNREGISTERED</text><text fill="#eeeeee" stroke="none" font-family="Arial" font-size="24px" font-style="normal" font-weight="normal" text-decoration="none" x="600" y="180">UNREGISTERED</text><text fill="#eeeeee" stroke="none" font-family="Arial" font-size="24px" font-style="normal" font-weight="normal" text-decoration="none" x="600" y="210">UNREGISTERED</text><text fill="#eeeeee" stroke="none" font-family="Arial" font-size="24px" font-style="normal" font-weight="normal" text-decoration="none" x="600" y="240">UNREGISTERED</text><text fill="#eeeeee" stroke="none" font-family="Arial" font-size="24px" font-style="normal" font-weight="normal" text-decoration="none" x="600" y="270">UNREGISTERED</text><text fill="#eeeeee" stroke="none" font-family="Arial" font-size="24px" font-style="normal" font-weight="normal" text-decoration="none" x="600" y="300">UNREGISTERED</text><text fill="#eeeeee" stroke="none" font-family="Arial" font-size="24px" font-style="normal" font-weight="normal" text-decoration="none" x="600" y="330">UNREGISTERED</text><text fill="#eeeeee" stroke="none" font-family="Arial" font-size="24px" font-style="normal" font-weight="normal" text-decoration="none" x="600" y="360">UNREGISTERED</text><text fill="#eeeeee" stroke="none" font-family="Arial" font-size="24px" font-style="normal" font-weight="normal" text-decoration="none" x="600" y="390">UNREGISTERED</text><text fill="#eeeeee" stroke="none" font-family="Arial" font-size="24px" font-style="normal" font-weight="normal" text-decoration="none" x="600" y="420">UNREGISTERED</text><text fill="#eeeeee" stroke="none" font-family="Arial" font-size="24px" font-style="normal" font-weight="normal" text-decoration="none" x="600" y="450">UNREGISTERED</text><g transform="translate(-293,-459) scale(1,1)"><path fill="#ffffff" stroke="none" d="M 319.40935031960225 667.6800000000001 C 319.40935031960225 662.8861679360001 323.29519264454774 659 328.088623046875 659 C 332.88205344920226 659 336.76789577414775 662.8861679360001 336.76789577414775 667.6800000000001 C 336.76789577414775 672.473832064 332.88205344920226 676.36 328.088623046875 676.36 C 323.29519264454774 676.36 319.40935031960225 672.473832064 319.40935031960225 667.6800000000001 Z"/></g><g transform="translate(-293,-459) scale(1,1)"><path fill="none" stroke="#000000" d="M 319.40935031960225 667.6800000000001 C 319.40935031960225 662.8861679360001 323.29519264454774 659 328.088623046875 659 C 332.88205344920226 659 336.76789577414775 662.8861679360001 336.76789577414775 667.6800000000001 C 336.76789577414775 672.473832064 332.88205344920226 676.36 328.088623046875 676.36 C 323.29519264454774 676.36 319.40935031960225 672.473832064 319.40935031960225 667.6800000000001 Z" stroke-miterlimit="10"/></g><g transform="translate(-293,-459) scale(1,1)"><path fill="none" stroke="#000000" d="M 328.088623046875 676.36 L 328.088623046875 693.64" stroke-miterlimit="10"/></g><g transform="translate(-293,-459) scale(1,1)"><path fill="none" stroke="#000000" d="M 318.89880486505683 682.84 L 337.27844122869317 682.84" stroke-miterlimit="10"/></g><g transform="translate(-293,-459) scale(1,1)"><path fill="none" stroke="#000000" d="M 328.088623046875 693.64 L 315.32498668323865 711" stroke-miterlimit="10"/></g><g transform="translate(-293,-459) scale(1,1)"><path fill="none" stroke="#000000" d="M 328.088623046875 693.64 L 340.85225941051135 711" stroke-miterlimit="10"/></g><g transform="translate(-293,-459) scale(1,1)"><g><path fill="none" stroke="none"/><text fill="#000000" stroke="none" font-family="Arial" font-size="13px" font-style="normal" font-weight="bold" text-decoration="none" x="307.8681640625" y="729.7099609375">Admin</text></g></g><g transform="translate(-293,-459) scale(1,1)"><path fill="#C0C0C0" stroke="none" d="M 514 866.5 C 514 841.9233264 555.6375136 822 607 822 C 658.3624864 822 700 841.9233264 700 866.5 C 700 891.0766736 658.3624864 911 607 911 C 555.6375136 911 514 891.0766736 514 866.5 Z" opacity="0.2"/></g><g transform="translate(-293,-459) scale(1,1)"><path fill="#ffffff" stroke="none" d="M 507 859.5 C 507 834.9233264 548.6375136 815 600 815 C 651.3624864 815 693 834.9233264 693 859.5 C 693 884.0766736 651.3624864 904 600 904 C 548.6375136 904 507 884.0766736 507 859.5 Z"/></g><g transform="translate(-293,-459) scale(1,1)"><path fill="none" stroke="#000000" d="M 507 859.5 C 507 834.9233264 548.6375136 815 600 815 C 651.3624864 815 693 834.9233264 693 859.5 C 693 884.0766736 651.3624864 904 600 904 C 548.6375136 904 507 884.0766736 507 859.5 Z" stroke-miterlimit="10"/></g><g transform="translate(-293,-459) scale(1,1)"><g><path fill="none" stroke="none"/><text fill="#000000" stroke="none" font-family="Arial" font-size="13px" font-style="normal" font-weight="bold" text-decoration="none" x="557.75634765625" y="858.2099609375">Production of</text><text fill="#000000" stroke="none" font-family="Arial" font-size="13px" font-style="normal" font-weight="bold" text-decoration="none" x="575.44091796875" y="870.971923828125">Reports</text></g></g><g transform="translate(-293,-459) scale(1,1)"><path fill="none" stroke="#000000" d="M 588 815 L 588 737" stroke-miterlimit="10" stroke-dasharray="3"/></g><g transform="translate(-293,-459) scale(1,1)"><path fill="none" stroke="#000000" d="M 592.209517756016 747.1626748576241 L 588 737 L 583.790482243984 747.1626748576241" stroke-miterlimit="10"/></g><g transform="translate(-293,-459) scale(1,1)"><g><path fill="none" stroke="none"/><text fill="#000000" stroke="none" font-family="Arial" font-size="13px" font-style="normal" font-weight="normal" text-decoration="none" x="531.5" y="779.7099609375">«extend»</text></g></g><g transform="translate(-293,-459) scale(1,1)"><path fill="#C0C0C0" stroke="none" d="M 503 699.5 C 503 674.9233264 544.6375136 655 596 655 C 647.3624864 655 689 674.9233264 689 699.5 C 689 724.0766736 647.3624864 744 596 744 C 544.6375136 744 503 724.0766736 503 699.5 Z" opacity="0.2"/></g><g transform="translate(-293,-459) scale(1,1)"><path fill="#ffffff" stroke="none" d="M 496 692.5 C 496 667.9233264 537.6375136 648 589 648 C 640.3624864 648 682 667.9233264 682 692.5 C 682 717.0766736 640.3624864 737 589 737 C 537.6375136 737 496 717.0766736 496 692.5 Z"/></g><g transform="translate(-293,-459) scale(1,1)"><path fill="none" stroke="#000000" d="M 496 692.5 C 496 667.9233264 537.6375136 648 589 648 C 640.3624864 648 682 667.9233264 682 692.5 C 682 717.0766736 640.3624864 737 589 737 C 537.6375136 737 496 717.0766736 496 692.5 Z" stroke-miterlimit="10"/></g><g transform="translate(-293,-459) scale(1,1)"><g><path fill="none" stroke="none"/><text fill="#000000" stroke="none" font-family="Arial" font-size="13px" font-style="normal" font-weight="bold" text-decoration="none" x="541.452880859375" y="691.2099609375">Tourism FLows</text><text fill="#000000" stroke="none" font-family="Arial" font-size="13px" font-style="normal" font-weight="bold" text-decoration="none" x="562.263671875" y="704.2099609375">Analysis</text></g></g><g transform="translate(-293,-459) scale(1,1)"><path fill="#C0C0C0" stroke="none" d="M 799 699.5 C 799 674.9233264 840.6375136 655 892 655 C 943.3624864 655 985 674.9233264 985 699.5 C 985 724.0766736 943.3624864 744 892 744 C 840.6375136 744 799 724.0766736 799 699.5 Z" opacity="0.2"/></g><g transform="translate(-293,-459) scale(1,1)"><path fill="#ffffff" stroke="none" d="M 792 692.5 C 792 667.9233264 833.6375136 648 885 648 C 936.3624864 648 978 667.9233264 978 692.5 C 978 717.0766736 936.3624864 737 885 737 C 833.6375136 737 792 717.0766736 792 692.5 Z"/></g><g transform="translate(-293,-459) scale(1,1)"><path fill="none" stroke="#000000" d="M 792 692.5 C 792 667.9233264 833.6375136 648 885 648 C 936.3624864 648 978 667.9233264 978 692.5 C 978 717.0766736 936.3624864 737 885 737 C 833.6375136 737 792 717.0766736 792 692.5 Z" stroke-miterlimit="10"/></g><g transform="translate(-293,-459) scale(1,1)"><g><path fill="none" stroke="none"/><text fill="#000000" stroke="none" font-family="Arial" font-size="13px" font-style="normal" font-weight="bold" text-decoration="none" x="839.503173828125" y="697.7099609375">Authentication</text></g></g><g transform="translate(-293,-459) scale(1,1)"><path fill="#C0C0C0" stroke="none" d="M 503 520.5 C 503 495.9233264 553.5918176 476 616 476 C 678.4081824 476 729 495.9233264 729 520.5 C 729 545.0766736 678.4081824 565 616 565 C 553.5918176 565 503 545.0766736 503 520.5 Z" opacity="0.2"/></g><g transform="translate(-293,-459) scale(1,1)"><path fill="#ffffff" stroke="none" d="M 496 513.5 C 496 488.9233264 546.5918176 469 609 469 C 671.4081824 469 722 488.9233264 722 513.5 C 722 538.0766736 671.4081824 558 609 558 C 546.5918176 558 496 538.0766736 496 513.5 Z"/></g><g transform="translate(-293,-459) scale(1,1)"><path fill="none" stroke="#000000" d="M 496 513.5 C 496 488.9233264 546.5918176 469 609 469 C 671.4081824 469 722 488.9233264 722 513.5 C 722 538.0766736 671.4081824 558 609 558 C 546.5918176 558 496 538.0766736 496 513.5 Z" stroke-miterlimit="10"/></g><g transform="translate(-293,-459) scale(1,1)"><g><path fill="none" stroke="none"/><text fill="#000000" stroke="none" font-family="Arial" font-size="13px" font-style="normal" font-weight="bold" text-decoration="none" x="563.617431640625" y="512.2099609375">Tourism Flows</text><text fill="#000000" stroke="none" font-family="Arial" font-size="13px" font-style="normal" font-weight="bold" text-decoration="none" x="569.387451171875" y="525.2099609375">Visualization</text></g></g><g transform="translate(-293,-459) scale(1,1)"><path fill="none" stroke="#000000" d="M 354 696 L 495 694" stroke-miterlimit="10"/></g><g transform="translate(-293,-459) scale(1,1)"><path fill="none" stroke="#000000" d="M 484.8980508045381 698.3532312656586 L 495 694 L 484.77864387266646 689.9350425687073" stroke-miterlimit="10"/></g><g transform="translate(-293,-459) scale(1,1)"><path fill="none" stroke="#000000" d="M 594 647 L 604 559" stroke-miterlimit="10" stroke-dasharray="3"/></g><g transform="translate(-293,-459) scale(1,1)"><path fill="none" stroke="#000000" d="M 607.0351345146382 569.5729824779033 L 604 559 L 598.669936589622 568.6223918046061" stroke-miterlimit="10"/></g><g transform="translate(-293,-459) scale(1,1)"><g><path fill="none" stroke="none"/><text fill="#000000" stroke="none" font-family="Arial" font-size="13px" font-style="normal" font-weight="normal" text-decoration="none" x="541.5" y="603.7099609375">«include»</text></g></g><g transform="translate(-293,-459) scale(1,1)"><path fill="none" stroke="#000000" d="M 683 692 L 791 692" stroke-miterlimit="10" stroke-dasharray="3"/></g><g transform="translate(-293,-459) scale(1,1)"><path fill="none" stroke="#000000" d="M 780.8373251423759 696.209517756016 L 791 692 L 780.8373251423758 687.790482243984" stroke-miterlimit="10"/></g><g transform="translate(-293,-459) scale(1,1)"><g><path fill="none" stroke="none"/><text fill="#000000" stroke="none" font-family="Arial" font-size="13px" font-style="normal" font-weight="normal" text-decoration="none" x="709.5" y="666.7099609375">«include»</text></g></g></g></svg>