<svg version="1.1" xmlns="http://www.w3.org/2000/svg" xmlns:xlink="http://www.w3.org/1999/xlink" width="1000" height="449"><defs/><g><text fill="#eeeeee" stroke="none" font-family="Arial" font-size="24px" font-style="normal" font-weight="normal" text-decoration="none" x="0" y="0">UNREGISTERED</text><text fill="#eeeeee" stroke="none" font-family="Arial" font-size="24px" font-style="normal" font-weight="normal" text-decoration="none" x="0" y="30">UNREGISTERED</text><text fill="#eeeeee" stroke="none" font-family="Arial" font-size="24px" font-style="normal" font-weight="normal" text-decoration="none" x="0" y="60">UNREGISTERED</text><text fill="#eeeeee" stroke="none" font-family="Arial" font-size="24px" font-style="normal" font-weight="normal" text-decoration="none" x="0" y="90">UNREGISTERED</text><text fill="#eeeeee" stroke="none" font-family="Arial" font-size="24px" font-style="normal" font-weight="normal" text-decoration="none" x="0" y="120">UNREGISTERED</text><text fill="#eeeeee" stroke="none" font-family="Arial" font-size="24px" font-style="normal" font-weight="normal" text-decoration="none" x="0" y="150">UNREGISTERED</text><text fill="#eeeeee" stroke="none" font-family="Arial" font-size="24px" font-style="normal" font-weight="normal" text-decoration="none" x="0" y="180">UNREGISTERED</text><text fill="#eeeeee" stroke="none" font-family="Arial" font-size="24px" font-style="normal" font-weight="normal" text-decoration="none" x="0" y="210">UNREGISTERED</text><text fill="#eeeeee" stroke="none" font-family="Arial" font-size="24px" font-style="normal" font-weight="normal" text-decoration="none" x="0" y="240">UNREGISTERED</text><text fill="#eeeeee" stroke="none" font-family="Arial" font-size="24px" font-style="normal" font-weight="normal" text-decoration="none" x="0" y="270">UNREGISTERED</text><text fill="#eeeeee" stroke="none" font-family="Arial" font-size="24px" font-style="normal" font-weight="normal" text-decoration="none" x="0" y="300">UNREGISTERED</text><text fill="#eeeeee" stroke="none" font-family="Arial" font-size="24px" font-style="normal" font-weight="normal" text-decoration="none" x="0" y="330">UNREGISTERED</text><text fill="#eeeeee" stroke="none" font-family="Arial" font-size="24px" font-style="normal" font-weight="normal" text-decoration="none" x="0" y="360">UNREGISTERED</text><text fill="#eeeeee" stroke="none" font-family="Arial" font-size="24px" font-style="normal" font-weight="normal" text-decoration="none" x="0" y="390">UNREGISTERED</text><text fill="#eeeeee" stroke="none" font-family="Arial" font-size="24px" font-style="normal" font-weight="normal" text-decoration="none" x="0" y="420">UNREGISTERED</text><text fill="#eeeeee" stroke="none" font-family="Arial" font-size="24px" font-style="normal" font-weight="normal" text-decoration="none" x="200" y="0">UNREGISTERED</text><text fill="#eeeeee" stroke="none" font-family="Arial" font-size="24px" font-style="normal" font-weight="normal" text-decoration="none" x="200" y="30">UNREGISTERED</text><text fill="#eeeeee" stroke="none" font-family="Arial" font-size="24px" font-style="normal" font-weight="normal" text-decoration="none" x="200" y="60">UNREGISTERED</text><text fill="#eeeeee" stroke="none" font-family="Arial" font-size="24px" font-style="normal" font-weight="normal" text-decoration="none" x="200" y="90">UNREGISTERED</text><text fill="#eeeeee" stroke="none" font-family="Arial" font-size="24px" font-style="normal" font-weight="normal" text-decoration="none" x="200" y="120">UNREGISTERED</text><text fill="#eeeeee" stroke="none" font-family="Arial" font-size="24px" font-style="normal" font-weight="normal" text-decoration="none" x="200" y="150">UNREGISTERED</text><text fill="#eeeeee" stroke="none" font-family="Arial" font-size="24px" font-style="normal" font-weight="normal" text-decoration="none" x="200" y="180">UNREGISTERED</text><text fill="#eeeeee" stroke="none" font-family="Arial" font-size="24px" font-style="normal" font-weight="normal" text-decoration="none" x="200" y="210">UNREGISTERED</text><text fill="#eeeeee" stroke="none" font-family="Arial" font-size="24px" font-style="normal" font-weight="normal" text-decoration="none" x="200" y="240">UNREGISTERED</text><text fill="#eeeeee" stroke="none" font-family="Arial" font-size="24px" font-style="normal" font-weight="normal" text-decoration="none" x="200" y="270">UNREGISTERED</text><text fill="#eeeeee" stroke="none" font-family="Arial" font-size="24px" font-style="normal" font-weight="normal" text-decoration="none" x="200" y="300">UNREGISTERED</text><text fill="#eeeeee" stroke="none" font-family="Arial" font-size="24px" font-style="normal" font-weight="normal" text-decoration="none" x="200" y="330">UNREGISTERED</text><text fill="#eeeeee" stroke="none" font-family="Arial" font-size="24px" font-style="normal" font-weight="normal" text-decoration="none" x="200" y="360">UNREGISTERED</text><text fill="#eeeeee" stroke="none" font-family="Arial" font-size="24px" font-style="normal" font-weight="normal" text-decoration="none" x="200" y="390">UNREGISTERED</text><text fill="#eeeeee" stroke="none" font-family="Arial" font-size="24px" font-style="normal" font-weight="normal" text-decoration="none" x="200" y="420">UNREGISTERED</text><text fill="#eeeeee" stroke="none" font-family="Arial" font-size="24px" font-style="normal" font-weight="normal" text-decoration="none" x="400" y="0">UNREGISTERED</text><text fill="#eeeeee" stroke="none" font-family="Arial" font-size="24px" font-style="normal" font-weight="normal" text-decoration="none" x="400" y="30">UNREGISTERED</text><text fill="#eeeeee" stroke="none" font-family="Arial" font-size="24px" font-style="normal" font-weight="normal" text-decoration="none" x="400" y="60">UNREGISTERED</text><text fill="#eeeeee" stroke="none" font-family="Arial" font-size="24px" font-style="normal" font-weight="normal" text-decoration="none" x="400" y="90">UNREGISTERED</text><text fill="#eeeeee" stroke="none" font-family="Arial" font-size="24px" font-style="normal" font-weight="normal" text-decoration="none" x="400" y="120">UNREGISTERED</text><text fill="#eeeeee" stroke="none" font-family="Arial" font-size="24px" font-style="normal" font-weight="normal" text-decoration="none" x="400" y="150">UNREGISTERED</text><text fill="#eeeeee" stroke="none" font-family="Arial" font-size="24px" font-style="normal" font-weight="normal" text-decoration="none" x="400" y="180">UNREGISTERED</text><text fill="#eeeeee" stroke="none" font-family="Arial" font-size="24px" font-style="normal" font-weight="normal" text-decoration="none" x="400" y="210">UNREGISTERED</text><text fill="#eeeeee" stroke="none" font-family="Arial" font-size="24px" font-style="normal" font-weight="normal" text-decoration="none" x="400" y="240">UNREGISTERED</text><text fill="#eeeeee" stroke="none" font-family="Arial" font-size="24px" font-style="normal" font-weight="normal" text-decoration="none" x="400" y="270">UNREGISTERED</text><text fill="#eeeeee" stroke="none" font-family="Arial" font-size="24px" font-style="normal" font-weight="normal" text-decoration="none" x="400" y="300">UNREGISTERED</text><text fill="#eeeeee" stroke="none" font-family="Arial" font-size="24px" font-style="normal" font-weight="normal" text-decoration="none" x="400" y="330">UNREGISTERED</text><text fill="#eeeeee" stroke="none" font-family="Arial" font-size="24px" font-style="normal" font-weight="normal" text-decoration="none" x="400" y="360">UNREGISTERED</text><text fill="#eeeeee" stroke="none" font-family="Arial" font-size="24px" font-style="normal" font-weight="normal" text-decoration="none" x="400" y="390">UNREGISTERED</text><text fill="#eeeeee" stroke="none" font-family="Arial" font-size="24px" font-style="normal" font-weight="normal" text-decoration="none" x="400" y="420">UNREGISTERED</text><text fill="#eeeeee" stroke="none" font-family="Arial" font-size="24px" font-style="normal" font-weight="normal" text-decoration="none" x="600" y="0">UNREGISTERED</text><text fill="#eeeeee" stroke="none" font-family="Arial" font-size="24px" font-style="normal" font-weight="normal" text-decoration="none" x="600" y="30">UNREGISTERED</text><text fill="#eeeeee" stroke="none" font-family="Arial" font-size="24px" font-style="normal" font-weight="normal" text-decoration="none" x="600" y="60">UNREGISTERED</text><text fill="#eeeeee" stroke="none" font-family="Arial" font-size="24px" font-style="normal" font-weight="normal" text-decoration="none" x="600" y="90">UNREGISTERED</text><text fill="#eeeeee" stroke="none" font-family="Arial" font-size="24px" font-style="normal" font-weight="normal" text-decoration="none" x="600" y="120">UNREGISTERED</text><text fill="#eeeeee" stroke="none" font-family="Arial" font-size="24px" font-style="normal" font-weight="normal" text-decoration="none" x="600" y="150">UNREGISTERED</text><text fill="#eeeeee" stroke="none" font-family="Arial" font-size="24px" font-style="normal" font-weight="normal" text-decoration="none" x="600" y="180">UNREGISTERED</text><text fill="#eeeeee" stroke="none" font-family="Arial" font-size="24px" font-style="normal" font-weight="normal" text-decoration="none" x="600" y="210">UNREGISTERED</text><text fill="#eeeeee" stroke="none" font-family="Arial" font-size="24px" font-style="normal" font-weight="normal" text-decoration="none" x="600" y="240">UNREGISTERED</text><text fill="#eeeeee" stroke="none" font-family="Arial" font-size="24px" font-style="normal" font-weight="normal" text-decoration="none" x="600" y="270">UNREGISTERED</text><text fill="#eeeeee" stroke="none" font-family="Arial" font-size="24px" font-style="normal" font-weight="normal" text-decoration="none" x="600" y="300">UNREGISTERED</text><text fill="#eeeeee" stroke="none" font-family="Arial" font-size="24px" font-style="normal" font-weight="normal" text-decoration="none" x="600" y="330">UNREGISTERED</text><text fill="#eeeeee" stroke="none" font-family="Arial" font-size="24px" font-style="normal" font-weight="normal" text-decoration="none" x="600" y="360">UNREGISTERED</text><text fill="#eeeeee" stroke="none" font-family="Arial" font-size="24px" font-style="normal" font-weight="normal" text-decoration="none" x="600" y="390">UNREGISTERED</text><text fill="#eeeeee" stroke="none" font-family="Arial" font-size="24px" font-style="normal" font-weight="normal" text-decoration="none" x="600" y="420">UNREGISTERED</text><text fill="#eeeeee" stroke="none" font-family="Arial" font-size="24px" font-style="normal" font-weight="normal" text-decoration="none" x="800" y="0">UNREGISTERED</text><text fill="#eeeeee" stroke="none" font-family="Arial" font-size="24px" font-style="normal" font-weight="normal" text-decoration="none" x="800" y="30">UNREGISTERED</text><text fill="#eeeeee" stroke="none" font-family="Arial" font-size="24px" font-style="normal" font-weight="normal" text-decoration="none" x="800" y="60">UNREGISTERED</text><text fill="#eeeeee" stroke="none" font-family="Arial" font-size="24px" font-style="normal" font-weight="normal" text-decoration="none" x="800" y="90">UNREGISTERED</text><text fill="#eeeeee" stroke="none" font-family="Arial" font-size="24px" font-style="normal" font-weight="normal" text-decoration="none" x="800" y="120">UNREGISTERED</text><text fill="#eeeeee" stroke="none" font-family="Arial" font-size="24px" font-style="normal" font-weight="normal" text-decoration="none" x="800" y="150">UNREGISTERED</text><text fill="#eeeeee" stroke="none" font-family="Arial" font-size="24px" font-style="normal" font-weight="normal" text-decoration="none" x="800" y="180">UNREGISTERED</text><text fill="#eeeeee" stroke="none" font-family="Arial" font-size="24px" font-style="normal" font-weight="normal" text-decoration="none" x="800" y="210">UNREGISTERED</text><text fill="#eeeeee" stroke="none" font-family="Arial" font-size="24px" font-style="normal" font-weight="normal" text-decoration="none" x="800" y="240">UNREGISTERED</text><text fill="#eeeeee" stroke="none" font-family="Arial" font-size="24px" font-style="normal" font-weight="normal" text-decoration="none" x="800" y="270">UNREGISTERED</text><text fill="#eeeeee" stroke="none" font-family="Arial" font-size="24px" font-style="normal" font-weight="normal" text-decoration="none" x="800" y="300">UNREGISTERED</text><text fill="#eeeeee" stroke="none" font-family="Arial" font-size="24px" font-style="normal" font-weight="normal" text-decoration="none" x="800" y="330">UNREGISTERED</text><text fill="#eeeeee" stroke="none" font-family="Arial" font-size="24px" font-style="normal" font-weight="normal" text-decoration="none" x="800" y="360">UNREGISTERED</text><text fill="#eeeeee" stroke="none" font-family="Arial" font-size="24px" font-style="normal" font-weight="normal" text-decoration="none" x="800" y="390">UNREGISTERED</text><text fill="#eeeeee" stroke="none" font-family="Arial" font-size="24px" font-style="normal" font-weight="normal" text-decoration="none" x="800" y="420">UNREGISTERED</text><g transform="translate(-38,-62) scale(1,1)"><path fill="#ffffff" stroke="none" d="M 192.29873419744317 340.23 C 192.29873419744317 334.027841696 197.26397716820682 329 203.388916015625 329 C 209.51385486304318 329 214.47909783380683 334.027841696 214.47909783380683 340.23 C 214.47909783380683 346.43215830400004 209.51385486304318 351.46 203.388916015625 351.46 C 197.26397716820682 351.46 192.29873419744317 346.43215830400004 192.29873419744317 340.23 Z"/></g><g transform="translate(-38,-62) scale(1,1)"><path fill="none" stroke="#000000" d="M 192.29873419744317 340.23 C 192.29873419744317 334.027841696 197.26397716820682 329 203.388916015625 329 C 209.51385486304318 329 214.47909783380683 334.027841696 214.47909783380683 340.23 C 214.47909783380683 346.43215830400004 209.51385486304318 351.46 203.388916015625 351.46 C 197.26397716820682 351.46 192.29873419744317 346.43215830400004 192.29873419744317 340.23 Z" stroke-miterlimit="10"/></g><g transform="translate(-38,-62) scale(1,1)"><path fill="none" stroke="#000000" d="M 203.388916015625 351.46 L 203.388916015625 373.54" stroke-miterlimit="10"/></g><g transform="translate(-38,-62) scale(1,1)"><path fill="none" stroke="#000000" d="M 191.64637056107955 359.74 L 215.13146147017045 359.74" stroke-miterlimit="10"/></g><g transform="translate(-38,-62) scale(1,1)"><path fill="none" stroke="#000000" d="M 203.388916015625 373.54 L 187.0798251065341 396" stroke-miterlimit="10"/></g><g transform="translate(-38,-62) scale(1,1)"><path fill="none" stroke="#000000" d="M 203.388916015625 373.54 L 219.6980069247159 396" stroke-miterlimit="10"/></g><g transform="translate(-38,-62) scale(1,1)"><g><path fill="none" stroke="none"/><text fill="#000000" stroke="none" font-family="Arial" font-size="13px" font-style="normal" font-weight="bold" text-decoration="none" x="164.5" y="414.7099609375">Script Writer</text></g></g><g transform="translate(-38,-62) scale(1,1)"><path fill="#C0C0C0" stroke="none" d="M 383 384 C 383 374.6111584 424.1897984 367 475 367 C 525.8102016 367 567 374.6111584 567 384 C 567 393.3888416 525.8102016 401 475 401 C 424.1897984 401 383 393.3888416 383 384 Z" opacity="0.2"/></g><g transform="translate(-38,-62) scale(1,1)"><path fill="#ffffff" stroke="none" d="M 376 377 C 376 367.6111584 417.1897984 360 468 360 C 518.8102016 360 560 367.6111584 560 377 C 560 386.3888416 518.8102016 394 468 394 C 417.1897984 394 376 386.3888416 376 377 Z"/></g><g transform="translate(-38,-62) scale(1,1)"><path fill="none" stroke="#000000" d="M 376 377 C 376 367.6111584 417.1897984 360 468 360 C 518.8102016 360 560 367.6111584 560 377 C 560 386.3888416 518.8102016 394 468 394 C 417.1897984 394 376 386.3888416 376 377 Z" stroke-miterlimit="10"/></g><g transform="translate(-38,-62) scale(1,1)"><g><path fill="none" stroke="none"/><text fill="#000000" stroke="none" font-family="Arial" font-size="13px" font-style="normal" font-weight="bold" text-decoration="none" x="407.31640625" y="381.7021484375">compose new story</text></g></g><g transform="translate(-38,-62) scale(1,1)"><path fill="none" stroke="#000000" d="M 248 375 L 375 376" stroke-miterlimit="10"/></g><g transform="translate(-38,-62) scale(1,1)"><path fill="#C0C0C0" stroke="none" d="M 631 288 C 631 278.6111584 708.9024448 271 805 271 C 901.0975552 271 979 278.6111584 979 288 C 979 297.3888416 901.0975552 305 805 305 C 708.9024448 305 631 297.3888416 631 288 Z" opacity="0.2"/></g><g transform="translate(-38,-62) scale(1,1)"><path fill="#ffffff" stroke="none" d="M 624 281 C 624 271.6111584 701.9024448 264 798 264 C 894.0975552 264 972 271.6111584 972 281 C 972 290.3888416 894.0975552 298 798 298 C 701.9024448 298 624 290.3888416 624 281 Z"/></g><g transform="translate(-38,-62) scale(1,1)"><path fill="none" stroke="#000000" d="M 624 281 C 624 271.6111584 701.9024448 264 798 264 C 894.0975552 264 972 271.6111584 972 281 C 972 290.3888416 894.0975552 298 798 298 C 701.9024448 298 624 290.3888416 624 281 Z" stroke-miterlimit="10"/></g><g transform="translate(-38,-62) scale(1,1)"><g><path fill="none" stroke="none"/><text fill="#000000" stroke="none" font-family="Arial" font-size="13px" font-style="normal" font-weight="bold" text-decoration="none" x="679.50830078125" y="286.2099609375">save story in machine readable format</text></g></g><g transform="translate(-38,-62) scale(1,1)"><path fill="none" stroke="#000000" d="M 736 299 L 530 359" stroke-miterlimit="10" stroke-dasharray="3"/></g><g transform="translate(-38,-62) scale(1,1)"><path fill="none" stroke="#000000" d="M 538.5800700379584 352.11651264665016 L 530 359 L 540.9343862926614 360.19966512113047" stroke-miterlimit="10"/></g><g transform="translate(-38,-62) scale(1,1)"><g><path fill="none" stroke="none"/><text fill="#000000" stroke="none" font-family="Arial" font-size="13px" font-style="normal" font-weight="normal" text-decoration="none" x="614.5" y="361.7099609375">«extend»</text></g></g><g transform="translate(-38,-62) scale(1,1)"><path fill="#C0C0C0" stroke="none" d="M 335 472 C 335 462.6111584 393.6506912 455 466 455 C 538.3493088 455 597 462.6111584 597 472 C 597 481.3888416 538.3493088 489 466 489 C 393.6506912 489 335 481.3888416 335 472 Z" opacity="0.2"/></g><g transform="translate(-38,-62) scale(1,1)"><path fill="#ffffff" stroke="none" d="M 328 465 C 328 455.6111584 386.6506912 448 459 448 C 531.3493088 448 590 455.6111584 590 465 C 590 474.3888416 531.3493088 482 459 482 C 386.6506912 482 328 474.3888416 328 465 Z"/></g><g transform="translate(-38,-62) scale(1,1)"><path fill="none" stroke="#000000" d="M 328 465 C 328 455.6111584 386.6506912 448 459 448 C 531.3493088 448 590 455.6111584 590 465 C 590 474.3888416 531.3493088 482 459 482 C 386.6506912 482 328 474.3888416 328 465 Z" stroke-miterlimit="10"/></g><g transform="translate(-38,-62) scale(1,1)"><g><path fill="none" stroke="none"/><text fill="#000000" stroke="none" font-family="Arial" font-size="13px" font-style="normal" font-weight="bold" text-decoration="none" x="370.859619140625" y="470.2099609375">edit already composed story</text></g></g><g transform="translate(-38,-62) scale(1,1)"><path fill="none" stroke="#000000" d="M 248 391 L 408 447" stroke-miterlimit="10"/></g><g transform="translate(-38,-62) scale(1,1)"><path fill="none" stroke="#000000" d="M 765 299 L 492 447" stroke-miterlimit="10" stroke-dasharray="3"/></g><g transform="translate(-38,-62) scale(1,1)"><path fill="none" stroke="#000000" d="M 498.9280123002208 438.4558414359289 L 492 447 L 502.9404769378177 445.8572120174422" stroke-miterlimit="10"/></g><g transform="translate(-38,-62) scale(1,1)"><g><path fill="none" stroke="none"/><text fill="#000000" stroke="none" font-family="Arial" font-size="13px" font-style="normal" font-weight="normal" text-decoration="none" x="615.5" y="403.7099609375">«extend»</text></g></g><g transform="translate(-38,-62) scale(1,1)"><path fill="#C0C0C0" stroke="none" d="M 759 472 C 759 462.6111584 820.7846976 455 897 455 C 973.2153024 455 1035 462.6111584 1035 472 C 1035 481.3888416 973.2153024 489 897 489 C 820.7846976 489 759 481.3888416 759 472 Z" opacity="0.2"/></g><g transform="translate(-38,-62) scale(1,1)"><path fill="#ffffff" stroke="none" d="M 752 465 C 752 455.6111584 813.7846976 448 890 448 C 966.2153024 448 1028 455.6111584 1028 465 C 1028 474.3888416 966.2153024 482 890 482 C 813.7846976 482 752 474.3888416 752 465 Z"/></g><g transform="translate(-38,-62) scale(1,1)"><path fill="none" stroke="#000000" d="M 752 465 C 752 455.6111584 813.7846976 448 890 448 C 966.2153024 448 1028 455.6111584 1028 465 C 1028 474.3888416 966.2153024 482 890 482 C 813.7846976 482 752 474.3888416 752 465 Z" stroke-miterlimit="10"/></g><g transform="translate(-38,-62) scale(1,1)"><g><path fill="none" stroke="none"/><text fill="#000000" stroke="none" font-family="Arial" font-size="13px" font-style="normal" font-weight="bold" text-decoration="none" x="796.83544921875" y="470.2099609375">populate storytelling ontology</text></g></g><g transform="translate(-38,-62) scale(1,1)"><path fill="none" stroke="#000000" d="M 804 447 L 554 395" stroke-miterlimit="10" stroke-dasharray="3"/></g><g transform="translate(-38,-62) scale(1,1)"><path fill="none" stroke="#000000" d="M 564.8069537866847 392.94823250526287 L 554 395 L 563.0924890154812 401.19085159758765" stroke-miterlimit="10"/></g><g transform="translate(-38,-62) scale(1,1)"><g><path fill="none" stroke="none"/><text fill="#000000" stroke="none" font-family="Arial" font-size="13px" font-style="normal" font-weight="normal" text-decoration="none" x="645.5" y="454.7099609375">«extend»</text></g></g><g transform="translate(-38,-62) scale(1,1)"><path fill="none" stroke="#000000" d="M 751 465 L 591 465" stroke-miterlimit="10" stroke-dasharray="3"/></g><g transform="translate(-38,-62) scale(1,1)"><path fill="none" stroke="#000000" d="M 601.1626748576241 460.790482243984 L 591 465 L 601.1626748576241 469.209517756016" stroke-miterlimit="10"/></g><g transform="translate(-38,-62) scale(1,1)"><g><path fill="none" stroke="none"/><text fill="#000000" stroke="none" font-family="Arial" font-size="13px" font-style="normal" font-weight="normal" text-decoration="none" x="643.5" y="499.7099609375">«extend»</text></g></g><g transform="translate(-38,-62) scale(1,1)"><path fill="#C0C0C0" stroke="none" d="M 207 240 C 207 230.6111584 299.0054736 223 412.5 223 C 525.9945264 223 618 230.6111584 618 240 C 618 249.3888416 525.9945264 257 412.5 257 C 299.0054736 257 207 249.3888416 207 240 Z" opacity="0.2"/></g><g transform="translate(-38,-62) scale(1,1)"><path fill="#ffffff" stroke="none" d="M 200 233 C 200 223.6111584 292.0054736 216 405.5 216 C 518.9945264 216 611 223.6111584 611 233 C 611 242.3888416 518.9945264 250 405.5 250 C 292.0054736 250 200 242.3888416 200 233 Z"/></g><g transform="translate(-38,-62) scale(1,1)"><path fill="none" stroke="#000000" d="M 200 233 C 200 223.6111584 292.0054736 216 405.5 216 C 518.9945264 216 611 223.6111584 611 233 C 611 242.3888416 518.9945264 250 405.5 250 C 292.0054736 250 200 242.3888416 200 233 Z" stroke-miterlimit="10"/></g><g transform="translate(-38,-62) scale(1,1)"><g><path fill="none" stroke="none"/><text fill="#000000" stroke="none" font-family="Arial" font-size="13px" font-style="normal" font-weight="bold" text-decoration="none" x="264.6328125" y="238.2099609375">select story components from graphic palette</text></g></g><g transform="translate(-38,-62) scale(1,1)"><path fill="none" stroke="#000000" d="M 460 359 L 413 251" stroke-miterlimit="10" stroke-dasharray="3"/></g><g transform="translate(-38,-62) scale(1,1)"><path fill="none" stroke="#000000" d="M 420.9151328704841 258.63876113270874 L 413 251 L 413.1954243299093 261.99826392351446" stroke-miterlimit="10"/></g><g transform="translate(-38,-62) scale(1,1)"><g><path fill="none" stroke="none"/><text fill="#000000" stroke="none" font-family="Arial" font-size="13px" font-style="normal" font-weight="normal" text-decoration="none" x="380.5" y="320.7099609375">«include»</text></g></g><g transform="translate(-38,-62) scale(1,1)"><path fill="#C0C0C0" stroke="none" d="M 55 136 C 55 126.6111584 124.395856 119 210 119 C 295.604144 119 365 126.6111584 365 136 C 365 145.3888416 295.604144 153 210 153 C 124.395856 153 55 145.3888416 55 136 Z" opacity="0.2"/></g><g transform="translate(-38,-62) scale(1,1)"><path fill="#ffffff" stroke="none" d="M 48 129 C 48 119.6111584 117.395856 112 203 112 C 288.604144 112 358 119.6111584 358 129 C 358 138.3888416 288.604144 146 203 146 C 117.395856 146 48 138.3888416 48 129 Z"/></g><g transform="translate(-38,-62) scale(1,1)"><path fill="none" stroke="#000000" d="M 48 129 C 48 119.6111584 117.395856 112 203 112 C 288.604144 112 358 119.6111584 358 129 C 358 138.3888416 288.604144 146 203 146 C 117.395856 146 48 138.3888416 48 129 Z" stroke-miterlimit="10"/></g><g transform="translate(-38,-62) scale(1,1)"><g><path fill="none" stroke="none"/><text fill="#000000" stroke="none" font-family="Arial" font-size="13px" font-style="normal" font-weight="bold" text-decoration="none" x="123.168701171875" y="134.2099609375">select Actors from palette</text></g></g><g transform="translate(-38,-62) scale(1,1)"><path fill="none" stroke="#000000" d="M 370 215 L 238 147" stroke-miterlimit="10" stroke-dasharray="3"/></g><g transform="translate(-38,-62) scale(1,1)"><path fill="none" stroke="#000000" d="M 248.96213576938277 147.9119097398422 L 238 147 L 245.1065829779457 155.39621809969063" stroke-miterlimit="10"/></g><g transform="translate(-38,-62) scale(1,1)"><g><path fill="none" stroke="none"/><text fill="#000000" stroke="none" font-family="Arial" font-size="13px" font-style="normal" font-weight="normal" text-decoration="none" x="247.5" y="186.7099609375">«include»</text></g></g><g transform="translate(-38,-62) scale(1,1)"><path fill="#C0C0C0" stroke="none" d="M 391 96 C 391 86.6111584 450.76997919999997 79 524.5 79 C 598.2300208 79 658 86.6111584 658 96 C 658 105.3888416 598.2300208 113 524.5 113 C 450.76997919999997 113 391 105.3888416 391 96 Z" opacity="0.2"/></g><g transform="translate(-38,-62) scale(1,1)"><path fill="#ffffff" stroke="none" d="M 384 89 C 384 79.6111584 443.76997919999997 72 517.5 72 C 591.2300208 72 651 79.6111584 651 89 C 651 98.3888416 591.2300208 106 517.5 106 C 443.76997919999997 106 384 98.3888416 384 89 Z"/></g><g transform="translate(-38,-62) scale(1,1)"><path fill="none" stroke="#000000" d="M 384 89 C 384 79.6111584 443.76997919999997 72 517.5 72 C 591.2300208 72 651 79.6111584 651 89 C 651 98.3888416 591.2300208 106 517.5 106 C 443.76997919999997 106 384 98.3888416 384 89 Z" stroke-miterlimit="10"/></g><g transform="translate(-38,-62) scale(1,1)"><g><path fill="none" stroke="none"/><text fill="#000000" stroke="none" font-family="Arial" font-size="13px" font-style="normal" font-weight="bold" text-decoration="none" x="427.56005859375" y="94.2099609375">select Locations from palette</text></g></g><g transform="translate(-38,-62) scale(1,1)"><path fill="#C0C0C0" stroke="none" d="M 663 152 C 663 142.6111584 729.4857072 135 811.5 135 C 893.5142928 135 960 142.6111584 960 152 C 960 161.3888416 893.5142928 169 811.5 169 C 729.4857072 169 663 161.3888416 663 152 Z" opacity="0.2"/></g><g transform="translate(-38,-62) scale(1,1)"><path fill="#ffffff" stroke="none" d="M 656 145 C 656 135.6111584 722.4857072 128 804.5 128 C 886.5142928 128 953 135.6111584 953 145 C 953 154.3888416 886.5142928 162 804.5 162 C 722.4857072 162 656 154.3888416 656 145 Z"/></g><g transform="translate(-38,-62) scale(1,1)"><path fill="none" stroke="#000000" d="M 656 145 C 656 135.6111584 722.4857072 128 804.5 128 C 886.5142928 128 953 135.6111584 953 145 C 953 154.3888416 886.5142928 162 804.5 162 C 722.4857072 162 656 154.3888416 656 145 Z" stroke-miterlimit="10"/></g><g transform="translate(-38,-62) scale(1,1)"><g><path fill="none" stroke="none"/><text fill="#000000" stroke="none" font-family="Arial" font-size="13px" font-style="normal" font-weight="bold" text-decoration="none" x="704.07373046875" y="150.2099609375">select Scene Object from palette</text></g></g><g transform="translate(-38,-62) scale(1,1)"><path fill="none" stroke="#000000" d="M 419 215 L 503 107" stroke-miterlimit="10" stroke-dasharray="3"/></g><g transform="translate(-38,-62) scale(1,1)"><path fill="none" stroke="#000000" d="M 500.0835133377538 117.60632384707067 L 503 107 L 493.43792898816133 112.43753601960987" stroke-miterlimit="10"/></g><g transform="translate(-38,-62) scale(1,1)"><g><path fill="none" stroke="none"/><text fill="#000000" stroke="none" font-family="Arial" font-size="13px" font-style="normal" font-weight="normal" text-decoration="none" x="409.5" y="146.7099609375">«include»</text></g></g><g transform="translate(-38,-62) scale(1,1)"><path fill="none" stroke="#000000" d="M 487 215 L 722 163" stroke-miterlimit="10" stroke-dasharray="3"/></g><g transform="translate(-38,-62) scale(1,1)"><path fill="none" stroke="#000000" d="M 712.9868138470965 169.30574939028727 L 722 163 L 711.1678767968501 161.0855531055203" stroke-miterlimit="10"/></g><g transform="translate(-38,-62) scale(1,1)"><g><path fill="none" stroke="none"/><text fill="#000000" stroke="none" font-family="Arial" font-size="13px" font-style="normal" font-weight="normal" text-decoration="none" x="569.5" y="163.7099609375">«include»</text></g></g></g></svg>