<svg version="1.1" xmlns="http://www.w3.org/2000/svg" xmlns:xlink="http://www.w3.org/1999/xlink" width="861.21728515625" height="442"><defs/><g><text fill="#eeeeee" stroke="none" font-family="Arial" font-size="24px" font-style="normal" font-weight="normal" text-decoration="none" x="0" y="0">UNREGISTERED</text><text fill="#eeeeee" stroke="none" font-family="Arial" font-size="24px" font-style="normal" font-weight="normal" text-decoration="none" x="0" y="30">UNREGISTERED</text><text fill="#eeeeee" stroke="none" font-family="Arial" font-size="24px" font-style="normal" font-weight="normal" text-decoration="none" x="0" y="60">UNREGISTERED</text><text fill="#eeeeee" stroke="none" font-family="Arial" font-size="24px" font-style="normal" font-weight="normal" text-decoration="none" x="0" y="90">UNREGISTERED</text><text fill="#eeeeee" stroke="none" font-family="Arial" font-size="24px" font-style="normal" font-weight="normal" text-decoration="none" x="0" y="120">UNREGISTERED</text><text fill="#eeeeee" stroke="none" font-family="Arial" font-size="24px" font-style="normal" font-weight="normal" text-decoration="none" x="0" y="150">UNREGISTERED</text><text fill="#eeeeee" stroke="none" font-family="Arial" font-size="24px" font-style="normal" font-weight="normal" text-decoration="none" x="0" y="180">UNREGISTERED</text><text fill="#eeeeee" stroke="none" font-family="Arial" font-size="24px" font-style="normal" font-weight="normal" text-decoration="none" x="0" y="210">UNREGISTERED</text><text fill="#eeeeee" stroke="none" font-family="Arial" font-size="24px" font-style="normal" font-weight="normal" text-decoration="none" x="0" y="240">UNREGISTERED</text><text fill="#eeeeee" stroke="none" font-family="Arial" font-size="24px" font-style="normal" font-weight="normal" text-decoration="none" x="0" y="270">UNREGISTERED</text><text fill="#eeeeee" stroke="none" font-family="Arial" font-size="24px" font-style="normal" font-weight="normal" text-decoration="none" x="0" y="300">UNREGISTERED</text><text fill="#eeeeee" stroke="none" font-family="Arial" font-size="24px" font-style="normal" font-weight="normal" text-decoration="none" x="0" y="330">UNREGISTERED</text><text fill="#eeeeee" stroke="none" font-family="Arial" font-size="24px" font-style="normal" font-weight="normal" text-decoration="none" x="0" y="360">UNREGISTERED</text><text fill="#eeeeee" stroke="none" font-family="Arial" font-size="24px" font-style="normal" font-weight="normal" text-decoration="none" x="0" y="390">UNREGISTERED</text><text fill="#eeeeee" stroke="none" font-family="Arial" font-size="24px" font-style="normal" font-weight="normal" text-decoration="none" x="0" y="420">UNREGISTERED</text><text fill="#eeeeee" stroke="none" font-family="Arial" font-size="24px" font-style="normal" font-weight="normal" text-decoration="none" x="200" y="0">UNREGISTERED</text><text fill="#eeeeee" stroke="none" font-family="Arial" font-size="24px" font-style="normal" font-weight="normal" text-decoration="none" x="200" y="30">UNREGISTERED</text><text fill="#eeeeee" stroke="none" font-family="Arial" font-size="24px" font-style="normal" font-weight="normal" text-decoration="none" x="200" y="60">UNREGISTERED</text><text fill="#eeeeee" stroke="none" font-family="Arial" font-size="24px" font-style="normal" font-weight="normal" text-decoration="none" x="200" y="90">UNREGISTERED</text><text fill="#eeeeee" stroke="none" font-family="Arial" font-size="24px" font-style="normal" font-weight="normal" text-decoration="none" x="200" y="120">UNREGISTERED</text><text fill="#eeeeee" stroke="none" font-family="Arial" font-size="24px" font-style="normal" font-weight="normal" text-decoration="none" x="200" y="150">UNREGISTERED</text><text fill="#eeeeee" stroke="none" font-family="Arial" font-size="24px" font-style="normal" font-weight="normal" text-decoration="none" x="200" y="180">UNREGISTERED</text><text fill="#eeeeee" stroke="none" font-family="Arial" font-size="24px" font-style="normal" font-weight="normal" text-decoration="none" x="200" y="210">UNREGISTERED</text><text fill="#eeeeee" stroke="none" font-family="Arial" font-size="24px" font-style="normal" font-weight="normal" text-decoration="none" x="200" y="240">UNREGISTERED</text><text fill="#eeeeee" stroke="none" font-family="Arial" font-size="24px" font-style="normal" font-weight="normal" text-decoration="none" x="200" y="270">UNREGISTERED</text><text fill="#eeeeee" stroke="none" font-family="Arial" font-size="24px" font-style="normal" font-weight="normal" text-decoration="none" x="200" y="300">UNREGISTERED</text><text fill="#eeeeee" stroke="none" font-family="Arial" font-size="24px" font-style="normal" font-weight="normal" text-decoration="none" x="200" y="330">UNREGISTERED</text><text fill="#eeeeee" stroke="none" font-family="Arial" font-size="24px" font-style="normal" font-weight="normal" text-decoration="none" x="200" y="360">UNREGISTERED</text><text fill="#eeeeee" stroke="none" font-family="Arial" font-size="24px" font-style="normal" font-weight="normal" text-decoration="none" x="200" y="390">UNREGISTERED</text><text fill="#eeeeee" stroke="none" font-family="Arial" font-size="24px" font-style="normal" font-weight="normal" text-decoration="none" x="200" y="420">UNREGISTERED</text><text fill="#eeeeee" stroke="none" font-family="Arial" font-size="24px" font-style="normal" font-weight="normal" text-decoration="none" x="400" y="0">UNREGISTERED</text><text fill="#eeeeee" stroke="none" font-family="Arial" font-size="24px" font-style="normal" font-weight="normal" text-decoration="none" x="400" y="30">UNREGISTERED</text><text fill="#eeeeee" stroke="none" font-family="Arial" font-size="24px" font-style="normal" font-weight="normal" text-decoration="none" x="400" y="60">UNREGISTERED</text><text fill="#eeeeee" stroke="none" font-family="Arial" font-size="24px" font-style="normal" font-weight="normal" text-decoration="none" x="400" y="90">UNREGISTERED</text><text fill="#eeeeee" stroke="none" font-family="Arial" font-size="24px" font-style="normal" font-weight="normal" text-decoration="none" x="400" y="120">UNREGISTERED</text><text fill="#eeeeee" stroke="none" font-family="Arial" font-size="24px" font-style="normal" font-weight="normal" text-decoration="none" x="400" y="150">UNREGISTERED</text><text fill="#eeeeee" stroke="none" font-family="Arial" font-size="24px" font-style="normal" font-weight="normal" text-decoration="none" x="400" y="180">UNREGISTERED</text><text fill="#eeeeee" stroke="none" font-family="Arial" font-size="24px" font-style="normal" font-weight="normal" text-decoration="none" x="400" y="210">UNREGISTERED</text><text fill="#eeeeee" stroke="none" font-family="Arial" font-size="24px" font-style="normal" font-weight="normal" text-decoration="none" x="400" y="240">UNREGISTERED</text><text fill="#eeeeee" stroke="none" font-family="Arial" font-size="24px" font-style="normal" font-weight="normal" text-decoration="none" x="400" y="270">UNREGISTERED</text><text fill="#eeeeee" stroke="none" font-family="Arial" font-size="24px" font-style="normal" font-weight="normal" text-decoration="none" x="400" y="300">UNREGISTERED</text><text fill="#eeeeee" stroke="none" font-family="Arial" font-size="24px" font-style="normal" font-weight="normal" text-decoration="none" x="400" y="330">UNREGISTERED</text><text fill="#eeeeee" stroke="none" font-family="Arial" font-size="24px" font-style="normal" font-weight="normal" text-decoration="none" x="400" y="360">UNREGISTERED</text><text fill="#eeeeee" stroke="none" font-family="Arial" font-size="24px" font-style="normal" font-weight="normal" text-decoration="none" x="400" y="390">UNREGISTERED</text><text fill="#eeeeee" stroke="none" font-family="Arial" font-size="24px" font-style="normal" font-weight="normal" text-decoration="none" x="400" y="420">UNREGISTERED</text><text fill="#eeeeee" stroke="none" font-family="Arial" font-size="24px" font-style="normal" font-weight="normal" text-decoration="none" x="600" y="0">UNREGISTERED</text><text fill="#eeeeee" stroke="none" font-family="Arial" font-size="24px" font-style="normal" font-weight="normal" text-decoration="none" x="600" y="30">UNREGISTERED</text><text fill="#eeeeee" stroke="none" font-family="Arial" font-size="24px" font-style="normal" font-weight="normal" text-decoration="none" x="600" y="60">UNREGISTERED</text><text fill="#eeeeee" stroke="none" font-family="Arial" font-size="24px" font-style="normal" font-weight="normal" text-decoration="none" x="600" y="90">UNREGISTERED</text><text fill="#eeeeee" stroke="none" font-family="Arial" font-size="24px" font-style="normal" font-weight="normal" text-decoration="none" x="600" y="120">UNREGISTERED</text><text fill="#eeeeee" stroke="none" font-family="Arial" font-size="24px" font-style="normal" font-weight="normal" text-decoration="none" x="600" y="150">UNREGISTERED</text><text fill="#eeeeee" stroke="none" font-family="Arial" font-size="24px" font-style="normal" font-weight="normal" text-decoration="none" x="600" y="180">UNREGISTERED</text><text fill="#eeeeee" stroke="none" font-family="Arial" font-size="24px" font-style="normal" font-weight="normal" text-decoration="none" x="600" y="210">UNREGISTERED</text><text fill="#eeeeee" stroke="none" font-family="Arial" font-size="24px" font-style="normal" font-weight="normal" text-decoration="none" x="600" y="240">UNREGISTERED</text><text fill="#eeeeee" stroke="none" font-family="Arial" font-size="24px" font-style="normal" font-weight="normal" text-decoration="none" x="600" y="270">UNREGISTERED</text><text fill="#eeeeee" stroke="none" font-family="Arial" font-size="24px" font-style="normal" font-weight="normal" text-decoration="none" x="600" y="300">UNREGISTERED</text><text fill="#eeeeee" stroke="none" font-family="Arial" font-size="24px" font-style="normal" font-weight="normal" text-decoration="none" x="600" y="330">UNREGISTERED</text><text fill="#eeeeee" stroke="none" font-family="Arial" font-size="24px" font-style="normal" font-weight="normal" text-decoration="none" x="600" y="360">UNREGISTERED</text><text fill="#eeeeee" stroke="none" font-family="Arial" font-size="24px" font-style="normal" font-weight="normal" text-decoration="none" x="600" y="390">UNREGISTERED</text><text fill="#eeeeee" stroke="none" font-family="Arial" font-size="24px" font-style="normal" font-weight="normal" text-decoration="none" x="600" y="420">UNREGISTERED</text><text fill="#eeeeee" stroke="none" font-family="Arial" font-size="24px" font-style="normal" font-weight="normal" text-decoration="none" x="800" y="0">UNREGISTERED</text><text fill="#eeeeee" stroke="none" font-family="Arial" font-size="24px" font-style="normal" font-weight="normal" text-decoration="none" x="800" y="30">UNREGISTERED</text><text fill="#eeeeee" stroke="none" font-family="Arial" font-size="24px" font-style="normal" font-weight="normal" text-decoration="none" x="800" y="60">UNREGISTERED</text><text fill="#eeeeee" stroke="none" font-family="Arial" font-size="24px" font-style="normal" font-weight="normal" text-decoration="none" x="800" y="90">UNREGISTERED</text><text fill="#eeeeee" stroke="none" font-family="Arial" font-size="24px" font-style="normal" font-weight="normal" text-decoration="none" x="800" y="120">UNREGISTERED</text><text fill="#eeeeee" stroke="none" font-family="Arial" font-size="24px" font-style="normal" font-weight="normal" text-decoration="none" x="800" y="150">UNREGISTERED</text><text fill="#eeeeee" stroke="none" font-family="Arial" font-size="24px" font-style="normal" font-weight="normal" text-decoration="none" x="800" y="180">UNREGISTERED</text><text fill="#eeeeee" stroke="none" font-family="Arial" font-size="24px" font-style="normal" font-weight="normal" text-decoration="none" x="800" y="210">UNREGISTERED</text><text fill="#eeeeee" stroke="none" font-family="Arial" font-size="24px" font-style="normal" font-weight="normal" text-decoration="none" x="800" y="240">UNREGISTERED</text><text fill="#eeeeee" stroke="none" font-family="Arial" font-size="24px" font-style="normal" font-weight="normal" text-decoration="none" x="800" y="270">UNREGISTERED</text><text fill="#eeeeee" stroke="none" font-family="Arial" font-size="24px" font-style="normal" font-weight="normal" text-decoration="none" x="800" y="300">UNREGISTERED</text><text fill="#eeeeee" stroke="none" font-family="Arial" font-size="24px" font-style="normal" font-weight="normal" text-decoration="none" x="800" y="330">UNREGISTERED</text><text fill="#eeeeee" stroke="none" font-family="Arial" font-size="24px" font-style="normal" font-weight="normal" text-decoration="none" x="800" y="360">UNREGISTERED</text><text fill="#eeeeee" stroke="none" font-family="Arial" font-size="24px" font-style="normal" font-weight="normal" text-decoration="none" x="800" y="390">UNREGISTERED</text><text fill="#eeeeee" stroke="none" font-family="Arial" font-size="24px" font-style="normal" font-weight="normal" text-decoration="none" x="800" y="420">UNREGISTERED</text><g transform="translate(-46,-166) scale(1,1)"><path fill="#ffffff" stroke="none" d="M 95.28115607244318 196.23000000000002 C 95.28115607244318 190.02784169600002 100.24639904320682 185 106.371337890625 185 C 112.49627673804318 185 117.46151970880682 190.02784169600002 117.46151970880682 196.23000000000002 C 117.46151970880682 202.432158304 112.49627673804318 207.46 106.371337890625 207.46 C 100.24639904320682 207.46 95.28115607244318 202.432158304 95.28115607244318 196.23000000000002 Z"/></g><g transform="translate(-46,-166) scale(1,1)"><path fill="none" stroke="#000000" d="M 95.28115607244318 196.23000000000002 C 95.28115607244318 190.02784169600002 100.24639904320682 185 106.371337890625 185 C 112.49627673804318 185 117.46151970880682 190.02784169600002 117.46151970880682 196.23000000000002 C 117.46151970880682 202.432158304 112.49627673804318 207.46 106.371337890625 207.46 C 100.24639904320682 207.46 95.28115607244318 202.432158304 95.28115607244318 196.23000000000002 Z" stroke-miterlimit="10"/></g><g transform="translate(-46,-166) scale(1,1)"><path fill="none" stroke="#000000" d="M 106.371337890625 207.46 L 106.371337890625 229.54" stroke-miterlimit="10"/></g><g transform="translate(-46,-166) scale(1,1)"><path fill="none" stroke="#000000" d="M 94.62879243607955 215.74 L 118.11388334517045 215.74" stroke-miterlimit="10"/></g><g transform="translate(-46,-166) scale(1,1)"><path fill="none" stroke="#000000" d="M 106.371337890625 229.54 L 90.06224698153409 252" stroke-miterlimit="10"/></g><g transform="translate(-46,-166) scale(1,1)"><path fill="none" stroke="#000000" d="M 106.371337890625 229.54 L 122.68042879971591 252" stroke-miterlimit="10"/></g><g transform="translate(-46,-166) scale(1,1)"><g><path fill="none" stroke="none"/><text fill="#000000" stroke="none" font-family="Arial" font-size="13px" font-style="normal" font-weight="bold" text-decoration="none" x="60.5" y="270.7099609375">Domain Expert</text></g></g><g transform="translate(-46,-166) scale(1,1)"><path fill="#ffffff" stroke="none" d="M 845.5184607599432 188.23000000000002 C 845.5184607599432 182.02784169600002 850.4837037307068 177 856.608642578125 177 C 862.7335814255432 177 867.6988243963068 182.02784169600002 867.6988243963068 188.23000000000002 C 867.6988243963068 194.432158304 862.7335814255432 199.46 856.608642578125 199.46 C 850.4837037307068 199.46 845.5184607599432 194.432158304 845.5184607599432 188.23000000000002 Z"/></g><g transform="translate(-46,-166) scale(1,1)"><path fill="none" stroke="#000000" d="M 845.5184607599432 188.23000000000002 C 845.5184607599432 182.02784169600002 850.4837037307068 177 856.608642578125 177 C 862.7335814255432 177 867.6988243963068 182.02784169600002 867.6988243963068 188.23000000000002 C 867.6988243963068 194.432158304 862.7335814255432 199.46 856.608642578125 199.46 C 850.4837037307068 199.46 845.5184607599432 194.432158304 845.5184607599432 188.23000000000002 Z" stroke-miterlimit="10"/></g><g transform="translate(-46,-166) scale(1,1)"><path fill="none" stroke="#000000" d="M 856.608642578125 199.46 L 856.608642578125 221.54" stroke-miterlimit="10"/></g><g transform="translate(-46,-166) scale(1,1)"><path fill="none" stroke="#000000" d="M 844.8660971235796 207.74 L 868.3511880326704 207.74" stroke-miterlimit="10"/></g><g transform="translate(-46,-166) scale(1,1)"><path fill="none" stroke="#000000" d="M 856.608642578125 221.54 L 840.2995516690341 244" stroke-miterlimit="10"/></g><g transform="translate(-46,-166) scale(1,1)"><path fill="none" stroke="#000000" d="M 856.608642578125 221.54 L 872.9177334872159 244" stroke-miterlimit="10"/></g><g transform="translate(-46,-166) scale(1,1)"><g><path fill="none" stroke="none"/><text fill="#000000" stroke="none" font-family="Arial" font-size="13px" font-style="normal" font-weight="bold" text-decoration="none" x="842.155029296875" y="262.471923828125">User</text></g></g><g transform="translate(-46,-166) scale(1,1)"><rect fill="#C0C0C0" stroke="none" x="401" y="207" width="198.18798828125" height="52" opacity="0.2"/></g><g transform="translate(-46,-166) scale(1,1)"><rect fill="#ffffff" stroke="none" x="394" y="200" width="198.18798828125" height="52"/></g><g transform="translate(-46,-166) scale(1,1)"><path fill="none" stroke="#000000" d="M 394 200 L 592.18798828125 200 L 592.18798828125 252 L 394 252 L 394 200 Z Z" stroke-miterlimit="10"/></g><g transform="translate(-46,-166) scale(1,1)"><rect fill="#ffffff" stroke="none" x="384" y="207" width="20" height="10"/></g><g transform="translate(-46,-166) scale(1,1)"><path fill="none" stroke="#000000" d="M 384 207 L 404 207 L 404 217 L 384 217 L 384 207 Z Z" stroke-miterlimit="10"/></g><g transform="translate(-46,-166) scale(1,1)"><rect fill="#ffffff" stroke="none" x="384" y="227" width="20" height="10"/></g><g transform="translate(-46,-166) scale(1,1)"><path fill="none" stroke="#000000" d="M 384 227 L 404 227 L 404 237 L 384 237 L 384 227 Z Z" stroke-miterlimit="10"/></g><g transform="translate(-46,-166) scale(1,1)"><g><path fill="none" stroke="none"/><text fill="#000000" stroke="none" font-family="Arial" font-size="13px" font-style="normal" font-weight="normal" text-decoration="none" x="463.0390625" y="215.7099609375">«Database»</text></g></g><g transform="translate(-46,-166) scale(1,1)"><g><path fill="none" stroke="none"/><text fill="#000000" stroke="none" font-family="Arial" font-size="13px" font-style="normal" font-weight="bold" text-decoration="none" x="476.7880859375" y="230.53857421875">LIS DB</text></g></g><g transform="translate(-46,-166) scale(1,1)"><rect fill="#C0C0C0" stroke="none" x="625" y="207" width="172.17529296875" height="52" opacity="0.2"/></g><g transform="translate(-46,-166) scale(1,1)"><rect fill="#ffffff" stroke="none" x="618" y="200" width="172.17529296875" height="52"/></g><g transform="translate(-46,-166) scale(1,1)"><path fill="none" stroke="#000000" d="M 618 200 L 790.17529296875 200 L 790.17529296875 252 L 618 252 L 618 200 Z Z" stroke-miterlimit="10"/></g><g transform="translate(-46,-166) scale(1,1)"><rect fill="#ffffff" stroke="none" x="608" y="207" width="20" height="10"/></g><g transform="translate(-46,-166) scale(1,1)"><path fill="none" stroke="#000000" d="M 608 207 L 628 207 L 628 217 L 608 217 L 608 207 Z Z" stroke-miterlimit="10"/></g><g transform="translate(-46,-166) scale(1,1)"><rect fill="#ffffff" stroke="none" x="608" y="227" width="20" height="10"/></g><g transform="translate(-46,-166) scale(1,1)"><path fill="none" stroke="#000000" d="M 608 227 L 628 227 L 628 237 L 608 237 L 608 227 Z Z" stroke-miterlimit="10"/></g><g transform="translate(-46,-166) scale(1,1)"><g><path fill="none" stroke="none"/><text fill="#000000" stroke="none" font-family="Arial" font-size="13px" font-style="normal" font-weight="normal" text-decoration="none" x="668.253173828125" y="215.53857421875">«Component»</text></g></g><g transform="translate(-46,-166) scale(1,1)"><g><path fill="none" stroke="none"/><text fill="#000000" stroke="none" font-family="Arial" font-size="13px" font-style="normal" font-weight="bold" text-decoration="none" x="677.177978515625" y="230.53857421875">Avatar LIS</text></g></g><g transform="translate(-46,-166) scale(1,1)"><rect fill="#C0C0C0" stroke="none" x="193" y="207" width="172.17529296875" height="52" opacity="0.2"/></g><g transform="translate(-46,-166) scale(1,1)"><rect fill="#ffffff" stroke="none" x="186" y="200" width="172.17529296875" height="52"/></g><g transform="translate(-46,-166) scale(1,1)"><path fill="none" stroke="#000000" d="M 186 200 L 358.17529296875 200 L 358.17529296875 252 L 186 252 L 186 200 Z Z" stroke-miterlimit="10"/></g><g transform="translate(-46,-166) scale(1,1)"><rect fill="#ffffff" stroke="none" x="176" y="207" width="20" height="10"/></g><g transform="translate(-46,-166) scale(1,1)"><path fill="none" stroke="#000000" d="M 176 207 L 196 207 L 196 217 L 176 217 L 176 207 Z Z" stroke-miterlimit="10"/></g><g transform="translate(-46,-166) scale(1,1)"><rect fill="#ffffff" stroke="none" x="176" y="227" width="20" height="10"/></g><g transform="translate(-46,-166) scale(1,1)"><path fill="none" stroke="#000000" d="M 176 227 L 196 227 L 196 237 L 176 237 L 176 227 Z Z" stroke-miterlimit="10"/></g><g transform="translate(-46,-166) scale(1,1)"><g><path fill="none" stroke="none"/><text fill="#000000" stroke="none" font-family="Arial" font-size="13px" font-style="normal" font-weight="normal" text-decoration="none" x="236.253173828125" y="215.53857421875">«Component»</text></g></g><g transform="translate(-46,-166) scale(1,1)"><g><path fill="none" stroke="none"/><text fill="#000000" stroke="none" font-family="Arial" font-size="13px" font-style="normal" font-weight="bold" text-decoration="none" x="233.74267578125" y="230.7099609375">LIS Translator</text></g></g><g transform="translate(-46,-166) scale(1,1)"><path fill="none" stroke="#000000" d="M 104 288 L 102 592" stroke-miterlimit="10" stroke-dasharray="6,4"/></g><g transform="translate(-46,-166) scale(1,1)"><path fill="none" stroke="#000000" d="M 272 272 L 272 594" stroke-miterlimit="10" stroke-dasharray="6,4"/></g><g transform="translate(-46,-166) scale(1,1)"><path fill="none" stroke="#000000" d="M 496 272 L 495 597" stroke-miterlimit="10" stroke-dasharray="6,4"/></g><g transform="translate(-46,-166) scale(1,1)"><path fill="none" stroke="#000000" d="M 704 272 L 703 593" stroke-miterlimit="10" stroke-dasharray="6,4"/></g><g transform="translate(-46,-166) scale(1,1)"><path fill="none" stroke="#000000" d="M 856 272 L 856 594" stroke-miterlimit="10" stroke-dasharray="6,4"/></g><g transform="translate(-46,-166) scale(1,1)"><rect fill="#ffffff" stroke="none" x="264" y="304" width="15" height="63"/></g><g transform="translate(-46,-166) scale(1,1)"><path fill="none" stroke="#000000" d="M 264 304 L 279 304 L 279 367 L 264 367 L 264 304 Z Z" stroke-miterlimit="10"/></g><g transform="translate(-46,-166) scale(1,1)"><rect fill="#ffffff" stroke="none" x="488" y="368" width="15" height="63"/></g><g transform="translate(-46,-166) scale(1,1)"><path fill="none" stroke="#000000" d="M 488 368 L 503 368 L 503 431 L 488 431 L 488 368 Z Z" stroke-miterlimit="10"/></g><g transform="translate(-46,-166) scale(1,1)"><rect fill="#ffffff" stroke="none" x="696" y="432" width="15" height="63"/></g><g transform="translate(-46,-166) scale(1,1)"><path fill="none" stroke="#000000" d="M 696 432 L 711 432 L 711 495 L 696 495 L 696 432 Z Z" stroke-miterlimit="10"/></g><g transform="translate(-46,-166) scale(1,1)"><rect fill="#ffffff" stroke="none" x="848" y="496" width="15" height="63"/></g><g transform="translate(-46,-166) scale(1,1)"><path fill="none" stroke="#000000" d="M 848 496 L 863 496 L 863 559 L 848 559 L 848 496 Z Z" stroke-miterlimit="10"/></g><g transform="translate(-46,-166) scale(1,1)"><path fill="none" stroke="#000000" d="M 112 304 L 256 304" stroke-miterlimit="10"/></g><g transform="translate(-46,-166) scale(1,1)"><path fill="#000000" stroke="none" d="M 245.83732514237585 308.209517756016 L 256 304 L 245.83732514237585 299.790482243984"/></g><g transform="translate(-46,-166) scale(1,1)"><path fill="none" stroke="#000000" d="M 245.83732514237585 308.209517756016 L 256 304 L 245.83732514237585 299.790482243984 L 245.83732514237585 308.209517756016" stroke-miterlimit="10"/></g><g transform="translate(-46,-166) scale(1,1)"><path fill="none" stroke="#000000" d="M 288 368 L 478 368" stroke-miterlimit="10"/></g><g transform="translate(-46,-166) scale(1,1)"><path fill="#000000" stroke="none" d="M 467.83732514237585 372.209517756016 L 478 368 L 467.83732514237585 363.790482243984"/></g><g transform="translate(-46,-166) scale(1,1)"><path fill="none" stroke="#000000" d="M 467.83732514237585 372.209517756016 L 478 368 L 467.83732514237585 363.790482243984 L 467.83732514237585 372.209517756016" stroke-miterlimit="10"/></g><g transform="translate(-46,-166) scale(1,1)"><path fill="none" stroke="#000000" d="M 512 432 L 684 431" stroke-miterlimit="10"/></g><g transform="translate(-46,-166) scale(1,1)"><path fill="#000000" stroke="none" d="M 673.8619704244874 435.2685309330063 L 684 431 L 673.813023370852 426.8496377077185"/></g><g transform="translate(-46,-166) scale(1,1)"><path fill="none" stroke="#000000" d="M 673.8619704244874 435.2685309330063 L 684 431 L 673.813023370852 426.8496377077185 L 673.8619704244874 435.2685309330063" stroke-miterlimit="10"/></g><g transform="translate(-46,-166) scale(1,1)"><path fill="none" stroke="#000000" d="M 720 496 L 835 496" stroke-miterlimit="10"/></g><g transform="translate(-46,-166) scale(1,1)"><path fill="#000000" stroke="none" d="M 824.8373251423759 500.209517756016 L 835 496 L 824.8373251423758 491.790482243984"/></g><g transform="translate(-46,-166) scale(1,1)"><path fill="none" stroke="#000000" d="M 824.8373251423759 500.209517756016 L 835 496 L 824.8373251423758 491.790482243984 L 824.8373251423759 500.209517756016" stroke-miterlimit="10"/></g></g></svg>