<svg version="1.1" xmlns="http://www.w3.org/2000/svg" xmlns:xlink="http://www.w3.org/1999/xlink" width="700" height="332"><defs/><g><text fill="#eeeeee" stroke="none" font-family="Arial" font-size="24px" font-style="normal" font-weight="normal" text-decoration="none" x="0" y="0">UNREGISTERED</text><text fill="#eeeeee" stroke="none" font-family="Arial" font-size="24px" font-style="normal" font-weight="normal" text-decoration="none" x="0" y="30">UNREGISTERED</text><text fill="#eeeeee" stroke="none" font-family="Arial" font-size="24px" font-style="normal" font-weight="normal" text-decoration="none" x="0" y="60">UNREGISTERED</text><text fill="#eeeeee" stroke="none" font-family="Arial" font-size="24px" font-style="normal" font-weight="normal" text-decoration="none" x="0" y="90">UNREGISTERED</text><text fill="#eeeeee" stroke="none" font-family="Arial" font-size="24px" font-style="normal" font-weight="normal" text-decoration="none" x="0" y="120">UNREGISTERED</text><text fill="#eeeeee" stroke="none" font-family="Arial" font-size="24px" font-style="normal" font-weight="normal" text-decoration="none" x="0" y="150">UNREGISTERED</text><text fill="#eeeeee" stroke="none" font-family="Arial" font-size="24px" font-style="normal" font-weight="normal" text-decoration="none" x="0" y="180">UNREGISTERED</text><text fill="#eeeeee" stroke="none" font-family="Arial" font-size="24px" font-style="normal" font-weight="normal" text-decoration="none" x="0" y="210">UNREGISTERED</text><text fill="#eeeeee" stroke="none" font-family="Arial" font-size="24px" font-style="normal" font-weight="normal" text-decoration="none" x="0" y="240">UNREGISTERED</text><text fill="#eeeeee" stroke="none" font-family="Arial" font-size="24px" font-style="normal" font-weight="normal" text-decoration="none" x="0" y="270">UNREGISTERED</text><text fill="#eeeeee" stroke="none" font-family="Arial" font-size="24px" font-style="normal" font-weight="normal" text-decoration="none" x="0" y="300">UNREGISTERED</text><text fill="#eeeeee" stroke="none" font-family="Arial" font-size="24px" font-style="normal" font-weight="normal" text-decoration="none" x="0" y="330">UNREGISTERED</text><text fill="#eeeeee" stroke="none" font-family="Arial" font-size="24px" font-style="normal" font-weight="normal" text-decoration="none" x="200" y="0">UNREGISTERED</text><text fill="#eeeeee" stroke="none" font-family="Arial" font-size="24px" font-style="normal" font-weight="normal" text-decoration="none" x="200" y="30">UNREGISTERED</text><text fill="#eeeeee" stroke="none" font-family="Arial" font-size="24px" font-style="normal" font-weight="normal" text-decoration="none" x="200" y="60">UNREGISTERED</text><text fill="#eeeeee" stroke="none" font-family="Arial" font-size="24px" font-style="normal" font-weight="normal" text-decoration="none" x="200" y="90">UNREGISTERED</text><text fill="#eeeeee" stroke="none" font-family="Arial" font-size="24px" font-style="normal" font-weight="normal" text-decoration="none" x="200" y="120">UNREGISTERED</text><text fill="#eeeeee" stroke="none" font-family="Arial" font-size="24px" font-style="normal" font-weight="normal" text-decoration="none" x="200" y="150">UNREGISTERED</text><text fill="#eeeeee" stroke="none" font-family="Arial" font-size="24px" font-style="normal" font-weight="normal" text-decoration="none" x="200" y="180">UNREGISTERED</text><text fill="#eeeeee" stroke="none" font-family="Arial" font-size="24px" font-style="normal" font-weight="normal" text-decoration="none" x="200" y="210">UNREGISTERED</text><text fill="#eeeeee" stroke="none" font-family="Arial" font-size="24px" font-style="normal" font-weight="normal" text-decoration="none" x="200" y="240">UNREGISTERED</text><text fill="#eeeeee" stroke="none" font-family="Arial" font-size="24px" font-style="normal" font-weight="normal" text-decoration="none" x="200" y="270">UNREGISTERED</text><text fill="#eeeeee" stroke="none" font-family="Arial" font-size="24px" font-style="normal" font-weight="normal" text-decoration="none" x="200" y="300">UNREGISTERED</text><text fill="#eeeeee" stroke="none" font-family="Arial" font-size="24px" font-style="normal" font-weight="normal" text-decoration="none" x="200" y="330">UNREGISTERED</text><text fill="#eeeeee" stroke="none" font-family="Arial" font-size="24px" font-style="normal" font-weight="normal" text-decoration="none" x="400" y="0">UNREGISTERED</text><text fill="#eeeeee" stroke="none" font-family="Arial" font-size="24px" font-style="normal" font-weight="normal" text-decoration="none" x="400" y="30">UNREGISTERED</text><text fill="#eeeeee" stroke="none" font-family="Arial" font-size="24px" font-style="normal" font-weight="normal" text-decoration="none" x="400" y="60">UNREGISTERED</text><text fill="#eeeeee" stroke="none" font-family="Arial" font-size="24px" font-style="normal" font-weight="normal" text-decoration="none" x="400" y="90">UNREGISTERED</text><text fill="#eeeeee" stroke="none" font-family="Arial" font-size="24px" font-style="normal" font-weight="normal" text-decoration="none" x="400" y="120">UNREGISTERED</text><text fill="#eeeeee" stroke="none" font-family="Arial" font-size="24px" font-style="normal" font-weight="normal" text-decoration="none" x="400" y="150">UNREGISTERED</text><text fill="#eeeeee" stroke="none" font-family="Arial" font-size="24px" font-style="normal" font-weight="normal" text-decoration="none" x="400" y="180">UNREGISTERED</text><text fill="#eeeeee" stroke="none" font-family="Arial" font-size="24px" font-style="normal" font-weight="normal" text-decoration="none" x="400" y="210">UNREGISTERED</text><text fill="#eeeeee" stroke="none" font-family="Arial" font-size="24px" font-style="normal" font-weight="normal" text-decoration="none" x="400" y="240">UNREGISTERED</text><text fill="#eeeeee" stroke="none" font-family="Arial" font-size="24px" font-style="normal" font-weight="normal" text-decoration="none" x="400" y="270">UNREGISTERED</text><text fill="#eeeeee" stroke="none" font-family="Arial" font-size="24px" font-style="normal" font-weight="normal" text-decoration="none" x="400" y="300">UNREGISTERED</text><text fill="#eeeeee" stroke="none" font-family="Arial" font-size="24px" font-style="normal" font-weight="normal" text-decoration="none" x="400" y="330">UNREGISTERED</text><text fill="#eeeeee" stroke="none" font-family="Arial" font-size="24px" font-style="normal" font-weight="normal" text-decoration="none" x="600" y="0">UNREGISTERED</text><text fill="#eeeeee" stroke="none" font-family="Arial" font-size="24px" font-style="normal" font-weight="normal" text-decoration="none" x="600" y="30">UNREGISTERED</text><text fill="#eeeeee" stroke="none" font-family="Arial" font-size="24px" font-style="normal" font-weight="normal" text-decoration="none" x="600" y="60">UNREGISTERED</text><text fill="#eeeeee" stroke="none" font-family="Arial" font-size="24px" font-style="normal" font-weight="normal" text-decoration="none" x="600" y="90">UNREGISTERED</text><text fill="#eeeeee" stroke="none" font-family="Arial" font-size="24px" font-style="normal" font-weight="normal" text-decoration="none" x="600" y="120">UNREGISTERED</text><text fill="#eeeeee" stroke="none" font-family="Arial" font-size="24px" font-style="normal" font-weight="normal" text-decoration="none" x="600" y="150">UNREGISTERED</text><text fill="#eeeeee" stroke="none" font-family="Arial" font-size="24px" font-style="normal" font-weight="normal" text-decoration="none" x="600" y="180">UNREGISTERED</text><text fill="#eeeeee" stroke="none" font-family="Arial" font-size="24px" font-style="normal" font-weight="normal" text-decoration="none" x="600" y="210">UNREGISTERED</text><text fill="#eeeeee" stroke="none" font-family="Arial" font-size="24px" font-style="normal" font-weight="normal" text-decoration="none" x="600" y="240">UNREGISTERED</text><text fill="#eeeeee" stroke="none" font-family="Arial" font-size="24px" font-style="normal" font-weight="normal" text-decoration="none" x="600" y="270">UNREGISTERED</text><text fill="#eeeeee" stroke="none" font-family="Arial" font-size="24px" font-style="normal" font-weight="normal" text-decoration="none" x="600" y="300">UNREGISTERED</text><text fill="#eeeeee" stroke="none" font-family="Arial" font-size="24px" font-style="normal" font-weight="normal" text-decoration="none" x="600" y="330">UNREGISTERED</text><g transform="translate(-6,10) scale(1,1)"><path fill="none" stroke="#000000" d="M 16 0 L 696 0 L 696 312 L 16 312 L 16 0" stroke-miterlimit="10"/></g><g transform="translate(-6,10) scale(1,1)"><path fill="#ffffff" stroke="none" d="M 16 0 L 16 22 L 111.47900390625 22 L 122.47900390625 11 L 122.47900390625 0 L 16 0"/></g><g transform="translate(-6,10) scale(1,1)"><path fill="none" stroke="#000000" d="M 16 0 L 16 22 L 111.47900390625 22 L 122.47900390625 11 L 122.47900390625 0 L 16 0 L 16 0" stroke-miterlimit="10"/></g><g transform="translate(-6,10) scale(1,1)"><g><path fill="none" stroke="none"/><text fill="#000000" stroke="none" font-family="Arial" font-size="13px" font-style="normal" font-weight="normal" text-decoration="none" x="40.72998046875" y="15.7099609375">Select  POI</text></g></g><g transform="translate(-6,10) scale(1,1)"><g><path fill="none" stroke="none"/><text fill="#000000" stroke="none" font-family="Arial" font-size="13px" font-style="normal" font-weight="bold" text-decoration="none" x="20.279541015625" y="15.7099609375">sd</text></g></g><g transform="translate(-6,10) scale(1,1)"><path fill="#ffffff" stroke="none" d="M 84.8631454190341 47.3 C 84.8631454190341 43.82060576 87.74154714121592 41 91.292236328125 41 C 94.84292551503408 41 97.7213272372159 43.82060576 97.7213272372159 47.3 C 97.7213272372159 50.779394239999995 94.84292551503408 53.6 91.292236328125 53.6 C 87.74154714121592 53.6 84.8631454190341 50.779394239999995 84.8631454190341 47.3 Z"/></g><g transform="translate(-6,10) scale(1,1)"><path fill="none" stroke="#000000" d="M 84.8631454190341 47.3 C 84.8631454190341 43.82060576 87.74154714121592 41 91.292236328125 41 C 94.84292551503408 41 97.7213272372159 43.82060576 97.7213272372159 47.3 C 97.7213272372159 50.779394239999995 94.84292551503408 53.6 91.292236328125 53.6 C 87.74154714121592 53.6 84.8631454190341 50.779394239999995 84.8631454190341 47.3 Z" stroke-miterlimit="10"/></g><g transform="translate(-6,10) scale(1,1)"><path fill="none" stroke="#000000" d="M 91.292236328125 53.6 L 91.292236328125 66.4" stroke-miterlimit="10"/></g><g transform="translate(-6,10) scale(1,1)"><path fill="none" stroke="#000000" d="M 84.48496360085227 58.4 L 98.09950905539773 58.4" stroke-miterlimit="10"/></g><g transform="translate(-6,10) scale(1,1)"><path fill="none" stroke="#000000" d="M 91.292236328125 66.4 L 81.83769087357955 79" stroke-miterlimit="10"/></g><g transform="translate(-6,10) scale(1,1)"><path fill="none" stroke="#000000" d="M 91.292236328125 66.4 L 100.74678178267045 79" stroke-miterlimit="10"/></g><g transform="translate(-6,10) scale(1,1)"><g><path fill="none" stroke="none"/><text fill="#000000" stroke="none" font-family="Arial" font-size="13px" font-style="normal" font-weight="bold" text-decoration="none" x="46.5" y="97.7099609375">Lifeline1: User</text></g></g><g transform="translate(-6,10) scale(1,1)"><path fill="none" stroke="#000000" d="M 92.5 105 L 92.5 304" stroke-miterlimit="10" stroke-dasharray="3"/></g><g transform="translate(-6,10) scale(1,1)"><rect fill="#ffffff" stroke="none" x="260.66034613715277" y="40" width="34.44444444444446" height="40"/></g><g transform="translate(-6,10) scale(1,1)"><path fill="none" stroke="#000000" d="M 260.66034613715277 40 L 295.10479058159723 40 L 295.10479058159723 80 L 260.66034613715277 80 L 260.66034613715277 40 Z Z" stroke-miterlimit="10"/></g><g transform="translate(-6,10) scale(1,1)"><rect fill="#ffffff" stroke="none" x="250.66034613715277" y="46" width="20" height="10"/></g><g transform="translate(-6,10) scale(1,1)"><path fill="none" stroke="#000000" d="M 250.66034613715277 46 L 270.66034613715277 46 L 270.66034613715277 56 L 250.66034613715277 56 L 250.66034613715277 46 Z Z" stroke-miterlimit="10"/></g><g transform="translate(-6,10) scale(1,1)"><rect fill="#ffffff" stroke="none" x="250.66034613715277" y="63" width="20" height="10"/></g><g transform="translate(-6,10) scale(1,1)"><path fill="none" stroke="#000000" d="M 250.66034613715277 63 L 270.66034613715277 63 L 270.66034613715277 73 L 250.66034613715277 73 L 250.66034613715277 63 Z Z" stroke-miterlimit="10"/></g><g transform="translate(-6,10) scale(1,1)"><g><path fill="none" stroke="none"/><text fill="#000000" stroke="none" font-family="Arial" font-size="13px" font-style="normal" font-weight="bold" text-decoration="none" x="188.5" y="97.7099609375">Lifeline2: POI-TOI Frontend</text></g></g><g transform="translate(-6,10) scale(1,1)"><path fill="none" stroke="#000000" d="M 273.5 105 L 273.5 304" stroke-miterlimit="10" stroke-dasharray="3"/></g><g transform="translate(-6,10) scale(1,1)"><rect fill="#ffffff" stroke="none" x="443.22894965277777" y="40" width="34.44444444444446" height="40"/></g><g transform="translate(-6,10) scale(1,1)"><path fill="none" stroke="#000000" d="M 443.22894965277777 40 L 477.67339409722223 40 L 477.67339409722223 80 L 443.22894965277777 80 L 443.22894965277777 40 Z Z" stroke-miterlimit="10"/></g><g transform="translate(-6,10) scale(1,1)"><rect fill="#ffffff" stroke="none" x="433.22894965277777" y="46" width="20" height="10"/></g><g transform="translate(-6,10) scale(1,1)"><path fill="none" stroke="#000000" d="M 433.22894965277777 46 L 453.22894965277777 46 L 453.22894965277777 56 L 433.22894965277777 56 L 433.22894965277777 46 Z Z" stroke-miterlimit="10"/></g><g transform="translate(-6,10) scale(1,1)"><rect fill="#ffffff" stroke="none" x="433.22894965277777" y="63" width="20" height="10"/></g><g transform="translate(-6,10) scale(1,1)"><path fill="none" stroke="#000000" d="M 433.22894965277777 63 L 453.22894965277777 63 L 453.22894965277777 73 L 433.22894965277777 73 L 433.22894965277777 63 Z Z" stroke-miterlimit="10"/></g><g transform="translate(-6,10) scale(1,1)"><g><path fill="none" stroke="none"/><text fill="#000000" stroke="none" font-family="Arial" font-size="13px" font-style="normal" font-weight="bold" text-decoration="none" x="372.5" y="97.7099609375">Lifeline3: POI-TOI Manager</text></g></g><g transform="translate(-6,10) scale(1,1)"><path fill="none" stroke="#000000" d="M 456.5 105 L 456.5 304" stroke-miterlimit="10" stroke-dasharray="3"/></g><g transform="translate(-6,10) scale(1,1)"><rect fill="#ffffff" stroke="none" x="601.8871527777778" y="40" width="34.44444444444446" height="40"/></g><g transform="translate(-6,10) scale(1,1)"><path fill="none" stroke="#000000" d="M 601.8871527777778 40 L 636.3315972222223 40 L 636.3315972222223 80 L 601.8871527777778 80 L 601.8871527777778 40 Z Z" stroke-miterlimit="10"/></g><g transform="translate(-6,10) scale(1,1)"><rect fill="#ffffff" stroke="none" x="591.8871527777778" y="46" width="20" height="10"/></g><g transform="translate(-6,10) scale(1,1)"><path fill="none" stroke="#000000" d="M 591.8871527777778 46 L 611.8871527777778 46 L 611.8871527777778 56 L 591.8871527777778 56 L 591.8871527777778 46 Z Z" stroke-miterlimit="10"/></g><g transform="translate(-6,10) scale(1,1)"><rect fill="#ffffff" stroke="none" x="591.8871527777778" y="63" width="20" height="10"/></g><g transform="translate(-6,10) scale(1,1)"><path fill="none" stroke="#000000" d="M 591.8871527777778 63 L 611.8871527777778 63 L 611.8871527777778 73 L 591.8871527777778 73 L 591.8871527777778 63 Z Z" stroke-miterlimit="10"/></g><g transform="translate(-6,10) scale(1,1)"><g><path fill="none" stroke="none"/><text fill="#000000" stroke="none" font-family="Arial" font-size="13px" font-style="normal" font-weight="bold" text-decoration="none" x="548.5" y="97.7099609375">Lifeline5: POI-TOI DB</text></g></g><g transform="translate(-6,10) scale(1,1)"><path fill="none" stroke="#000000" d="M 615.5 105 L 615.5 174" stroke-miterlimit="10" stroke-dasharray="3"/></g><g transform="translate(-6,10) scale(1,1)"><path fill="none" stroke="#000000" d="M 92 120 L 266 120" stroke-miterlimit="10"/></g><g transform="translate(-6,10) scale(1,1)"><path fill="#000000" stroke="none" d="M 255.83732514237585 124.20951775601598 L 266 120 L 255.83732514237585 115.79048224398402"/></g><g transform="translate(-6,10) scale(1,1)"><path fill="none" stroke="#000000" d="M 255.83732514237585 124.20951775601598 L 266 120 L 255.83732514237585 115.79048224398402 L 255.83732514237585 124.20951775601598" stroke-miterlimit="10"/></g><g transform="translate(-6,10) scale(1,1)"><g><path fill="none" stroke="none"/><text fill="#000000" stroke="none" font-family="Arial" font-size="13px" font-style="normal" font-weight="normal" text-decoration="none" x="122.5" y="114.7099609375">1 : request list POIs</text></g></g><g transform="translate(-6,10) scale(1,1)"><rect fill="#ffffff" stroke="none" x="266" y="120" width="13" height="28"/></g><g transform="translate(-6,10) scale(1,1)"><path fill="none" stroke="#000000" d="M 266 120 L 279 120 L 279 148 L 266 148 L 266 120 Z Z" stroke-miterlimit="10"/></g><g transform="translate(-6,10) scale(1,1)"><path fill="none" stroke="#000000" d="M 279 136 L 449 136" stroke-miterlimit="10"/></g><g transform="translate(-6,10) scale(1,1)"><path fill="#000000" stroke="none" d="M 438.83732514237585 140.209517756016 L 449 136 L 438.83732514237585 131.790482243984"/></g><g transform="translate(-6,10) scale(1,1)"><path fill="none" stroke="#000000" d="M 438.83732514237585 140.209517756016 L 449 136 L 438.83732514237585 131.790482243984 L 438.83732514237585 140.209517756016" stroke-miterlimit="10"/></g><g transform="translate(-6,10) scale(1,1)"><g><path fill="none" stroke="none"/><text fill="#000000" stroke="none" font-family="Arial" font-size="13px" font-style="normal" font-weight="normal" text-decoration="none" x="329.200439453125" y="130.53857421875">2 : get POIs</text></g></g><g transform="translate(-6,10) scale(1,1)"><rect fill="#ffffff" stroke="none" x="449" y="136" width="13" height="54"/></g><g transform="translate(-6,10) scale(1,1)"><path fill="none" stroke="#000000" d="M 449 136 L 462 136 L 462 190 L 449 190 L 449 136 Z Z" stroke-miterlimit="10"/></g><g transform="translate(-6,10) scale(1,1)"><path fill="none" stroke="#000000" d="M 462 144 L 608 144" stroke-miterlimit="10"/></g><g transform="translate(-6,10) scale(1,1)"><path fill="#000000" stroke="none" d="M 597.8373251423759 148.209517756016 L 608 144 L 597.8373251423758 139.790482243984"/></g><g transform="translate(-6,10) scale(1,1)"><path fill="none" stroke="#000000" d="M 597.8373251423759 148.209517756016 L 608 144 L 597.8373251423758 139.790482243984 L 597.8373251423759 148.209517756016" stroke-miterlimit="10"/></g><g transform="translate(-6,10) scale(1,1)"><g><path fill="none" stroke="none"/><text fill="#000000" stroke="none" font-family="Arial" font-size="13px" font-style="normal" font-weight="normal" text-decoration="none" x="509.22998046875" y="138.53857421875">3 : query</text></g></g><g transform="translate(-6,10) scale(1,1)"><rect fill="#ffffff" stroke="none" x="608" y="144" width="13" height="28"/></g><g transform="translate(-6,10) scale(1,1)"><path fill="none" stroke="#000000" d="M 608 144 L 621 144 L 621 172 L 608 172 L 608 144 Z Z" stroke-miterlimit="10"/></g><g transform="translate(-6,10) scale(1,1)"><path fill="none" stroke="#000000" d="M 608 160 L 462 160" stroke-miterlimit="10" stroke-dasharray="3"/></g><g transform="translate(-6,10) scale(1,1)"><path fill="none" stroke="#000000" d="M 472.16267485762415 155.790482243984 L 462 160 L 472.16267485762415 164.209517756016" stroke-miterlimit="10"/></g><g transform="translate(-6,10) scale(1,1)"><g><path fill="none" stroke="none"/><text fill="#000000" stroke="none" font-family="Arial" font-size="13px" font-style="normal" font-weight="normal" text-decoration="none" x="500.5" y="174.7099609375">4 : POIs list</text></g></g><g transform="translate(-6,10) scale(1,1)"><path fill="none" stroke="#000000" d="M 449 168 L 279 168" stroke-miterlimit="10"/></g><g transform="translate(-6,10) scale(1,1)"><path fill="#000000" stroke="none" d="M 289.16267485762415 163.790482243984 L 279 168 L 289.16267485762415 172.209517756016"/></g><g transform="translate(-6,10) scale(1,1)"><path fill="none" stroke="#000000" d="M 289.16267485762415 163.790482243984 L 279 168 L 289.16267485762415 172.209517756016 L 289.16267485762415 163.790482243984" stroke-miterlimit="10"/></g><g transform="translate(-6,10) scale(1,1)"><g><path fill="none" stroke="none"/><text fill="#000000" stroke="none" font-family="Arial" font-size="13px" font-style="normal" font-weight="normal" text-decoration="none" x="329.292236328125" y="182.7099609375">5 : POIs list</text></g></g><g transform="translate(-6,10) scale(1,1)"><rect fill="#ffffff" stroke="none" x="266" y="168" width="13" height="31"/></g><g transform="translate(-6,10) scale(1,1)"><path fill="none" stroke="#000000" d="M 266 168 L 279 168 L 279 199 L 266 199 L 266 168 Z Z" stroke-miterlimit="10"/></g><g transform="translate(-6,10) scale(1,1)"><path fill="none" stroke="#000000" d="M 92 232 L 266 232" stroke-miterlimit="10"/></g><g transform="translate(-6,10) scale(1,1)"><path fill="#000000" stroke="none" d="M 255.83732514237585 236.209517756016 L 266 232 L 255.83732514237585 227.790482243984"/></g><g transform="translate(-6,10) scale(1,1)"><path fill="none" stroke="#000000" d="M 255.83732514237585 236.209517756016 L 266 232 L 255.83732514237585 227.790482243984 L 255.83732514237585 236.209517756016" stroke-miterlimit="10"/></g><g transform="translate(-6,10) scale(1,1)"><g><path fill="none" stroke="none"/><text fill="#000000" stroke="none" font-family="Arial" font-size="13px" font-style="normal" font-weight="normal" text-decoration="none" x="139.50634765625" y="226.7099609375">6 : select POI</text></g></g><g transform="translate(-6,10) scale(1,1)"><rect fill="#ffffff" stroke="none" x="266" y="232" width="13" height="40"/></g><g transform="translate(-6,10) scale(1,1)"><path fill="none" stroke="#000000" d="M 266 232 L 279 232 L 279 272 L 266 272 L 266 232 Z Z" stroke-miterlimit="10"/></g><g transform="translate(-6,10) scale(1,1)"><path fill="none" stroke="#000000" d="M 266 264 L 92 264" stroke-miterlimit="10" stroke-dasharray="3"/></g><g transform="translate(-6,10) scale(1,1)"><path fill="none" stroke="#000000" d="M 102.16267485762415 259.790482243984 L 92 264 L 102.16267485762415 268.209517756016" stroke-miterlimit="10"/></g><g transform="translate(-6,10) scale(1,1)"><g><path fill="none" stroke="none"/><text fill="#000000" stroke="none" font-family="Arial" font-size="13px" font-style="normal" font-weight="normal" text-decoration="none" x="125.5" y="278.7099609375">7 : show POI view</text></g></g><g transform="translate(-6,10) scale(1,1)"><path fill="none" stroke="#000000" d="M 48 184 L 304 184 L 304 288 L 48 288 L 48 184" stroke-miterlimit="10"/></g><g transform="translate(-6,10) scale(1,1)"><path fill="#ffffff" stroke="none" d="M 48 184 L 48 206 L 147.84619140625 206 L 158.84619140625 195 L 158.84619140625 184 L 48 184"/></g><g transform="translate(-6,10) scale(1,1)"><path fill="none" stroke="#000000" d="M 48 184 L 48 206 L 147.84619140625 206 L 158.84619140625 195 L 158.84619140625 184 L 48 184 L 48 184" stroke-miterlimit="10"/></g><g transform="translate(-6,10) scale(1,1)"><g><path fill="none" stroke="none"/><text fill="#000000" stroke="none" font-family="Arial" font-size="13px" font-style="normal" font-weight="normal" text-decoration="none" x="83.578125" y="199.7099609375">navigation</text></g></g><g transform="translate(-6,10) scale(1,1)"><g><path fill="none" stroke="none"/><text fill="#000000" stroke="none" font-family="Arial" font-size="13px" font-style="normal" font-weight="bold" text-decoration="none" x="51.57177734375" y="199.7099609375">loop</text></g></g></g></svg>