<svg version="1.1" xmlns="http://www.w3.org/2000/svg" xmlns:xlink="http://www.w3.org/1999/xlink" width="876" height="580"><defs/><g><text fill="#eeeeee" stroke="none" font-family="Arial" font-size="24px" font-style="normal" font-weight="normal" text-decoration="none" x="0" y="0">UNREGISTERED</text><text fill="#eeeeee" stroke="none" font-family="Arial" font-size="24px" font-style="normal" font-weight="normal" text-decoration="none" x="0" y="30">UNREGISTERED</text><text fill="#eeeeee" stroke="none" font-family="Arial" font-size="24px" font-style="normal" font-weight="normal" text-decoration="none" x="0" y="60">UNREGISTERED</text><text fill="#eeeeee" stroke="none" font-family="Arial" font-size="24px" font-style="normal" font-weight="normal" text-decoration="none" x="0" y="90">UNREGISTERED</text><text fill="#eeeeee" stroke="none" font-family="Arial" font-size="24px" font-style="normal" font-weight="normal" text-decoration="none" x="0" y="120">UNREGISTERED</text><text fill="#eeeeee" stroke="none" font-family="Arial" font-size="24px" font-style="normal" font-weight="normal" text-decoration="none" x="0" y="150">UNREGISTERED</text><text fill="#eeeeee" stroke="none" font-family="Arial" font-size="24px" font-style="normal" font-weight="normal" text-decoration="none" x="0" y="180">UNREGISTERED</text><text fill="#eeeeee" stroke="none" font-family="Arial" font-size="24px" font-style="normal" font-weight="normal" text-decoration="none" x="0" y="210">UNREGISTERED</text><text fill="#eeeeee" stroke="none" font-family="Arial" font-size="24px" font-style="normal" font-weight="normal" text-decoration="none" x="0" y="240">UNREGISTERED</text><text fill="#eeeeee" stroke="none" font-family="Arial" font-size="24px" font-style="normal" font-weight="normal" text-decoration="none" x="0" y="270">UNREGISTERED</text><text fill="#eeeeee" stroke="none" font-family="Arial" font-size="24px" font-style="normal" font-weight="normal" text-decoration="none" x="0" y="300">UNREGISTERED</text><text fill="#eeeeee" stroke="none" font-family="Arial" font-size="24px" font-style="normal" font-weight="normal" text-decoration="none" x="0" y="330">UNREGISTERED</text><text fill="#eeeeee" stroke="none" font-family="Arial" font-size="24px" font-style="normal" font-weight="normal" text-decoration="none" x="0" y="360">UNREGISTERED</text><text fill="#eeeeee" stroke="none" font-family="Arial" font-size="24px" font-style="normal" font-weight="normal" text-decoration="none" x="0" y="390">UNREGISTERED</text><text fill="#eeeeee" stroke="none" font-family="Arial" font-size="24px" font-style="normal" font-weight="normal" text-decoration="none" x="0" y="420">UNREGISTERED</text><text fill="#eeeeee" stroke="none" font-family="Arial" font-size="24px" font-style="normal" font-weight="normal" text-decoration="none" x="0" y="450">UNREGISTERED</text><text fill="#eeeeee" stroke="none" font-family="Arial" font-size="24px" font-style="normal" font-weight="normal" text-decoration="none" x="0" y="480">UNREGISTERED</text><text fill="#eeeeee" stroke="none" font-family="Arial" font-size="24px" font-style="normal" font-weight="normal" text-decoration="none" x="0" y="510">UNREGISTERED</text><text fill="#eeeeee" stroke="none" font-family="Arial" font-size="24px" font-style="normal" font-weight="normal" text-decoration="none" x="0" y="540">UNREGISTERED</text><text fill="#eeeeee" stroke="none" font-family="Arial" font-size="24px" font-style="normal" font-weight="normal" text-decoration="none" x="0" y="570">UNREGISTERED</text><text fill="#eeeeee" stroke="none" font-family="Arial" font-size="24px" font-style="normal" font-weight="normal" text-decoration="none" x="200" y="0">UNREGISTERED</text><text fill="#eeeeee" stroke="none" font-family="Arial" font-size="24px" font-style="normal" font-weight="normal" text-decoration="none" x="200" y="30">UNREGISTERED</text><text fill="#eeeeee" stroke="none" font-family="Arial" font-size="24px" font-style="normal" font-weight="normal" text-decoration="none" x="200" y="60">UNREGISTERED</text><text fill="#eeeeee" stroke="none" font-family="Arial" font-size="24px" font-style="normal" font-weight="normal" text-decoration="none" x="200" y="90">UNREGISTERED</text><text fill="#eeeeee" stroke="none" font-family="Arial" font-size="24px" font-style="normal" font-weight="normal" text-decoration="none" x="200" y="120">UNREGISTERED</text><text fill="#eeeeee" stroke="none" font-family="Arial" font-size="24px" font-style="normal" font-weight="normal" text-decoration="none" x="200" y="150">UNREGISTERED</text><text fill="#eeeeee" stroke="none" font-family="Arial" font-size="24px" font-style="normal" font-weight="normal" text-decoration="none" x="200" y="180">UNREGISTERED</text><text fill="#eeeeee" stroke="none" font-family="Arial" font-size="24px" font-style="normal" font-weight="normal" text-decoration="none" x="200" y="210">UNREGISTERED</text><text fill="#eeeeee" stroke="none" font-family="Arial" font-size="24px" font-style="normal" font-weight="normal" text-decoration="none" x="200" y="240">UNREGISTERED</text><text fill="#eeeeee" stroke="none" font-family="Arial" font-size="24px" font-style="normal" font-weight="normal" text-decoration="none" x="200" y="270">UNREGISTERED</text><text fill="#eeeeee" stroke="none" font-family="Arial" font-size="24px" font-style="normal" font-weight="normal" text-decoration="none" x="200" y="300">UNREGISTERED</text><text fill="#eeeeee" stroke="none" font-family="Arial" font-size="24px" font-style="normal" font-weight="normal" text-decoration="none" x="200" y="330">UNREGISTERED</text><text fill="#eeeeee" stroke="none" font-family="Arial" font-size="24px" font-style="normal" font-weight="normal" text-decoration="none" x="200" y="360">UNREGISTERED</text><text fill="#eeeeee" stroke="none" font-family="Arial" font-size="24px" font-style="normal" font-weight="normal" text-decoration="none" x="200" y="390">UNREGISTERED</text><text fill="#eeeeee" stroke="none" font-family="Arial" font-size="24px" font-style="normal" font-weight="normal" text-decoration="none" x="200" y="420">UNREGISTERED</text><text fill="#eeeeee" stroke="none" font-family="Arial" font-size="24px" font-style="normal" font-weight="normal" text-decoration="none" x="200" y="450">UNREGISTERED</text><text fill="#eeeeee" stroke="none" font-family="Arial" font-size="24px" font-style="normal" font-weight="normal" text-decoration="none" x="200" y="480">UNREGISTERED</text><text fill="#eeeeee" stroke="none" font-family="Arial" font-size="24px" font-style="normal" font-weight="normal" text-decoration="none" x="200" y="510">UNREGISTERED</text><text fill="#eeeeee" stroke="none" font-family="Arial" font-size="24px" font-style="normal" font-weight="normal" text-decoration="none" x="200" y="540">UNREGISTERED</text><text fill="#eeeeee" stroke="none" font-family="Arial" font-size="24px" font-style="normal" font-weight="normal" text-decoration="none" x="200" y="570">UNREGISTERED</text><text fill="#eeeeee" stroke="none" font-family="Arial" font-size="24px" font-style="normal" font-weight="normal" text-decoration="none" x="400" y="0">UNREGISTERED</text><text fill="#eeeeee" stroke="none" font-family="Arial" font-size="24px" font-style="normal" font-weight="normal" text-decoration="none" x="400" y="30">UNREGISTERED</text><text fill="#eeeeee" stroke="none" font-family="Arial" font-size="24px" font-style="normal" font-weight="normal" text-decoration="none" x="400" y="60">UNREGISTERED</text><text fill="#eeeeee" stroke="none" font-family="Arial" font-size="24px" font-style="normal" font-weight="normal" text-decoration="none" x="400" y="90">UNREGISTERED</text><text fill="#eeeeee" stroke="none" font-family="Arial" font-size="24px" font-style="normal" font-weight="normal" text-decoration="none" x="400" y="120">UNREGISTERED</text><text fill="#eeeeee" stroke="none" font-family="Arial" font-size="24px" font-style="normal" font-weight="normal" text-decoration="none" x="400" y="150">UNREGISTERED</text><text fill="#eeeeee" stroke="none" font-family="Arial" font-size="24px" font-style="normal" font-weight="normal" text-decoration="none" x="400" y="180">UNREGISTERED</text><text fill="#eeeeee" stroke="none" font-family="Arial" font-size="24px" font-style="normal" font-weight="normal" text-decoration="none" x="400" y="210">UNREGISTERED</text><text fill="#eeeeee" stroke="none" font-family="Arial" font-size="24px" font-style="normal" font-weight="normal" text-decoration="none" x="400" y="240">UNREGISTERED</text><text fill="#eeeeee" stroke="none" font-family="Arial" font-size="24px" font-style="normal" font-weight="normal" text-decoration="none" x="400" y="270">UNREGISTERED</text><text fill="#eeeeee" stroke="none" font-family="Arial" font-size="24px" font-style="normal" font-weight="normal" text-decoration="none" x="400" y="300">UNREGISTERED</text><text fill="#eeeeee" stroke="none" font-family="Arial" font-size="24px" font-style="normal" font-weight="normal" text-decoration="none" x="400" y="330">UNREGISTERED</text><text fill="#eeeeee" stroke="none" font-family="Arial" font-size="24px" font-style="normal" font-weight="normal" text-decoration="none" x="400" y="360">UNREGISTERED</text><text fill="#eeeeee" stroke="none" font-family="Arial" font-size="24px" font-style="normal" font-weight="normal" text-decoration="none" x="400" y="390">UNREGISTERED</text><text fill="#eeeeee" stroke="none" font-family="Arial" font-size="24px" font-style="normal" font-weight="normal" text-decoration="none" x="400" y="420">UNREGISTERED</text><text fill="#eeeeee" stroke="none" font-family="Arial" font-size="24px" font-style="normal" font-weight="normal" text-decoration="none" x="400" y="450">UNREGISTERED</text><text fill="#eeeeee" stroke="none" font-family="Arial" font-size="24px" font-style="normal" font-weight="normal" text-decoration="none" x="400" y="480">UNREGISTERED</text><text fill="#eeeeee" stroke="none" font-family="Arial" font-size="24px" font-style="normal" font-weight="normal" text-decoration="none" x="400" y="510">UNREGISTERED</text><text fill="#eeeeee" stroke="none" font-family="Arial" font-size="24px" font-style="normal" font-weight="normal" text-decoration="none" x="400" y="540">UNREGISTERED</text><text fill="#eeeeee" stroke="none" font-family="Arial" font-size="24px" font-style="normal" font-weight="normal" text-decoration="none" x="400" y="570">UNREGISTERED</text><text fill="#eeeeee" stroke="none" font-family="Arial" font-size="24px" font-style="normal" font-weight="normal" text-decoration="none" x="600" y="0">UNREGISTERED</text><text fill="#eeeeee" stroke="none" font-family="Arial" font-size="24px" font-style="normal" font-weight="normal" text-decoration="none" x="600" y="30">UNREGISTERED</text><text fill="#eeeeee" stroke="none" font-family="Arial" font-size="24px" font-style="normal" font-weight="normal" text-decoration="none" x="600" y="60">UNREGISTERED</text><text fill="#eeeeee" stroke="none" font-family="Arial" font-size="24px" font-style="normal" font-weight="normal" text-decoration="none" x="600" y="90">UNREGISTERED</text><text fill="#eeeeee" stroke="none" font-family="Arial" font-size="24px" font-style="normal" font-weight="normal" text-decoration="none" x="600" y="120">UNREGISTERED</text><text fill="#eeeeee" stroke="none" font-family="Arial" font-size="24px" font-style="normal" font-weight="normal" text-decoration="none" x="600" y="150">UNREGISTERED</text><text fill="#eeeeee" stroke="none" font-family="Arial" font-size="24px" font-style="normal" font-weight="normal" text-decoration="none" x="600" y="180">UNREGISTERED</text><text fill="#eeeeee" stroke="none" font-family="Arial" font-size="24px" font-style="normal" font-weight="normal" text-decoration="none" x="600" y="210">UNREGISTERED</text><text fill="#eeeeee" stroke="none" font-family="Arial" font-size="24px" font-style="normal" font-weight="normal" text-decoration="none" x="600" y="240">UNREGISTERED</text><text fill="#eeeeee" stroke="none" font-family="Arial" font-size="24px" font-style="normal" font-weight="normal" text-decoration="none" x="600" y="270">UNREGISTERED</text><text fill="#eeeeee" stroke="none" font-family="Arial" font-size="24px" font-style="normal" font-weight="normal" text-decoration="none" x="600" y="300">UNREGISTERED</text><text fill="#eeeeee" stroke="none" font-family="Arial" font-size="24px" font-style="normal" font-weight="normal" text-decoration="none" x="600" y="330">UNREGISTERED</text><text fill="#eeeeee" stroke="none" font-family="Arial" font-size="24px" font-style="normal" font-weight="normal" text-decoration="none" x="600" y="360">UNREGISTERED</text><text fill="#eeeeee" stroke="none" font-family="Arial" font-size="24px" font-style="normal" font-weight="normal" text-decoration="none" x="600" y="390">UNREGISTERED</text><text fill="#eeeeee" stroke="none" font-family="Arial" font-size="24px" font-style="normal" font-weight="normal" text-decoration="none" x="600" y="420">UNREGISTERED</text><text fill="#eeeeee" stroke="none" font-family="Arial" font-size="24px" font-style="normal" font-weight="normal" text-decoration="none" x="600" y="450">UNREGISTERED</text><text fill="#eeeeee" stroke="none" font-family="Arial" font-size="24px" font-style="normal" font-weight="normal" text-decoration="none" x="600" y="480">UNREGISTERED</text><text fill="#eeeeee" stroke="none" font-family="Arial" font-size="24px" font-style="normal" font-weight="normal" text-decoration="none" x="600" y="510">UNREGISTERED</text><text fill="#eeeeee" stroke="none" font-family="Arial" font-size="24px" font-style="normal" font-weight="normal" text-decoration="none" x="600" y="540">UNREGISTERED</text><text fill="#eeeeee" stroke="none" font-family="Arial" font-size="24px" font-style="normal" font-weight="normal" text-decoration="none" x="600" y="570">UNREGISTERED</text><text fill="#eeeeee" stroke="none" font-family="Arial" font-size="24px" font-style="normal" font-weight="normal" text-decoration="none" x="800" y="0">UNREGISTERED</text><text fill="#eeeeee" stroke="none" font-family="Arial" font-size="24px" font-style="normal" font-weight="normal" text-decoration="none" x="800" y="30">UNREGISTERED</text><text fill="#eeeeee" stroke="none" font-family="Arial" font-size="24px" font-style="normal" font-weight="normal" text-decoration="none" x="800" y="60">UNREGISTERED</text><text fill="#eeeeee" stroke="none" font-family="Arial" font-size="24px" font-style="normal" font-weight="normal" text-decoration="none" x="800" y="90">UNREGISTERED</text><text fill="#eeeeee" stroke="none" font-family="Arial" font-size="24px" font-style="normal" font-weight="normal" text-decoration="none" x="800" y="120">UNREGISTERED</text><text fill="#eeeeee" stroke="none" font-family="Arial" font-size="24px" font-style="normal" font-weight="normal" text-decoration="none" x="800" y="150">UNREGISTERED</text><text fill="#eeeeee" stroke="none" font-family="Arial" font-size="24px" font-style="normal" font-weight="normal" text-decoration="none" x="800" y="180">UNREGISTERED</text><text fill="#eeeeee" stroke="none" font-family="Arial" font-size="24px" font-style="normal" font-weight="normal" text-decoration="none" x="800" y="210">UNREGISTERED</text><text fill="#eeeeee" stroke="none" font-family="Arial" font-size="24px" font-style="normal" font-weight="normal" text-decoration="none" x="800" y="240">UNREGISTERED</text><text fill="#eeeeee" stroke="none" font-family="Arial" font-size="24px" font-style="normal" font-weight="normal" text-decoration="none" x="800" y="270">UNREGISTERED</text><text fill="#eeeeee" stroke="none" font-family="Arial" font-size="24px" font-style="normal" font-weight="normal" text-decoration="none" x="800" y="300">UNREGISTERED</text><text fill="#eeeeee" stroke="none" font-family="Arial" font-size="24px" font-style="normal" font-weight="normal" text-decoration="none" x="800" y="330">UNREGISTERED</text><text fill="#eeeeee" stroke="none" font-family="Arial" font-size="24px" font-style="normal" font-weight="normal" text-decoration="none" x="800" y="360">UNREGISTERED</text><text fill="#eeeeee" stroke="none" font-family="Arial" font-size="24px" font-style="normal" font-weight="normal" text-decoration="none" x="800" y="390">UNREGISTERED</text><text fill="#eeeeee" stroke="none" font-family="Arial" font-size="24px" font-style="normal" font-weight="normal" text-decoration="none" x="800" y="420">UNREGISTERED</text><text fill="#eeeeee" stroke="none" font-family="Arial" font-size="24px" font-style="normal" font-weight="normal" text-decoration="none" x="800" y="450">UNREGISTERED</text><text fill="#eeeeee" stroke="none" font-family="Arial" font-size="24px" font-style="normal" font-weight="normal" text-decoration="none" x="800" y="480">UNREGISTERED</text><text fill="#eeeeee" stroke="none" font-family="Arial" font-size="24px" font-style="normal" font-weight="normal" text-decoration="none" x="800" y="510">UNREGISTERED</text><text fill="#eeeeee" stroke="none" font-family="Arial" font-size="24px" font-style="normal" font-weight="normal" text-decoration="none" x="800" y="540">UNREGISTERED</text><text fill="#eeeeee" stroke="none" font-family="Arial" font-size="24px" font-style="normal" font-weight="normal" text-decoration="none" x="800" y="570">UNREGISTERED</text><g transform="translate(-167,-126) scale(1,1)"><path fill="#ffffff" stroke="none" d="M 206.51846075994317 285.23 C 206.51846075994317 279.027841696 211.48370373070682 274 217.608642578125 274 C 223.73358142554318 274 228.69882439630683 279.027841696 228.69882439630683 285.23 C 228.69882439630683 291.43215830400004 223.73358142554318 296.46 217.608642578125 296.46 C 211.48370373070682 296.46 206.51846075994317 291.43215830400004 206.51846075994317 285.23 Z"/></g><g transform="translate(-167,-126) scale(1,1)"><path fill="none" stroke="#000000" d="M 206.51846075994317 285.23 C 206.51846075994317 279.027841696 211.48370373070682 274 217.608642578125 274 C 223.73358142554318 274 228.69882439630683 279.027841696 228.69882439630683 285.23 C 228.69882439630683 291.43215830400004 223.73358142554318 296.46 217.608642578125 296.46 C 211.48370373070682 296.46 206.51846075994317 291.43215830400004 206.51846075994317 285.23 Z" stroke-miterlimit="10"/></g><g transform="translate(-167,-126) scale(1,1)"><path fill="none" stroke="#000000" d="M 217.608642578125 296.46 L 217.608642578125 318.54" stroke-miterlimit="10"/></g><g transform="translate(-167,-126) scale(1,1)"><path fill="none" stroke="#000000" d="M 205.86609712357955 304.74 L 229.35118803267045 304.74" stroke-miterlimit="10"/></g><g transform="translate(-167,-126) scale(1,1)"><path fill="none" stroke="#000000" d="M 217.608642578125 318.54 L 201.2995516690341 341" stroke-miterlimit="10"/></g><g transform="translate(-167,-126) scale(1,1)"><path fill="none" stroke="#000000" d="M 217.608642578125 318.54 L 233.9177334872159 341" stroke-miterlimit="10"/></g><g transform="translate(-167,-126) scale(1,1)"><g><path fill="none" stroke="none"/><text fill="#000000" stroke="none" font-family="Arial" font-size="13px" font-style="normal" font-weight="bold" text-decoration="none" x="196.064697265625" y="359.7099609375">Tourist</text></g></g><g transform="translate(-167,-126) scale(1,1)"><path fill="#C0C0C0" stroke="none" d="M 430 323 C 430 298.6994688 467.6080768 279 514 279 C 560.3919232 279 598 298.6994688 598 323 C 598 347.3005312 560.3919232 367 514 367 C 467.6080768 367 430 347.3005312 430 323 Z" opacity="0.2"/></g><g transform="translate(-167,-126) scale(1,1)"><path fill="#ffffff" stroke="none" d="M 423 316 C 423 291.6994688 460.6080768 272 507 272 C 553.3919232 272 591 291.6994688 591 316 C 591 340.3005312 553.3919232 360 507 360 C 460.6080768 360 423 340.3005312 423 316 Z"/></g><g transform="translate(-167,-126) scale(1,1)"><path fill="none" stroke="#000000" d="M 423 316 C 423 291.6994688 460.6080768 272 507 272 C 553.3919232 272 591 291.6994688 591 316 C 591 340.3005312 553.3919232 360 507 360 C 460.6080768 360 423 340.3005312 423 316 Z" stroke-miterlimit="10"/></g><g transform="translate(-167,-126) scale(1,1)"><g><path fill="none" stroke="none"/><text fill="#000000" stroke="none" font-family="Arial" font-size="13px" font-style="normal" font-weight="bold" text-decoration="none" x="478.102294921875" y="314.7099609375">Read POI</text><text fill="#000000" stroke="none" font-family="Arial" font-size="13px" font-style="normal" font-weight="bold" text-decoration="none" x="471.253173828125" y="327.7099609375">Information</text></g></g><g transform="translate(-167,-126) scale(1,1)"><path fill="#C0C0C0" stroke="none" d="M 430 187 C 430 162.6994688 467.6080768 143 514 143 C 560.3919232 143 598 162.6994688 598 187 C 598 211.3005312 560.3919232 231 514 231 C 467.6080768 231 430 211.3005312 430 187 Z" opacity="0.2"/></g><g transform="translate(-167,-126) scale(1,1)"><path fill="#ffffff" stroke="none" d="M 423 180 C 423 155.6994688 460.6080768 136 507 136 C 553.3919232 136 591 155.6994688 591 180 C 591 204.3005312 553.3919232 224 507 224 C 460.6080768 224 423 204.3005312 423 180 Z"/></g><g transform="translate(-167,-126) scale(1,1)"><path fill="none" stroke="#000000" d="M 423 180 C 423 155.6994688 460.6080768 136 507 136 C 553.3919232 136 591 155.6994688 591 180 C 591 204.3005312 553.3919232 224 507 224 C 460.6080768 224 423 204.3005312 423 180 Z" stroke-miterlimit="10"/></g><g transform="translate(-167,-126) scale(1,1)"><g><path fill="none" stroke="none"/><text fill="#000000" stroke="none" font-family="Arial" font-size="13px" font-style="normal" font-weight="bold" text-decoration="none" x="474.490478515625" y="185.2099609375">Filter POIs</text></g></g><g transform="translate(-167,-126) scale(1,1)"><path fill="#C0C0C0" stroke="none" d="M 839 323 C 839 298.6994688 876.6080768 279 923 279 C 969.3919232 279 1007 298.6994688 1007 323 C 1007 347.3005312 969.3919232 367 923 367 C 876.6080768 367 839 347.3005312 839 323 Z" opacity="0.2"/></g><g transform="translate(-167,-126) scale(1,1)"><path fill="#ffffff" stroke="none" d="M 832 316 C 832 291.6994688 869.6080768 272 916 272 C 962.3919232 272 1000 291.6994688 1000 316 C 1000 340.3005312 962.3919232 360 916 360 C 869.6080768 360 832 340.3005312 832 316 Z"/></g><g transform="translate(-167,-126) scale(1,1)"><path fill="none" stroke="#000000" d="M 832 316 C 832 291.6994688 869.6080768 272 916 272 C 962.3919232 272 1000 291.6994688 1000 316 C 1000 340.3005312 962.3919232 360 916 360 C 869.6080768 360 832 340.3005312 832 316 Z" stroke-miterlimit="10"/></g><g transform="translate(-167,-126) scale(1,1)"><g><path fill="none" stroke="none"/><text fill="#000000" stroke="none" font-family="Arial" font-size="13px" font-style="normal" font-weight="bold" text-decoration="none" x="883.845947265625" y="321.2099609375">Select POI</text></g></g><g transform="translate(-167,-126) scale(1,1)"><path fill="#C0C0C0" stroke="none" d="M 430 459 C 430 434.6994688 467.6080768 415 514 415 C 560.3919232 415 598 434.6994688 598 459 C 598 483.3005312 560.3919232 503 514 503 C 467.6080768 503 430 483.3005312 430 459 Z" opacity="0.2"/></g><g transform="translate(-167,-126) scale(1,1)"><path fill="#ffffff" stroke="none" d="M 423 452 C 423 427.6994688 460.6080768 408 507 408 C 553.3919232 408 591 427.6994688 591 452 C 591 476.3005312 553.3919232 496 507 496 C 460.6080768 496 423 476.3005312 423 452 Z"/></g><g transform="translate(-167,-126) scale(1,1)"><path fill="none" stroke="#000000" d="M 423 452 C 423 427.6994688 460.6080768 408 507 408 C 553.3919232 408 591 427.6994688 591 452 C 591 476.3005312 553.3919232 496 507 496 C 460.6080768 496 423 476.3005312 423 452 Z" stroke-miterlimit="10"/></g><g transform="translate(-167,-126) scale(1,1)"><g><path fill="none" stroke="none"/><text fill="#000000" stroke="none" font-family="Arial" font-size="13px" font-style="normal" font-weight="bold" text-decoration="none" x="468.352294921875" y="457.2099609375">Explore Map</text></g></g><g transform="translate(-167,-126) scale(1,1)"><path fill="#C0C0C0" stroke="none" d="M 839 459 C 839 434.6994688 876.6080768 415 923 415 C 969.3919232 415 1007 434.6994688 1007 459 C 1007 483.3005312 969.3919232 503 923 503 C 876.6080768 503 839 483.3005312 839 459 Z" opacity="0.2"/></g><g transform="translate(-167,-126) scale(1,1)"><path fill="#ffffff" stroke="none" d="M 832 452 C 832 427.6994688 869.6080768 408 916 408 C 962.3919232 408 1000 427.6994688 1000 452 C 1000 476.3005312 962.3919232 496 916 496 C 869.6080768 496 832 476.3005312 832 452 Z"/></g><g transform="translate(-167,-126) scale(1,1)"><path fill="none" stroke="#000000" d="M 832 452 C 832 427.6994688 869.6080768 408 916 408 C 962.3919232 408 1000 427.6994688 1000 452 C 1000 476.3005312 962.3919232 496 916 496 C 869.6080768 496 832 476.3005312 832 452 Z" stroke-miterlimit="10"/></g><g transform="translate(-167,-126) scale(1,1)"><g><path fill="none" stroke="none"/><text fill="#000000" stroke="none" font-family="Arial" font-size="13px" font-style="normal" font-weight="bold" text-decoration="none" x="877.371337890625" y="457.03857421875">Zoom In-Out</text></g></g><g transform="translate(-167,-126) scale(1,1)"><path fill="#C0C0C0" stroke="none" d="M 430 659 C 430 634.6994688 467.6080768 615 514 615 C 560.3919232 615 598 634.6994688 598 659 C 598 683.3005312 560.3919232 703 514 703 C 467.6080768 703 430 683.3005312 430 659 Z" opacity="0.2"/></g><g transform="translate(-167,-126) scale(1,1)"><path fill="#ffffff" stroke="none" d="M 423 652 C 423 627.6994688 460.6080768 608 507 608 C 553.3919232 608 591 627.6994688 591 652 C 591 676.3005312 553.3919232 696 507 696 C 460.6080768 696 423 676.3005312 423 652 Z"/></g><g transform="translate(-167,-126) scale(1,1)"><path fill="none" stroke="#000000" d="M 423 652 C 423 627.6994688 460.6080768 608 507 608 C 553.3919232 608 591 627.6994688 591 652 C 591 676.3005312 553.3919232 696 507 696 C 460.6080768 696 423 676.3005312 423 652 Z" stroke-miterlimit="10"/></g><g transform="translate(-167,-126) scale(1,1)"><g><path fill="none" stroke="none"/><text fill="#000000" stroke="none" font-family="Arial" font-size="13px" font-style="normal" font-weight="bold" text-decoration="none" x="458.9609375" y="657.2099609375">Navigate to POI</text></g></g><g transform="translate(-167,-126) scale(1,1)"><path fill="none" stroke="#000000" d="M 258 320 L 423 320" stroke-miterlimit="10"/></g><g transform="translate(-167,-126) scale(1,1)"><path fill="none" stroke="#000000" d="M 412.83732514237585 324.209517756016 L 423 320 L 412.83732514237585 315.790482243984" stroke-miterlimit="10"/></g><g transform="translate(-167,-126) scale(1,1)"><path fill="none" stroke="#000000" d="M 258 320 L 344 320 L 344 176 L 423 176" stroke-miterlimit="10"/></g><g transform="translate(-167,-126) scale(1,1)"><path fill="none" stroke="#000000" d="M 412.83732514237585 180.209517756016 L 423 176 L 412.83732514237585 171.790482243984" stroke-miterlimit="10"/></g><g transform="translate(-167,-126) scale(1,1)"><path fill="none" stroke="#000000" d="M 258 320 L 344 320 L 344 456 L 423 456" stroke-miterlimit="10"/></g><g transform="translate(-167,-126) scale(1,1)"><path fill="none" stroke="#000000" d="M 412.83732514237585 460.209517756016 L 423 456 L 412.83732514237585 451.790482243984" stroke-miterlimit="10"/></g><g transform="translate(-167,-126) scale(1,1)"><path fill="none" stroke="#000000" d="M 258 320 L 296 320 L 296 652 L 423 652" stroke-miterlimit="10"/></g><g transform="translate(-167,-126) scale(1,1)"><path fill="none" stroke="#000000" d="M 412.83732514237585 656.209517756016 L 423 652 L 412.83732514237585 647.790482243984" stroke-miterlimit="10"/></g><g transform="translate(-167,-126) scale(1,1)"><path fill="none" stroke="#000000" d="M 591 452 L 832 452" stroke-miterlimit="10" stroke-dasharray="3"/></g><g transform="translate(-167,-126) scale(1,1)"><path fill="none" stroke="#000000" d="M 821.8373251423759 456.209517756016 L 832 452 L 821.8373251423758 447.790482243984" stroke-miterlimit="10"/></g><g transform="translate(-167,-126) scale(1,1)"><g><path fill="none" stroke="none"/><text fill="#000000" stroke="none" font-family="Arial" font-size="13px" font-style="normal" font-weight="normal" text-decoration="none" x="675.5" y="441.7099609375">«include»</text></g></g><g transform="translate(-167,-126) scale(1,1)"><path fill="none" stroke="#000000" d="M 591 316 L 832 316" stroke-miterlimit="10" stroke-dasharray="3"/></g><g transform="translate(-167,-126) scale(1,1)"><path fill="none" stroke="#000000" d="M 821.8373251423759 320.209517756016 L 832 316 L 821.8373251423758 311.790482243984" stroke-miterlimit="10"/></g><g transform="translate(-167,-126) scale(1,1)"><g><path fill="none" stroke="none"/><text fill="#000000" stroke="none" font-family="Arial" font-size="13px" font-style="normal" font-weight="normal" text-decoration="none" x="671.5" y="305.7099609375">«include»</text></g></g><g transform="translate(-167,-126) scale(1,1)"><path fill="none" stroke="#000000" d="M 912 272 L 912 176 L 591 176" stroke-miterlimit="10" stroke-dasharray="3"/></g><g transform="translate(-167,-126) scale(1,1)"><path fill="none" stroke="#000000" d="M 601.1626748576241 171.790482243984 L 591 176 L 601.1626748576241 180.209517756016" stroke-miterlimit="10"/></g><g transform="translate(-167,-126) scale(1,1)"><g><path fill="none" stroke="none"/><text fill="#000000" stroke="none" font-family="Arial" font-size="13px" font-style="normal" font-weight="normal" text-decoration="none" x="831.5" y="169.7099609375">«extend»</text></g></g><g transform="translate(-167,-126) scale(1,1)"><path fill="none" stroke="#000000" d="M 916 360 L 916 392 L 504 392 L 504 408" stroke-miterlimit="10" stroke-dasharray="3"/></g><g transform="translate(-167,-126) scale(1,1)"><path fill="none" stroke="#000000" d="M 499.790482243984 397.83732514237585 L 504 408 L 508.209517756016 397.83732514237585" stroke-miterlimit="10"/></g><g transform="translate(-167,-126) scale(1,1)"><g><path fill="none" stroke="none"/><text fill="#000000" stroke="none" font-family="Arial" font-size="13px" font-style="normal" font-weight="normal" text-decoration="none" x="682.5" y="385.7099609375">«extend»</text></g></g><g transform="translate(-167,-126) scale(1,1)"><path fill="none" stroke="#000000" d="M 591 652 L 1032 652 L 1032 312 L 1000 312" stroke-miterlimit="10" stroke-dasharray="3"/></g><g transform="translate(-167,-126) scale(1,1)"><path fill="none" stroke="#000000" d="M 1010.1626748576241 307.790482243984 L 1000 312 L 1010.1626748576241 316.209517756016" stroke-miterlimit="10"/></g><g transform="translate(-167,-126) scale(1,1)"><g><path fill="none" stroke="none"/><text fill="#000000" stroke="none" font-family="Arial" font-size="13px" font-style="normal" font-weight="normal" text-decoration="none" x="815.5" y="642.7099609375">«include»</text></g></g></g></svg>