<svg version="1.1" xmlns="http://www.w3.org/2000/svg" xmlns:xlink="http://www.w3.org/1999/xlink" width="917" height="439"><defs/><g><text fill="#eeeeee" stroke="none" font-family="Arial" font-size="24px" font-style="normal" font-weight="normal" text-decoration="none" x="0" y="0">UNREGISTERED</text><text fill="#eeeeee" stroke="none" font-family="Arial" font-size="24px" font-style="normal" font-weight="normal" text-decoration="none" x="0" y="30">UNREGISTERED</text><text fill="#eeeeee" stroke="none" font-family="Arial" font-size="24px" font-style="normal" font-weight="normal" text-decoration="none" x="0" y="60">UNREGISTERED</text><text fill="#eeeeee" stroke="none" font-family="Arial" font-size="24px" font-style="normal" font-weight="normal" text-decoration="none" x="0" y="90">UNREGISTERED</text><text fill="#eeeeee" stroke="none" font-family="Arial" font-size="24px" font-style="normal" font-weight="normal" text-decoration="none" x="0" y="120">UNREGISTERED</text><text fill="#eeeeee" stroke="none" font-family="Arial" font-size="24px" font-style="normal" font-weight="normal" text-decoration="none" x="0" y="150">UNREGISTERED</text><text fill="#eeeeee" stroke="none" font-family="Arial" font-size="24px" font-style="normal" font-weight="normal" text-decoration="none" x="0" y="180">UNREGISTERED</text><text fill="#eeeeee" stroke="none" font-family="Arial" font-size="24px" font-style="normal" font-weight="normal" text-decoration="none" x="0" y="210">UNREGISTERED</text><text fill="#eeeeee" stroke="none" font-family="Arial" font-size="24px" font-style="normal" font-weight="normal" text-decoration="none" x="0" y="240">UNREGISTERED</text><text fill="#eeeeee" stroke="none" font-family="Arial" font-size="24px" font-style="normal" font-weight="normal" text-decoration="none" x="0" y="270">UNREGISTERED</text><text fill="#eeeeee" stroke="none" font-family="Arial" font-size="24px" font-style="normal" font-weight="normal" text-decoration="none" x="0" y="300">UNREGISTERED</text><text fill="#eeeeee" stroke="none" font-family="Arial" font-size="24px" font-style="normal" font-weight="normal" text-decoration="none" x="0" y="330">UNREGISTERED</text><text fill="#eeeeee" stroke="none" font-family="Arial" font-size="24px" font-style="normal" font-weight="normal" text-decoration="none" x="0" y="360">UNREGISTERED</text><text fill="#eeeeee" stroke="none" font-family="Arial" font-size="24px" font-style="normal" font-weight="normal" text-decoration="none" x="0" y="390">UNREGISTERED</text><text fill="#eeeeee" stroke="none" font-family="Arial" font-size="24px" font-style="normal" font-weight="normal" text-decoration="none" x="0" y="420">UNREGISTERED</text><text fill="#eeeeee" stroke="none" font-family="Arial" font-size="24px" font-style="normal" font-weight="normal" text-decoration="none" x="200" y="0">UNREGISTERED</text><text fill="#eeeeee" stroke="none" font-family="Arial" font-size="24px" font-style="normal" font-weight="normal" text-decoration="none" x="200" y="30">UNREGISTERED</text><text fill="#eeeeee" stroke="none" font-family="Arial" font-size="24px" font-style="normal" font-weight="normal" text-decoration="none" x="200" y="60">UNREGISTERED</text><text fill="#eeeeee" stroke="none" font-family="Arial" font-size="24px" font-style="normal" font-weight="normal" text-decoration="none" x="200" y="90">UNREGISTERED</text><text fill="#eeeeee" stroke="none" font-family="Arial" font-size="24px" font-style="normal" font-weight="normal" text-decoration="none" x="200" y="120">UNREGISTERED</text><text fill="#eeeeee" stroke="none" font-family="Arial" font-size="24px" font-style="normal" font-weight="normal" text-decoration="none" x="200" y="150">UNREGISTERED</text><text fill="#eeeeee" stroke="none" font-family="Arial" font-size="24px" font-style="normal" font-weight="normal" text-decoration="none" x="200" y="180">UNREGISTERED</text><text fill="#eeeeee" stroke="none" font-family="Arial" font-size="24px" font-style="normal" font-weight="normal" text-decoration="none" x="200" y="210">UNREGISTERED</text><text fill="#eeeeee" stroke="none" font-family="Arial" font-size="24px" font-style="normal" font-weight="normal" text-decoration="none" x="200" y="240">UNREGISTERED</text><text fill="#eeeeee" stroke="none" font-family="Arial" font-size="24px" font-style="normal" font-weight="normal" text-decoration="none" x="200" y="270">UNREGISTERED</text><text fill="#eeeeee" stroke="none" font-family="Arial" font-size="24px" font-style="normal" font-weight="normal" text-decoration="none" x="200" y="300">UNREGISTERED</text><text fill="#eeeeee" stroke="none" font-family="Arial" font-size="24px" font-style="normal" font-weight="normal" text-decoration="none" x="200" y="330">UNREGISTERED</text><text fill="#eeeeee" stroke="none" font-family="Arial" font-size="24px" font-style="normal" font-weight="normal" text-decoration="none" x="200" y="360">UNREGISTERED</text><text fill="#eeeeee" stroke="none" font-family="Arial" font-size="24px" font-style="normal" font-weight="normal" text-decoration="none" x="200" y="390">UNREGISTERED</text><text fill="#eeeeee" stroke="none" font-family="Arial" font-size="24px" font-style="normal" font-weight="normal" text-decoration="none" x="200" y="420">UNREGISTERED</text><text fill="#eeeeee" stroke="none" font-family="Arial" font-size="24px" font-style="normal" font-weight="normal" text-decoration="none" x="400" y="0">UNREGISTERED</text><text fill="#eeeeee" stroke="none" font-family="Arial" font-size="24px" font-style="normal" font-weight="normal" text-decoration="none" x="400" y="30">UNREGISTERED</text><text fill="#eeeeee" stroke="none" font-family="Arial" font-size="24px" font-style="normal" font-weight="normal" text-decoration="none" x="400" y="60">UNREGISTERED</text><text fill="#eeeeee" stroke="none" font-family="Arial" font-size="24px" font-style="normal" font-weight="normal" text-decoration="none" x="400" y="90">UNREGISTERED</text><text fill="#eeeeee" stroke="none" font-family="Arial" font-size="24px" font-style="normal" font-weight="normal" text-decoration="none" x="400" y="120">UNREGISTERED</text><text fill="#eeeeee" stroke="none" font-family="Arial" font-size="24px" font-style="normal" font-weight="normal" text-decoration="none" x="400" y="150">UNREGISTERED</text><text fill="#eeeeee" stroke="none" font-family="Arial" font-size="24px" font-style="normal" font-weight="normal" text-decoration="none" x="400" y="180">UNREGISTERED</text><text fill="#eeeeee" stroke="none" font-family="Arial" font-size="24px" font-style="normal" font-weight="normal" text-decoration="none" x="400" y="210">UNREGISTERED</text><text fill="#eeeeee" stroke="none" font-family="Arial" font-size="24px" font-style="normal" font-weight="normal" text-decoration="none" x="400" y="240">UNREGISTERED</text><text fill="#eeeeee" stroke="none" font-family="Arial" font-size="24px" font-style="normal" font-weight="normal" text-decoration="none" x="400" y="270">UNREGISTERED</text><text fill="#eeeeee" stroke="none" font-family="Arial" font-size="24px" font-style="normal" font-weight="normal" text-decoration="none" x="400" y="300">UNREGISTERED</text><text fill="#eeeeee" stroke="none" font-family="Arial" font-size="24px" font-style="normal" font-weight="normal" text-decoration="none" x="400" y="330">UNREGISTERED</text><text fill="#eeeeee" stroke="none" font-family="Arial" font-size="24px" font-style="normal" font-weight="normal" text-decoration="none" x="400" y="360">UNREGISTERED</text><text fill="#eeeeee" stroke="none" font-family="Arial" font-size="24px" font-style="normal" font-weight="normal" text-decoration="none" x="400" y="390">UNREGISTERED</text><text fill="#eeeeee" stroke="none" font-family="Arial" font-size="24px" font-style="normal" font-weight="normal" text-decoration="none" x="400" y="420">UNREGISTERED</text><text fill="#eeeeee" stroke="none" font-family="Arial" font-size="24px" font-style="normal" font-weight="normal" text-decoration="none" x="600" y="0">UNREGISTERED</text><text fill="#eeeeee" stroke="none" font-family="Arial" font-size="24px" font-style="normal" font-weight="normal" text-decoration="none" x="600" y="30">UNREGISTERED</text><text fill="#eeeeee" stroke="none" font-family="Arial" font-size="24px" font-style="normal" font-weight="normal" text-decoration="none" x="600" y="60">UNREGISTERED</text><text fill="#eeeeee" stroke="none" font-family="Arial" font-size="24px" font-style="normal" font-weight="normal" text-decoration="none" x="600" y="90">UNREGISTERED</text><text fill="#eeeeee" stroke="none" font-family="Arial" font-size="24px" font-style="normal" font-weight="normal" text-decoration="none" x="600" y="120">UNREGISTERED</text><text fill="#eeeeee" stroke="none" font-family="Arial" font-size="24px" font-style="normal" font-weight="normal" text-decoration="none" x="600" y="150">UNREGISTERED</text><text fill="#eeeeee" stroke="none" font-family="Arial" font-size="24px" font-style="normal" font-weight="normal" text-decoration="none" x="600" y="180">UNREGISTERED</text><text fill="#eeeeee" stroke="none" font-family="Arial" font-size="24px" font-style="normal" font-weight="normal" text-decoration="none" x="600" y="210">UNREGISTERED</text><text fill="#eeeeee" stroke="none" font-family="Arial" font-size="24px" font-style="normal" font-weight="normal" text-decoration="none" x="600" y="240">UNREGISTERED</text><text fill="#eeeeee" stroke="none" font-family="Arial" font-size="24px" font-style="normal" font-weight="normal" text-decoration="none" x="600" y="270">UNREGISTERED</text><text fill="#eeeeee" stroke="none" font-family="Arial" font-size="24px" font-style="normal" font-weight="normal" text-decoration="none" x="600" y="300">UNREGISTERED</text><text fill="#eeeeee" stroke="none" font-family="Arial" font-size="24px" font-style="normal" font-weight="normal" text-decoration="none" x="600" y="330">UNREGISTERED</text><text fill="#eeeeee" stroke="none" font-family="Arial" font-size="24px" font-style="normal" font-weight="normal" text-decoration="none" x="600" y="360">UNREGISTERED</text><text fill="#eeeeee" stroke="none" font-family="Arial" font-size="24px" font-style="normal" font-weight="normal" text-decoration="none" x="600" y="390">UNREGISTERED</text><text fill="#eeeeee" stroke="none" font-family="Arial" font-size="24px" font-style="normal" font-weight="normal" text-decoration="none" x="600" y="420">UNREGISTERED</text><text fill="#eeeeee" stroke="none" font-family="Arial" font-size="24px" font-style="normal" font-weight="normal" text-decoration="none" x="800" y="0">UNREGISTERED</text><text fill="#eeeeee" stroke="none" font-family="Arial" font-size="24px" font-style="normal" font-weight="normal" text-decoration="none" x="800" y="30">UNREGISTERED</text><text fill="#eeeeee" stroke="none" font-family="Arial" font-size="24px" font-style="normal" font-weight="normal" text-decoration="none" x="800" y="60">UNREGISTERED</text><text fill="#eeeeee" stroke="none" font-family="Arial" font-size="24px" font-style="normal" font-weight="normal" text-decoration="none" x="800" y="90">UNREGISTERED</text><text fill="#eeeeee" stroke="none" font-family="Arial" font-size="24px" font-style="normal" font-weight="normal" text-decoration="none" x="800" y="120">UNREGISTERED</text><text fill="#eeeeee" stroke="none" font-family="Arial" font-size="24px" font-style="normal" font-weight="normal" text-decoration="none" x="800" y="150">UNREGISTERED</text><text fill="#eeeeee" stroke="none" font-family="Arial" font-size="24px" font-style="normal" font-weight="normal" text-decoration="none" x="800" y="180">UNREGISTERED</text><text fill="#eeeeee" stroke="none" font-family="Arial" font-size="24px" font-style="normal" font-weight="normal" text-decoration="none" x="800" y="210">UNREGISTERED</text><text fill="#eeeeee" stroke="none" font-family="Arial" font-size="24px" font-style="normal" font-weight="normal" text-decoration="none" x="800" y="240">UNREGISTERED</text><text fill="#eeeeee" stroke="none" font-family="Arial" font-size="24px" font-style="normal" font-weight="normal" text-decoration="none" x="800" y="270">UNREGISTERED</text><text fill="#eeeeee" stroke="none" font-family="Arial" font-size="24px" font-style="normal" font-weight="normal" text-decoration="none" x="800" y="300">UNREGISTERED</text><text fill="#eeeeee" stroke="none" font-family="Arial" font-size="24px" font-style="normal" font-weight="normal" text-decoration="none" x="800" y="330">UNREGISTERED</text><text fill="#eeeeee" stroke="none" font-family="Arial" font-size="24px" font-style="normal" font-weight="normal" text-decoration="none" x="800" y="360">UNREGISTERED</text><text fill="#eeeeee" stroke="none" font-family="Arial" font-size="24px" font-style="normal" font-weight="normal" text-decoration="none" x="800" y="390">UNREGISTERED</text><text fill="#eeeeee" stroke="none" font-family="Arial" font-size="24px" font-style="normal" font-weight="normal" text-decoration="none" x="800" y="420">UNREGISTERED</text><g transform="translate(-469,-702) scale(1,1)"><path fill="#ffffff" stroke="none" d="M 495.40935031960225 891.6800000000001 C 495.40935031960225 886.8861679360001 499.29519264454774 883 504.088623046875 883 C 508.88205344920226 883 512.7678957741477 886.8861679360001 512.7678957741477 891.6800000000001 C 512.7678957741477 896.473832064 508.88205344920226 900.36 504.088623046875 900.36 C 499.29519264454774 900.36 495.40935031960225 896.473832064 495.40935031960225 891.6800000000001 Z"/></g><g transform="translate(-469,-702) scale(1,1)"><path fill="none" stroke="#000000" d="M 495.40935031960225 891.6800000000001 C 495.40935031960225 886.8861679360001 499.29519264454774 883 504.088623046875 883 C 508.88205344920226 883 512.7678957741477 886.8861679360001 512.7678957741477 891.6800000000001 C 512.7678957741477 896.473832064 508.88205344920226 900.36 504.088623046875 900.36 C 499.29519264454774 900.36 495.40935031960225 896.473832064 495.40935031960225 891.6800000000001 Z" stroke-miterlimit="10"/></g><g transform="translate(-469,-702) scale(1,1)"><path fill="none" stroke="#000000" d="M 504.088623046875 900.36 L 504.088623046875 917.64" stroke-miterlimit="10"/></g><g transform="translate(-469,-702) scale(1,1)"><path fill="none" stroke="#000000" d="M 494.89880486505683 906.84 L 513.2784412286932 906.84" stroke-miterlimit="10"/></g><g transform="translate(-469,-702) scale(1,1)"><path fill="none" stroke="#000000" d="M 504.088623046875 917.64 L 491.32498668323865 935" stroke-miterlimit="10"/></g><g transform="translate(-469,-702) scale(1,1)"><path fill="none" stroke="#000000" d="M 504.088623046875 917.64 L 516.8522594105114 935" stroke-miterlimit="10"/></g><g transform="translate(-469,-702) scale(1,1)"><g><path fill="none" stroke="none"/><text fill="#000000" stroke="none" font-family="Arial" font-size="13px" font-style="normal" font-weight="bold" text-decoration="none" x="483.8681640625" y="953.7099609375">Admin</text></g></g><g transform="translate(-469,-702) scale(1,1)"><path fill="#C0C0C0" stroke="none" d="M 822 925.5 C 822 900.9233264 858.4887888 881 903.5 881 C 948.5112112 881 985 900.9233264 985 925.5 C 985 950.0766736 948.5112112 970 903.5 970 C 858.4887888 970 822 950.0766736 822 925.5 Z" opacity="0.2"/></g><g transform="translate(-469,-702) scale(1,1)"><path fill="#ffffff" stroke="none" d="M 815 918.5 C 815 893.9233264 851.4887888 874 896.5 874 C 941.5112112 874 978 893.9233264 978 918.5 C 978 943.0766736 941.5112112 963 896.5 963 C 851.4887888 963 815 943.0766736 815 918.5 Z"/></g><g transform="translate(-469,-702) scale(1,1)"><path fill="none" stroke="#000000" d="M 815 918.5 C 815 893.9233264 851.4887888 874 896.5 874 C 941.5112112 874 978 893.9233264 978 918.5 C 978 943.0766736 941.5112112 963 896.5 963 C 851.4887888 963 815 943.0766736 815 918.5 Z" stroke-miterlimit="10"/></g><g transform="translate(-469,-702) scale(1,1)"><g><path fill="none" stroke="none"/><text fill="#000000" stroke="none" font-family="Arial" font-size="13px" font-style="normal" font-weight="bold" text-decoration="none" x="859.420166015625" y="917.2099609375">POI and TOI</text><text fill="#000000" stroke="none" font-family="Arial" font-size="13px" font-style="normal" font-weight="bold" text-decoration="none" x="856.77001953125" y="929.971923828125">Management</text></g></g><g transform="translate(-469,-702) scale(1,1)"><path fill="#C0C0C0" stroke="none" d="M 682 1093.5 C 682 1068.9233264 718.4887888 1049 763.5 1049 C 808.5112112 1049 845 1068.9233264 845 1093.5 C 845 1118.0766736 808.5112112 1138 763.5 1138 C 718.4887888 1138 682 1118.0766736 682 1093.5 Z" opacity="0.2"/></g><g transform="translate(-469,-702) scale(1,1)"><path fill="#ffffff" stroke="none" d="M 675 1086.5 C 675 1061.9233264 711.4887888 1042 756.5 1042 C 801.5112112 1042 838 1061.9233264 838 1086.5 C 838 1111.0766736 801.5112112 1131 756.5 1131 C 711.4887888 1131 675 1111.0766736 675 1086.5 Z"/></g><g transform="translate(-469,-702) scale(1,1)"><path fill="none" stroke="#000000" d="M 675 1086.5 C 675 1061.9233264 711.4887888 1042 756.5 1042 C 801.5112112 1042 838 1061.9233264 838 1086.5 C 838 1111.0766736 801.5112112 1131 756.5 1131 C 711.4887888 1131 675 1111.0766736 675 1086.5 Z" stroke-miterlimit="10"/></g><g transform="translate(-469,-702) scale(1,1)"><g><path fill="none" stroke="none"/><text fill="#000000" stroke="none" font-family="Arial" font-size="13px" font-style="normal" font-weight="bold" text-decoration="none" x="737.7236328125" y="1078.53857421875">CRUD</text><text fill="#000000" stroke="none" font-family="Arial" font-size="13px" font-style="normal" font-weight="bold" text-decoration="none" x="713.5263671875" y="1091.7099609375">operations on</text><text fill="#000000" stroke="none" font-family="Arial" font-size="13px" font-style="normal" font-weight="bold" text-decoration="none" x="745.302734375" y="1104.53857421875">POI</text></g></g><g transform="translate(-469,-702) scale(1,1)"><path fill="#C0C0C0" stroke="none" d="M 966 1093.5 C 966 1068.9233264 1002.4887888 1049 1047.5 1049 C 1092.5112112 1049 1129 1068.9233264 1129 1093.5 C 1129 1118.0766736 1092.5112112 1138 1047.5 1138 C 1002.4887888 1138 966 1118.0766736 966 1093.5 Z" opacity="0.2"/></g><g transform="translate(-469,-702) scale(1,1)"><path fill="#ffffff" stroke="none" d="M 959 1086.5 C 959 1061.9233264 995.4887888 1042 1040.5 1042 C 1085.5112112 1042 1122 1061.9233264 1122 1086.5 C 1122 1111.0766736 1085.5112112 1131 1040.5 1131 C 995.4887888 1131 959 1111.0766736 959 1086.5 Z"/></g><g transform="translate(-469,-702) scale(1,1)"><path fill="none" stroke="#000000" d="M 959 1086.5 C 959 1061.9233264 995.4887888 1042 1040.5 1042 C 1085.5112112 1042 1122 1061.9233264 1122 1086.5 C 1122 1111.0766736 1085.5112112 1131 1040.5 1131 C 995.4887888 1131 959 1111.0766736 959 1086.5 Z" stroke-miterlimit="10"/></g><g transform="translate(-469,-702) scale(1,1)"><g><path fill="none" stroke="none"/><text fill="#000000" stroke="none" font-family="Arial" font-size="13px" font-style="normal" font-weight="bold" text-decoration="none" x="1021.7236328125" y="1078.53857421875">CRUD</text><text fill="#000000" stroke="none" font-family="Arial" font-size="13px" font-style="normal" font-weight="bold" text-decoration="none" x="997.5263671875" y="1091.7099609375">operations on</text><text fill="#000000" stroke="none" font-family="Arial" font-size="13px" font-style="normal" font-weight="bold" text-decoration="none" x="1029.78515625" y="1104.53857421875">TOI</text></g></g><g transform="translate(-469,-702) scale(1,1)"><path fill="none" stroke="#000000" d="M 529 921 L 815 921" stroke-miterlimit="10"/></g><g transform="translate(-469,-702) scale(1,1)"><path fill="none" stroke="#000000" d="M 804.8373251423759 925.209517756016 L 815 921 L 804.8373251423758 916.790482243984" stroke-miterlimit="10"/></g><g transform="translate(-469,-702) scale(1,1)"><path fill="none" stroke="#000000" d="M 767 1042 L 767 1018 L 871 1018 L 871 963" stroke-miterlimit="10" stroke-dasharray="3"/></g><g transform="translate(-469,-702) scale(1,1)"><path fill="none" stroke="#000000" d="M 875.209517756016 973.1626748576241 L 871 963 L 866.790482243984 973.1626748576241" stroke-miterlimit="10"/></g><g transform="translate(-469,-702) scale(1,1)"><g><path fill="none" stroke="none"/><text fill="#000000" stroke="none" font-family="Arial" font-size="13px" font-style="normal" font-weight="normal" text-decoration="none" x="950.5" y="1012.7099609375">«extend»</text></g></g><g transform="translate(-469,-702) scale(1,1)"><path fill="none" stroke="#000000" d="M 1039 1042 L 1039 1018 L 919 1018 L 919 963" stroke-miterlimit="10" stroke-dasharray="3"/></g><g transform="translate(-469,-702) scale(1,1)"><path fill="none" stroke="#000000" d="M 923.209517756016 973.1626748576241 L 919 963 L 914.790482243984 973.1626748576241" stroke-miterlimit="10"/></g><g transform="translate(-469,-702) scale(1,1)"><g><path fill="none" stroke="none"/><text fill="#000000" stroke="none" font-family="Arial" font-size="13px" font-style="normal" font-weight="normal" text-decoration="none" x="782.5" y="1011.7099609375">«extend»</text></g></g><g transform="translate(-469,-702) scale(1,1)"><path fill="none" stroke="#000000" d="M 978 920 L 1216 920" stroke-miterlimit="10" stroke-dasharray="3"/></g><g transform="translate(-469,-702) scale(1,1)"><path fill="none" stroke="#000000" d="M 1205.837325142376 924.209517756016 L 1216 920 L 1205.837325142376 915.790482243984" stroke-miterlimit="10"/></g><g transform="translate(-469,-702) scale(1,1)"><g><path fill="none" stroke="none"/><text fill="#000000" stroke="none" font-family="Arial" font-size="13px" font-style="normal" font-weight="normal" text-decoration="none" x="1083.5" y="884.7099609375">«include»</text></g></g><g transform="translate(-469,-702) scale(1,1)"><path fill="#C0C0C0" stroke="none" d="M 1223 923.5 C 1223 898.9233264 1258.817216 879 1303 879 C 1347.182784 879 1383 898.9233264 1383 923.5 C 1383 948.0766736 1347.182784 968 1303 968 C 1258.817216 968 1223 948.0766736 1223 923.5 Z" opacity="0.2"/></g><g transform="translate(-469,-702) scale(1,1)"><path fill="#ffffff" stroke="none" d="M 1216 916.5 C 1216 891.9233264 1251.817216 872 1296 872 C 1340.182784 872 1376 891.9233264 1376 916.5 C 1376 941.0766736 1340.182784 961 1296 961 C 1251.817216 961 1216 941.0766736 1216 916.5 Z"/></g><g transform="translate(-469,-702) scale(1,1)"><path fill="none" stroke="#000000" d="M 1216 916.5 C 1216 891.9233264 1251.817216 872 1296 872 C 1340.182784 872 1376 891.9233264 1376 916.5 C 1376 941.0766736 1340.182784 961 1296 961 C 1251.817216 961 1216 941.0766736 1216 916.5 Z" stroke-miterlimit="10"/></g><g transform="translate(-469,-702) scale(1,1)"><g><path fill="none" stroke="none"/><text fill="#000000" stroke="none" font-family="Arial" font-size="13px" font-style="normal" font-weight="bold" text-decoration="none" x="1250.503173828125" y="921.7099609375">Authentication</text></g></g><g transform="translate(-469,-702) scale(1,1)"><path fill="#C0C0C0" stroke="none" d="M 815 758.5 C 815 736.6847504 856.1897984 719 907 719 C 957.8102016 719 999 736.6847504 999 758.5 C 999 780.3152496 957.8102016 798 907 798 C 856.1897984 798 815 780.3152496 815 758.5 Z" opacity="0.2"/></g><g transform="translate(-469,-702) scale(1,1)"><path fill="#ffffff" stroke="none" d="M 808 751.5 C 808 729.6847504 849.1897984 712 900 712 C 950.8102016 712 992 729.6847504 992 751.5 C 992 773.3152496 950.8102016 791 900 791 C 849.1897984 791 808 773.3152496 808 751.5 Z"/></g><g transform="translate(-469,-702) scale(1,1)"><path fill="none" stroke="#000000" d="M 808 751.5 C 808 729.6847504 849.1897984 712 900 712 C 950.8102016 712 992 729.6847504 992 751.5 C 992 773.3152496 950.8102016 791 900 791 C 849.1897984 791 808 773.3152496 808 751.5 Z" stroke-miterlimit="10"/></g><g transform="translate(-469,-702) scale(1,1)"><g><path fill="none" stroke="none"/><text fill="#000000" stroke="none" font-family="Arial" font-size="13px" font-style="normal" font-weight="bold" text-decoration="none" x="844.14697265625" y="750.03857421875">Compute POI -TOI</text><text fill="#000000" stroke="none" font-family="Arial" font-size="13px" font-style="normal" font-weight="bold" text-decoration="none" x="879.0400390625" y="761.99755859375">scores</text></g></g><g transform="translate(-469,-702) scale(1,1)"><path fill="none" stroke="#000000" d="M 899 792 L 897 873" stroke-miterlimit="10" stroke-dasharray="3"/></g><g transform="translate(-469,-702) scale(1,1)"><path fill="none" stroke="#000000" d="M 893.042618638389 862.7365145901223 L 897 873 L 901.4590889353974 862.9443286715299" stroke-miterlimit="10"/></g><g transform="translate(-469,-702) scale(1,1)"><g><path fill="none" stroke="none"/><text fill="#000000" stroke="none" font-family="Arial" font-size="13px" font-style="normal" font-weight="normal" text-decoration="none" x="900.5" y="836.7099609375">«extend»</text></g></g></g></svg>