<svg version="1.1" xmlns="http://www.w3.org/2000/svg" xmlns:xlink="http://www.w3.org/1999/xlink" width="890.21728515625" height="467"><defs/><g><text fill="#eeeeee" stroke="none" font-family="Arial" font-size="24px" font-style="normal" font-weight="normal" text-decoration="none" x="0" y="0">UNREGISTERED</text><text fill="#eeeeee" stroke="none" font-family="Arial" font-size="24px" font-style="normal" font-weight="normal" text-decoration="none" x="0" y="30">UNREGISTERED</text><text fill="#eeeeee" stroke="none" font-family="Arial" font-size="24px" font-style="normal" font-weight="normal" text-decoration="none" x="0" y="60">UNREGISTERED</text><text fill="#eeeeee" stroke="none" font-family="Arial" font-size="24px" font-style="normal" font-weight="normal" text-decoration="none" x="0" y="90">UNREGISTERED</text><text fill="#eeeeee" stroke="none" font-family="Arial" font-size="24px" font-style="normal" font-weight="normal" text-decoration="none" x="0" y="120">UNREGISTERED</text><text fill="#eeeeee" stroke="none" font-family="Arial" font-size="24px" font-style="normal" font-weight="normal" text-decoration="none" x="0" y="150">UNREGISTERED</text><text fill="#eeeeee" stroke="none" font-family="Arial" font-size="24px" font-style="normal" font-weight="normal" text-decoration="none" x="0" y="180">UNREGISTERED</text><text fill="#eeeeee" stroke="none" font-family="Arial" font-size="24px" font-style="normal" font-weight="normal" text-decoration="none" x="0" y="210">UNREGISTERED</text><text fill="#eeeeee" stroke="none" font-family="Arial" font-size="24px" font-style="normal" font-weight="normal" text-decoration="none" x="0" y="240">UNREGISTERED</text><text fill="#eeeeee" stroke="none" font-family="Arial" font-size="24px" font-style="normal" font-weight="normal" text-decoration="none" x="0" y="270">UNREGISTERED</text><text fill="#eeeeee" stroke="none" font-family="Arial" font-size="24px" font-style="normal" font-weight="normal" text-decoration="none" x="0" y="300">UNREGISTERED</text><text fill="#eeeeee" stroke="none" font-family="Arial" font-size="24px" font-style="normal" font-weight="normal" text-decoration="none" x="0" y="330">UNREGISTERED</text><text fill="#eeeeee" stroke="none" font-family="Arial" font-size="24px" font-style="normal" font-weight="normal" text-decoration="none" x="0" y="360">UNREGISTERED</text><text fill="#eeeeee" stroke="none" font-family="Arial" font-size="24px" font-style="normal" font-weight="normal" text-decoration="none" x="0" y="390">UNREGISTERED</text><text fill="#eeeeee" stroke="none" font-family="Arial" font-size="24px" font-style="normal" font-weight="normal" text-decoration="none" x="0" y="420">UNREGISTERED</text><text fill="#eeeeee" stroke="none" font-family="Arial" font-size="24px" font-style="normal" font-weight="normal" text-decoration="none" x="0" y="450">UNREGISTERED</text><text fill="#eeeeee" stroke="none" font-family="Arial" font-size="24px" font-style="normal" font-weight="normal" text-decoration="none" x="200" y="0">UNREGISTERED</text><text fill="#eeeeee" stroke="none" font-family="Arial" font-size="24px" font-style="normal" font-weight="normal" text-decoration="none" x="200" y="30">UNREGISTERED</text><text fill="#eeeeee" stroke="none" font-family="Arial" font-size="24px" font-style="normal" font-weight="normal" text-decoration="none" x="200" y="60">UNREGISTERED</text><text fill="#eeeeee" stroke="none" font-family="Arial" font-size="24px" font-style="normal" font-weight="normal" text-decoration="none" x="200" y="90">UNREGISTERED</text><text fill="#eeeeee" stroke="none" font-family="Arial" font-size="24px" font-style="normal" font-weight="normal" text-decoration="none" x="200" y="120">UNREGISTERED</text><text fill="#eeeeee" stroke="none" font-family="Arial" font-size="24px" font-style="normal" font-weight="normal" text-decoration="none" x="200" y="150">UNREGISTERED</text><text fill="#eeeeee" stroke="none" font-family="Arial" font-size="24px" font-style="normal" font-weight="normal" text-decoration="none" x="200" y="180">UNREGISTERED</text><text fill="#eeeeee" stroke="none" font-family="Arial" font-size="24px" font-style="normal" font-weight="normal" text-decoration="none" x="200" y="210">UNREGISTERED</text><text fill="#eeeeee" stroke="none" font-family="Arial" font-size="24px" font-style="normal" font-weight="normal" text-decoration="none" x="200" y="240">UNREGISTERED</text><text fill="#eeeeee" stroke="none" font-family="Arial" font-size="24px" font-style="normal" font-weight="normal" text-decoration="none" x="200" y="270">UNREGISTERED</text><text fill="#eeeeee" stroke="none" font-family="Arial" font-size="24px" font-style="normal" font-weight="normal" text-decoration="none" x="200" y="300">UNREGISTERED</text><text fill="#eeeeee" stroke="none" font-family="Arial" font-size="24px" font-style="normal" font-weight="normal" text-decoration="none" x="200" y="330">UNREGISTERED</text><text fill="#eeeeee" stroke="none" font-family="Arial" font-size="24px" font-style="normal" font-weight="normal" text-decoration="none" x="200" y="360">UNREGISTERED</text><text fill="#eeeeee" stroke="none" font-family="Arial" font-size="24px" font-style="normal" font-weight="normal" text-decoration="none" x="200" y="390">UNREGISTERED</text><text fill="#eeeeee" stroke="none" font-family="Arial" font-size="24px" font-style="normal" font-weight="normal" text-decoration="none" x="200" y="420">UNREGISTERED</text><text fill="#eeeeee" stroke="none" font-family="Arial" font-size="24px" font-style="normal" font-weight="normal" text-decoration="none" x="200" y="450">UNREGISTERED</text><text fill="#eeeeee" stroke="none" font-family="Arial" font-size="24px" font-style="normal" font-weight="normal" text-decoration="none" x="400" y="0">UNREGISTERED</text><text fill="#eeeeee" stroke="none" font-family="Arial" font-size="24px" font-style="normal" font-weight="normal" text-decoration="none" x="400" y="30">UNREGISTERED</text><text fill="#eeeeee" stroke="none" font-family="Arial" font-size="24px" font-style="normal" font-weight="normal" text-decoration="none" x="400" y="60">UNREGISTERED</text><text fill="#eeeeee" stroke="none" font-family="Arial" font-size="24px" font-style="normal" font-weight="normal" text-decoration="none" x="400" y="90">UNREGISTERED</text><text fill="#eeeeee" stroke="none" font-family="Arial" font-size="24px" font-style="normal" font-weight="normal" text-decoration="none" x="400" y="120">UNREGISTERED</text><text fill="#eeeeee" stroke="none" font-family="Arial" font-size="24px" font-style="normal" font-weight="normal" text-decoration="none" x="400" y="150">UNREGISTERED</text><text fill="#eeeeee" stroke="none" font-family="Arial" font-size="24px" font-style="normal" font-weight="normal" text-decoration="none" x="400" y="180">UNREGISTERED</text><text fill="#eeeeee" stroke="none" font-family="Arial" font-size="24px" font-style="normal" font-weight="normal" text-decoration="none" x="400" y="210">UNREGISTERED</text><text fill="#eeeeee" stroke="none" font-family="Arial" font-size="24px" font-style="normal" font-weight="normal" text-decoration="none" x="400" y="240">UNREGISTERED</text><text fill="#eeeeee" stroke="none" font-family="Arial" font-size="24px" font-style="normal" font-weight="normal" text-decoration="none" x="400" y="270">UNREGISTERED</text><text fill="#eeeeee" stroke="none" font-family="Arial" font-size="24px" font-style="normal" font-weight="normal" text-decoration="none" x="400" y="300">UNREGISTERED</text><text fill="#eeeeee" stroke="none" font-family="Arial" font-size="24px" font-style="normal" font-weight="normal" text-decoration="none" x="400" y="330">UNREGISTERED</text><text fill="#eeeeee" stroke="none" font-family="Arial" font-size="24px" font-style="normal" font-weight="normal" text-decoration="none" x="400" y="360">UNREGISTERED</text><text fill="#eeeeee" stroke="none" font-family="Arial" font-size="24px" font-style="normal" font-weight="normal" text-decoration="none" x="400" y="390">UNREGISTERED</text><text fill="#eeeeee" stroke="none" font-family="Arial" font-size="24px" font-style="normal" font-weight="normal" text-decoration="none" x="400" y="420">UNREGISTERED</text><text fill="#eeeeee" stroke="none" font-family="Arial" font-size="24px" font-style="normal" font-weight="normal" text-decoration="none" x="400" y="450">UNREGISTERED</text><text fill="#eeeeee" stroke="none" font-family="Arial" font-size="24px" font-style="normal" font-weight="normal" text-decoration="none" x="600" y="0">UNREGISTERED</text><text fill="#eeeeee" stroke="none" font-family="Arial" font-size="24px" font-style="normal" font-weight="normal" text-decoration="none" x="600" y="30">UNREGISTERED</text><text fill="#eeeeee" stroke="none" font-family="Arial" font-size="24px" font-style="normal" font-weight="normal" text-decoration="none" x="600" y="60">UNREGISTERED</text><text fill="#eeeeee" stroke="none" font-family="Arial" font-size="24px" font-style="normal" font-weight="normal" text-decoration="none" x="600" y="90">UNREGISTERED</text><text fill="#eeeeee" stroke="none" font-family="Arial" font-size="24px" font-style="normal" font-weight="normal" text-decoration="none" x="600" y="120">UNREGISTERED</text><text fill="#eeeeee" stroke="none" font-family="Arial" font-size="24px" font-style="normal" font-weight="normal" text-decoration="none" x="600" y="150">UNREGISTERED</text><text fill="#eeeeee" stroke="none" font-family="Arial" font-size="24px" font-style="normal" font-weight="normal" text-decoration="none" x="600" y="180">UNREGISTERED</text><text fill="#eeeeee" stroke="none" font-family="Arial" font-size="24px" font-style="normal" font-weight="normal" text-decoration="none" x="600" y="210">UNREGISTERED</text><text fill="#eeeeee" stroke="none" font-family="Arial" font-size="24px" font-style="normal" font-weight="normal" text-decoration="none" x="600" y="240">UNREGISTERED</text><text fill="#eeeeee" stroke="none" font-family="Arial" font-size="24px" font-style="normal" font-weight="normal" text-decoration="none" x="600" y="270">UNREGISTERED</text><text fill="#eeeeee" stroke="none" font-family="Arial" font-size="24px" font-style="normal" font-weight="normal" text-decoration="none" x="600" y="300">UNREGISTERED</text><text fill="#eeeeee" stroke="none" font-family="Arial" font-size="24px" font-style="normal" font-weight="normal" text-decoration="none" x="600" y="330">UNREGISTERED</text><text fill="#eeeeee" stroke="none" font-family="Arial" font-size="24px" font-style="normal" font-weight="normal" text-decoration="none" x="600" y="360">UNREGISTERED</text><text fill="#eeeeee" stroke="none" font-family="Arial" font-size="24px" font-style="normal" font-weight="normal" text-decoration="none" x="600" y="390">UNREGISTERED</text><text fill="#eeeeee" stroke="none" font-family="Arial" font-size="24px" font-style="normal" font-weight="normal" text-decoration="none" x="600" y="420">UNREGISTERED</text><text fill="#eeeeee" stroke="none" font-family="Arial" font-size="24px" font-style="normal" font-weight="normal" text-decoration="none" x="600" y="450">UNREGISTERED</text><text fill="#eeeeee" stroke="none" font-family="Arial" font-size="24px" font-style="normal" font-weight="normal" text-decoration="none" x="800" y="0">UNREGISTERED</text><text fill="#eeeeee" stroke="none" font-family="Arial" font-size="24px" font-style="normal" font-weight="normal" text-decoration="none" x="800" y="30">UNREGISTERED</text><text fill="#eeeeee" stroke="none" font-family="Arial" font-size="24px" font-style="normal" font-weight="normal" text-decoration="none" x="800" y="60">UNREGISTERED</text><text fill="#eeeeee" stroke="none" font-family="Arial" font-size="24px" font-style="normal" font-weight="normal" text-decoration="none" x="800" y="90">UNREGISTERED</text><text fill="#eeeeee" stroke="none" font-family="Arial" font-size="24px" font-style="normal" font-weight="normal" text-decoration="none" x="800" y="120">UNREGISTERED</text><text fill="#eeeeee" stroke="none" font-family="Arial" font-size="24px" font-style="normal" font-weight="normal" text-decoration="none" x="800" y="150">UNREGISTERED</text><text fill="#eeeeee" stroke="none" font-family="Arial" font-size="24px" font-style="normal" font-weight="normal" text-decoration="none" x="800" y="180">UNREGISTERED</text><text fill="#eeeeee" stroke="none" font-family="Arial" font-size="24px" font-style="normal" font-weight="normal" text-decoration="none" x="800" y="210">UNREGISTERED</text><text fill="#eeeeee" stroke="none" font-family="Arial" font-size="24px" font-style="normal" font-weight="normal" text-decoration="none" x="800" y="240">UNREGISTERED</text><text fill="#eeeeee" stroke="none" font-family="Arial" font-size="24px" font-style="normal" font-weight="normal" text-decoration="none" x="800" y="270">UNREGISTERED</text><text fill="#eeeeee" stroke="none" font-family="Arial" font-size="24px" font-style="normal" font-weight="normal" text-decoration="none" x="800" y="300">UNREGISTERED</text><text fill="#eeeeee" stroke="none" font-family="Arial" font-size="24px" font-style="normal" font-weight="normal" text-decoration="none" x="800" y="330">UNREGISTERED</text><text fill="#eeeeee" stroke="none" font-family="Arial" font-size="24px" font-style="normal" font-weight="normal" text-decoration="none" x="800" y="360">UNREGISTERED</text><text fill="#eeeeee" stroke="none" font-family="Arial" font-size="24px" font-style="normal" font-weight="normal" text-decoration="none" x="800" y="390">UNREGISTERED</text><text fill="#eeeeee" stroke="none" font-family="Arial" font-size="24px" font-style="normal" font-weight="normal" text-decoration="none" x="800" y="420">UNREGISTERED</text><text fill="#eeeeee" stroke="none" font-family="Arial" font-size="24px" font-style="normal" font-weight="normal" text-decoration="none" x="800" y="450">UNREGISTERED</text><g transform="translate(-169,-118) scale(1,1)"><path fill="#C0C0C0" stroke="none" d="M 559 162.5 C 559 147.31216799999999 598.17508 135 646.5 135 C 694.82492 135 734 147.31216799999999 734 162.5 C 734 177.68783200000001 694.82492 190 646.5 190 C 598.17508 190 559 177.68783200000001 559 162.5 Z" opacity="0.2"/></g><g transform="translate(-169,-118) scale(1,1)"><path fill="#ffffff" stroke="none" d="M 552 155.5 C 552 140.31216799999999 591.17508 128 639.5 128 C 687.82492 128 727 140.31216799999999 727 155.5 C 727 170.68783200000001 687.82492 183 639.5 183 C 591.17508 183 552 170.68783200000001 552 155.5 Z"/></g><g transform="translate(-169,-118) scale(1,1)"><path fill="none" stroke="#000000" d="M 552 155.5 C 552 140.31216799999999 591.17508 128 639.5 128 C 687.82492 128 727 140.31216799999999 727 155.5 C 727 170.68783200000001 687.82492 183 639.5 183 C 591.17508 183 552 170.68783200000001 552 155.5 Z" stroke-miterlimit="10"/></g><g transform="translate(-169,-118) scale(1,1)"><g><path fill="none" stroke="none"/><text fill="#000000" stroke="none" font-family="Arial" font-size="13px" font-style="normal" font-weight="bold" text-decoration="none" x="585.694091796875" y="160.7099609375">Move 3D building</text></g></g><g transform="translate(-169,-118) scale(1,1)"><path fill="#C0C0C0" stroke="none" d="M 431 258.5 C 431 243.31216799999999 470.17508 231 518.5 231 C 566.82492 231 606 243.31216799999999 606 258.5 C 606 273.687832 566.82492 286 518.5 286 C 470.17508 286 431 273.687832 431 258.5 Z" opacity="0.2"/></g><g transform="translate(-169,-118) scale(1,1)"><path fill="#ffffff" stroke="none" d="M 424 251.5 C 424 236.31216799999999 463.17508 224 511.5 224 C 559.82492 224 599 236.31216799999999 599 251.5 C 599 266.687832 559.82492 279 511.5 279 C 463.17508 279 424 266.687832 424 251.5 Z"/></g><g transform="translate(-169,-118) scale(1,1)"><path fill="none" stroke="#000000" d="M 424 251.5 C 424 236.31216799999999 463.17508 224 511.5 224 C 559.82492 224 599 236.31216799999999 599 251.5 C 599 266.687832 559.82492 279 511.5 279 C 463.17508 279 424 266.687832 424 251.5 Z" stroke-miterlimit="10"/></g><g transform="translate(-169,-118) scale(1,1)"><g><path fill="none" stroke="none"/><text fill="#000000" stroke="none" font-family="Arial" font-size="13px" font-style="normal" font-weight="bold" text-decoration="none" x="470.091064453125" y="256.7099609375">Visit Building</text></g></g><g transform="translate(-169,-118) scale(1,1)"><path fill="#C0C0C0" stroke="none" d="M 607 466.5 C 607 451.312168 646.17508 439 694.5 439 C 742.82492 439 782 451.312168 782 466.5 C 782 481.687832 742.82492 494 694.5 494 C 646.17508 494 607 481.687832 607 466.5 Z" opacity="0.2"/></g><g transform="translate(-169,-118) scale(1,1)"><path fill="#ffffff" stroke="none" d="M 600 459.5 C 600 444.312168 639.17508 432 687.5 432 C 735.82492 432 775 444.312168 775 459.5 C 775 474.687832 735.82492 487 687.5 487 C 639.17508 487 600 474.687832 600 459.5 Z"/></g><g transform="translate(-169,-118) scale(1,1)"><path fill="none" stroke="#000000" d="M 600 459.5 C 600 444.312168 639.17508 432 687.5 432 C 735.82492 432 775 444.312168 775 459.5 C 775 474.687832 735.82492 487 687.5 487 C 639.17508 487 600 474.687832 600 459.5 Z" stroke-miterlimit="10"/></g><g transform="translate(-169,-118) scale(1,1)"><g><path fill="none" stroke="none"/><text fill="#000000" stroke="none" font-family="Arial" font-size="13px" font-style="normal" font-weight="bold" text-decoration="none" x="639.81640625" y="464.7099609375">Place 3D Model</text></g></g><g transform="translate(-169,-118) scale(1,1)"><path fill="#C0C0C0" stroke="none" d="M 463 554.5 C 463 539.312168 502.17508 527 550.5 527 C 598.82492 527 638 539.312168 638 554.5 C 638 569.687832 598.82492 582 550.5 582 C 502.17508 582 463 569.687832 463 554.5 Z" opacity="0.2"/></g><g transform="translate(-169,-118) scale(1,1)"><path fill="#ffffff" stroke="none" d="M 456 547.5 C 456 532.312168 495.17508 520 543.5 520 C 591.82492 520 631 532.312168 631 547.5 C 631 562.687832 591.82492 575 543.5 575 C 495.17508 575 456 562.687832 456 547.5 Z"/></g><g transform="translate(-169,-118) scale(1,1)"><path fill="none" stroke="#000000" d="M 456 547.5 C 456 532.312168 495.17508 520 543.5 520 C 591.82492 520 631 532.312168 631 547.5 C 631 562.687832 591.82492 575 543.5 575 C 495.17508 575 456 562.687832 456 547.5 Z" stroke-miterlimit="10"/></g><g transform="translate(-169,-118) scale(1,1)"><g><path fill="none" stroke="none"/><text fill="#000000" stroke="none" font-family="Arial" font-size="13px" font-style="normal" font-weight="bold" text-decoration="none" x="492.569580078125" y="552.7099609375">Create 3D Model</text></g></g><g transform="translate(-169,-118) scale(1,1)"><path fill="#ffffff" stroke="none" d="M 208.51846075994317 220.23000000000002 C 208.51846075994317 214.02784169600002 213.48370373070682 209 219.608642578125 209 C 225.73358142554318 209 230.69882439630683 214.02784169600002 230.69882439630683 220.23000000000002 C 230.69882439630683 226.432158304 225.73358142554318 231.46 219.608642578125 231.46 C 213.48370373070682 231.46 208.51846075994317 226.432158304 208.51846075994317 220.23000000000002 Z"/></g><g transform="translate(-169,-118) scale(1,1)"><path fill="none" stroke="#000000" d="M 208.51846075994317 220.23000000000002 C 208.51846075994317 214.02784169600002 213.48370373070682 209 219.608642578125 209 C 225.73358142554318 209 230.69882439630683 214.02784169600002 230.69882439630683 220.23000000000002 C 230.69882439630683 226.432158304 225.73358142554318 231.46 219.608642578125 231.46 C 213.48370373070682 231.46 208.51846075994317 226.432158304 208.51846075994317 220.23000000000002 Z" stroke-miterlimit="10"/></g><g transform="translate(-169,-118) scale(1,1)"><path fill="none" stroke="#000000" d="M 219.608642578125 231.46 L 219.608642578125 253.54" stroke-miterlimit="10"/></g><g transform="translate(-169,-118) scale(1,1)"><path fill="none" stroke="#000000" d="M 207.86609712357955 239.74 L 231.35118803267045 239.74" stroke-miterlimit="10"/></g><g transform="translate(-169,-118) scale(1,1)"><path fill="none" stroke="#000000" d="M 219.608642578125 253.54 L 203.2995516690341 276" stroke-miterlimit="10"/></g><g transform="translate(-169,-118) scale(1,1)"><path fill="none" stroke="#000000" d="M 219.608642578125 253.54 L 235.9177334872159 276" stroke-miterlimit="10"/></g><g transform="translate(-169,-118) scale(1,1)"><g><path fill="none" stroke="none"/><text fill="#000000" stroke="none" font-family="Arial" font-size="13px" font-style="normal" font-weight="bold" text-decoration="none" x="199.499267578125" y="294.7099609375">Visitor</text></g></g><g transform="translate(-169,-118) scale(1,1)"><path fill="#ffffff" stroke="none" d="M 997.5184607599432 436.23 C 997.5184607599432 430.027841696 1002.4837037307068 425 1008.608642578125 425 C 1014.7335814255432 425 1019.6988243963068 430.027841696 1019.6988243963068 436.23 C 1019.6988243963068 442.43215830400004 1014.7335814255432 447.46 1008.608642578125 447.46 C 1002.4837037307068 447.46 997.5184607599432 442.43215830400004 997.5184607599432 436.23 Z"/></g><g transform="translate(-169,-118) scale(1,1)"><path fill="none" stroke="#000000" d="M 997.5184607599432 436.23 C 997.5184607599432 430.027841696 1002.4837037307068 425 1008.608642578125 425 C 1014.7335814255432 425 1019.6988243963068 430.027841696 1019.6988243963068 436.23 C 1019.6988243963068 442.43215830400004 1014.7335814255432 447.46 1008.608642578125 447.46 C 1002.4837037307068 447.46 997.5184607599432 442.43215830400004 997.5184607599432 436.23 Z" stroke-miterlimit="10"/></g><g transform="translate(-169,-118) scale(1,1)"><path fill="none" stroke="#000000" d="M 1008.608642578125 447.46 L 1008.608642578125 469.54" stroke-miterlimit="10"/></g><g transform="translate(-169,-118) scale(1,1)"><path fill="none" stroke="#000000" d="M 996.8660971235796 455.74 L 1020.3511880326704 455.74" stroke-miterlimit="10"/></g><g transform="translate(-169,-118) scale(1,1)"><path fill="none" stroke="#000000" d="M 1008.608642578125 469.54 L 992.2995516690341 492" stroke-miterlimit="10"/></g><g transform="translate(-169,-118) scale(1,1)"><path fill="none" stroke="#000000" d="M 1008.608642578125 469.54 L 1024.9177334872159 492" stroke-miterlimit="10"/></g><g transform="translate(-169,-118) scale(1,1)"><g><path fill="none" stroke="none"/><text fill="#000000" stroke="none" font-family="Arial" font-size="13px" font-style="normal" font-weight="bold" text-decoration="none" x="988.38818359375" y="510.7099609375">Admin</text></g></g><g transform="translate(-169,-118) scale(1,1)"><path fill="none" stroke="#000000" d="M 261 254 L 423 252" stroke-miterlimit="10"/></g><g transform="translate(-169,-118) scale(1,1)"><path fill="none" stroke="#000000" d="M 412.89006492490523 256.33465255555376 L 423 252 L 412.78613413492513 247.91625856716442" stroke-miterlimit="10"/></g><g transform="translate(-169,-118) scale(1,1)"><path fill="none" stroke="#000000" d="M 261 245 L 551 176" stroke-miterlimit="10"/></g><g transform="translate(-169,-118) scale(1,1)"><path fill="none" stroke="#000000" d="M 542.0876954060506 182.44754424759287 L 551 176 L 540.1389467261452 174.2571512450916" stroke-miterlimit="10"/></g><g transform="translate(-169,-118) scale(1,1)"><path fill="none" stroke="#000000" d="M 548 223 L 600 184" stroke-miterlimit="10" stroke-dasharray="3"/></g><g transform="translate(-169,-118) scale(1,1)"><path fill="none" stroke="#000000" d="M 594.3955707675103 193.46521911938729 L 600 184 L 589.3441494602911 186.7299907097617" stroke-miterlimit="10"/></g><g transform="translate(-169,-118) scale(1,1)"><g><path fill="none" stroke="none"/><text fill="#000000" stroke="none" font-family="Arial" font-size="13px" font-style="normal" font-weight="normal" text-decoration="none" x="583.5" y="217.7099609375">«include»</text></g></g><g transform="translate(-169,-118) scale(1,1)"><path fill="none" stroke="#000000" d="M 967 469 L 776 462" stroke-miterlimit="10"/></g><g transform="translate(-169,-118) scale(1,1)"><path fill="none" stroke="#000000" d="M 786.3100286664554 458.1655106080642 L 776 462 L 786.001684635704 466.5788977328526" stroke-miterlimit="10"/></g><g transform="translate(-169,-118) scale(1,1)"><path fill="none" stroke="#000000" d="M 640 488 L 589 519" stroke-miterlimit="10" stroke-dasharray="3"/></g><g transform="translate(-169,-118) scale(1,1)"><path fill="none" stroke="#000000" d="M 595.4977407312241 510.12422592728996 L 589 519 L 599.8707165685336 517.3184764983475" stroke-miterlimit="10"/></g><g transform="translate(-169,-118) scale(1,1)"><g><path fill="none" stroke="none"/><text fill="#000000" stroke="none" font-family="Arial" font-size="13px" font-style="normal" font-weight="normal" text-decoration="none" x="614.5" y="522.7099609375">«include»</text></g></g><g transform="translate(-169,-118) scale(1,1)"><path fill="#C0C0C0" stroke="none" d="M 543 354.5 C 543 339.312168 587.0999472 327 641.5 327 C 695.9000528 327 740 339.312168 740 354.5 C 740 369.687832 695.9000528 382 641.5 382 C 587.0999472 382 543 369.687832 543 354.5 Z" opacity="0.2"/></g><g transform="translate(-169,-118) scale(1,1)"><path fill="#ffffff" stroke="none" d="M 536 347.5 C 536 332.312168 580.0999472 320 634.5 320 C 688.9000528 320 733 332.312168 733 347.5 C 733 362.687832 688.9000528 375 634.5 375 C 580.0999472 375 536 362.687832 536 347.5 Z"/></g><g transform="translate(-169,-118) scale(1,1)"><path fill="none" stroke="#000000" d="M 536 347.5 C 536 332.312168 580.0999472 320 634.5 320 C 688.9000528 320 733 332.312168 733 347.5 C 733 362.687832 688.9000528 375 634.5 375 C 580.0999472 375 536 362.687832 536 347.5 Z" stroke-miterlimit="10"/></g><g transform="translate(-169,-118) scale(1,1)"><g><path fill="none" stroke="none"/><text fill="#000000" stroke="none" font-family="Arial" font-size="13px" font-style="normal" font-weight="bold" text-decoration="none" x="588.2763671875" y="352.7099609375">Load 3D Model</text></g></g><g transform="translate(-169,-118) scale(1,1)"><path fill="none" stroke="#000000" d="M 548 280 L 598 319" stroke-miterlimit="10" stroke-dasharray="3"/></g><g transform="translate(-169,-118) scale(1,1)"><path fill="none" stroke="#000000" d="M 587.397720162338 316.0688462606158 L 598 319 L 592.5756947165706 309.43041734493295" stroke-miterlimit="10"/></g><g transform="translate(-169,-118) scale(1,1)"><g><path fill="none" stroke="none"/><text fill="#000000" stroke="none" font-family="Arial" font-size="13px" font-style="normal" font-weight="normal" text-decoration="none" x="583.5" y="290.7099609375">«include»</text></g></g><g transform="translate(-169,-118) scale(1,1)"><path fill="none" stroke="#000000" d="M 261 264 L 535 325" stroke-miterlimit="10"/></g><g transform="translate(-169,-118) scale(1,1)"><path fill="none" stroke="#000000" d="M 524.1654205347685 326.90049672759056 L 535 325 L 525.9949412651281 318.6826495125324" stroke-miterlimit="10"/></g></g></svg>