<svg version="1.1" xmlns="http://www.w3.org/2000/svg" xmlns:xlink="http://www.w3.org/1999/xlink" width="740.57177734375" height="598"><defs/><g><text fill="#eeeeee" stroke="none" font-family="Arial" font-size="24px" font-style="normal" font-weight="normal" text-decoration="none" x="0" y="0">UNREGISTERED</text><text fill="#eeeeee" stroke="none" font-family="Arial" font-size="24px" font-style="normal" font-weight="normal" text-decoration="none" x="0" y="30">UNREGISTERED</text><text fill="#eeeeee" stroke="none" font-family="Arial" font-size="24px" font-style="normal" font-weight="normal" text-decoration="none" x="0" y="60">UNREGISTERED</text><text fill="#eeeeee" stroke="none" font-family="Arial" font-size="24px" font-style="normal" font-weight="normal" text-decoration="none" x="0" y="90">UNREGISTERED</text><text fill="#eeeeee" stroke="none" font-family="Arial" font-size="24px" font-style="normal" font-weight="normal" text-decoration="none" x="0" y="120">UNREGISTERED</text><text fill="#eeeeee" stroke="none" font-family="Arial" font-size="24px" font-style="normal" font-weight="normal" text-decoration="none" x="0" y="150">UNREGISTERED</text><text fill="#eeeeee" stroke="none" font-family="Arial" font-size="24px" font-style="normal" font-weight="normal" text-decoration="none" x="0" y="180">UNREGISTERED</text><text fill="#eeeeee" stroke="none" font-family="Arial" font-size="24px" font-style="normal" font-weight="normal" text-decoration="none" x="0" y="210">UNREGISTERED</text><text fill="#eeeeee" stroke="none" font-family="Arial" font-size="24px" font-style="normal" font-weight="normal" text-decoration="none" x="0" y="240">UNREGISTERED</text><text fill="#eeeeee" stroke="none" font-family="Arial" font-size="24px" font-style="normal" font-weight="normal" text-decoration="none" x="0" y="270">UNREGISTERED</text><text fill="#eeeeee" stroke="none" font-family="Arial" font-size="24px" font-style="normal" font-weight="normal" text-decoration="none" x="0" y="300">UNREGISTERED</text><text fill="#eeeeee" stroke="none" font-family="Arial" font-size="24px" font-style="normal" font-weight="normal" text-decoration="none" x="0" y="330">UNREGISTERED</text><text fill="#eeeeee" stroke="none" font-family="Arial" font-size="24px" font-style="normal" font-weight="normal" text-decoration="none" x="0" y="360">UNREGISTERED</text><text fill="#eeeeee" stroke="none" font-family="Arial" font-size="24px" font-style="normal" font-weight="normal" text-decoration="none" x="0" y="390">UNREGISTERED</text><text fill="#eeeeee" stroke="none" font-family="Arial" font-size="24px" font-style="normal" font-weight="normal" text-decoration="none" x="0" y="420">UNREGISTERED</text><text fill="#eeeeee" stroke="none" font-family="Arial" font-size="24px" font-style="normal" font-weight="normal" text-decoration="none" x="0" y="450">UNREGISTERED</text><text fill="#eeeeee" stroke="none" font-family="Arial" font-size="24px" font-style="normal" font-weight="normal" text-decoration="none" x="0" y="480">UNREGISTERED</text><text fill="#eeeeee" stroke="none" font-family="Arial" font-size="24px" font-style="normal" font-weight="normal" text-decoration="none" x="0" y="510">UNREGISTERED</text><text fill="#eeeeee" stroke="none" font-family="Arial" font-size="24px" font-style="normal" font-weight="normal" text-decoration="none" x="0" y="540">UNREGISTERED</text><text fill="#eeeeee" stroke="none" font-family="Arial" font-size="24px" font-style="normal" font-weight="normal" text-decoration="none" x="0" y="570">UNREGISTERED</text><text fill="#eeeeee" stroke="none" font-family="Arial" font-size="24px" font-style="normal" font-weight="normal" text-decoration="none" x="200" y="0">UNREGISTERED</text><text fill="#eeeeee" stroke="none" font-family="Arial" font-size="24px" font-style="normal" font-weight="normal" text-decoration="none" x="200" y="30">UNREGISTERED</text><text fill="#eeeeee" stroke="none" font-family="Arial" font-size="24px" font-style="normal" font-weight="normal" text-decoration="none" x="200" y="60">UNREGISTERED</text><text fill="#eeeeee" stroke="none" font-family="Arial" font-size="24px" font-style="normal" font-weight="normal" text-decoration="none" x="200" y="90">UNREGISTERED</text><text fill="#eeeeee" stroke="none" font-family="Arial" font-size="24px" font-style="normal" font-weight="normal" text-decoration="none" x="200" y="120">UNREGISTERED</text><text fill="#eeeeee" stroke="none" font-family="Arial" font-size="24px" font-style="normal" font-weight="normal" text-decoration="none" x="200" y="150">UNREGISTERED</text><text fill="#eeeeee" stroke="none" font-family="Arial" font-size="24px" font-style="normal" font-weight="normal" text-decoration="none" x="200" y="180">UNREGISTERED</text><text fill="#eeeeee" stroke="none" font-family="Arial" font-size="24px" font-style="normal" font-weight="normal" text-decoration="none" x="200" y="210">UNREGISTERED</text><text fill="#eeeeee" stroke="none" font-family="Arial" font-size="24px" font-style="normal" font-weight="normal" text-decoration="none" x="200" y="240">UNREGISTERED</text><text fill="#eeeeee" stroke="none" font-family="Arial" font-size="24px" font-style="normal" font-weight="normal" text-decoration="none" x="200" y="270">UNREGISTERED</text><text fill="#eeeeee" stroke="none" font-family="Arial" font-size="24px" font-style="normal" font-weight="normal" text-decoration="none" x="200" y="300">UNREGISTERED</text><text fill="#eeeeee" stroke="none" font-family="Arial" font-size="24px" font-style="normal" font-weight="normal" text-decoration="none" x="200" y="330">UNREGISTERED</text><text fill="#eeeeee" stroke="none" font-family="Arial" font-size="24px" font-style="normal" font-weight="normal" text-decoration="none" x="200" y="360">UNREGISTERED</text><text fill="#eeeeee" stroke="none" font-family="Arial" font-size="24px" font-style="normal" font-weight="normal" text-decoration="none" x="200" y="390">UNREGISTERED</text><text fill="#eeeeee" stroke="none" font-family="Arial" font-size="24px" font-style="normal" font-weight="normal" text-decoration="none" x="200" y="420">UNREGISTERED</text><text fill="#eeeeee" stroke="none" font-family="Arial" font-size="24px" font-style="normal" font-weight="normal" text-decoration="none" x="200" y="450">UNREGISTERED</text><text fill="#eeeeee" stroke="none" font-family="Arial" font-size="24px" font-style="normal" font-weight="normal" text-decoration="none" x="200" y="480">UNREGISTERED</text><text fill="#eeeeee" stroke="none" font-family="Arial" font-size="24px" font-style="normal" font-weight="normal" text-decoration="none" x="200" y="510">UNREGISTERED</text><text fill="#eeeeee" stroke="none" font-family="Arial" font-size="24px" font-style="normal" font-weight="normal" text-decoration="none" x="200" y="540">UNREGISTERED</text><text fill="#eeeeee" stroke="none" font-family="Arial" font-size="24px" font-style="normal" font-weight="normal" text-decoration="none" x="200" y="570">UNREGISTERED</text><text fill="#eeeeee" stroke="none" font-family="Arial" font-size="24px" font-style="normal" font-weight="normal" text-decoration="none" x="400" y="0">UNREGISTERED</text><text fill="#eeeeee" stroke="none" font-family="Arial" font-size="24px" font-style="normal" font-weight="normal" text-decoration="none" x="400" y="30">UNREGISTERED</text><text fill="#eeeeee" stroke="none" font-family="Arial" font-size="24px" font-style="normal" font-weight="normal" text-decoration="none" x="400" y="60">UNREGISTERED</text><text fill="#eeeeee" stroke="none" font-family="Arial" font-size="24px" font-style="normal" font-weight="normal" text-decoration="none" x="400" y="90">UNREGISTERED</text><text fill="#eeeeee" stroke="none" font-family="Arial" font-size="24px" font-style="normal" font-weight="normal" text-decoration="none" x="400" y="120">UNREGISTERED</text><text fill="#eeeeee" stroke="none" font-family="Arial" font-size="24px" font-style="normal" font-weight="normal" text-decoration="none" x="400" y="150">UNREGISTERED</text><text fill="#eeeeee" stroke="none" font-family="Arial" font-size="24px" font-style="normal" font-weight="normal" text-decoration="none" x="400" y="180">UNREGISTERED</text><text fill="#eeeeee" stroke="none" font-family="Arial" font-size="24px" font-style="normal" font-weight="normal" text-decoration="none" x="400" y="210">UNREGISTERED</text><text fill="#eeeeee" stroke="none" font-family="Arial" font-size="24px" font-style="normal" font-weight="normal" text-decoration="none" x="400" y="240">UNREGISTERED</text><text fill="#eeeeee" stroke="none" font-family="Arial" font-size="24px" font-style="normal" font-weight="normal" text-decoration="none" x="400" y="270">UNREGISTERED</text><text fill="#eeeeee" stroke="none" font-family="Arial" font-size="24px" font-style="normal" font-weight="normal" text-decoration="none" x="400" y="300">UNREGISTERED</text><text fill="#eeeeee" stroke="none" font-family="Arial" font-size="24px" font-style="normal" font-weight="normal" text-decoration="none" x="400" y="330">UNREGISTERED</text><text fill="#eeeeee" stroke="none" font-family="Arial" font-size="24px" font-style="normal" font-weight="normal" text-decoration="none" x="400" y="360">UNREGISTERED</text><text fill="#eeeeee" stroke="none" font-family="Arial" font-size="24px" font-style="normal" font-weight="normal" text-decoration="none" x="400" y="390">UNREGISTERED</text><text fill="#eeeeee" stroke="none" font-family="Arial" font-size="24px" font-style="normal" font-weight="normal" text-decoration="none" x="400" y="420">UNREGISTERED</text><text fill="#eeeeee" stroke="none" font-family="Arial" font-size="24px" font-style="normal" font-weight="normal" text-decoration="none" x="400" y="450">UNREGISTERED</text><text fill="#eeeeee" stroke="none" font-family="Arial" font-size="24px" font-style="normal" font-weight="normal" text-decoration="none" x="400" y="480">UNREGISTERED</text><text fill="#eeeeee" stroke="none" font-family="Arial" font-size="24px" font-style="normal" font-weight="normal" text-decoration="none" x="400" y="510">UNREGISTERED</text><text fill="#eeeeee" stroke="none" font-family="Arial" font-size="24px" font-style="normal" font-weight="normal" text-decoration="none" x="400" y="540">UNREGISTERED</text><text fill="#eeeeee" stroke="none" font-family="Arial" font-size="24px" font-style="normal" font-weight="normal" text-decoration="none" x="400" y="570">UNREGISTERED</text><text fill="#eeeeee" stroke="none" font-family="Arial" font-size="24px" font-style="normal" font-weight="normal" text-decoration="none" x="600" y="0">UNREGISTERED</text><text fill="#eeeeee" stroke="none" font-family="Arial" font-size="24px" font-style="normal" font-weight="normal" text-decoration="none" x="600" y="30">UNREGISTERED</text><text fill="#eeeeee" stroke="none" font-family="Arial" font-size="24px" font-style="normal" font-weight="normal" text-decoration="none" x="600" y="60">UNREGISTERED</text><text fill="#eeeeee" stroke="none" font-family="Arial" font-size="24px" font-style="normal" font-weight="normal" text-decoration="none" x="600" y="90">UNREGISTERED</text><text fill="#eeeeee" stroke="none" font-family="Arial" font-size="24px" font-style="normal" font-weight="normal" text-decoration="none" x="600" y="120">UNREGISTERED</text><text fill="#eeeeee" stroke="none" font-family="Arial" font-size="24px" font-style="normal" font-weight="normal" text-decoration="none" x="600" y="150">UNREGISTERED</text><text fill="#eeeeee" stroke="none" font-family="Arial" font-size="24px" font-style="normal" font-weight="normal" text-decoration="none" x="600" y="180">UNREGISTERED</text><text fill="#eeeeee" stroke="none" font-family="Arial" font-size="24px" font-style="normal" font-weight="normal" text-decoration="none" x="600" y="210">UNREGISTERED</text><text fill="#eeeeee" stroke="none" font-family="Arial" font-size="24px" font-style="normal" font-weight="normal" text-decoration="none" x="600" y="240">UNREGISTERED</text><text fill="#eeeeee" stroke="none" font-family="Arial" font-size="24px" font-style="normal" font-weight="normal" text-decoration="none" x="600" y="270">UNREGISTERED</text><text fill="#eeeeee" stroke="none" font-family="Arial" font-size="24px" font-style="normal" font-weight="normal" text-decoration="none" x="600" y="300">UNREGISTERED</text><text fill="#eeeeee" stroke="none" font-family="Arial" font-size="24px" font-style="normal" font-weight="normal" text-decoration="none" x="600" y="330">UNREGISTERED</text><text fill="#eeeeee" stroke="none" font-family="Arial" font-size="24px" font-style="normal" font-weight="normal" text-decoration="none" x="600" y="360">UNREGISTERED</text><text fill="#eeeeee" stroke="none" font-family="Arial" font-size="24px" font-style="normal" font-weight="normal" text-decoration="none" x="600" y="390">UNREGISTERED</text><text fill="#eeeeee" stroke="none" font-family="Arial" font-size="24px" font-style="normal" font-weight="normal" text-decoration="none" x="600" y="420">UNREGISTERED</text><text fill="#eeeeee" stroke="none" font-family="Arial" font-size="24px" font-style="normal" font-weight="normal" text-decoration="none" x="600" y="450">UNREGISTERED</text><text fill="#eeeeee" stroke="none" font-family="Arial" font-size="24px" font-style="normal" font-weight="normal" text-decoration="none" x="600" y="480">UNREGISTERED</text><text fill="#eeeeee" stroke="none" font-family="Arial" font-size="24px" font-style="normal" font-weight="normal" text-decoration="none" x="600" y="510">UNREGISTERED</text><text fill="#eeeeee" stroke="none" font-family="Arial" font-size="24px" font-style="normal" font-weight="normal" text-decoration="none" x="600" y="540">UNREGISTERED</text><text fill="#eeeeee" stroke="none" font-family="Arial" font-size="24px" font-style="normal" font-weight="normal" text-decoration="none" x="600" y="570">UNREGISTERED</text><g transform="translate(-78,-134) scale(1,1)"><path fill="#C0C0C0" stroke="none" d="M 319 504 C 319 494.6111584 372.2781088 487 438 487 C 503.7218912 487 557 494.6111584 557 504 C 557 513.3888416 503.7218912 521 438 521 C 372.2781088 521 319 513.3888416 319 504 Z" opacity="0.2"/></g><g transform="translate(-78,-134) scale(1,1)"><path fill="#ffffff" stroke="none" d="M 312 497 C 312 487.6111584 365.2781088 480 431 480 C 496.7218912 480 550 487.6111584 550 497 C 550 506.3888416 496.7218912 514 431 514 C 365.2781088 514 312 506.3888416 312 497 Z"/></g><g transform="translate(-78,-134) scale(1,1)"><path fill="none" stroke="#000000" d="M 312 497 C 312 487.6111584 365.2781088 480 431 480 C 496.7218912 480 550 487.6111584 550 497 C 550 506.3888416 496.7218912 514 431 514 C 365.2781088 514 312 506.3888416 312 497 Z" stroke-miterlimit="10"/></g><g transform="translate(-78,-134) scale(1,1)"><g><path fill="none" stroke="none"/><text fill="#000000" stroke="none" font-family="Arial" font-size="13px" font-style="normal" font-weight="bold" text-decoration="none" x="351.187744140625" y="502.2099609375">Export Application Profile</text></g></g><g transform="translate(-78,-134) scale(1,1)"><path fill="#ffffff" stroke="none" d="M 711.6066159446023 577.6800000000001 C 711.6066159446023 572.8861679360001 715.4924582695477 569 720.285888671875 569 C 725.0793190742023 569 728.9651613991477 572.8861679360001 728.9651613991477 577.6800000000001 C 728.9651613991477 582.473832064 725.0793190742023 586.36 720.285888671875 586.36 C 715.4924582695477 586.36 711.6066159446023 582.473832064 711.6066159446023 577.6800000000001 Z"/></g><g transform="translate(-78,-134) scale(1,1)"><path fill="none" stroke="#000000" d="M 711.6066159446023 577.6800000000001 C 711.6066159446023 572.8861679360001 715.4924582695477 569 720.285888671875 569 C 725.0793190742023 569 728.9651613991477 572.8861679360001 728.9651613991477 577.6800000000001 C 728.9651613991477 582.473832064 725.0793190742023 586.36 720.285888671875 586.36 C 715.4924582695477 586.36 711.6066159446023 582.473832064 711.6066159446023 577.6800000000001 Z" stroke-miterlimit="10"/></g><g transform="translate(-78,-134) scale(1,1)"><path fill="none" stroke="#000000" d="M 720.285888671875 586.36 L 720.285888671875 603.64" stroke-miterlimit="10"/></g><g transform="translate(-78,-134) scale(1,1)"><path fill="none" stroke="#000000" d="M 711.0960704900568 592.84 L 729.4757068536932 592.84" stroke-miterlimit="10"/></g><g transform="translate(-78,-134) scale(1,1)"><path fill="none" stroke="#000000" d="M 720.285888671875 603.64 L 707.5222523082386 621" stroke-miterlimit="10"/></g><g transform="translate(-78,-134) scale(1,1)"><path fill="none" stroke="#000000" d="M 720.285888671875 603.64 L 733.0495250355114 621" stroke-miterlimit="10"/></g><g transform="translate(-78,-134) scale(1,1)"><g><path fill="none" stroke="none"/><text fill="#000000" stroke="none" font-family="Arial" font-size="13px" font-style="normal" font-weight="bold" text-decoration="none" x="636.5" y="639.7099609375">Metadata Exporting Engine</text></g></g><g transform="translate(-78,-134) scale(1,1)"><path fill="#ffffff" stroke="none" d="M 145.57707492897728 305.68 C 145.57707492897728 300.886167936 149.46291725392274 297 154.25634765625 297 C 159.04977805857726 297 162.93562038352272 300.886167936 162.93562038352272 305.68 C 162.93562038352272 310.473832064 159.04977805857726 314.36 154.25634765625 314.36 C 149.46291725392274 314.36 145.57707492897728 310.473832064 145.57707492897728 305.68 Z"/></g><g transform="translate(-78,-134) scale(1,1)"><path fill="none" stroke="#000000" d="M 145.57707492897728 305.68 C 145.57707492897728 300.886167936 149.46291725392274 297 154.25634765625 297 C 159.04977805857726 297 162.93562038352272 300.886167936 162.93562038352272 305.68 C 162.93562038352272 310.473832064 159.04977805857726 314.36 154.25634765625 314.36 C 149.46291725392274 314.36 145.57707492897728 310.473832064 145.57707492897728 305.68 Z" stroke-miterlimit="10"/></g><g transform="translate(-78,-134) scale(1,1)"><path fill="none" stroke="#000000" d="M 154.25634765625 314.36 L 154.25634765625 331.64" stroke-miterlimit="10"/></g><g transform="translate(-78,-134) scale(1,1)"><path fill="none" stroke="#000000" d="M 145.06652947443183 320.84 L 163.44616583806817 320.84" stroke-miterlimit="10"/></g><g transform="translate(-78,-134) scale(1,1)"><path fill="none" stroke="#000000" d="M 154.25634765625 331.64 L 141.49271129261365 349" stroke-miterlimit="10"/></g><g transform="translate(-78,-134) scale(1,1)"><path fill="none" stroke="#000000" d="M 154.25634765625 331.64 L 167.01998401988635 349" stroke-miterlimit="10"/></g><g transform="translate(-78,-134) scale(1,1)"><g><path fill="none" stroke="none"/><text fill="#000000" stroke="none" font-family="Arial" font-size="13px" font-style="normal" font-weight="bold" text-decoration="none" x="92.5" y="367.7099609375">Semantic Annotator</text></g></g><g transform="translate(-78,-134) scale(1,1)"><path fill="#C0C0C0" stroke="none" d="M 327 712 C 327 702.6111584 380.2781088 695 446 695 C 511.7218912 695 565 702.6111584 565 712 C 565 721.3888416 511.7218912 729 446 729 C 380.2781088 729 327 721.3888416 327 712 Z" opacity="0.2"/></g><g transform="translate(-78,-134) scale(1,1)"><path fill="#ffffff" stroke="none" d="M 320 705 C 320 695.6111584 373.2781088 688 439 688 C 504.7218912 688 558 695.6111584 558 705 C 558 714.3888416 504.7218912 722 439 722 C 373.2781088 722 320 714.3888416 320 705 Z"/></g><g transform="translate(-78,-134) scale(1,1)"><path fill="none" stroke="#000000" d="M 320 705 C 320 695.6111584 373.2781088 688 439 688 C 504.7218912 688 558 695.6111584 558 705 C 558 714.3888416 504.7218912 722 439 722 C 373.2781088 722 320 714.3888416 320 705 Z" stroke-miterlimit="10"/></g><g transform="translate(-78,-134) scale(1,1)"><g><path fill="none" stroke="none"/><text fill="#000000" stroke="none" font-family="Arial" font-size="13px" font-style="normal" font-weight="bold" text-decoration="none" x="359.552734375" y="710.2099609375">Import Application Profile</text></g></g><g transform="translate(-78,-134) scale(1,1)"><path fill="#C0C0C0" stroke="none" d="M 367 600 C 367 590.6111584 403.0410736 583 447.5 583 C 491.9589264 583 528 590.6111584 528 600 C 528 609.3888416 491.9589264 617 447.5 617 C 403.0410736 617 367 609.3888416 367 600 Z" opacity="0.2"/></g><g transform="translate(-78,-134) scale(1,1)"><path fill="#ffffff" stroke="none" d="M 360 593 C 360 583.6111584 396.0410736 576 440.5 576 C 484.9589264 576 521 583.6111584 521 593 C 521 602.3888416 484.9589264 610 440.5 610 C 396.0410736 610 360 602.3888416 360 593 Z"/></g><g transform="translate(-78,-134) scale(1,1)"><path fill="none" stroke="#000000" d="M 360 593 C 360 583.6111584 396.0410736 576 440.5 576 C 484.9589264 576 521 583.6111584 521 593 C 521 602.3888416 484.9589264 610 440.5 610 C 396.0410736 610 360 602.3888416 360 593 Z" stroke-miterlimit="10"/></g><g transform="translate(-78,-134) scale(1,1)"><g><path fill="none" stroke="none"/><text fill="#000000" stroke="none" font-family="Arial" font-size="13px" font-style="normal" font-weight="bold" text-decoration="none" x="388.135009765625" y="598.2099609375">Profiles Mapping</text></g></g><g transform="translate(-78,-134) scale(1,1)"><path fill="none" stroke="#000000" d="M 631 638 L 491 687" stroke-miterlimit="10"/></g><g transform="translate(-78,-134) scale(1,1)"><path fill="none" stroke="#000000" d="M 631 573 L 478 515" stroke-miterlimit="10"/></g><g transform="translate(-78,-134) scale(1,1)"><path fill="none" stroke="#000000" d="M 631 603 L 522 597" stroke-miterlimit="10"/></g><g transform="translate(-78,-134) scale(1,1)"><path fill="#C0C0C0" stroke="none" d="M 399 312 C 399 302.6111584 440.1897984 295 491 295 C 541.8102016 295 583 302.6111584 583 312 C 583 321.3888416 541.8102016 329 491 329 C 440.1897984 329 399 321.3888416 399 312 Z" opacity="0.2"/></g><g transform="translate(-78,-134) scale(1,1)"><path fill="#ffffff" stroke="none" d="M 392 305 C 392 295.6111584 433.1897984 288 484 288 C 534.8102016 288 576 295.6111584 576 305 C 576 314.3888416 534.8102016 322 484 322 C 433.1897984 322 392 314.3888416 392 305 Z"/></g><g transform="translate(-78,-134) scale(1,1)"><path fill="none" stroke="#000000" d="M 392 305 C 392 295.6111584 433.1897984 288 484 288 C 534.8102016 288 576 295.6111584 576 305 C 576 314.3888416 534.8102016 322 484 322 C 433.1897984 322 392 314.3888416 392 305 Z" stroke-miterlimit="10"/></g><g transform="translate(-78,-134) scale(1,1)"><g><path fill="none" stroke="none"/><text fill="#000000" stroke="none" font-family="Arial" font-size="13px" font-style="normal" font-weight="bold" text-decoration="none" x="423.443359375" y="310.2099609375">Semantic Wrapping</text></g></g><g transform="translate(-78,-134) scale(1,1)"><path fill="none" stroke="#000000" d="M 222 329 L 391 313" stroke-miterlimit="10"/></g><g transform="translate(-78,-134) scale(1,1)"><path fill="#ffffff" stroke="none" d="M 145.33342258522728 569.6800000000001 C 145.33342258522728 564.8861679360001 149.21926491017274 561 154.0126953125 561 C 158.80612571482726 561 162.69196803977272 564.8861679360001 162.69196803977272 569.6800000000001 C 162.69196803977272 574.473832064 158.80612571482726 578.36 154.0126953125 578.36 C 149.21926491017274 578.36 145.33342258522728 574.473832064 145.33342258522728 569.6800000000001 Z"/></g><g transform="translate(-78,-134) scale(1,1)"><path fill="none" stroke="#000000" d="M 145.33342258522728 569.6800000000001 C 145.33342258522728 564.8861679360001 149.21926491017274 561 154.0126953125 561 C 158.80612571482726 561 162.69196803977272 564.8861679360001 162.69196803977272 569.6800000000001 C 162.69196803977272 574.473832064 158.80612571482726 578.36 154.0126953125 578.36 C 149.21926491017274 578.36 145.33342258522728 574.473832064 145.33342258522728 569.6800000000001 Z" stroke-miterlimit="10"/></g><g transform="translate(-78,-134) scale(1,1)"><path fill="none" stroke="#000000" d="M 154.0126953125 578.36 L 154.0126953125 595.64" stroke-miterlimit="10"/></g><g transform="translate(-78,-134) scale(1,1)"><path fill="none" stroke="#000000" d="M 144.82287713068183 584.84 L 163.20251349431817 584.84" stroke-miterlimit="10"/></g><g transform="translate(-78,-134) scale(1,1)"><path fill="none" stroke="#000000" d="M 154.0126953125 595.64 L 141.24905894886365 613" stroke-miterlimit="10"/></g><g transform="translate(-78,-134) scale(1,1)"><path fill="none" stroke="#000000" d="M 154.0126953125 595.64 L 166.77633167613635 613" stroke-miterlimit="10"/></g><g transform="translate(-78,-134) scale(1,1)"><g><path fill="none" stroke="none"/><text fill="#000000" stroke="none" font-family="Arial" font-size="13px" font-style="normal" font-weight="bold" text-decoration="none" x="108.5" y="631.7099609375">Digital Archive</text></g></g><g transform="translate(-78,-134) scale(1,1)"><path fill="none" stroke="#000000" d="M 205 618 L 391 687" stroke-miterlimit="10"/></g><g transform="translate(-78,-134) scale(1,1)"><path fill="none" stroke="#000000" d="M 205 580 L 382 515" stroke-miterlimit="10"/></g><g transform="translate(-78,-134) scale(1,1)"><path fill="#C0C0C0" stroke="none" d="M 359 432 C 359 422.6111584 395.2649312 415 440 415 C 484.7350688 415 521 422.6111584 521 432 C 521 441.3888416 484.7350688 449 440 449 C 395.2649312 449 359 441.3888416 359 432 Z" opacity="0.2"/></g><g transform="translate(-78,-134) scale(1,1)"><path fill="#ffffff" stroke="none" d="M 352 425 C 352 415.6111584 388.2649312 408 433 408 C 477.7350688 408 514 415.6111584 514 425 C 514 434.3888416 477.7350688 442 433 442 C 388.2649312 442 352 434.3888416 352 425 Z"/></g><g transform="translate(-78,-134) scale(1,1)"><path fill="none" stroke="#000000" d="M 352 425 C 352 415.6111584 388.2649312 408 433 408 C 477.7350688 408 514 415.6111584 514 425 C 514 434.3888416 477.7350688 442 433 442 C 388.2649312 442 352 434.3888416 352 425 Z" stroke-miterlimit="10"/></g><g transform="translate(-78,-134) scale(1,1)"><g><path fill="none" stroke="none"/><text fill="#000000" stroke="none" font-family="Arial" font-size="13px" font-style="normal" font-weight="bold" text-decoration="none" x="380.273193359375" y="430.2099609375">Link IIIF Manifest</text></g></g><g transform="translate(-78,-134) scale(1,1)"><path fill="none" stroke="#000000" d="M 432 479 L 433 443" stroke-miterlimit="10" stroke-dasharray="3"/></g><g transform="translate(-78,-134) scale(1,1)"><path fill="none" stroke="#000000" d="M 436.9257069767938 453.27564230266665 L 433 443 L 428.50991767097923 453.0418703775052" stroke-miterlimit="10"/></g><g transform="translate(-78,-134) scale(1,1)"><g><path fill="none" stroke="none"/><text fill="#000000" stroke="none" font-family="Arial" font-size="13px" font-style="normal" font-weight="normal" text-decoration="none" x="374.5" y="463.7099609375">«include»</text></g></g><g transform="translate(-78,-134) scale(1,1)"><path fill="#C0C0C0" stroke="none" d="M 351 368 C 351 358.6111584 391.5182256 351 441.5 351 C 491.4817744 351 532 358.6111584 532 368 C 532 377.3888416 491.4817744 385 441.5 385 C 391.5182256 385 351 377.3888416 351 368 Z" opacity="0.2"/></g><g transform="translate(-78,-134) scale(1,1)"><path fill="#ffffff" stroke="none" d="M 344 361 C 344 351.6111584 384.5182256 344 434.5 344 C 484.4817744 344 525 351.6111584 525 361 C 525 370.3888416 484.4817744 378 434.5 378 C 384.5182256 378 344 370.3888416 344 361 Z"/></g><g transform="translate(-78,-134) scale(1,1)"><path fill="none" stroke="#000000" d="M 344 361 C 344 351.6111584 384.5182256 344 434.5 344 C 484.4817744 344 525 351.6111584 525 361 C 525 370.3888416 484.4817744 378 434.5 378 C 384.5182256 378 344 370.3888416 344 361 Z" stroke-miterlimit="10"/></g><g transform="translate(-78,-134) scale(1,1)"><g><path fill="none" stroke="none"/><text fill="#000000" stroke="none" font-family="Arial" font-size="13px" font-style="normal" font-weight="bold" text-decoration="none" x="374.91455078125" y="366.2099609375">Import IIIF Manifest</text></g></g><g transform="translate(-78,-134) scale(1,1)"><path fill="none" stroke="#000000" d="M 222 341 L 343 353" stroke-miterlimit="10"/></g><g transform="translate(-78,-134) scale(1,1)"><path fill="none" stroke="#000000" d="M 434 379 L 433 407" stroke-miterlimit="10" stroke-dasharray="3"/></g><g transform="translate(-78,-134) scale(1,1)"><path fill="none" stroke="#000000" d="M 429.1558857396898 396.6935561150473 L 433 407 L 437.56955709984743 396.99404437791003" stroke-miterlimit="10"/></g><g transform="translate(-78,-134) scale(1,1)"><path fill="#C0C0C0" stroke="none" d="M 407 264 C 407 254.6111584 441.9217856 247 485 247 C 528.0782144 247 563 254.6111584 563 264 C 563 273.3888416 528.0782144 281 485 281 C 441.9217856 281 407 273.3888416 407 264 Z" opacity="0.2"/></g><g transform="translate(-78,-134) scale(1,1)"><path fill="#ffffff" stroke="none" d="M 400 257 C 400 247.6111584 434.9217856 240 478 240 C 521.0782144 240 556 247.6111584 556 257 C 556 266.3888416 521.0782144 274 478 274 C 434.9217856 274 400 266.3888416 400 257 Z"/></g><g transform="translate(-78,-134) scale(1,1)"><path fill="none" stroke="#000000" d="M 400 257 C 400 247.6111584 434.9217856 240 478 240 C 521.0782144 240 556 247.6111584 556 257 C 556 266.3888416 521.0782144 274 478 274 C 434.9217856 274 400 266.3888416 400 257 Z" stroke-miterlimit="10"/></g><g transform="translate(-78,-134) scale(1,1)"><g><path fill="none" stroke="none"/><text fill="#000000" stroke="none" font-family="Arial" font-size="13px" font-style="normal" font-weight="bold" text-decoration="none" x="427.450439453125" y="262.2099609375">Import Ontology</text></g></g><g transform="translate(-78,-134) scale(1,1)"><path fill="none" stroke="#000000" d="M 222 319 L 403 275" stroke-miterlimit="10"/></g><g transform="translate(-78,-134) scale(1,1)"><path fill="#C0C0C0" stroke="none" d="M 399 208 C 399 198.6111584 438.3989376 191 487 191 C 535.6010624 191 575 198.6111584 575 208 C 575 217.3888416 535.6010624 225 487 225 C 438.3989376 225 399 217.3888416 399 208 Z" opacity="0.2"/></g><g transform="translate(-78,-134) scale(1,1)"><path fill="#ffffff" stroke="none" d="M 392 201 C 392 191.6111584 431.3989376 184 480 184 C 528.6010624 184 568 191.6111584 568 201 C 568 210.3888416 528.6010624 218 480 218 C 431.3989376 218 392 210.3888416 392 201 Z"/></g><g transform="translate(-78,-134) scale(1,1)"><path fill="none" stroke="#000000" d="M 392 201 C 392 191.6111584 431.3989376 184 480 184 C 528.6010624 184 568 191.6111584 568 201 C 568 210.3888416 528.6010624 218 480 218 C 431.3989376 218 392 210.3888416 392 201 Z" stroke-miterlimit="10"/></g><g transform="translate(-78,-134) scale(1,1)"><g><path fill="none" stroke="none"/><text fill="#000000" stroke="none" font-family="Arial" font-size="13px" font-style="normal" font-weight="bold" text-decoration="none" x="422.2236328125" y="206.2099609375">Populate Ontology</text></g></g><g transform="translate(-78,-134) scale(1,1)"><path fill="none" stroke="#000000" d="M 222 307 L 436 219" stroke-miterlimit="10"/></g><g transform="translate(-78,-134) scale(1,1)"><path fill="#C0C0C0" stroke="none" d="M 167 168 C 167 158.6111584 207.9659408 151 258.5 151 C 309.0340592 151 350 158.6111584 350 168 C 350 177.3888416 309.0340592 185 258.5 185 C 207.9659408 185 167 177.3888416 167 168 Z" opacity="0.2"/></g><g transform="translate(-78,-134) scale(1,1)"><path fill="#ffffff" stroke="none" d="M 160 161 C 160 151.6111584 200.9659408 144 251.5 144 C 302.0340592 144 343 151.6111584 343 161 C 343 170.3888416 302.0340592 178 251.5 178 C 200.9659408 178 160 170.3888416 160 161 Z"/></g><g transform="translate(-78,-134) scale(1,1)"><path fill="none" stroke="#000000" d="M 160 161 C 160 151.6111584 200.9659408 144 251.5 144 C 302.0340592 144 343 151.6111584 343 161 C 343 170.3888416 302.0340592 178 251.5 178 C 200.9659408 178 160 170.3888416 160 161 Z" stroke-miterlimit="10"/></g><g transform="translate(-78,-134) scale(1,1)"><g><path fill="none" stroke="none"/><text fill="#000000" stroke="none" font-family="Arial" font-size="13px" font-style="normal" font-weight="bold" text-decoration="none" x="191.197265625" y="166.2099609375">Export Annotations</text></g></g><g transform="translate(-78,-134) scale(1,1)"><path fill="none" stroke="#000000" d="M 176 295 L 241 179" stroke-miterlimit="10"/></g></g></svg>